<?xml version="1.0" encoding="utf-8"?>
<!-- Generator: Adobe Illustrator 21.0.0, SVG Export Plug-In . SVG Version: 6.00 Build 0)  -->
<svg version="1.1" id="Layer_2" xmlns="http://www.w3.org/2000/svg" xmlns:xlink="http://www.w3.org/1999/xlink" x="0px" y="0px"
	 width="145px" height="145px" viewBox="0 0 145 145" style="enable-background:new 0 0 145 145;" xml:space="preserve">
<style type="text/css">
	.st0{fill:#F2F2F2;}
	.st1{fill:#D8D8D8;}
	.st2{fill:#1F1F66;}
	.st3{fill:#4E66D0;}
	.st4{fill:#180293;}
	.st5{fill:#21B8FF;}
	
		.st6{fill:none;stroke:#FFFFFF;stroke-width:2;stroke-linecap:round;stroke-linejoin:round;stroke-miterlimit:10;stroke-dasharray:7,6,2,5,0;}
	.st7{fill:none;stroke:#FFFFFF;stroke-width:2;stroke-linecap:round;stroke-linejoin:round;}
	
		.st8{fill:none;stroke:#FFFFFF;stroke-width:2;stroke-linecap:round;stroke-linejoin:round;stroke-dasharray:1.159,4.0565,4.636,1.159;}
	
		.st9{fill:none;stroke:#FFCE00;stroke-width:2;stroke-linecap:round;stroke-linejoin:round;stroke-miterlimit:10;stroke-dasharray:7,6,12;}
	.st10{fill:none;stroke:#FFCE00;stroke-width:2;stroke-linecap:round;stroke-linejoin:round;stroke-miterlimit:10;}
	.st11{fill:#FFCE00;}
</style>
<g>
	<circle class="st0" cx="73" cy="73" r="65"/>
	<ellipse class="st1" cx="73" cy="123" rx="25" ry="10"/>
</g>
<g>
	<g>
		<polygon class="st2" points="75,118.4 107.1,118.4 118.5,97.5 85.7,97.5 		"/>
		<path class="st3" d="M74.4,118.1L14.5,82.5c-0.9-0.6-1.3-1.8-0.7-2.7l8.6-17.5c0.6-0.9,1.8-1.3,2.7-0.7L85,97.2
			c0.9,0.6,1.3,1.8,0.7,2.7l-8.6,17.5C76.6,118.4,75.3,118.7,74.4,118.1z"/>
		<path class="st4" d="M82.8,97.3L23.5,62.3c-0.5-0.3-0.3-1,0.3-1l32.5,0.4c0.9,0,1.9,0.3,2.7,0.7l59.4,35.2c0.5,0.3,0.3,1-0.3,1
			l-31.7-0.2C85.2,98.3,83.9,98,82.8,97.3z"/>
		<g>
			<path class="st5" d="M118.2,98.6c-8.7,0.1-17.4,0.2-26.1,0.2l-3.3,0l-1.6,0c-0.5,0-1.1,0-1.7-0.1c-1.1-0.1-2.3-0.6-3.2-1.2
				l-2.8-1.7l-11.3-6.6L45.8,75.9l-11.2-6.8l-11.1-6.9l11.4,6.4l11.3,6.5l22.5,13.2l11.2,6.7l2.8,1.7c0.9,0.6,1.8,0.9,2.9,1.1
				c1,0.1,2.1,0.1,3.2,0.1l3.3,0.1C100.8,98.1,109.5,98.3,118.2,98.6z"/>
		</g>
	</g>
	<g>
		<polygon class="st2" points="86.7,95.2 119.7,95.2 130.2,75.2 97.4,74.3 		"/>
		<path class="st3" d="M86.1,94.9L26.2,59.3c-0.9-0.6-1.3-1.8-0.7-2.7L34.1,39c0.6-0.9,1.8-1.3,2.7-0.7L96.7,74
			c0.9,0.6,1.3,1.8,0.7,2.7l-8.6,17.5C88.2,95.2,87,95.5,86.1,94.9z"/>
		<path class="st4" d="M94.5,74.2L35.2,39.1c-0.5-0.3-0.3-1,0.3-1L68,38.5c0.9,0,1.9,0.3,2.7,0.7l59.4,35.2c0.5,0.3,0.3,1-0.3,1
			l-31.7-0.2C96.9,75.2,95.6,74.8,94.5,74.2z"/>
		<g>
			<path class="st5" d="M129.9,75.4c-8.7,0.1-17.4,0.2-26.1,0.2l-3.3,0l-1.6,0c-0.5,0-1.1,0-1.7-0.1c-1.1-0.1-2.3-0.6-3.2-1.2
				l-2.8-1.7l-11.3-6.6L57.5,52.7L46.3,46l-11.1-6.9l11.4,6.4l11.3,6.5l22.5,13.2l11.2,6.7l2.8,1.7c0.9,0.6,1.8,0.9,2.9,1.1
				c1,0.1,2.1,0.1,3.2,0.1l3.3,0.1C112.5,75,121.2,75.1,129.9,75.4z"/>
		</g>
	</g>
	<g>
		<polygon class="st2" points="99,72.3 132,72.3 142.5,52.3 109.7,51.4 		"/>
		<path class="st3" d="M98.4,72L38.5,36.4c-0.9-0.6-1.3-1.8-0.7-2.7l8.6-17.5c0.6-0.9,1.8-1.3,2.7-0.7L109,51.1
			c0.9,0.6,1.3,1.8,0.7,2.7l-8.6,17.5C100.5,72.3,99.3,72.6,98.4,72z"/>
		<path class="st3" d="M106.8,51.3L47.5,16.2c-0.5-0.3-0.3-1,0.3-1l32.5,0.4c0.9,0,1.9,0.3,2.7,0.7l59.4,35.2c0.5,0.3,0.3,1-0.3,1
			l-31.7-0.2C109.1,52.3,107.9,51.9,106.8,51.3z"/>
		<g>
			<path class="st5" d="M142.1,52.5c-8.7,0.1-17.4,0.2-26.1,0.2l-3.3,0l-1.6,0c-0.5,0-1.1,0-1.7-0.1c-1.1-0.1-2.3-0.6-3.2-1.2
				l-2.8-1.7l-11.3-6.6L69.8,29.8l-11.2-6.8l-11.1-6.9l11.4,6.4l11.3,6.5l22.5,13.2l11.2,6.7l2.8,1.7c0.9,0.6,1.8,0.9,2.9,1.1
				c1,0.1,2.1,0.1,3.2,0.1l3.3,0.1C124.7,52.1,133.4,52.2,142.1,52.5z"/>
		</g>
	</g>
	<line class="st6" x1="48.6" y1="24.7" x2="77.6" y2="42.4"/>
	<g>
		<g>
			<line class="st7" x1="25.5" y1="70.4" x2="28.4" y2="72.3"/>
			<line class="st8" x1="32.4" y1="74.7" x2="41.3" y2="80.1"/>
			<line class="st7" x1="41.8" y1="80.4" x2="44.8" y2="82.3"/>
		</g>
	</g>
	<line class="st9" x1="36.2" y1="47.9" x2="65.1" y2="65.7"/>
	<line class="st10" x1="33.7" y1="51.7" x2="47.9" y2="60.5"/>
	<path class="st11" d="M102.8,45.4L63.5,22.2c-0.3-0.2-0.2-0.7,0.2-0.7l21.5,0.2c0.6,0,1.2,0.2,1.8,0.5l39.4,23.3
		c0.3,0.2,0.2,0.7-0.2,0.7l-21-0.1C104.3,46.1,103.5,45.8,102.8,45.4z"/>
	<path class="st4" d="M72,27.2l30.8,18.2c0.7,0.4,1.6,0.7,2.4,0.7l9.4,0.1l2.2-3.6l-44-17.1L72,27.2z"/>
	<path class="st3" d="M100.4,41.9L72.9,25.7c-0.2-0.1-0.1-0.5,0.1-0.5l15.1,0.2c0.4,0,0.9,0.1,1.2,0.3L116.9,42
		c0.2,0.1,0.1,0.5-0.1,0.5l-14.7-0.1C101.5,42.4,100.9,42.2,100.4,41.9z"/>
</g>
<g>
	<path class="st5" d="M122.5,66.5c-3.2,3.7-6.5,7.2-9.8,10.7l-5.1,5.2l-5.1,5.1l-1-2.4c2.3,0,4.7,0,7-0.1c1.2,0,2.3,0,3.5,0l3.5,0
		l0,0c0.8,0,1.4,0.7,1.4,1.5c0,0.4-0.1,0.7-0.4,1c-1.6,1.7-3.2,3.4-4.9,5.1c-1.6,1.7-3.3,3.4-4.9,5.1c-1.7,1.7-3.3,3.3-5.1,5
		c-1.7,1.6-3.4,3.3-5.2,4.8c1.4-1.9,2.8-3.8,4.3-5.7c1.4-1.9,3-3.7,4.4-5.5c1.5-1.8,3-3.6,4.6-5.4c1.5-1.8,3.1-3.6,4.6-5.4l1.1,2.4
		l-3.5,0c-1.2,0-2.3,0-3.5,0c-2.3,0-4.7,0-7-0.1l-0.1,0c-0.8,0-1.4-0.7-1.4-1.4c0-0.4,0.2-0.8,0.5-1l5.4-4.9l5.4-4.8
		C115,72.6,118.7,69.5,122.5,66.5z"/>
</g>
</svg>
