<?xml version="1.0" encoding="utf-8"?>
<!-- Generator: Adobe Illustrator 21.0.0, SVG Export Plug-In . SVG Version: 6.00 Build 0)  -->
<svg version="1.1" id="Layer_2" xmlns="http://www.w3.org/2000/svg" xmlns:xlink="http://www.w3.org/1999/xlink" x="0px" y="0px"
	 width="145px" height="145px" viewBox="0 0 145 145" style="enable-background:new 0 0 145 145;" xml:space="preserve">
<style type="text/css">
	.st0{fill:#F2F2F2;}
	.st1{fill:#D8D8D8;}
	.st2{fill:#4E66D0;}
	.st3{fill:#1F1F66;}
	.st4{fill:#21B8FF;}
	.st5{opacity:0.5;}
	.st6{fill:#FFFFFF;}
	.st7{fill:none;stroke:#21B8FF;stroke-width:4;stroke-linecap:round;stroke-linejoin:round;stroke-miterlimit:10;}
	.st8{fill:none;stroke:#FFCE00;stroke-width:4;stroke-linecap:round;stroke-linejoin:round;stroke-miterlimit:10;}
	.st9{fill:#180293;}
	.st10{fill:none;stroke:#4E66D0;stroke-width:4;stroke-linecap:round;stroke-linejoin:round;stroke-miterlimit:10;}
	.st11{fill:none;stroke:#FFFFFF;stroke-width:4;stroke-miterlimit:10;}
	.st12{fill:none;stroke:#FFCE00;stroke-width:3.963;stroke-linecap:round;stroke-linejoin:round;stroke-miterlimit:10;}
</style>
<g>
	<circle class="st0" cx="73" cy="73" r="65"/>
	<ellipse class="st1" cx="73" cy="123" rx="25" ry="10"/>
</g>
<g>
	<ellipse class="st2" cx="73" cy="122.3" rx="7.7" ry="3.6"/>
	<path class="st3" d="M99.3,116.2l-76-43.9c-2-1.2-4.7-7.8-3.6-9.8L54.5,9.9c1.2-2,3.8-2.7,5.8-1.6l79.3,40.8
		c2,1.2,2.7,8.8,1.6,10.8l-30.8,53.4C108.1,117.1,103.1,118.5,99.3,116.2z"/>
	<path class="st4" d="M104.8,105.3l-79.7-46c-1.9-1.1-2.6-3.6-1.5-5.5L52.9,3.1c1.1-1.9,3.6-2.6,5.5-1.5l79.7,46
		c1.9,1.1,2.6,3.6,1.5,5.5l-29.2,50.6C109.2,105.7,106.7,106.4,104.8,105.3z"/>
	<path class="st2" d="M133.1,56.5l-18-10.4c-2.8-1.6-6.1-2.3-9.4-2c-0.9,0.1-1.8,0.1-2.7,0.1c-11.7,0-21.7-7-26.2-17
		c-1.3-2.9-3.5-5.3-6.3-6.9l-17.2-9.9c-1.9-1.1-4.3-0.4-5.4,1.4l-28.3,49c-1.1,1.9-0.4,4.3,1.4,5.4l19.2,11.1c2.8,1.6,6,2.5,9.3,2.5
		h0c11.5,0,21.5,6.3,26.7,15.7c1.4,2.6,3.6,4.7,6.2,6.1l18.5,10.7c1.9,1.1,4.3,0.4,5.4-1.4l28.3-49C135.6,60,135,57.6,133.1,56.5z"
		/>
	<g class="st5">
		<path class="st6" d="M115.1,46.1c-2-1-4.3-1.7-6.5-1.8c-1.1-0.1-2.2,0-3.4,0.1c-1.2,0.1-2.3,0.2-3.5,0.1
			c-4.7-0.1-9.3-1.5-13.3-3.8c-4-2.4-7.5-5.7-9.9-9.7c-0.6-1-1.2-2-1.6-3.1c-0.5-1.1-0.9-2.1-1.6-3c-1.2-1.9-2.9-3.5-4.8-4.8
			c2,1.1,3.8,2.6,5.2,4.5c0.7,0.9,1.2,2,1.7,3c0.5,1,1.1,2,1.7,2.9c2.5,3.8,5.8,7,9.8,9.2c3.9,2.3,8.3,3.6,12.9,3.9
			c1.1,0.1,2.3,0,3.4,0c1.1,0,2.3-0.1,3.5,0C110.9,44.1,113.2,44.8,115.1,46.1z"/>
	</g>
	<g>
		<line class="st7" x1="77.8" y1="51.2" x2="48.4" y2="34.2"/>
		<line class="st8" x1="77.8" y1="51.2" x2="68" y2="45.5"/>
		<line class="st7" x1="69.3" y1="66.9" x2="39.9" y2="49.9"/>
		<line class="st8" x1="69.3" y1="66.9" x2="52" y2="56.9"/>
		<path class="st9" d="M63.7,51.6c-1.2-2.5-0.2-6.1,2.4-8c2.5-1.9,5.5-1.4,6.7,1.1c1.2,2.5,0.2,6.1-2.4,8S64.9,54.2,63.7,51.6z"/>
		<ellipse transform="matrix(0.5 -0.866 0.866 0.5 -5.3804 82.8851)" class="st4" cx="69.1" cy="46.1" rx="4.8" ry="4.8"/>
		<path class="st9" d="M45.4,61.5c-1.2-2.5-0.2-6.1,2.4-8c2.5-1.9,5.5-1.4,6.7,1.1c1.2,2.5,0.2,6.1-2.4,8
			C49.7,64.5,46.6,64,45.4,61.5z"/>
		<ellipse transform="matrix(0.5 -0.866 0.866 0.5 -23.0022 71.9884)" class="st4" cx="50.8" cy="55.9" rx="4.8" ry="4.8"/>
		<g>
			<path class="st0" d="M48.4,51.7c0.7-0.4,1.5-0.6,2.3-0.6c0.8,0,1.7,0.3,2.4,0.7c0.7,0.4,1.3,1,1.8,1.7c0.4,0.7,0.7,1.5,0.6,2.3
				c-0.9-1.3-1.8-2.3-3-3C51.4,52.1,50,51.7,48.4,51.7z"/>
		</g>
		<g>
			<path class="st0" d="M66.8,41.9c0.7-0.4,1.5-0.6,2.3-0.6c0.8,0,1.7,0.3,2.4,0.7c0.7,0.4,1.3,1,1.8,1.7c0.4,0.7,0.7,1.5,0.6,2.3
				c-0.9-1.3-1.8-2.3-3-3C69.7,42.3,68.4,42,66.8,41.9z"/>
		</g>
	</g>
	<path class="st7" d="M59.3,88.8c-12.9,16.1,24.6,21.1,16,34.5"/>
	<line class="st10" x1="64.5" y1="106.1" x2="71.9" y2="111.7"/>
	<path class="st8" d="M64.3,91.8c-8,11.6,7.1,17.3,6,31.5"/>
	<path class="st11" d="M98.5,86C91,86,85,80,85,72.5S91,59,98.5,59"/>
	<path class="st7" d="M98.5,59c7.5,0,13.5,6,13.5,13.5"/>
	<path class="st12" d="M111.9,72.7c0,7.4-6,13.4-13.4,13.4"/>
	<g>
		<path class="st4" d="M49.5,79.8c0.7,0,1.4-0.1,2-0.1l2,0.1c0.7,0.1,1.4,0.2,2,0.3c0.7,0.1,1.3,0.3,2,0.4c2.7,0.6,5.2,1.7,7.6,3.1
			c2.4,1.4,4.5,3.1,6.4,5.2l1.3,1.6l1.2,1.6l1.1,1.7c0.3,0.6,0.6,1.2,0.9,1.8c-0.4-0.6-0.8-1.1-1.2-1.7l-1.2-1.6l-1.3-1.5l-1.4-1.4
			c-1.9-1.8-4-3.5-6.3-4.8C62.4,83,60,82,57.4,81.2C54.9,80.4,52.2,80,49.5,79.8z"/>
	</g>
	<path class="st9" d="M106.4,77.4c-4.8,8.3-12.2,13-16.6,10.5s-4-11.3,0.8-19.6C95.4,60,111.2,69,106.4,77.4z"/>
	<circle class="st6" cx="98.5" cy="72.5" r="9.1"/>
	<circle class="st2" cx="94.5" cy="69.5" r="1.5"/>
</g>
</svg>
