<?xml version="1.0" encoding="UTF-8"?>
<svg xmlns="http://www.w3.org/2000/svg" viewBox="0 0 3710 3710">
  <defs>
    <style>
      .cls-1 {
        opacity: .68;
      }

      .cls-2, .cls-3, .cls-4, .cls-5, .cls-6, .cls-7, .cls-8, .cls-9, .cls-10, .cls-11, .cls-12, .cls-13, .cls-14, .cls-15, .cls-16, .cls-17, .cls-18 {
        stroke-width: 0px;
      }

      .cls-2, .cls-3, .cls-5, .cls-6, .cls-9, .cls-10, .cls-14, .cls-15 {
        mix-blend-mode: multiply;
      }

      .cls-2, .cls-5 {
        fill: #49258d;
      }

      .cls-2, .cls-6 {
        opacity: .57;
      }

      .cls-3, .cls-11 {
        fill: #fff;
      }

      .cls-3, .cls-14 {
        opacity: .39;
      }

      .cls-4 {
        opacity: .15;
      }

      .cls-4, .cls-6, .cls-7, .cls-8, .cls-10, .cls-12, .cls-14, .cls-18 {
        fill: #567ee3;
      }

      .cls-4, .cls-7 {
        mix-blend-mode: screen;
      }

      .cls-5, .cls-9 {
        opacity: .31;
      }

      .cls-19 {
        isolation: isolate;
      }

      .cls-7 {
        opacity: .43;
      }

      .cls-8 {
        opacity: .51;
      }

      .cls-9, .cls-13, .cls-15, .cls-16 {
        fill: #86a2eb;
      }

      .cls-10 {
        opacity: .7;
      }

      .cls-20 {
        opacity: .4;
      }

      .cls-13 {
        mix-blend-mode: color-dodge;
      }

      .cls-13, .cls-15 {
        opacity: .13;
      }

      .cls-21 {
        opacity: .67;
      }

      .cls-17 {
        fill: #3659b3;
      }

      .cls-18 {
        opacity: .82;
      }
    </style>
  </defs>
  <g class="cls-19">
    <g id="Illustration">
      <g class="cls-20">
        <path class="cls-17" d="M1969.98,745.33c-267.76-418.78-1249.66,789.71-1539.83,715.36-175.88-45.07,338.01,1185.78,1268.44,1405.53,930.43,219.76,1660.7-1237.35,1310.65-1693.69-350.05-456.34-771.88-9.01-1039.26-427.2Z"/>
      </g>
      <g>
        <path class="cls-12" d="M2627.92,2511.38c9.15-3.05,85.91-1066.86,85.91-1081.1s-31.52-59.98-37.62-65.06c-6.1-5.08-1658.63,99.03-1678.96,105.13-4.97,1.49-97.6,1016.63-95.56,1020.69,2.03,4.07,52.86,37.62,67.1,38.63,6.85.49,378.55-3.02,763.41-7.14l19.99,109.65c-74.5,4.34-408.84,24-421.48,27.61-14.23,4.07-34.06,75.74-34.06,75.74,0,0,611.5,1.02,628.78,0,17.28-1.02,352.77-30.5,352.77-30.5,0,0,6.1-67.61-5.08-73.71-6.81-3.72-193.24-2.9-337.9-1.7l-19.89-109.1c349.45-3.88,708.54-7.82,712.59-9.16Z"/>
        <polygon class="cls-10" points="994.1 2421.76 1065.97 1537.73 2587.34 1445.61 2495.45 2409.91 994.1 2421.76"/>
        <path class="cls-6" d="M1853.25,2559.16l16.27,88.03,73.2,1.43-7.49-18.98-19.89-109.1c349.45-3.88,708.54-7.82,712.59-9.16,9.15-3.05,85.9-1066.86,85.9-1081.1s-31.52-59.98-37.62-65.06c-15.77.13-109.29,1110.58-109.29,1110.58l-1665.24,15.25c2.03,4.07,52.86,37.62,67.1,38.63,6.85.49,378.55-3.02,763.41-7.14l5.13,28.12,115.93,8.5Z"/>
        <path class="cls-6" d="M1296.64,2735.55s611.5,1.02,628.78,0c17.28-1.02,352.77-30.5,352.77-30.5,0,0,6.1-67.61-5.08-73.71-96.57-2.64-371.07,53.88-371.07,53.88,0,0-490.01-30.5-571.35-25.42-14.23,4.07-34.06,75.74-34.06,75.74Z"/>
        <polygon class="cls-6" points="994.1 2421.76 974.88 2421.76 1052 1518.62 2592.08 1427.48 2585.7 1462.79 1075.21 1547.29 1004.83 2421.76 994.1 2421.76"/>
        <path class="cls-6" d="M1925.43,2735.55c-43.7.33-36.25-48.47,24.53-59.79,60.78-11.32,264.19-7.82,292.65-7.82s35.58,37.11,35.58,37.11l-352.77,30.5Z"/>
        <path class="cls-6" d="M1732.19,2522.54l183.14-2,3.75,20.55s-28.21,14-30.25,21.12c-2.03,7.12-17.64,94.05-20.8,76.97-3.15-17.08-19.87-97.31-19.87-97.31l-110.85,8.79-5.13-28.12Z"/>
        <path class="cls-6" d="M2627.92,2511.38s-63.95-.77-60.64-39.88c3.32-39.11,45.58-520.44,48-546.89,2.42-26.45,31.5,348.92,28.9,404.79-2.6,55.87-16.27,181.98-16.27,181.98Z"/>
        <path class="cls-6" d="M2670.71,1387.35c-3.5,24.73-3.16,681.71,12.05,475.34,15.2-206.38,27.76-419.5,23.45-440.12-4.31-20.62-30.53-70.33-35.49-35.22Z"/>
        <path class="cls-7" d="M2495.96,2425.73c-11.36,76.19,76.63-475.11,83.75-541.19,7.12-66.08,21.99-599.84,3.34-387.22-18.64,212.62-87.09,928.41-87.09,928.41Z"/>
        <path class="cls-7" d="M990.67,1523.49c6.58-53.14,49.28,94.27,36.06,211.19-13.22,116.91-123.94,729.85-106.45,536.81,17.49-193.05,70.4-747.99,70.4-747.99Z"/>
        <path class="cls-7" d="M1690.61,2416.26c-141.32,1.12,237.87,48.35,366.98,36.15,129.11-12.2,329.36-41.65,240.92-40.95-88.43.7-607.91,4.8-607.91,4.8Z"/>
        <path class="cls-7" d="M1752.18,2632.2l2.96,13.89s269.41,5.59,304.48,2.54c35.07-3.05-157.58,36.6-157.58,36.6l-505.77-26.51,355.91-26.51Z"/>
        <path class="cls-4" d="M1363.23,2418.84c-156.52,1.23,248.06-496.09,614.04-687.22,365.99-191.13,552.88,45.69,551.01,199.45-1.86,153.77-32.84,478.83-32.84,478.83l-1132.22,8.93Z"/>
        <path class="cls-4" d="M1043.2,1945.05c-27.65,199.33,1241.58-464.99,1043.1-451.04-198.48,13.95-1011.09,53.27-1011.09,53.27l-32.01,397.76Z"/>
        <path class="cls-7" d="M1659.54,2416.51c-40.11-1.71,184.56,37.94,245.56,21.68,61-16.27,77.27-24.22,77.27-24.22l-322.83,2.55Z"/>
        <path class="cls-7" d="M1461.94,2662.15s189-9.46,212.38-9.46,215.52,30.93,215.52,30.93l-427.91-21.47Z"/>
        <g class="cls-21">
          <polygon class="cls-8" points="2427.12 1883.93 1854.04 1903.21 1861.88 1788.3 2437.21 1758.98 2427.12 1883.93"/>
          <polygon class="cls-8" points="2414.85 2035.84 1844.5 2042.98 1852.3 1928.77 2424.87 1911.72 2414.85 2035.84"/>
          <path class="cls-12" d="M1944.49,1843.84c5.76-4.64,9.73-11.49,10.26-19.01.93-13.29-9.2-23.55-22.58-22.9-13.33.65-24.84,11.87-25.75,25.06-.59,8.57,3.44,15.87,9.97,19.8-17.44,11.51-23.17,38.79-23.17,38.79l66.48-2.4s5.97-30.94-15.19-39.35Z"/>
          <path class="cls-12" d="M1872.43,1982.75c36.08-41.85,64.62-43.55,106.86-2.3,0,0-14.48,37.09-59.91,36.91-44.82-.18-46.95-34.61-46.95-34.61ZM1917.26,2004.15c32.34,4.49,38.02-40.65,9.42-40.42-28.36.23-44.74,35.52-9.42,40.42Z"/>
          <path class="cls-12" d="M2028.22,1858.08c16.88,1.26,28.33-40.51,2.76-38.31-25.38,2.19-30.15,36.26-2.76,38.31Z"/>
          <path class="cls-12" d="M2147.78,1814.56c-17.4-1.17-29.13,41.07-2.9,38.97,26.43-2.11,31.51-37.05,2.9-38.97Z"/>
          <path class="cls-12" d="M2085.94,1855.63c28.65,2.56,16.52-37.15,2.81-38.41-13.65-1.26-31.23,35.87-2.81,38.41Z"/>
        </g>
        <g class="cls-1">
          <polygon class="cls-18" points="1227.64 1862.84 1216.48 2208.6 1765.54 2206.39 1795.2 1847.43 1227.64 1862.84"/>
          <polygon class="cls-12" points="1224.19 1958.41 1787.64 1945.34 1795.2 1847.43 1227.64 1862.84 1224.19 1958.41"/>
          <path class="cls-12" d="M1704.33,1931.14c32.62,2.05,55.92,0,63.03,0,7.12,0,16.9-58.81,10.58-64.33-6.33-5.53-61.65-4.75-68.85,0-7.2,4.75-4.76,64.33-4.76,64.33Z"/>
          <path class="cls-8" d="M1609.58,1918.81c-1.35,3.47-4.85,12.63-2.14,13.25,2.71.62,67.29,5.54,67.96,0,.67-5.54,5.39-14.02,1.84-13.25-3.54.77-67.66,0-67.66,0Z"/>
          <path class="cls-8" d="M1763.61,1911.9c-.87-.48-5.19-5.26-10.46-11.28,7.15-4.95,12.43-9.68,11-12.08-3.73-6.26-7.24-17.41-8.77-15.07-.63.97-7.61,6.06-15.56,11.7-5.72-6.7-10.21-12.02-10.21-12.02-4.01,2.03-14.57,7.44-13.81,9.49.27.73,3.97,6.39,8.84,13.17-5.43,3.77-9.39,6.49-9.39,6.49,1.78,4.31,6.53,15.68,8.59,15.2.7-.16,6-2.84,12.51-6.52,5.94,7.01,11.41,12.16,13.6,10.58,5.66-4.1,16.18-8.26,13.66-9.66Z"/>
          <polygon class="cls-14" points="1326.65 2014.41 1324.09 2029.41 1648.97 2029.67 1652.16 2010.95 1326.65 2014.41"/>
          <polygon class="cls-14" points="1318.32 2082.61 1327.68 2097.78 1638.63 2097.27 1640.95 2083.64 1318.32 2082.61"/>
          <polygon class="cls-14" points="1315.56 2108.04 1321.62 2120.27 1605.83 2123.71 1609.33 2108.82 1315.56 2108.04"/>
        </g>
      </g>
      <path class="cls-2" d="M1225.21,1855.34c-3.29,73.52-42.57,106.87,0,118.07,42.57,11.2,926.92,2.6,942.17-42.33,15.25-44.93,39.71-425.01,36.63-446.94-3.08-21.92-30.27-8.33-30.4-31.9-.13-23.57,1.69-59.29,1.69-59.29l-151.72,9.32-798.38,453.06Z"/>
      <path class="cls-16" d="M1149.61,1349.75c-18.74,2.83-22.49,455.93-22.49,475.52s32.57,44.01,43.41,43.82c10.82-.18,584.47,7.43,928.49-24.86,0,0,41.11-523.68,32.37-546.58-8.77-22.99-434.91-335.73-452.99-340.79-18.12-5.08-54.44-16.8-73.29-2-18.85,14.8-386.41,385.05-395.73,387.94-9.33,2.89-59.77,6.95-59.77,6.95Z"/>
      <path class="cls-9" d="M1149.61,1349.75c-18.93-8.25,136.35,139.19,218.69,189.52,33.42,20.42,98.64,46.45,122.2,54.16,11.46,3.75,23.99,2.16,34.13-4.38,0,0-168.25-223.15-172.83-224.68-4.57-1.52-202.19-14.63-202.19-14.63Z"/>
      <path class="cls-9" d="M1170.53,1869.08c10.82-.19,584.47,7.43,928.49-24.86,0,0,41.11-523.68,32.37-546.58-8.77-22.99-434.91-335.73-452.99-340.79-11.12-3.12-29.1-8.72-45.69-9.17-.9.06-1.75.06-2.54-.01-.14,0-.27,0-.41,0-22.2-1.4,460.11,348.07,460.11,348.07-.3.62-.58,1.57-.85,2.69-14.02-3.35-34.18-3.06-69.86,4.41-12.79,2.68,31.01,43.61,64.59,73.06-4.29,143.68-1.5,427.64-1.5,427.64,0,0-933.92,5.69-952.26,32.51,8.15,16.7,31.66,33.17,40.55,33.02Z"/>
      <path class="cls-9" d="M1149.61,1349.75c15.25-1.33,368.91,241.34,375.01,239.3,6.1-2.03,459.52-264.88,475.78-277.82,16.27-12.94,56.77-14.3,56.77-14.3,0,0-423.27-279.74-444.61-284.82-21.35-5.08-403.18,330.69-403.18,330.69l-59.77,6.95Z"/>
      <path class="cls-9" d="M1199.38,1824.92c-48.05,2.87,387.14,47.24,587.02,37.65,199.88-9.59,364.48-59.55,295.84-59.01-68.64.54-713,11.21-882.86,21.36Z"/>
      <path class="cls-9" d="M2083.74,1375.92c1.04-14.59,31.19,8.4,37.64,32.79,6.45,24.39-39.36,396.87-39.66,323.68-.3-73.19,2.02-356.47,2.02-356.47Z"/>
      <path class="cls-13" d="M1565.7,1565.89c-23.65,13.5,483.79-181.46,480.45-204.56-3.34-23.1-35.18-56.71-40.46-53.4-5.29,3.31-439.99,257.96-439.99,257.96Z"/>
      <path class="cls-15" d="M1171.47,1360.68c-1.14-6.98,199.9-42.82,353.16-46.63,153.26-3.81,240.56,134.95,240.56,134.95l-240.56,140.04-353.16-228.36Z"/>
      <path class="cls-15" d="M1638.49,1027.36c-51.89-22.18-70.91,206.12,35.07,280.34,105.98,74.21,365.18-22.93,365.18-22.93l-400.25-257.4Z"/>
      <path class="cls-9" d="M2089.87,1295.75c11.18,5.59,30.72-10.22,25.13-14.92-82.57-69.46-335.84-254.92-335.84-254.92,0,0,113.79,126.23,191.3,182.82,77.51,56.58,119.41,87.03,119.41,87.03Z"/>
      <path class="cls-9" d="M1183.63,1368.55c-12.16-7.86,411.74,137.14,422.12,140.19,10.38,3.05,231.06-100.05,231.06-100.05l-312.18,180.36s4.7,1.66,0,0c-4.7-1.66-27.22,23.77-72.94-28.72-45.73-52.49-180.47-136.32-180.47-136.32l-87.58-55.46Z"/>
      <path class="cls-13" d="M1952.62,1340.99s-234.26,206.59-372.3,215.63l372.3-215.63Z"/>
      <path class="cls-5" d="M1488.53,1094.88c178.68-44.39,295.63-37.33,358.6-.47,62.97,36.85,132.4,71,137.27,159.17,4.87,88.17-2.45,92.47-2.45,92.47l-53.47,34.8-439.94-285.96Z"/>
      <path class="cls-12" d="M1226.5,1120.63s253.31-43.98,467.48-38.76c214.17,5.22,221.28,16.34,234.5,19.17,13.22,2.82,33.04,40.95,34.57,50.1,1.52,9.15-6.1,211.46-6.1,211.46-173.46,112.74-428,248.06-428,248.06,0,0-180.96-111.32-281.26-183.17,0,0-28.81-255-21.18-306.84Z"/>
      <path class="cls-12" d="M1956.94,1362.59s7.63-202.31,6.1-211.46c-1.52-9.15-21.35-47.27-34.57-50.1-1.13-.24-2.23-.55-3.4-.9-16.34,11.25,3.4,280.71,3.4,280.71,0,0-334.47,186.6-359.26,186.6s-321.54-139.96-321.54-139.96c100.3,71.85,281.26,183.17,281.26,183.17,0,0,254.54-135.32,428-248.06Z"/>
      <path class="cls-12" d="M1247.08,1136.16c15.51-14.65,296.6-48.8,308.04-48.8s-114.37,13.72-203.58,55.66c-89.21,41.94-91.1,254.57-100.05,225.22-8.95-29.36-31.05-206.92-4.41-232.08Z"/>
      <path class="cls-12" d="M1661.11,1087.36c45.75,5.82,176.89,42.42,202.82,69.87,25.92,27.45,44.22,213.33,51.85,178.34,7.62-34.99-2.8-228.68-12.2-235.44-9.4-6.76-242.47-12.77-242.47-12.77Z"/>
      <polygon class="cls-11" points="1328.65 1222.81 1328.65 1253.58 1809.85 1229.19 1809.85 1190.78 1328.65 1222.81"/>
      <polygon class="cls-11" points="1327.21 1293.37 1327.21 1324.14 1808.41 1299.75 1808.41 1261.34 1327.21 1293.37"/>
      <polygon class="cls-11" points="1334.41 1361.05 1334.41 1391.82 1815.61 1367.43 1815.61 1329.02 1334.41 1361.05"/>
      <polygon class="cls-11" points="1337.29 1431.61 1337.29 1462.38 1818.49 1437.99 1818.49 1399.58 1337.29 1431.61"/>
      <polygon class="cls-3" points="1340.64 1414.31 1348.82 1438.87 1789.76 1423.54 1790.72 1392.96 1340.64 1414.31"/>
      <polygon class="cls-3" points="1357.69 1502.01 1357.04 1486.12 1687.03 1478.27 1687.03 1500.13 1373.15 1512.08 1357.69 1502.01"/>
      <polygon class="cls-9" points="1014.53 2308.8 1004.83 2418.85 2495.45 2407 2506.6 2293.61 1014.53 2308.8"/>
      <polygon class="cls-16" points="1115.18 2328.39 1107.04 2393.45 1544.56 2385.44 1547.22 2327.65 1115.18 2328.39"/>
      <polygon class="cls-16" points="2223.78 2323.05 2280.71 2323.05 2267.49 2379.47 2214.63 2379.47 2223.78 2323.05"/>
      <polygon class="cls-16" points="2317.3 2323.05 2317.3 2379.47 2418.97 2379.47 2426.08 2323.05 2317.3 2323.05"/>
    </g>
  </g>
</svg>