<?xml version="1.0" encoding="UTF-8"?>
<svg xmlns="http://www.w3.org/2000/svg" viewBox="0 0 3710 3710">
  <defs>
    <style>
      .cls-1 {
        opacity: .68;
      }

      .cls-2, .cls-3, .cls-4, .cls-5, .cls-6, .cls-7, .cls-8, .cls-9, .cls-10, .cls-11, .cls-12, .cls-13, .cls-14, .cls-15, .cls-16, .cls-17, .cls-18 {
        stroke-width: 0px;
      }

      .cls-2, .cls-3, .cls-6, .cls-7, .cls-10, .cls-14, .cls-15 {
        mix-blend-mode: multiply;
      }

      .cls-2, .cls-6 {
        fill: #49258d;
      }

      .cls-2, .cls-7 {
        opacity: .57;
      }

      .cls-3, .cls-11 {
        fill: #fff;
      }

      .cls-3, .cls-14 {
        opacity: .39;
      }

      .cls-4, .cls-19 {
        fill: #0873ff;
      }

      .cls-5 {
        opacity: .15;
      }

      .cls-5, .cls-7, .cls-8, .cls-9, .cls-12, .cls-14, .cls-17 {
        fill: #567ee3;
      }

      .cls-5, .cls-8 {
        mix-blend-mode: screen;
      }

      .cls-6, .cls-10 {
        opacity: .31;
      }

      .cls-20 {
        isolation: isolate;
      }

      .cls-8 {
        opacity: .43;
      }

      .cls-9 {
        opacity: .51;
      }

      .cls-10, .cls-13, .cls-15 {
        fill: #86a2eb;
      }

      .cls-21 {
        opacity: .4;
      }

      .cls-13 {
        mix-blend-mode: color-dodge;
      }

      .cls-13, .cls-15 {
        opacity: .13;
      }

      .cls-22 {
        opacity: .67;
      }

      .cls-19 {
        stroke: #084aa3;
        stroke-width: 9.1px;
      }

      .cls-16 {
        fill: #3659b3;
      }

      .cls-17 {
        opacity: .82;
      }

      .cls-18 {
        fill: #bed5e5;
      }
    </style>
  </defs>
  <g class="cls-20">
    <g id="Illustration">
      <g class="cls-21">
        <path class="cls-16" d="M2078.57,762.65c-308.27-482.15-1438.76,909.21-1772.85,823.61-202.49-51.89,389.16,1365.22,1460.39,1618.22,1071.23,253.01,1912-1424.58,1508.99-1949.98-403.02-525.4-888.69-10.38-1196.53-491.85Z"/>
      </g>
      <g>
        <path class="cls-19" d="M2961.82,2764.74c13.02-4.34,122.26-1518.38,122.26-1538.64s-44.85-85.37-53.53-92.6c-8.68-7.23-2360.59,140.94-2389.53,149.63-7.07,2.12-138.9,1446.89-136.01,1452.67,2.89,5.79,75.24,53.53,95.49,54.98,9.75.7,538.76-4.3,1086.5-10.16l28.45,156.06c-106.03,6.18-581.87,34.16-599.86,39.3-20.26,5.79-48.47,107.79-48.47,107.79,0,0,870.3,1.45,894.9,0,24.6-1.45,502.07-43.41,502.07-43.41,0,0,8.68-96.22-7.23-104.9-9.7-5.29-275.02-4.13-480.9-2.42l-28.31-155.27c497.35-5.52,1008.41-11.12,1014.17-13.04Z"/>
        <polygon class="cls-19" points="636.53 2637.18 738.83 1379.03 2904.07 1247.91 2773.28 2620.33 636.53 2637.18"/>
        <path class="cls-19" d="M1859.29,2832.74l23.15,125.29,104.18,2.03-10.66-27.02-28.31-155.27c497.35-5.52,1008.41-11.12,1014.17-13.04,13.02-4.34,122.26-1518.38,122.26-1538.64s-44.85-85.37-53.53-92.6c-22.44.19-155.54,1580.6-155.54,1580.6l-2370,21.7c2.89,5.79,75.24,53.54,95.49,54.98,9.75.7,538.76-4.3,1086.5-10.16l7.3,40.03,164.99,12.09Z"/>
        <path class="cls-7" d="M1067.12,3083.78s870.3,1.45,894.9,0c24.6-1.45,502.07-43.41,502.07-43.41,0,0,8.68-96.22-7.23-104.9-137.43-3.75-528.11,76.68-528.11,76.68,0,0-697.4-43.41-813.15-36.17-20.26,5.79-48.47,107.79-48.47,107.79Z"/>
        <polygon class="cls-7" points="636.53 2637.18 609.18 2637.18 718.94 1351.83 2910.82 1222.11 2901.74 1272.37 751.97 1392.63 651.81 2637.18 636.53 2637.18"/>
        <path class="cls-7" d="M1962.02,3083.78c-62.2.47-51.59-68.98,34.92-85.09,86.5-16.11,376-11.12,416.51-11.12s50.64,52.81,50.64,52.81l-502.07,43.41Z"/>
        <path class="cls-7" d="M1687,2780.62l260.65-2.84,5.33,29.25s-40.15,19.93-43.05,30.06c-2.89,10.13-25.11,133.85-29.6,109.55-4.49-24.3-28.28-138.49-28.28-138.49l-157.76,12.5-7.3-40.03Z"/>
        <path class="cls-7" d="M2961.82,2764.74s-91.02-1.09-86.3-56.75c4.72-55.66,64.87-740.69,68.31-778.34,3.44-37.65,44.83,496.59,41.14,576.1-3.7,79.51-23.15,258.99-23.15,258.99Z"/>
        <path class="cls-8" d="M1715.46,2936.68l4.21,19.77s383.42,7.96,433.34,3.62c49.92-4.34-224.27,52.09-224.27,52.09l-719.83-37.74,506.54-37.74Z"/>
        <path class="cls-5" d="M1161.89,2633.04c-222.76,1.76,353.04-706.05,873.92-978.06,520.88-272.01,786.86,65.02,784.21,283.87-2.65,218.85-46.74,681.48-46.74,681.48l-1611.39,12.71Z"/>
        <path class="cls-5" d="M706.41,1958.73c-39.35,283.68,1767.04-661.78,1484.56-641.92-282.48,19.86-1439,75.82-1439,75.82l-45.56,566.1Z"/>
        <path class="cls-8" d="M1302.37,2979.32s268.99-13.46,302.27-13.46,306.74,44.03,306.74,44.03l-609.01-30.56Z"/>
        <g class="cls-22">
          <polygon class="cls-9" points="2676.03 1871.74 1860.42 1899.18 1871.58 1735.64 2690.4 1693.91 2676.03 1871.74"/>
          <polygon class="cls-9" points="2658.57 2087.94 1846.85 2098.1 1857.94 1935.56 2672.84 1911.29 2658.57 2087.94"/>
          <path class="cls-12" d="M1989.15,1814.68c8.2-6.6,13.84-16.36,14.6-27.06,1.33-18.92-13.09-33.51-32.14-32.59-18.97.92-35.35,16.89-36.65,35.67-.84,12.2,4.89,22.58,14.19,28.17-24.82,16.39-32.98,55.21-32.98,55.21l94.61-3.41s8.5-44.03-21.63-56Z"/>
          <path class="cls-12" d="M1886.59,2012.38c51.34-59.56,91.97-61.99,152.09-3.28,0,0-20.61,52.79-85.26,52.53-63.79-.26-66.82-49.26-66.82-49.26ZM1950.4,2042.84c46.03,6.39,54.11-57.85,13.41-57.52-40.36.33-63.67,50.55-13.41,57.52Z"/>
          <path class="cls-12" d="M2108.32,1834.95c24.03,1.79,40.32-57.66,3.92-54.52-36.12,3.11-42.91,51.61-3.92,54.52Z"/>
          <path class="cls-12" d="M2278.48,1773.01c-24.77-1.66-41.46,58.44-4.13,55.47,37.61-3,44.84-52.73,4.13-55.47Z"/>
          <path class="cls-12" d="M2190.47,1831.47c40.77,3.65,23.51-52.87,4-54.67-19.43-1.8-44.44,51.05-4,54.67Z"/>
        </g>
        <g class="cls-1">
          <polygon class="cls-17" points="968.92 1841.72 953.04 2333.81 1734.47 2330.67 1776.67 1819.8 968.92 1841.72"/>
          <polygon class="cls-12" points="964 1977.75 1765.91 1959.14 1776.67 1819.8 968.92 1841.72 964 1977.75"/>
          <path class="cls-12" d="M1647.35,1938.93c46.42,2.91,79.58.01,89.71,0,10.13-.01,24.06-83.69,15.05-91.56-9-7.86-87.74-6.75-97.99,0-10.25,6.76-6.77,91.56-6.77,91.56Z"/>
          <path class="cls-9" d="M1512.5,1921.38c-1.92,4.93-6.9,17.97-3.04,18.85,3.85.88,95.77,7.89,96.72,0,.95-7.89,7.67-19.95,2.62-18.85-5.05,1.1-96.29,0-96.29,0Z"/>
          <path class="cls-9" d="M1731.71,1911.55c-1.24-.69-7.39-7.49-14.89-16.05,10.18-7.05,17.69-13.78,15.65-17.19-5.31-8.91-10.31-24.78-12.48-21.45-.9,1.38-10.83,8.63-22.14,16.66-8.14-9.53-14.52-17.11-14.52-17.11-5.71,2.89-20.74,10.59-19.65,13.51.39,1.04,5.64,9.09,12.58,18.74-7.72,5.36-13.37,9.24-13.37,9.24,2.54,6.14,9.29,22.32,12.23,21.63,1-.23,8.53-4.04,17.81-9.27,8.45,9.98,16.24,17.3,19.35,15.05,8.06-5.84,23.03-11.75,19.44-13.75Z"/>
          <polygon class="cls-14" points="1109.83 2057.44 1106.19 2078.79 1568.56 2079.16 1573.1 2052.51 1109.83 2057.44"/>
          <polygon class="cls-14" points="1097.97 2154.5 1111.3 2176.09 1553.84 2175.37 1557.15 2155.98 1097.97 2154.5"/>
          <polygon class="cls-14" points="1094.04 2190.7 1102.67 2208.1 1507.17 2212.99 1512.14 2191.81 1094.04 2190.7"/>
        </g>
        <path class="cls-2" d="M965.46,1831.05c-4.68,104.63-60.58,152.1,0,168.04,60.58,15.94,1319.22,3.7,1340.92-60.24,21.7-63.94,56.52-604.89,52.13-636.09-4.39-31.2-43.08-11.86-43.26-45.4-.19-33.55,2.41-84.38,2.41-84.38l-215.93,13.26-1136.27,644.81Z"/>
        <path class="cls-19" d="M857.86,1111.48c-26.67,4.03-32,648.89-32,676.76s46.36,62.63,61.78,62.37c15.4-.26,831.83,10.58,1321.44-35.38,0,0,58.51-745.32,46.07-777.9-12.49-32.71-618.97-477.82-644.7-485.03-25.79-7.23-77.48-23.91-104.31-2.84-26.83,21.07-549.94,548.02-563.21,552.13-13.28,4.11-85.07,9.89-85.07,9.89Z"/>
        <path class="cls-10" d="M857.86,1111.48c-26.94-11.74,194.05,198.1,311.25,269.72,47.56,29.07,140.39,66.11,173.91,77.09,16.31,5.34,34.15,3.08,48.57-6.23,0,0-239.46-317.59-245.97-319.76-6.51-2.17-287.76-20.82-287.76-20.82Z"/>
        <path class="cls-10" d="M887.63,1850.61c15.4-.26,831.83,10.58,1321.44-35.38,0,0,58.51-745.32,46.07-777.9-12.49-32.71-618.97-477.81-644.7-485.03-15.83-4.44-41.42-12.41-65.03-13.05-1.28.09-2.49.09-3.62-.02-.19,0-.38,0-.58.01-31.6-1.99,654.83,495.38,654.83,495.38-.42.88-.82,2.23-1.21,3.83-19.95-4.77-48.64-4.35-99.43,6.28-18.2,3.81,44.13,62.07,91.93,103.99-6.11,204.49-2.14,608.63-2.14,608.63,0,0-1329.17,8.09-1355.28,46.27,11.6,23.77,45.05,47.21,57.71,46.99Z"/>
        <path class="cls-10" d="M857.86,1111.48c21.7-1.89,525.05,343.47,533.73,340.58,8.68-2.89,653.99-376.98,677.14-395.39,23.15-18.41,80.8-20.35,80.8-20.35,0,0-602.4-398.13-632.78-405.36-30.38-7.23-573.82,470.64-573.82,470.64l-85.07,9.89Z"/>
        <path class="cls-10" d="M928.7,1787.76c-68.38,4.09,550.98,67.23,835.45,53.58,284.47-13.64,518.74-84.76,421.05-83.99-97.68.77-1014.76,15.96-1256.51,30.41Z"/>
        <path class="cls-10" d="M2187.34,1148.72c1.48-20.77,44.39,11.95,53.57,46.67,9.18,34.71-56.02,564.83-56.45,460.66-.43-104.17,2.88-507.33,2.88-507.33Z"/>
        <path class="cls-13" d="M1450.05,1419.09c-33.65,19.21,688.54-258.26,683.79-291.14-4.75-32.88-50.07-80.71-57.59-76-7.52,4.71-626.2,367.14-626.2,367.14Z"/>
        <path class="cls-15" d="M888.97,1127.04c-1.62-9.94,284.5-60.94,502.62-66.37,218.12-5.43,342.37,192.07,342.37,192.07l-342.37,199.31-502.62-325.01Z"/>
        <path class="cls-15" d="M1553.64,652.65c-73.86-31.57-100.92,293.36,49.92,398.98,150.84,105.62,519.73-32.64,519.73-32.64l-569.64-366.34Z"/>
        <path class="cls-10" d="M2196.05,1034.63c15.92,7.96,43.72-14.55,35.76-21.24-117.51-98.85-477.97-362.81-477.97-362.81,0,0,161.94,179.66,272.26,260.19,110.31,80.53,169.95,123.86,169.95,123.86Z"/>
        <path class="cls-10" d="M906.27,1138.23c-17.3-11.19,586,195.18,600.77,199.52,14.77,4.34,328.84-142.39,328.84-142.39l-444.29,256.7s6.69,2.37,0,0c-6.69-2.37-38.74,33.83-103.81-40.87-65.08-74.71-256.85-194.01-256.85-194.01l-124.65-78.94Z"/>
        <path class="cls-13" d="M2000.73,1099.02s-333.4,294.03-529.87,306.89l529.87-306.89Z"/>
        <path class="cls-6" d="M1340.22,748.75c254.3-63.18,420.75-53.13,510.36-.68,89.61,52.45,188.43,101.04,195.36,226.54,6.93,125.49-3.48,131.6-3.48,131.6l-76.11,49.52-626.14-406.99Z"/>
        <path class="cls-4" d="M967.29,785.4s360.52-62.59,665.33-55.17c304.81,7.42,314.92,23.26,333.74,27.28,18.82,4.02,47.03,58.27,49.2,71.3,2.17,13.02-8.68,300.95-8.68,300.95-246.87,160.46-609.14,353.04-609.14,353.04,0,0-257.55-158.43-400.3-260.69,0,0-41-362.91-30.15-436.71Z"/>
        <path class="cls-19" d="M2006.87,1129.76s10.85-287.93,8.68-300.95c-2.17-13.02-30.38-67.28-49.2-71.3-1.61-.34-3.17-.78-4.85-1.29-23.26,16.01,4.85,399.51,4.85,399.51,0,0-476.02,265.57-511.3,265.57s-457.62-199.2-457.62-199.2c142.75,102.26,400.3,260.69,400.3,260.69,0,0,362.26-192.58,609.14-353.04Z"/>
        <path class="cls-12" d="M996.59,807.5c22.07-20.85,422.13-69.45,438.41-69.45s-162.77,19.53-289.74,79.22c-126.96,59.68-129.66,362.31-142.39,320.53-12.74-41.78-44.18-294.49-6.28-330.3Z"/>
        <path class="cls-12" d="M1585.83,738.05c65.11,8.28,251.76,60.37,288.65,99.44,36.9,39.07,62.94,303.61,73.79,253.82,10.85-49.8-3.99-325.47-17.36-335.08-13.37-9.61-345.08-18.17-345.08-18.17Z"/>
        <polygon class="cls-11" points="1124.96 1227.98 1124.96 1271.77 1809.83 1237.07 1809.83 1182.4 1124.96 1227.98"/>
        <g>
          <polygon class="cls-11" points="1112.67 930.81 1112.67 974.61 1797.53 939.9 1797.53 885.24 1112.67 930.81"/>
          <polygon class="cls-11" points="1110.62 1031.24 1110.62 1075.03 1795.48 1040.32 1795.48 985.66 1110.62 1031.24"/>
          <polygon class="cls-11" points="1120.86 1127.56 1120.86 1171.35 1805.73 1136.64 1805.73 1081.98 1120.86 1127.56"/>
          <polygon class="cls-3" points="1129.74 1203.36 1141.38 1238.32 1768.93 1216.51 1770.3 1172.97 1129.74 1203.36"/>
        </g>
        <polygon class="cls-3" points="1154 1328.19 1153.08 1305.57 1622.73 1294.39 1622.73 1325.5 1176 1342.51 1154 1328.19"/>
        <polygon class="cls-10" points="665.61 2476.43 651.81 2633.04 2773.28 2616.19 2789.15 2454.8 665.61 2476.43"/>
        <polygon class="cls-18" points="808.85 2504.3 797.28 2596.9 1419.96 2585.5 1423.74 2503.25 808.85 2504.3"/>
        <polygon class="cls-18" points="2386.63 2496.7 2467.66 2496.7 2448.85 2577.01 2373.61 2577.01 2386.63 2496.7"/>
        <polygon class="cls-18" points="2519.75 2496.7 2519.75 2577.01 2664.43 2577.01 2674.56 2496.7 2519.75 2496.7"/>
      </g>
    </g>
  </g>
</svg>