<?xml version="1.0" encoding="UTF-8"?>
<svg xmlns="http://www.w3.org/2000/svg" xmlns:xlink="http://www.w3.org/1999/xlink" viewBox="0 0 3710 3710">
  <defs>
    <style>
      .cls-1 {
        fill: url(#linear-gradient);
      }

      .cls-1, .cls-2, .cls-3, .cls-4, .cls-5, .cls-6, .cls-7, .cls-8, .cls-9, .cls-10, .cls-11, .cls-12, .cls-13, .cls-14, .cls-15, .cls-16 {
        stroke-width: 0px;
      }

      .cls-2, .cls-14 {
        fill: #0873ff;
      }

      .cls-3 {
        fill: #002fa3;
      }

      .cls-17 {
        isolation: isolate;
      }

      .cls-4 {
        fill: #ff0200;
      }

      .cls-5 {
        fill: #3659b3;
        opacity: .4;
      }

      .cls-6 {
        fill: #108c62;
      }

      .cls-7 {
        mix-blend-mode: overlay;
        opacity: .2;
      }

      .cls-7, .cls-8, .cls-10, .cls-12 {
        fill: #fff;
      }

      .cls-9 {
        fill: url(#linear-gradient-2);
      }

      .cls-10 {
        fill-rule: evenodd;
      }

      .cls-11 {
        fill: url(#linear-gradient-3);
      }

      .cls-12 {
        mix-blend-mode: soft-light;
      }

      .cls-13 {
        fill: #bfc5f2;
      }

      .cls-14 {
        opacity: .5;
      }

      .cls-15 {
        fill: url(#linear-gradient-4);
      }

      .cls-16 {
        fill: #364459;
      }
    </style>
    <linearGradient id="linear-gradient" x1="4955.27" y1="1756.48" x2="4938.56" y2="1496.11" gradientTransform="translate(-2974.92 1509.26) rotate(-8.67)" gradientUnits="userSpaceOnUse">
      <stop offset="0" stop-color="#ffc72b"/>
      <stop offset="1" stop-color="#ff8c2b"/>
    </linearGradient>
    <linearGradient id="linear-gradient-2" x1="5009.79" y1="1335.1" x2="4806.38" y2="1710.75" gradientTransform="translate(-2974.92 1509.26) rotate(-8.67)" gradientUnits="userSpaceOnUse">
      <stop offset="0" stop-color="#526075"/>
      <stop offset="1" stop-color="#3b4554"/>
    </linearGradient>
    <linearGradient id="linear-gradient-3" x1="4518.78" y1="793.15" x2="5145.62" y2="1225.46" gradientTransform="translate(-2974.92 1509.26) rotate(-8.67)" gradientUnits="userSpaceOnUse">
      <stop offset="0" stop-color="#fff"/>
      <stop offset="1" stop-color="#ced2f7"/>
    </linearGradient>
    <linearGradient id="linear-gradient-4" x1="5009.71" y1="863.48" x2="4801.58" y2="1247.85" xlink:href="#linear-gradient-2"/>
  </defs>
  <g class="cls-17">
    <g id="Illustration">
      <path class="cls-5" d="M3121.38,2360.38c-281.09,657.02-1023.08,939.22-1604.44,891.1-158.73-13.14-478.11-39.57-727.49-275.4-478.9-452.88-405.15-1399.54,53.3-1956.88,59.04-71.77,691.84-1031.27,1104.51-546.21,290.66,341.64,793.49,268.09,833.28,300.9,50.27,41.45,161.14,139.95,261.06,296.21,234.78,367.16,255.42,879.71,79.77,1290.28Z"/>
      <path class="cls-2" d="M379.35,600.16c-8.77-18.7,16.15-37.61,35.99-27.43,201.47,103.28,702.95,434.03,753.75,1185.96,63.74,943.4,355.18,1231.15,673.25,1377.1,0,0-398.02-16.3-707.19-305.44C376.07,2120.43,535.21,932.63,379.35,600.16Z"/>
      <path class="cls-12" d="M570.59,858.73c43.01,97.46,83.75,195.72,120.23,295.36,37.08,99.42,70.63,199.97,100.47,301.47,29.39,101.62,56.56,203.81,78.64,307.12,22.62,103.19,40.08,207.39,57.19,312.07,17.77,104.51,34.99,209.91,64.73,313.45,29.57,103.35,73.95,204.54,138.68,294.52,16.17,22.42,32.88,44.64,50.99,65.71,17.65,21.39,36.43,42.04,55.65,62.37,38.69,40.49,80.68,78.63,125.9,113.71,90.68,69.95,194.31,127.11,304.4,170.78,11.59,4.6,25.81-.13,31.76-10.55,5.85-10.24,1.55-22.16-9.58-26.94l-.08-.03c-26.39-11.3-52.58-22.86-78.02-35.44-12.85-6.1-25.33-12.71-37.96-19.1-12.31-6.82-24.95-13.2-36.98-20.35-48.71-27.87-94.92-58.82-138.08-92.74-86.63-67.38-161.39-147.06-223.41-232.91-30.44-43.28-57.04-88.64-79.43-135.84-22.35-47.22-40.48-96.24-55.35-146.36-29.77-100.31-47.81-204.46-66.45-308.8-18.8-104.34-38.53-209.03-63.2-312.6-12.17-51.81-25.43-103.37-39.75-154.64-6.99-25.68-14.55-51.21-22.06-76.74-7.79-25.46-15.75-50.87-23.95-76.2-33-101.28-69.59-201.45-109.82-300.28-40.78-98.63-84.62-196.12-132.78-291.75-1.38-2.73-5.1-3.84-8.31-2.47-3.12,1.33-4.61,4.52-3.43,7.2Z"/>
      <path class="cls-2" d="M1396.13,2629.63c-10.55,29.62-47.91,38.84-71.3,17.83-129.06-115.9-464.31-476.59-434.79-1074.67,24.93-505.05-9.55-781.28-33.89-905.59-5.15-26.29,26.26-43.87,46.01-25.77,217.93,199.61,876.08,915.08,493.97,1988.2Z"/>
      <path class="cls-12" d="M1353.56,2630.11c-.65.43-1.34.81-2.09,1.12-6.25,2.63-13.44-.3-16.07-6.55-2.98-7.08-298.06-716.3-295.12-1420.11.03-6.77,5.55-12.25,12.33-12.22,6.78.03,12.25,5.55,12.22,12.33-2.92,698.68,290.23,1403.45,293.19,1410.48,2.32,5.5.32,11.74-4.46,14.95Z"/>
      <path class="cls-2" d="M1162.76,867.39c-2.5,405.14-9.37,1802.57,11.35,2297.44,2.19,52.43,38.76,93.98,83.62,95.03,221.86,5.16,1035.03,14.48,1397.45-8.77,75.49-4.84,134.48-77.33,134.72-165.78,1.16-425.22-.16-1621.13-47.9-2168.27-5.72-65.56-50.54-117.16-106.65-122.87-241.9-24.64-1059.29-81.46-1372.26-52.97-56.44,5.14-99.91,59.95-100.32,126.2Z"/>
      <path class="cls-8" d="M1254.92,984.41c-7.03,327.08-28.35,1415.16-10.37,1817.13,2.63,58.75,42.94,105.69,93.18,108.37,206.85,11.05,912.34,31.66,1215.01-1.29,54.5-5.93,96.55-58.21,98.54-122.21,10.36-333.74,39.26-1347.03,21.84-1744.5-2.78-63.41-45.56-114.58-99.68-119.45-223.91-20.13-973.91-64.75-1231.22-44.45-48.3,3.81-86.08,49.77-87.3,106.39Z"/>
      <path class="cls-14" d="M1612.02,802.39h0c.19,12.43,8.62,22.55,19.24,23.04,52.42,2.42,200.09,9.29,266.09,12.77,13.01.69,23.01-13.14,20.32-28.06l-.46-2.55c-1.83-10.18-9.19-17.76-18.05-18.57-44.64-4.11-179.32-15.34-268.36-10.28-10.7.61-18.96,11.11-18.77,23.64Z"/>
      <path class="cls-5" d="M2218.63,2103.66l-130.58-11.12c-30.26,280.96-448.12,624.68-622.71,756.95l-14.6,75.47,1043.52,31.45,27.37-155.4c-124.85-129.13-335.28-395.31-303.01-697.35Z"/>
      <path class="cls-1" d="M2213.64,2252.02c6.43,42.83-37.29,281.13-37.29,281.13,0,0-107.73-205.92-113.85-247.96-6.08-41.93,22.19-83.48,63.52-92.97,41.79-9.62,81.2,17.08,87.62,59.8Z"/>
      <polygon class="cls-9" points="2220.61 2227.37 2049.44 2265.44 2049.04 2164.35 2191.2 2130.79 2220.61 2227.37"/>
      <g>
        <polygon class="cls-2" points="1979.75 2037.3 1878.08 2193.81 2014.27 2384.02 2058.09 2374.92 2008.23 2030.03 1979.75 2037.3"/>
        <polygon class="cls-2" points="2221.46 1975.58 2373.84 2076.03 2291.1 2326.51 2244.52 2336.19 2191.35 1983.26 2221.46 1975.58"/>
      </g>
      <path class="cls-11" d="M2217.05,1510.55l-178.31,90.2-179.31,22.87c-1.98,366.01,175.41,589.55,175.41,589.55l91.18-20.95,93.44-21.49s112.2-307.3-2.4-660.18Z"/>
      <path class="cls-2" d="M1992.84,1289.74c-125.7,156.64-133.41,333.89-133.41,333.89,0,0,82.55,14.55,180.34-15.85,100.42-31.18,177.28-97.22,177.28-97.22,0,0-60.92-162.44-224.21-220.81Z"/>
      <path class="cls-13" d="M2164.83,1714.93c8.84,58.41-31.51,119.1-89.3,135.11-56.93,15.76-109.16-17.94-117.35-74.9-8.17-56.75,30.25-116.37,86.58-133.61,57.17-17.49,111.29,15.16,120.07,73.4Z"/>
      <path class="cls-8" d="M2163.23,1704.18c8.81,58.38-31.5,119.13-89.27,135.2-56.92,15.84-109.09-17.78-117.29-74.69-8.16-56.71,30.24-116.38,86.54-133.68,57.16-17.55,111.23,15,120.02,73.17Z"/>
      <path class="cls-16" d="M2145.27,1709.44c7.27,48.36-26.06,98.7-73.94,112.16-47.28,13.28-90.74-14.55-97.6-61.92-6.83-47.19,25.19-96.83,72.04-111.11,47.47-14.47,92.25,12.64,99.5,60.87Z"/>
      <path class="cls-15" d="M2047.09,1657.46c-45.38,13.79-76.76,60.74-72.49,106.58,8.84,44.63,50.94,70.44,96.74,57.56,46.35-13.02,78.96-60.64,74.38-107.58-9.29-45.41-52.66-70.5-98.63-56.56Z"/>
      <path class="cls-7" d="M2045.77,1648.57c-46.85,14.28-78.87,63.91-72.04,111.11,2.52,17.43,10.01,32.16,20.77,43.2l133.09-132.85c-18.9-21.96-49.72-31.24-81.82-21.45Z"/>
      <g>
        <path class="cls-13" d="M2241.47,2090.33l-247.97,59.44c1.93,3.38,3.82,6.62,5.67,9.72l239.52-57.07c.92-3.88,1.86-7.92,2.78-12.09Z"/>
        <path class="cls-13" d="M1960.6,2087.21c1.61,3.35,3.2,6.58,4.79,9.81l288.33-71.46c.62-3.92,1.26-7.84,1.87-11.9l-294.98,73.54Z"/>
      </g>
      <path class="cls-4" d="M1558.73,1269.09l-160.36-3.01c-20.18-.71-36.48-16.72-37.56-36.88l-5.87-192.32c-.92-21.18,15.51-39.09,36.69-40,.95-.04,1.9-.05,2.85-.02l156.67,8.4c19.45.08,35.49,15.27,36.61,34.69l10.72,188.15c1.41,21.19-14.62,39.51-35.81,40.92-1.31.09-2.62.11-3.93.06Z"/>
      <path class="cls-10" d="M1505.46,1046.65c2.88.48,5.39,2.24,6.83,4.78,1.52,2.56,1.82,5.66.82,8.47l-11.2,30.32c-1.5,4.39-6.27,6.74-10.66,5.24-.28-.09-.55-.2-.81-.33-4.65-2.25-6.86-7.64-5.12-12.5l6.83-18.71-19.53-2.25c-11.93-1.05-23.27,5.4-28.48,16.19l-30.25,60.1,72.67,3.48c5.25.6,9.01,5.34,8.41,10.59-.54,4.7-4.43,8.3-9.16,8.47l-87.01-2.8c-3.22-.25-6.06-2.24-7.38-5.19-1.5-3.18-1.5-6.86,0-10.04l37.36-75.12c8.1-16.77,25.88-26.61,44.39-24.59l32.3,3.89ZM1554.56,1116.66c3.1.22,5.88,1.99,7.38,4.71,1.51,2.69,1.51,5.98,0,8.67l-37.43,69.05c-8.54,16.95-25.39,28.14-44.32,29.44l-32.3.96c-2.81-.04-5.4-1.54-6.83-3.96-1.57-2.69-1.87-5.94-.82-8.88l11.2-33.26c1.36-4.75,6.31-7.5,11.06-6.14.14.04.27.08.41.13,4.71,2.12,6.95,7.53,5.12,12.36l-6.83,19.87h20.01c12.11-.7,22.89-7.88,28.21-18.78l30.32-56.75-72.67-3.82c-5.12-.57-8.87-5.1-8.47-10.24-.08-4.94,3.86-9.01,8.8-9.09.14,0,.28,0,.42,0l86.73,5.74Z"/>
      <path class="cls-3" d="M1829.49,1271.15l-152.46-2.66c-20.42-.92-36.74-17.31-37.59-37.73l-8.73-190.4c-.56-23.34,17.89-39.34,41.36-37.45l159.24,8.59c18.9.79,33.64,16.66,33.05,35.56l6.99,183.2c.89,21.71-15.98,40.03-37.68,40.92-1.39.06-2.78.04-4.17-.05Z"/>
      <path class="cls-6" d="M2073.48,1275.69l-122.76-2.17c-20.18-.93-36.26-17.2-36.96-37.38l-6.43-177.68c-.69-21.83,16.44-40.09,38.27-40.79,1.78-.06,3.56,0,5.33.19,39.06,2.52,84.89,4.05,123.74,6.57,20.05,1.26,34.94,20.54,36.05,40.6l6.57,168.95c.9,22.21-16.38,40.94-38.58,41.84-1.74.07-3.49.03-5.22-.13Z"/>
      <g id="Fill-1-Copy-8">
        <path class="cls-10" d="M1831.86,1090.95c-3.28,4.61-12.37,5.17-27.95-6.99l-2.24-1.68,30.04-36.89-42.83,30.53c-1.37-.16-2.75-.16-4.12,0-5.82-.11-11.35,2.57-14.88,7.2-.56-.7-1.12-1.33-1.54-1.96l2.59-17.47c-14.32,6.99-14.95,12.72-13.97,18.52-14.74-7.76-32.77-7.48-36.89,16.91l-.7.91c-11.1-2.37-22.01,4.71-24.37,15.81,0,.02,0,.04-.01.05l-4.33-45,62.88-23.13,31.02,16.77,11.81-6.99-42.55-23.62-75.18,27.95,10.83,109.21,64.56,68.05,63.72-55.34-10.76-6.43-28.86,24.11c-2.24-22.43-14.6-46.88-16.35-59.95,7.76,4.2,16.57,6.07,25.36,5.38,5.8,1.96,13.97,16.91,16.21,18.52,1.08.86,2.48,1.22,3.84.98.84,0,13.97-4.96,14.39-5.17,1.72-.83,2.92-2.45,3.21-4.33-3.31-4.82-4.26-10.88-2.59-16.49-15.73-8.95-27.08-23.99-31.37-41.57,7.83-1.4,15.65,7.9,29.28,9.22,18.24,1.82,21.45-20.54,14.32-33.26,1,5.52.09,11.21-2.59,16.14Z"/>
      </g>
      <g id="Page-1">
        <path class="cls-8" d="M2077.32,1163.2c-.84-.16-1.71-.02-2.45.42-4.47,8.52-8.59,12.02-15.79,11.18-5.85-.51-10.93-4.27-13.14-9.71,7.42-13.79,11.15-29.27,10.83-44.93-1.12-30.53-16.77-47.79-43.67-51.01-26.9-3.21-41.57,10.62-40.73,41.29,1.03,16.8,5.8,33.15,13.97,47.86-1.92,5.13-7.29,8.09-12.65,6.99-6.99-.77-11.6-5.24-16.63-14.88-.72-.58-1.59-.95-2.52-1.05-3.14,0-5.03,2.17-4.89,8.04.76,15.27,12.71,27.61,27.95,28.86,4.44.53,8.94.1,13.21-1.26-5.8,17.19-12.72,20.12-22.22,16.49-2.12,1.25-3.29,3.64-3,6.08,0,6.01,5.8,12.3,17.12,13.56,16.28,1.75,28.65-8.38,32.77-32.35.56-.56.98-1.05,1.82-.91.84.14,1.33.63,1.89,1.33,5.73,25.08,18.87,38.01,34.94,39.76,11.32,1.26,16.56-3.84,16.35-9.78.07-2.75-1.21-5.36-3.42-6.99-9.29,1.61-16.42-2.93-23.41-21.45,4.17,2.23,8.72,3.66,13.42,4.19,11.67,2.46,23.12-5,25.58-16.66.42-1.99.56-4.02.41-6.04-.35-5.73-2.45-8.66-5.73-9.01Z"/>
      </g>
      <path class="cls-8" d="M2095.89,807.47l1.21,30.83c.5,12.64-9.34,23.3-21.98,23.81-.86.03-1.73.02-2.59-.04l-168.81-10.7c-11.59-.9-20.68-10.31-21.17-21.93l-1.92-45.96,215.26,23.99Z"/>
      <g id="Mockup-">
        <g id="CreateFromHome-_-DesktopPromo-03" data-name="CreateFromHome- -DesktopPromo-03">
          <g id="offers">
            <g id="Logo-Maker-Copy-4">
              <g id="Logo-Builder">
                <g id="logo-builder-2">
                  <path class="cls-10" d="M1891.59,3132.28c0,12.1,9.61,22.01,21.71,22.38h90.09c12.36,0,22.38-10.02,22.38-22.38v-22.38h-111.88c-12.32.05-22.29,10.05-22.29,22.38Z"/>
                  <circle class="cls-8" cx="1989.42" cy="3056.83" r="36.34"/>
                  <circle class="cls-8" cx="1916.74" cy="3068.02" r="25.15"/>
                </g>
              </g>
            </g>
          </g>
        </g>
      </g>
    </g>
  </g>
</svg>