<?xml version="1.0" encoding="UTF-8"?>
<svg xmlns="http://www.w3.org/2000/svg" xmlns:xlink="http://www.w3.org/1999/xlink" viewBox="0 0 3710 3710">
  <defs>
    <style>
      .cls-1 {
        fill: url(#linear-gradient);
      }

      .cls-1, .cls-2, .cls-3, .cls-4, .cls-5, .cls-6, .cls-7, .cls-8, .cls-9, .cls-10, .cls-11, .cls-12, .cls-13, .cls-14 {
        stroke-width: 0px;
      }

      .cls-2, .cls-15 {
        fill: #0873ff;
      }

      .cls-3 {
        fill: #002fa3;
      }

      .cls-16 {
        isolation: isolate;
      }

      .cls-4 {
        fill: #ff0200;
      }

      .cls-17 {
        mix-blend-mode: soft-light;
      }

      .cls-17, .cls-15 {
        stroke: #fff;
        stroke-miterlimit: 10;
        stroke-width: 13px;
      }

      .cls-17, .cls-7, .cls-8, .cls-10 {
        fill: #fff;
      }

      .cls-5 {
        fill: #3659b3;
        opacity: .4;
      }

      .cls-6 {
        fill: #108c62;
      }

      .cls-7 {
        mix-blend-mode: overlay;
        opacity: .2;
      }

      .cls-9 {
        fill: url(#linear-gradient-2);
      }

      .cls-10 {
        fill-rule: evenodd;
      }

      .cls-11 {
        fill: url(#linear-gradient-3);
      }

      .cls-12 {
        fill: #bfc5f2;
      }

      .cls-13 {
        fill: url(#linear-gradient-4);
      }

      .cls-14 {
        fill: #364459;
      }
    </style>
    <linearGradient id="linear-gradient" x1="4987.61" y1="2168.21" x2="4965.3" y2="1820.49" gradientTransform="translate(-2974.92 1509.26) rotate(-8.67)" gradientUnits="userSpaceOnUse">
      <stop offset="0" stop-color="#ffc72b"/>
      <stop offset="1" stop-color="#ff8c2b"/>
    </linearGradient>
    <linearGradient id="linear-gradient-2" x1="5060.43" y1="1605.45" x2="4788.78" y2="2107.14" gradientTransform="translate(-2974.92 1509.26) rotate(-8.67)" gradientUnits="userSpaceOnUse">
      <stop offset="0" stop-color="#526075"/>
      <stop offset="1" stop-color="#3b4554"/>
    </linearGradient>
    <linearGradient id="linear-gradient-3" x1="4404.69" y1="881.69" x2="5241.83" y2="1459.03" gradientTransform="translate(-2974.92 1509.26) rotate(-8.67)" gradientUnits="userSpaceOnUse">
      <stop offset="0" stop-color="#fff"/>
      <stop offset="1" stop-color="#ced2f7"/>
    </linearGradient>
    <linearGradient id="linear-gradient-4" x1="5060.32" y1="975.61" x2="4782.37" y2="1488.94" xlink:href="#linear-gradient-2"/>
  </defs>
  <g class="cls-16">
    <g id="Illustration">
      <path class="cls-5" d="M3121.38,2360.38c-281.09,657.02-1023.08,939.22-1604.44,891.1-158.73-13.14-478.11-39.57-727.49-275.4-478.9-452.89-405.15-1399.54,53.3-1956.88,59.04-71.77,691.84-1031.27,1104.51-546.21,290.66,341.64,793.49,268.09,833.28,300.9,50.27,41.45,161.14,139.95,261.06,296.21,234.78,367.16,255.42,879.71,79.77,1290.28Z"/>
      <g>
        <path class="cls-15" d="M379.35,600.16c-8.77-18.7,16.15-37.61,35.99-27.43,201.47,103.28,702.95,434.03,753.75,1185.96,63.74,943.41,355.18,1231.15,673.25,1377.1,0,0-398.02-16.3-707.19-305.44C376.07,2120.43,535.21,932.63,379.35,600.16Z"/>
        <path class="cls-17" d="M570.59,858.73c43.01,97.46,83.75,195.72,120.23,295.36,37.08,99.42,70.63,199.97,100.47,301.47,29.39,101.62,56.56,203.81,78.64,307.12,22.62,103.19,40.08,207.39,57.19,312.07,17.77,104.51,34.99,209.91,64.73,313.45,29.57,103.35,73.95,204.54,138.68,294.53,16.17,22.42,32.88,44.64,50.99,65.71,17.65,21.39,36.43,42.04,55.65,62.37,38.69,40.49,80.68,78.63,125.9,113.71,90.68,69.95,194.31,127.11,304.4,170.78,11.59,4.6,25.81-.13,31.76-10.55,5.85-10.23,1.55-22.16-9.58-26.94l-.08-.03c-26.39-11.3-52.58-22.86-78.02-35.44-12.85-6.1-25.33-12.71-37.96-19.1-12.31-6.82-24.95-13.2-36.98-20.35-48.71-27.87-94.92-58.82-138.08-92.74-86.63-67.38-161.39-147.06-223.41-232.91-30.44-43.28-57.04-88.64-79.43-135.84-22.35-47.22-40.48-96.24-55.35-146.37-29.77-100.31-47.81-204.46-66.45-308.8-18.8-104.34-38.53-209.03-63.2-312.6-12.17-51.81-25.43-103.37-39.75-154.64-6.99-25.68-14.55-51.21-22.06-76.74-7.79-25.46-15.75-50.87-23.95-76.2-33-101.28-69.59-201.45-109.82-300.28-40.78-98.63-84.62-196.12-132.78-291.75-1.38-2.73-5.1-3.84-8.31-2.47-3.12,1.33-4.61,4.52-3.43,7.2Z"/>
        <path class="cls-15" d="M1396.13,2629.63c-10.55,29.62-47.91,38.84-71.3,17.83-129.06-115.9-464.31-476.59-434.79-1074.67,24.93-505.05-9.55-781.28-33.89-905.59-5.15-26.29,26.26-43.87,46.01-25.77,217.93,199.61,876.08,915.08,493.97,1988.2Z"/>
        <path class="cls-17" d="M1353.56,2630.11c-.65.43-1.34.81-2.09,1.12-6.25,2.63-13.44-.3-16.07-6.55-2.98-7.08-298.06-716.3-295.12-1420.11.03-6.77,5.55-12.25,12.33-12.22,6.78.03,12.25,5.55,12.22,12.33-2.92,698.68,290.23,1403.45,293.19,1410.48,2.32,5.5.32,11.74-4.46,14.95Z"/>
      </g>
      <path class="cls-2" d="M2723.28,917.14h-2.62v-274.63c0-91.06-73.82-164.88-164.88-164.88h-999.38c-91.06,0-164.88,73.82-164.88,164.88v274.63h-2.62c-11.89,0-21.53,9.64-21.53,21.52v189.97c0,11.89,9.64,21.53,21.53,21.53h2.62v45.31h-2.62c-11.89,0-21.53,9.64-21.53,21.52v189.97c0,11.89,9.64,21.53,21.53,21.53h2.62v1663.69c0,91.06,73.82,164.88,164.88,164.88h999.38c91.06,0,164.88-73.82,164.88-164.88v-1825.51h2.62c11.89,0,21.52-9.64,21.52-21.53v-306.48c0-11.89-9.64-21.52-21.52-21.52Z"/>
      <rect class="cls-8" x="1439.51" y="518.41" width="1233.17" height="2697.86" rx="103.44" ry="103.44"/>
      <path class="cls-5" d="M2291.69,2366.28l-131.12-3c-11.92,283.12-406.83,653.21-572.57,796.49l-9.66,76.45,1044.14-33.54,17.22-157.25c-133.09-121.48-360.56-374.81-348-679.15Z"/>
      <path class="cls-1" d="M2316.17,2571.5c8.59,57.2-49.81,375.46-49.81,375.46,0,0-143.88-275.01-152.04-331.15-8.12-56,29.64-111.49,84.83-124.16,55.82-12.85,108.44,22.81,117.02,79.86Z"/>
      <polygon class="cls-9" points="2325.48 2538.58 2096.88 2589.42 2096.35 2454.42 2286.21 2409.6 2325.48 2538.58"/>
      <g>
        <polygon class="cls-2" points="2003.82 2284.75 1868.03 2493.76 2049.92 2747.78 2108.44 2735.64 2041.85 2275.03 2003.82 2284.75"/>
        <polygon class="cls-2" points="2326.62 2202.31 2530.12 2336.47 2419.62 2670.99 2357.41 2683.91 2286.4 2212.57 2326.62 2202.31"/>
      </g>
      <path class="cls-11" d="M2320.73,1581.27l-238.14,120.46-239.47,30.54c-2.64,488.81,234.27,787.35,234.27,787.35l121.76-27.98,124.78-28.7s149.85-410.4-3.21-881.68Z"/>
      <path class="cls-2" d="M2021.3,1286.37c-167.87,209.19-178.17,445.9-178.17,445.9,0,0,110.24,19.43,240.84-21.16,134.11-41.64,236.76-129.84,236.76-129.84,0,0-81.35-216.94-299.44-294.9Z"/>
      <path class="cls-12" d="M2250.98,1854.22c11.8,78-42.08,159.06-119.26,180.44-76.03,21.05-145.78-23.96-156.72-100.04-10.91-75.79,40.39-155.41,115.63-178.43,76.35-23.36,148.63,20.24,160.35,98.02Z"/>
      <path class="cls-8" d="M2248.85,1839.86c11.77,77.96-42.07,159.1-119.22,180.56-76.01,21.16-145.68-23.75-156.64-99.75-10.9-75.74,40.39-155.42,115.57-178.53,76.34-23.44,148.55,20.03,160.29,97.72Z"/>
      <path class="cls-14" d="M2224.87,1846.88c9.71,64.59-34.8,131.82-98.74,149.79-63.14,17.74-121.19-19.43-130.35-82.7-9.12-63.02,33.64-129.31,96.21-148.38,63.4-19.33,123.19,16.88,132.89,81.29Z"/>
      <path class="cls-13" d="M2093.75,1777.47c-60.6,18.41-102.52,81.12-96.82,142.34,11.8,59.6,68.03,94.07,129.2,76.87,61.9-17.38,105.45-80.99,99.33-143.67-12.41-60.65-70.32-94.16-131.71-75.53Z"/>
      <path class="cls-7" d="M2091.99,1765.59c-62.56,19.07-105.33,85.36-96.21,148.38,3.36,23.28,13.37,42.95,27.74,57.7l177.74-177.43c-25.25-29.33-66.41-41.72-109.27-28.65Z"/>
      <g>
        <path class="cls-12" d="M2353.35,2355.57l-331.16,79.38c2.58,4.52,5.1,8.85,7.57,12.98l319.87-76.22c1.23-5.18,2.48-10.58,3.72-16.14Z"/>
        <path class="cls-12" d="M1978.24,2351.4c2.15,4.47,4.27,8.78,6.4,13.1l385.06-95.43c.83-5.23,1.68-10.47,2.49-15.89l-393.95,98.22Z"/>
      </g>
      <path class="cls-4" d="M1695.34,939.33l-160.36-3.01c-20.18-.71-36.48-16.72-37.56-36.88l-5.87-192.32c-.92-21.18,15.51-39.09,36.69-40,.95-.04,1.9-.05,2.85-.02l156.67,8.4c19.45.08,35.49,15.27,36.61,34.69l10.72,188.15c1.41,21.19-14.62,39.51-35.81,40.92-1.31.09-2.62.11-3.93.06Z"/>
      <path class="cls-10" d="M1642.07,716.9c2.88.48,5.39,2.24,6.83,4.78,1.52,2.56,1.82,5.66.82,8.47l-11.2,30.32c-1.5,4.39-6.27,6.74-10.66,5.24-.28-.09-.55-.2-.81-.33-4.65-2.25-6.86-7.64-5.12-12.5l6.83-18.71-19.53-2.25c-11.93-1.05-23.27,5.4-28.48,16.19l-30.25,60.1,72.67,3.48c5.25.6,9.01,5.34,8.41,10.59-.54,4.7-4.43,8.3-9.16,8.47l-87.01-2.8c-3.22-.25-6.06-2.24-7.38-5.19-1.5-3.18-1.5-6.86,0-10.04l37.36-75.12c8.1-16.77,25.88-26.61,44.39-24.59l32.3,3.89ZM1691.18,786.9c3.1.22,5.88,1.99,7.38,4.71,1.51,2.69,1.51,5.98,0,8.67l-37.43,69.05c-8.54,16.95-25.39,28.14-44.32,29.44l-32.3.96c-2.81-.04-5.4-1.54-6.83-3.96-1.57-2.69-1.87-5.94-.82-8.88l11.2-33.26c1.36-4.75,6.31-7.5,11.06-6.14.14.04.27.08.41.13,4.71,2.12,6.95,7.53,5.12,12.36l-6.83,19.87h20.01c12.11-.7,22.89-7.88,28.21-18.78l30.32-56.75-72.67-3.82c-5.12-.57-8.87-5.1-8.47-10.24-.08-4.94,3.86-9.01,8.8-9.09.14,0,.28,0,.42,0l86.73,5.74Z"/>
      <path class="cls-3" d="M1966.1,941.4l-152.46-2.66c-20.42-.92-36.74-17.31-37.59-37.73l-8.73-190.4c-.56-23.34,17.89-39.34,41.36-37.45l159.24,8.59c18.9.79,33.64,16.66,33.05,35.56l6.99,183.2c.89,21.71-15.98,40.03-37.68,40.92-1.39.06-2.78.04-4.17-.05Z"/>
      <path class="cls-6" d="M2210.1,945.94l-122.76-2.17c-20.18-.93-36.26-17.2-36.96-37.38l-6.43-177.68c-.69-21.83,16.44-40.09,38.27-40.79,1.78-.06,3.56,0,5.33.19,39.06,2.52,84.89,4.05,123.74,6.57,20.05,1.26,34.94,20.54,36.05,40.6l6.57,168.95c.9,22.21-16.38,40.94-38.58,41.84-1.74.07-3.49.03-5.22-.13Z"/>
      <g id="Fill-1-Copy-8">
        <path class="cls-10" d="M1968.48,761.2c-3.28,4.61-12.37,5.17-27.95-6.99l-2.24-1.68,30.04-36.89-42.83,30.53c-1.37-.16-2.75-.16-4.12,0-5.82-.11-11.35,2.57-14.88,7.2-.56-.7-1.12-1.33-1.54-1.96l2.59-17.47c-14.32,6.99-14.95,12.72-13.97,18.52-14.74-7.76-32.77-7.48-36.89,16.91l-.7.91c-11.1-2.37-22.01,4.71-24.37,15.81,0,.02,0,.04-.01.05l-4.33-45,62.88-23.13,31.02,16.77,11.81-6.99-42.55-23.62-75.18,27.95,10.83,109.21,64.56,68.05,63.72-55.34-10.76-6.43-28.86,24.11c-2.24-22.43-14.6-46.88-16.35-59.95,7.76,4.2,16.57,6.07,25.36,5.38,5.8,1.96,13.97,16.91,16.21,18.52,1.08.86,2.48,1.22,3.84.98.84,0,13.97-4.96,14.39-5.17,1.72-.83,2.92-2.45,3.21-4.33-3.31-4.82-4.26-10.88-2.59-16.49-15.73-8.95-27.08-23.99-31.37-41.57,7.83-1.4,15.65,7.9,29.28,9.22,18.24,1.82,21.45-20.54,14.32-33.26,1,5.52.09,11.21-2.59,16.14Z"/>
      </g>
      <g id="Page-1">
        <path class="cls-8" d="M2213.94,833.45c-.84-.16-1.71-.02-2.45.42-4.47,8.52-8.59,12.02-15.79,11.18-5.85-.51-10.93-4.27-13.14-9.71,7.42-13.79,11.15-29.27,10.83-44.93-1.12-30.53-16.77-47.79-43.67-51.01-26.9-3.21-41.57,10.62-40.73,41.29,1.03,16.8,5.8,33.15,13.97,47.86-1.92,5.13-7.29,8.09-12.65,6.99-6.99-.77-11.6-5.24-16.63-14.88-.72-.58-1.59-.95-2.52-1.05-3.14,0-5.03,2.17-4.89,8.04.76,15.27,12.71,27.61,27.95,28.86,4.44.53,8.94.1,13.21-1.26-5.8,17.19-12.72,20.12-22.22,16.49-2.12,1.25-3.29,3.64-3,6.08,0,6.01,5.8,12.3,17.12,13.56,16.28,1.75,28.65-8.38,32.77-32.35.56-.56.98-1.05,1.82-.91s1.33.63,1.89,1.33c5.73,25.08,18.87,38.01,34.94,39.76,11.32,1.26,16.56-3.84,16.35-9.78.07-2.75-1.21-5.36-3.42-6.99-9.29,1.61-16.42-2.93-23.41-21.45,4.17,2.23,8.72,3.66,13.42,4.19,11.67,2.46,23.12-5,25.58-16.66.42-1.99.56-4.02.41-6.04-.35-5.73-2.45-8.66-5.73-9.01Z"/>
      </g>
    </g>
  </g>
</svg>