<?xml version="1.0" encoding="UTF-8"?>
<svg id="Illustration" xmlns="http://www.w3.org/2000/svg" viewBox="0 0 3710 3710">
  <defs>
    <style>
      .cls-1 {
        stroke: #0873ff;
        stroke-width: 4.63px;
      }

      .cls-1, .cls-2 {
        fill: none;
      }

      .cls-3, .cls-4, .cls-2, .cls-5, .cls-6, .cls-7, .cls-8, .cls-9 {
        stroke-width: 0px;
      }

      .cls-3, .cls-10, .cls-11 {
        fill: #0873ff;
      }

      .cls-4 {
        fill: #3659b3;
        opacity: .4;
      }

      .cls-5, .cls-7 {
        fill: #fff;
      }

      .cls-6 {
        fill: #084aa3;
      }

      .cls-12 {
        fill: #074aa2;
        stroke: #fff;
        stroke-width: 5px;
      }

      .cls-7 {
        fill-rule: evenodd;
      }

      .cls-8 {
        fill: #e5e5e4;
      }

      .cls-9 {
        fill: #294887;
      }

      .cls-10 {
        stroke-width: 5.67px;
      }

      .cls-10, .cls-11 {
        stroke: #084aa3;
      }

      .cls-11 {
        stroke-width: 6.39px;
      }
    </style>
  </defs>
  <path class="cls-10" d="M3361.64,1442.91s104.48,11.15,131.09,208.99c26.6,197.83,49.3,432.58,49.3,432.58,0,0,29.07,254.69-208.72,323.05,0,0-137.14,69.78-221.43,41.1-84.3-28.68-77.34-251.79-157.7-273.47-146.43-39.52-92.13-348.11,74.55-496.02,166.68-147.91,193.02-188,193.02-188,0,0,66.11-68.56,139.9-48.23Z"/>
  <path class="cls-3" d="M2951.02,2538.1c9-33.36,63.43-47.53,121.55-31.85,58.12,15.69,98,55.42,89.03,88.67-8.97,33.25-219.59-23.46-210.58-56.83Z"/>
  <path class="cls-9" d="M3075.77,2507.05c34.8,13.68,73.24,27.4,75.85,71.95-.21,35.21-140.01-13.45-198.38-46.95-.9,1.95-1.64,3.97-2.22,6.04-9,33.36,201.58,90.19,210.58,56.83,9-33.36-29.46-71.6-85.84-87.87Z"/>
  <ellipse class="cls-9" cx="3065.33" cy="2518.52" rx="4.37" ry="18.84" transform="translate(-164.84 4821.82) rotate(-74.9)"/>
  <path class="cls-2" d="M3361.64,1442.91s104.48,11.15,131.09,208.99c26.6,197.83,49.3,432.58,49.3,432.58,0,0,29.07,254.69-208.72,323.05,0,0-137.14,69.78-221.43,41.1-84.3-28.68-77.34-251.79-157.7-273.47-146.43-39.52-92.13-348.11,74.55-496.02,166.68-147.91,193.02-188,193.02-188,0,0,66.11-68.56,139.9-48.23Z"/>
  <path class="cls-12" d="M3542.04,2084.42s-22.74-234.35-49.31-432.53c-26.57-198.18-131.09-208.99-131.09-208.99-73.8-20.33-139.74,48.27-139.74,48.27-7.87,9.9-13.07,21.65-15.09,34.13-3.38,16.13-.15,32.95,8.97,46.68,35.21,51.58,123.57-15.79,173.63,32.81,91.78,101.99-45.17,219.43-14.57,339.94,10.8,38.18,44.76,68.26,70.41,103.22,73.1,114.17,32.84,235.9-45.35,332.05,165.34-91.97,142.12-295.59,142.12-295.59h0Z"/>
  <g id="Mockup-">
    <g id="CreateFromHome-_-DesktopPromo-03" data-name="CreateFromHome- -DesktopPromo-03">
      <g id="offers">
        <g id="Logo-Maker-Copy-4">
          <g id="Logo-Builder">
            <g id="logo-builder-2">
              <path class="cls-7" d="M1891.59,3132.28c0,12.1,9.61,22.01,21.71,22.38h90.09c12.36,0,22.38-10.02,22.38-22.38v-22.38h-111.88c-12.32.05-22.29,10.05-22.29,22.38Z"/>
              <circle class="cls-5" cx="1989.42" cy="3056.83" r="36.34"/>
              <circle class="cls-5" cx="1916.74" cy="3068.02" r="25.15"/>
            </g>
          </g>
        </g>
      </g>
    </g>
  </g>
  <path class="cls-8" d="M3116.74,1159.86h-1.92c-36.14,0-72.28,0-108.42.04-1.43,0-2.07-.46-2.69-1.74-12.81-26.61-21.84-54.45-27.38-83.44-2.67-13.95-4.53-28.04-5.42-42.23-.04-.47-.2-.95-.31-1.44v-3.31c.6-.05,1.2-.14,1.81-.14h116.23c2.15,0,2.04,0,2.19,2.16.73,9.65,1.38,19.3,2.29,28.92,1.48,15.31,4.08,30.45,7.38,45.44,4,18.36,9.23,36.37,15.7,54.01.18.51.32,1.03.55,1.73h0Z"/>
  <path class="cls-4" d="M3669.28,2704.33c0,119.87-756.72,428.71-1726.77,217.04-931.75-203.31-1726.78-97.17-1726.78-217.04s773.11-217.04,1726.78-217.04,1726.77,97.17,1726.77,217.04h0Z"/>
  <polygon class="cls-11" points="3133.15 2464.26 762.86 2464.26 762.86 894.58 3133.15 894.58 3133.15 2464.26 3133.15 2464.26"/>
  <polygon class="cls-11" points="3463.89 2714.95 432.11 2714.95 432.11 2604.53 3463.89 2604.53 3463.89 2714.95 3463.89 2714.95"/>
  <polygon class="cls-11" points="432.11 2604.53 745.38 2483.89 3150.62 2483.89 3463.89 2604.53 432.11 2604.53 432.11 2604.53"/>
  <polygon class="cls-6" points="773.35 2561.74 975.51 2483.89 2920.5 2483.89 3122.66 2561.74 773.35 2561.74 773.35 2561.74"/>
  <polygon class="cls-5" points="2995.24 2344.64 892.85 2344.64 892.85 1021.64 2995.24 1021.64 2995.24 2344.64 2995.24 2344.64"/>
  <g>
    <polygon class="cls-1" points="2946.4 1619.14 959.95 1619.14 959.95 1348.11 2946.4 1348.11 2946.4 1619.14 2946.4 1619.14"/>
    <g>
      <polygon class="cls-3" points="2946.4 1619.14 2675.37 1619.14 2675.37 1348.11 2946.4 1348.11 2946.4 1619.14 2946.4 1619.14"/>
      <path class="cls-5" d="M2908.62,1573.85l-25.04,18.97-46.37-61.23-16.97-22.4c3.39-1.32,6.67-3.17,9.73-5.5,5.88-4.49,10.18-10.29,12.86-16.67l18.02,23.75,47.77,63.08h0Z"/>
      <path class="cls-5" d="M2818.15,1489.42c-3.06,2.34-6.34,4.19-9.73,5.5-16.59,6.64-36.16,1.81-47.55-13.04-13.72-17.91-10.37-43.59,7.54-57.31,17.91-13.72,43.55-10.33,57.32,7.58,9.2,12.03,10.7,27.56,5.28,40.61-2.67,6.37-6.98,12.18-12.86,16.67h0ZM2847.52,1415.4c-22.96-29.94-65.87-35.59-95.81-12.63-29.94,22.96-35.6,65.87-12.63,95.81,20.63,26.92,57.35,34.2,86.31,18.74,3.28-1.78,6.45-3.77,9.46-6.11,5.57-4.3,10.33-9.28,14.17-14.71,16.89-23.79,17.16-56.71-1.51-81.1h0Z"/>
      <polygon class="cls-3" points="1031.16 1565.86 1016.62 1565.86 1016.62 1401.38 1031.16 1401.38 1031.16 1565.86 1031.16 1565.86"/>
      <polygon class="cls-3" points="1987.89 1724.26 2015.77 1791.59 1987.92 1803.12 1959.9 1735.33 1913.87 1771.04 1913.87 1581.36 2046.65 1715.49 1987.89 1724.26 1987.89 1724.26"/>
      <path class="cls-3" d="M1915.49,1556.14c-1.75-4.2-2.15-8.39-2.22-12.58.06-4.2.46-8.39,2.22-12.58,1.77,4.2,2.16,8.39,2.22,12.58-.08,4.19-.47,8.38-2.22,12.58h0Z"/>
      <path class="cls-3" d="M1893.83,1565.11c-4.2-1.73-7.45-4.41-10.46-7.32-2.92-3.01-5.61-6.26-7.32-10.47,4.21,1.72,7.46,4.4,10.46,7.32,2.91,3.02,5.6,6.26,7.32,10.47h0Z"/>
      <path class="cls-3" d="M1884.86,1586.78c-4.19,1.76-8.38,2.15-12.58,2.22-4.19-.07-8.39-.46-12.58-2.22,4.19-1.76,8.39-2.16,12.58-2.22,4.2.08,8.39.47,12.58,2.22h0Z"/>
      <path class="cls-3" d="M1893.83,1608.44c-1.72,4.2-4.41,7.45-7.32,10.47-3.01,2.92-6.25,5.6-10.46,7.32,1.72-4.21,4.4-7.46,7.32-10.46,3.02-2.91,6.26-5.6,10.46-7.32h0Z"/>
      <path class="cls-3" d="M1944.07,1590.06c5.42-2.27,10.85-2.77,16.27-2.88,5.42.09,10.85.6,16.27,2.88-5.42,2.29-10.85,2.79-16.27,2.88-5.42-.1-10.85-.6-16.27-2.88h0Z"/>
      <path class="cls-3" d="M1937.16,1565.11c1.72-4.2,4.41-7.45,7.32-10.47,3.01-2.92,6.25-5.6,10.46-7.32-1.72,4.21-4.4,7.46-7.32,10.47-3.02,2.91-6.26,5.6-10.46,7.32h0Z"/>
    </g>
  </g>
  <path class="cls-5" d="M439.07,1236.95c1.2,4.86,1.47,9.73,1.54,14.59-.05,4.86-.33,9.72-1.54,14.58-1.2-4.86-1.48-9.72-1.54-14.58.06-4.86.34-9.73,1.54-14.59h0Z"/>
  <path class="cls-5" d="M661.7,1318.38c1.19,4.86,1.47,9.72,1.53,14.58-.05,4.86-.33,9.72-1.53,14.58-1.21-4.86-1.48-9.73-1.54-14.58.06-4.86.34-9.73,1.54-14.58h0Z"/>
  <path class="cls-5" d="M379.32,1419.19c4.86-1.2,9.72-1.48,14.58-1.54,4.86.06,9.72.33,14.58,1.54-4.86,1.21-9.72,1.48-14.58,1.54-4.86-.06-9.72-.34-14.58-1.54h0Z"/>
  <path class="cls-5" d="M381.65,1247.22c-2.59,4.29-5.83,7.92-9.23,11.4-3.48,3.4-7.11,6.64-11.4,9.23,2.58-4.29,5.83-7.93,9.23-11.4,3.48-3.39,7.11-6.63,11.4-9.23h0Z"/>
  <path class="cls-5" d="M624.59,1264.62c-2.59,4.29-5.83,7.92-9.23,11.4-3.48,3.4-7.11,6.65-11.4,9.23,2.59-4.29,5.83-7.93,9.23-11.4,3.48-3.39,7.12-6.63,11.4-9.23h0Z"/>
  <path class="cls-5" d="M347.3,1361.17c-4.28-2.59-7.92-5.83-11.4-9.22-3.4-3.48-6.64-7.11-9.23-11.4,4.29,2.58,7.92,5.83,11.4,9.23,3.4,3.47,6.63,7.11,9.23,11.39h0Z"/>
  <path class="cls-5" d="M659.2,1410.95c-4.28-2.59-7.92-5.83-11.4-9.23-3.4-3.47-6.64-7.11-9.22-11.4,4.29,2.59,7.92,5.83,11.4,9.23,3.39,3.48,6.63,7.11,9.22,11.4h0Z"/>
  <path class="cls-5" d="M624.59,1264.62c-2.59,4.29-5.83,7.92-9.23,11.4-3.48,3.4-7.11,6.65-11.4,9.23,2.59-4.29,5.83-7.93,9.23-11.4,3.48-3.39,7.12-6.63,11.4-9.23h0Z"/>
</svg>