<?xml version="1.0" encoding="UTF-8"?>
<svg id="Illustration" xmlns="http://www.w3.org/2000/svg" xmlns:xlink="http://www.w3.org/1999/xlink" viewBox="0 0 3710 3710">
  <defs>
    <style>
      .cls-1, .cls-2, .cls-3, .cls-4, .cls-5, .cls-6, .cls-7, .cls-8, .cls-9, .cls-10, .cls-11 {
        stroke-width: 0px;
      }

      .cls-1, .cls-12, .cls-13 {
        fill: #0873ff;
      }

      .cls-2 {
        fill: #3659b3;
      }

      .cls-2, .cls-14 {
        opacity: .4;
      }

      .cls-3, .cls-14, .cls-15 {
        fill: none;
      }

      .cls-4 {
        fill: #0b2b34;
      }

      .cls-5, .cls-7 {
        fill: #fff;
      }

      .cls-12, .cls-15 {
        stroke-width: 6.39px;
      }

      .cls-12, .cls-13 {
        stroke: #084aa3;
      }

      .cls-6 {
        fill: #084aa3;
      }

      .cls-14 {
        stroke: #3659b3;
        stroke-miterlimit: 10;
      }

      .cls-15 {
        stroke: #0873ff;
      }

      .cls-13 {
        stroke-width: 7.32px;
      }

      .cls-7 {
        fill-rule: evenodd;
      }

      .cls-16 {
        clip-path: url(#clippath);
      }

      .cls-8 {
        fill: #074aa2;
      }

      .cls-9 {
        fill: #e5e5e4;
      }

      .cls-10 {
        fill: #294887;
      }

      .cls-11 {
        fill: #007477;
        isolation: isolate;
        opacity: .25;
      }
    </style>
    <clipPath id="clippath">
      <path class="cls-3" d="M3181.47,983.28s133.97-21.24,233.65,216.37c99.69,237.61,206.92,522.53,206.92,522.53,0,0,121.88,307.63-151.47,472.8,0,0-147.44,133.09-262.15,125.69-114.7-7.4-181.06-287.78-288.51-287.78-195.78,0-231.89-402.85-73.9-643.24,157.99-240.39,177.33-299.21,177.33-299.21,0,0,59.33-107.67,158.14-107.16Z"/>
    </clipPath>
  </defs>
  <g id="Mockup-">
    <g id="CreateFromHome-_-DesktopPromo-03" data-name="CreateFromHome- -DesktopPromo-03">
      <g id="offers">
        <g id="Logo-Maker-Copy-4">
          <g id="Logo-Builder">
            <g id="logo-builder-2">
              <path class="cls-7" d="M1891.59,3132.28c0,12.1,9.61,22.01,21.71,22.38h90.09c12.36,0,22.38-10.02,22.38-22.38v-22.38h-111.88c-12.32.05-22.29,10.05-22.29,22.38Z"/>
              <circle class="cls-5" cx="1989.42" cy="3056.83" r="36.34"/>
              <circle class="cls-5" cx="1916.74" cy="3068.02" r="25.15"/>
            </g>
          </g>
        </g>
      </g>
    </g>
  </g>
  <g id="PRODUCT">
    <path class="cls-13" d="M3181.47,983.28s133.97-21.24,233.65,216.37c99.69,237.61,206.92,522.53,206.92,522.53,0,0,121.88,307.63-151.47,472.8,0,0-147.44,133.09-262.15,125.69-114.7-7.4-181.06-287.78-288.51-287.78-195.78,0-231.89-402.85-73.9-643.24,157.99-240.39,177.33-299.21,177.33-299.21,0,0,59.33-107.67,158.14-107.16Z"/>
    <path class="cls-6" d="M3038.05,2486.28c0-44.61,63.06-80.57,140.78-80.57s140.78,36.11,140.78,80.57-281.56,44.61-281.56,0Z"/>
    <path class="cls-10" d="M3183.08,2405.63c47.98,5.35,100.49,9.52,118.73,64.16,11.57,43.95-179.01,30.32-263.02,8.2-.47,2.73-.71,5.5-.73,8.28,0,44.61,281.56,44.61,281.56,0s-60.79-79.32-136.53-80.64Z"/>
    <ellipse class="cls-10" cx="3173.92" cy="2423.43" rx="24.32" ry="5.64"/>
    <g class="cls-16">
      <path class="cls-11" d="M3597.57,1761.59s-126.79-276.28-242.95-506.56c-116.17-230.28-248.23-199.52-248.23-199.52-98.59,6.3-149.86,117.78-149.86,117.78-5.33,15.41-6.62,31.93-3.74,47.98,2.73,21.11,13.78,40.25,30.69,53.18,64.75,48.05,144.07-71.49,225.67-33.4,155.06,85.55,37.65,286.68,125.98,420.79,29.3,41.82,83.43,64.31,129.5,96.17,137.41,108.33,139.75,273.79,85.04,424.09,162.31-182.01,47.9-420.5,47.9-420.5Z"/>
    </g>
    <path class="cls-8" d="M3622.04,1722.11s-107.16-284.41-206.92-522.46c-99.76-238.05-233.65-216.37-233.65-216.37-98.81-.51-157.92,107.16-157.92,107.16-6.48,14.98-9,31.37-7.32,47.61,1.21,21.24,10.89,41.11,26.88,55.15,61.23,52.44,148.69-61.23,227.43-17.51,148.69,96.24,17.51,288.66,96.17,428.56,26.3,43.95,78.74,70.02,122.47,104.96,129.5,117.71,120.27,282.95,55.15,429.07,175.13-170.22,77.71-416.18,77.71-416.18h0Z"/>
  </g>
  <path class="cls-9" d="M3116.74,1159.86h-1.92c-36.14,0-72.28,0-108.42.04-1.43,0-2.07-.46-2.69-1.74-12.81-26.61-21.84-54.45-27.38-83.44-2.67-13.95-4.53-28.04-5.42-42.23-.04-.47-.2-.95-.31-1.44v-3.31c.6-.05,1.2-.14,1.81-.14h116.23c2.15,0,2.04,0,2.19,2.16.73,9.65,1.38,19.3,2.29,28.92,1.48,15.31,4.08,30.45,7.38,45.44,4,18.36,9.23,36.37,15.7,54.01.18.51.32,1.03.55,1.73h0Z"/>
  <path class="cls-2" d="M3669.28,2704.33c0,119.87-756.72,428.71-1726.77,217.04-931.75-203.31-1726.78-97.17-1726.78-217.04s773.11-217.04,1726.78-217.04,1726.77,97.17,1726.77,217.04h0Z"/>
  <polygon class="cls-12" points="3133.15 2464.26 762.86 2464.26 762.86 894.58 3133.15 894.58 3133.15 2464.26 3133.15 2464.26"/>
  <polygon class="cls-12" points="3463.89 2714.95 432.11 2714.95 432.11 2604.53 3463.89 2604.53 3463.89 2714.95 3463.89 2714.95"/>
  <polygon class="cls-12" points="432.11 2604.53 745.38 2483.89 3150.62 2483.89 3463.89 2604.53 432.11 2604.53 432.11 2604.53"/>
  <polygon class="cls-6" points="773.35 2561.74 975.51 2483.89 2920.5 2483.89 3122.66 2561.74 773.35 2561.74 773.35 2561.74"/>
  <polygon class="cls-5" points="2995.24 2344.64 892.85 2344.64 892.85 1021.64 2995.24 1021.64 2995.24 2344.64 2995.24 2344.64"/>
  <polygon class="cls-14" points="3325.76 1635.76 580.59 1635.76 580.59 1261.22 3325.76 1261.22 3325.76 1635.76 3325.76 1635.76"/>
  <polygon class="cls-15" points="3325.76 1635.76 580.59 1635.76 580.59 1261.22 3325.76 1261.22 3325.76 1635.76 3325.76 1635.76"/>
  <polygon class="cls-1" points="3325.76 1635.76 2951.21 1635.76 2951.21 1261.22 3325.76 1261.22 3325.76 1635.76 3325.76 1635.76"/>
  <path class="cls-5" d="M3273.54,1573.17l-34.6,26.21-64.08-84.62-23.46-30.96c4.69-1.82,9.22-4.38,13.45-7.61,8.13-6.2,14.07-14.23,17.77-23.03l24.91,32.83,66.02,87.18h0Z"/>
  <path class="cls-5" d="M3148.52,1456.5c-4.22,3.23-8.75,5.79-13.45,7.61-22.92,9.17-49.97,2.5-65.71-18.03-18.96-24.75-14.33-60.23,10.42-79.2,24.75-18.97,60.18-14.28,79.21,10.47,12.71,16.62,14.79,38.09,7.29,56.12-3.7,8.8-9.64,16.83-17.77,23.03h0ZM3189.11,1354.21c-31.73-41.38-91.03-49.19-132.4-17.45-41.37,31.73-49.19,91.03-17.46,132.4,28.5,37.21,79.26,47.26,119.28,25.9,4.53-2.45,8.91-5.21,13.08-8.44,7.7-5.95,14.28-12.82,19.59-20.33,23.34-32.88,23.71-78.37-2.08-112.08h0Z"/>
  <polygon class="cls-1" points="679 1562.13 658.91 1562.13 658.91 1334.84 679 1334.84 679 1562.13 679 1562.13"/>
  <polygon class="cls-1" points="2001.15 1781.04 2039.68 1874.08 2001.2 1890.01 1962.46 1796.33 1898.86 1845.68 1898.86 1583.56 2082.35 1768.92 2001.15 1781.04 2001.15 1781.04"/>
  <path class="cls-1" d="M1901.1,1548.7c-2.42-5.8-2.97-11.59-3.07-17.38.09-5.8.63-11.59,3.07-17.39,2.44,5.8,2.98,11.59,3.07,17.39-.1,5.79-.65,11.58-3.07,17.38h0Z"/>
  <path class="cls-1" d="M1871.16,1561.11c-5.81-2.39-10.29-6.09-14.46-10.12-4.03-4.16-7.75-8.64-10.12-14.47,5.82,2.38,10.3,6.09,14.46,10.12,4.03,4.17,7.74,8.66,10.12,14.47h0Z"/>
  <path class="cls-1" d="M1858.76,1591.04c-5.79,2.43-11.58,2.97-17.38,3.07-5.79-.09-11.59-.63-17.38-3.07,5.79-2.43,11.59-2.98,17.38-3.07,5.8.11,11.59.65,17.38,3.07h0Z"/>
  <path class="cls-1" d="M1871.16,1620.98c-2.38,5.81-6.09,10.29-10.12,14.47-4.16,4.03-8.64,7.74-14.46,10.11,2.37-5.82,6.09-10.3,10.12-14.46,4.17-4.03,8.65-7.73,14.46-10.12h0Z"/>
  <path class="cls-1" d="M1943.45,1591.04c5.79-2.42,11.59-2.96,17.38-3.07,5.79.09,11.59.64,17.38,3.07-5.79,2.44-11.59,2.98-17.38,3.07-5.79-.1-11.59-.65-17.38-3.07h0Z"/>
  <path class="cls-1" d="M1931.05,1561.11c2.38-5.81,6.09-10.29,10.12-14.47,4.16-4.03,8.64-7.74,14.46-10.12-2.37,5.82-6.09,10.3-10.12,14.47-4.17,4.03-8.65,7.73-14.46,10.12h0Z"/>
  <path class="cls-5" d="M560.56,1340.55c1.2,4.86,1.47,9.72,1.54,14.58-.06,4.86-.33,9.72-1.54,14.58-1.2-4.86-1.48-9.72-1.54-14.58.06-4.86.34-9.72,1.54-14.58h0Z"/>
  <path class="cls-5" d="M439.07,1236.95c1.2,4.86,1.47,9.73,1.54,14.59-.05,4.86-.33,9.72-1.54,14.58-1.2-4.86-1.48-9.72-1.54-14.58.06-4.86.34-9.73,1.54-14.59h0Z"/>
  <path class="cls-5" d="M661.7,1318.38c1.19,4.86,1.47,9.72,1.53,14.58-.05,4.86-.33,9.72-1.53,14.58-1.21-4.86-1.48-9.73-1.54-14.58.06-4.86.34-9.73,1.54-14.58h0Z"/>
  <path class="cls-5" d="M405.22,1336.19c4.86-1.19,9.72-1.48,14.58-1.53,4.86.05,9.72.33,14.58,1.53-4.86,1.21-9.72,1.48-14.58,1.54-4.86-.06-9.72-.34-14.58-1.54h0Z"/>
  <path class="cls-5" d="M562.46,1438.99c4.86-1.2,9.72-1.48,14.58-1.54,4.86.06,9.72.33,14.58,1.54-4.86,1.2-9.72,1.48-14.58,1.54-4.86-.06-9.72-.34-14.58-1.54h0Z"/>
  <path class="cls-5" d="M379.32,1419.19c4.86-1.2,9.72-1.48,14.58-1.54,4.86.06,9.72.33,14.58,1.54-4.86,1.21-9.72,1.48-14.58,1.54-4.86-.06-9.72-.34-14.58-1.54h0Z"/>
  <path class="cls-5" d="M381.65,1247.22c-2.59,4.29-5.83,7.92-9.23,11.4-3.48,3.4-7.11,6.64-11.4,9.23,2.58-4.29,5.83-7.93,9.23-11.4,3.48-3.39,7.11-6.63,11.4-9.23h0Z"/>
  <path class="cls-5" d="M624.59,1264.62c-2.59,4.29-5.83,7.92-9.23,11.4-3.48,3.4-7.11,6.65-11.4,9.23,2.59-4.29,5.83-7.93,9.23-11.4,3.48-3.39,7.12-6.63,11.4-9.23h0Z"/>
  <path class="cls-5" d="M485.19,1382.11c-2.59,4.29-5.83,7.92-9.23,11.4-3.48,3.4-7.11,6.64-11.4,9.23,2.58-4.29,5.83-7.93,9.23-11.4,3.48-3.39,7.11-6.63,11.4-9.23h0Z"/>
  <path class="cls-5" d="M347.3,1361.17c-4.28-2.59-7.92-5.83-11.4-9.22-3.4-3.48-6.64-7.11-9.23-11.4,4.29,2.58,7.92,5.83,11.4,9.23,3.4,3.47,6.63,7.11,9.23,11.39h0Z"/>
  <path class="cls-5" d="M659.2,1410.95c-4.28-2.59-7.92-5.83-11.4-9.23-3.4-3.47-6.64-7.11-9.22-11.4,4.29,2.59,7.92,5.83,11.4,9.23,3.39,3.48,6.63,7.11,9.22,11.4h0Z"/>
  <path class="cls-5" d="M519.16,1483.48c-4.28-2.59-7.92-5.83-11.4-9.22-3.4-3.48-6.64-7.11-9.23-11.4,4.29,2.58,7.92,5.82,11.4,9.22,3.4,3.49,6.63,7.11,9.23,11.4h0Z"/>
  <path class="cls-5" d="M518.98,1295.55c-4.28-2.59-7.92-5.83-11.4-9.22-3.4-3.48-6.64-7.11-9.23-11.4,4.29,2.58,7.92,5.82,11.4,9.22,3.39,3.49,6.63,7.11,9.23,11.4h0Z"/>
  <path class="cls-4" d="M777.2,1641.76c18.51,8.91,36.45,18.16,56.07,24.52,21.52,6.98,43.41,10.09,65.61,13.81.69.11.6,1.09-.1,1.08-41.25-.37-88.1-15.09-122.41-37.85-.84-.55-.1-2.02.84-1.57h0Z"/>
  <path class="cls-4" d="M752.7,1676.56c18.49,7.68,51.07,20.97,113.25,25.45.2.01.24.36.02.37-40.76,2.45-78.01-5.34-113.98-23.94-1.12-.58-.52-2.39.71-1.89h0Z"/>
  <path class="cls-5" d="M624.59,1264.62c-2.59,4.29-5.83,7.92-9.23,11.4-3.48,3.4-7.11,6.65-11.4,9.23,2.59-4.29,5.83-7.93,9.23-11.4,3.48-3.39,7.12-6.63,11.4-9.23h0Z"/>
  <path class="cls-5" d="M518.98,1295.55c-4.28-2.59-7.92-5.83-11.4-9.22-3.4-3.48-6.64-7.11-9.23-11.4,4.29,2.58,7.92,5.82,11.4,9.22,3.39,3.49,6.63,7.11,9.23,11.4h0Z"/>
</svg>