<?xml version="1.0" encoding="UTF-8"?>
<svg xmlns="http://www.w3.org/2000/svg" viewBox="0 0 3710 3710">
  <defs>
    <style>
      .cls-1, .cls-2, .cls-3, .cls-4, .cls-5, .cls-6 {
        mix-blend-mode: multiply;
      }

      .cls-1, .cls-7 {
        opacity: .4;
      }

      .cls-8 {
        fill: #a1b7ef;
      }

      .cls-8, .cls-9, .cls-10, .cls-11, .cls-12, .cls-13, .cls-14, .cls-15, .cls-16, .cls-7, .cls-17, .cls-18, .cls-19, .cls-20, .cls-21, .cls-22, .cls-23, .cls-24, .cls-25, .cls-26, .cls-27, .cls-28, .cls-29, .cls-30, .cls-31, .cls-32, .cls-33, .cls-6, .cls-34, .cls-35 {
        stroke-width: 0px;
      }

      .cls-9 {
        fill: #004157;
      }

      .cls-10 {
        fill: #c6d4f5;
      }

      .cls-11, .cls-36, .cls-37 {
        fill: #0873ff;
      }

      .cls-12 {
        fill: #7c9be9;
      }

      .cls-13 {
        fill: #0489a8;
      }

      .cls-36, .cls-37 {
        stroke: #084aa3;
        stroke-width: 6.39px;
      }

      .cls-36, .cls-32 {
        opacity: .6;
      }

      .cls-14 {
        fill: #b4c5f2;
      }

      .cls-15, .cls-19 {
        fill: #fa9161;
      }

      .cls-16 {
        fill: #00465c;
      }

      .cls-2, .cls-6 {
        opacity: .2;
      }

      .cls-38 {
        isolation: isolate;
      }

      .cls-7 {
        fill: #3659b3;
      }

      .cls-17 {
        fill: #04657d;
      }

      .cls-18 {
        fill: #ff8957;
      }

      .cls-39, .cls-40, .cls-5 {
        fill: none;
        stroke-linecap: round;
      }

      .cls-39, .cls-5 {
        stroke: #fa9161;
        stroke-miterlimit: 10;
        stroke-width: 1.32px;
      }

      .cls-19 {
        mix-blend-mode: screen;
        opacity: .3;
      }

      .cls-40 {
        stroke: #d9e2f8;
        stroke-width: 7.39px;
      }

      .cls-20 {
        fill: #ff8e4d;
      }

      .cls-3, .cls-5 {
        opacity: .13;
      }

      .cls-21 {
        fill: #4cc0cd;
      }

      .cls-22, .cls-30 {
        fill: #fff;
      }

      .cls-23 {
        fill: #567ee3;
      }

      .cls-24 {
        fill: #698ce6;
      }

      .cls-25 {
        fill: #084aa3;
      }

      .cls-26 {
        fill: #fafafa;
      }

      .cls-27 {
        fill: #047691;
      }

      .cls-28 {
        fill: #005c71;
      }

      .cls-41 {
        opacity: .1;
      }

      .cls-29 {
        fill: #ffa272;
      }

      .cls-4 {
        opacity: .22;
      }

      .cls-30 {
        opacity: .7;
      }

      .cls-31 {
        fill: #8ea9ec;
      }

      .cls-32 {
        fill: #2f4e9c;
      }

      .cls-33 {
        fill: #ffae7c;
      }

      .cls-6 {
        fill: #ff9e6a;
      }

      .cls-34 {
        fill: #d9e2f8;
      }

      .cls-35 {
        fill: #f0967e;
      }
    </style>
  </defs>
  <g class="cls-38">
    <g id="Illustration">
      <path id="_Path_" data-name="&amp;lt;Path&amp;gt;" class="cls-7" d="M3361.24,2607.79c-447.84,89.61-742.35,252.3-1538.94,89.88-832.8-169.81-1538.94-40.24-1538.94-89.88s689-89.88,1538.94-89.88,1587.6,80.14,1538.94,89.88Z"/>
      <g>
        <path class="cls-37" d="M2735.44,2538.91H903.54c-24.38,0-43.06-19.95-41.53-44.32l75.48-1197.28c1.54-24.38,22.74-44.32,47.12-44.32h1831.9c24.38,0,43.06,19.94,41.53,44.32l-75.48,1197.28c-1.54,24.38-22.74,44.32-47.12,44.32Z"/>
        <path class="cls-36" d="M2735.44,2538.91H903.54c-24.38,0-43.06-19.95-41.53-44.32l75.48-1197.28c1.54-24.38,22.74-44.32,47.12-44.32h1831.9c24.38,0,43.06,19.94,41.53,44.32l-75.48,1197.28c-1.54,24.38-22.74,44.32-47.12,44.32Z"/>
      </g>
      <path class="cls-37" d="M2721.76,2538.91H889.87c-24.38,0-43.06-19.95-41.53-44.32l75.48-1197.28c1.54-24.38,22.74-44.32,47.12-44.32h1831.9c24.38,0,43.06,19.94,41.53,44.32l-75.48,1197.28c-1.54,24.38-22.74,44.32-47.12,44.32Z"/>
      <path class="cls-37" d="M2728.79,2555.85H549c-21.07,0-39.36,12.27-47.79,29.87-4.85,10.12,2.57,21.79,13.98,21.79h2247.4c11.42,0,18.83-11.66,13.98-21.79-8.43-17.6-26.72-29.87-47.79-29.87Z"/>
      <path class="cls-32" d="M2719.44,2553.98h-309.99c-21.07,0-39.36,12.27-47.79,29.87-4.85,10.12,2.57,21.79,13.98,21.79h377.6c11.42,0,18.83-11.66,13.98-21.79-8.43-17.6-26.72-29.87-47.79-29.87Z"/>
      <path class="cls-25" d="M2527.23,2591.77h-80c-3.87,0-7.04-3.17-7.04-7.03h0c0-3.87,3.17-7.04,7.04-7.04h80c3.87,0,7.04,3.17,7.04,7.04h0c0,3.87-3.17,7.03-7.04,7.03Z"/>
      <path class="cls-25" d="M1497.52,2591.77h-80c-3.87,0-7.04-3.17-7.04-7.03h0c0-3.87,3.17-7.04,7.04-7.04h80c3.87,0,7.03,3.17,7.03,7.04h0c0,3.87-3.17,7.03-7.03,7.03Z"/>
      <rect class="cls-25" x="2551.96" y="2577.7" width="63.92" height="14.07" rx=".6" ry=".6"/>
      <path class="cls-22" d="M889.65,2451.29l70.02-1110.69c.6-9.49,8.86-17.26,18.35-17.26h1808.86c9.49,0,16.77,7.77,16.17,17.26l-70.02,1110.69c-.6,9.49-8.86,17.26-18.35,17.26H905.82c-9.49,0-16.77-7.77-16.17-17.26Z"/>
      <path class="cls-30" d="M1897.53,1290.09c-.45,7.17-6.63,12.99-13.81,12.99s-12.62-5.82-12.17-12.99c.45-7.17,6.63-12.99,13.81-12.99s12.62,5.81,12.17,12.99Z"/>
      <path class="cls-26" d="M1828.23,1535.22c-12.14,24.62-51.26,80.92-160.74,100.9-2.99.55-6.22.04-8.71-1.7-20.52-14.31-33.17-44.47-24.21-79.46,2.47-9.63-6.82-18.13-16.01-14.33-10.86,4.5-19.97,10.09-24.15,12.8-1.7,1.11-3.03,2.59-3.98,4.39-7.96,15.08-40.37,88.74,57.43,134.17,1.55.72,3.23,1.12,4.93,1.16,57.43,1.21,159.07-10.14,223.05-125.58,2.34-4.22,1.92-9.52-1.07-13.31-7.06-8.92-19.98-17.87-29.58-23.8-5.98-3.7-13.87-1.56-16.98,4.75Z"/>
      <path class="cls-26" d="M1855.1,1838.96l-130.25-3.77c-5.75-.17-10.08-5-9.64-10.73l1.26-16.04c.45-5.74,5.52-10.29,11.27-10.13l130.25,3.77c5.75.17,10.08,5,9.63,10.73l-1.26,16.04c-.45,5.74-5.52,10.29-11.27,10.13Z"/>
      <path class="cls-34" d="M1507.77,1176.86h-880.78c-20.74,0-37.55-16.81-37.55-37.55h0v-131.14c0-20.74,16.81-37.55,37.55-37.55h880.78c20.74,0,37.55,16.81,37.55,37.55v131.14c.07,20.77-16.78,37.55-37.55,37.55Z"/>
      <g>
        <path class="cls-8" d="M733.37,1013.86l19.44,39.4,43.54,6.28-31.49,30.68,7.39,43.32-38.88-20.4-38.88,20.4,7.39-43.32-31.42-30.68,43.47-6.28,19.44-39.4Z"/>
        <path class="cls-31" d="M906.94,1013.86l19.44,39.4,43.54,6.28-31.49,30.68,7.47,43.32-38.96-20.4-38.88,20.4,7.47-43.32-31.49-30.68,43.47-6.28,19.44-39.4Z"/>
        <path class="cls-12" d="M1080.58,1013.86l19.44,39.4,43.47,6.28-31.49,30.68,7.47,43.32-38.88-20.4-38.96,20.4,7.47-43.32-31.49-30.68,43.47-6.28,19.52-39.4Z"/>
        <path class="cls-24" d="M1254.15,1013.86l19.44,39.4,43.47,6.28-31.42,30.68,7.39,43.32-38.88-20.4-38.88,20.4,7.39-43.32-31.49-30.68,43.54-6.28,19.44-39.4Z"/>
        <path class="cls-23" d="M1427.72,1013.86l19.44,39.4,43.47,6.28-31.42,30.68,7.39,43.32-38.88-20.4-38.88,20.4,7.39-43.32-31.49-30.68,43.54-6.28,19.44-39.4Z"/>
      </g>
      <path class="cls-35" d="M1736.35,1533.22c23.46,7.44,46.87-4.61,63.93-19.42.61-.53,1.18-1.11,1.78-1.65-1.43-3.86-2.44-7.92-3.15-12-16.94,14.27-39.72,25.52-62.56,18.27-8.72-2.77-17.01-7.2-24.82-12.8-5.32-3.82-10.31-7.95-15.11-12.27-.46,4.18-1.18,8.39-2.31,12.55,5.49,5.12,11.21,10.05,17.42,14.51,7.81,5.61,16.1,10.04,24.82,12.8Z"/>
      <g>
        <path class="cls-17" d="M1955.77,2243.84l-172.28-7.95h-236.35s-57.54,108.52-46.07,232.87h494.62c12.28-155.67-39.91-224.92-39.91-224.92Z"/>
        <path class="cls-9" d="M1732.08,2407.9c-.99,0-1.96-.31-2.8-.92-1.32-.96-2.11-2.53-2.11-4.21v-150.6h-.43v-3.72h41.16v131.44c0,9.85-5.96,18.42-14.83,21.34l-19.5,6.42c-.49.16-.99.24-1.49.24ZM1730.88,2252.17v150.6c0,.49.22.94.57,1.2.21.15.52.28.95.16l19.5-6.42c7.34-2.42,12.27-9.58,12.27-17.81v-127.73h-33.3Z"/>
        <g>
          <path class="cls-9" d="M1899.34,2290.49c.77,11.02,3.44,21.79,7.72,31.78,4.33,9.94,9.96,19.39,17.53,27.17,7.43,7.83,15.95,14.75,25.57,19.9,4.57,3.02,9.82,4.75,14.72,7.23,5.07,2.09,10.34,3.68,15.51,5.72-5.37-1.23-10.8-2.48-16.14-4.01-5.11-2.16-10.57-3.63-15.43-6.41-2.48-1.29-11.99-7.2-14.3-8.8-2.34-1.56-4.54-3.31-6.55-5.29-2.02-1.95-4.28-3.68-6.11-5.82-7.64-8.29-13.55-18.14-17.45-28.64-3.86-10.51-5.84-21.75-5.07-32.82Z"/>
          <path class="cls-9" d="M1593.44,2290.49c.77,11.07-1.22,22.31-5.07,32.82-3.9,10.5-9.81,20.35-17.45,28.64-1.83,2.15-4.09,3.87-6.11,5.82-2.01,1.98-4.21,3.73-6.55,5.29-2.31,1.6-4.51,3.35-6.9,4.82-2.44,1.37-4.92,2.69-7.4,3.98-4.87,2.78-10.32,4.26-15.43,6.41-5.35,1.53-10.77,2.79-16.14,4.01,5.17-2.04,10.44-3.64,15.51-5.72,4.9-2.47,10.15-4.21,14.72-7.23,9.63-5.16,18.15-12.07,25.57-19.9,7.57-7.78,13.2-17.23,17.53-27.17,4.28-9.99,6.95-20.76,7.72-31.78Z"/>
        </g>
        <rect class="cls-9" x="1744.53" y="2401.48" width="3.72" height="66.93"/>
      </g>
      <path class="cls-21" d="M2048.16,1977.89s100.77.56,117.97-84.02c0,0-92.71,4.08-117.97,84.02Z"/>
      <path class="cls-13" d="M1759.86,1746.04c0,4.27-3.47,7.74-7.74,7.74s-7.74-3.47-7.74-7.74,3.47-7.74,7.74-7.74,7.74,3.47,7.74,7.74Z"/>
      <path class="cls-27" d="M1755.9,1746.04c0,2.09-1.69,3.78-3.78,3.78s-3.78-1.69-3.78-3.78,1.69-3.78,3.78-3.78,3.78,1.69,3.78,3.78Z"/>
      <path class="cls-13" d="M1759.86,1770.64c0,4.28-3.47,7.74-7.74,7.74s-7.74-3.47-7.74-7.74,3.47-7.74,7.74-7.74,7.74,3.47,7.74,7.74Z"/>
      <path class="cls-13" d="M1759.86,1795.24c0,4.28-3.47,7.74-7.74,7.74s-7.74-3.46-7.74-7.74,3.47-7.74,7.74-7.74,7.74,3.47,7.74,7.74Z"/>
      <path class="cls-27" d="M1755.9,1770.64c0,2.09-1.69,3.78-3.78,3.78s-3.78-1.69-3.78-3.78,1.69-3.78,3.78-3.78,3.78,1.69,3.78,3.78Z"/>
      <path class="cls-27" d="M1755.9,1795.24c0,2.09-1.69,3.78-3.78,3.78s-3.78-1.69-3.78-3.78,1.69-3.78,3.78-3.78,3.78,1.69,3.78,3.78Z"/>
      <path class="cls-17" d="M1935.36,1452.61c-14.12-36.53,38.37-69.87,41.21-107.48,4.26-56.77-48.6-100.94-74.21-147.45-18.35-33.33-38.35-94.39-88.3-87.7-58.86,7.88-124.53,39.46-180.67,59.8-38.78,14.05-78.09,34.46-97.66,71.43-23.03,43.51,3.94,87.26-4.43,132.25-4.87,26.18-23.15,45.75-33.73,69.67-16.83,38.09-16.5,79.08,1.85,116.49,16.48,33.61,54.02,52.62,69.24,85.29,19.32,41.49-14.58,91.99,23.28,128.35,28.78,27.62,73.96,26.43,95.15,63.61,22.9,40.17-11.97,133.99,30.65,163.7,64.94,45.29,71.33-140.69,83.15-169.14,12.03-28.98,83.76-15.83,114.58-59.26,13.31-18.76,1.22-41.09-6.71-58.89-7.14-16.05-8.05-30,6.04-41.83,25.3-21.24,55.42-38.22,72.06-68.01,18.8-33.68,3.43-64.03-15.74-93.3-11.79-17.99-27.99-37.4-35.77-57.52Z"/>
      <g>
        <path class="cls-33" d="M1644.43,1383.81c0,27.6-17.97,49.97-40.15,49.97s-40.16-22.37-40.16-49.97,17.98-49.97,40.16-49.97,40.15,22.37,40.15,49.97Z"/>
        <path class="cls-20" d="M1626.22,1383.81c0,14.76-9.62,26.73-21.48,26.73s-21.49-11.97-21.49-26.73,9.62-26.73,21.49-26.73,21.48,11.97,21.48,26.73Z"/>
      </g>
      <g class="cls-1">
        <path class="cls-22" d="M1907.22,1457.87c-2.79,2.56-4.93,5.7-5.18,8.91-.43,3.14.59,6.2,2.21,9.1,3.28,5.78,8.14,11.05,13.18,16.23,5.04,5.21,10.43,10.3,15.71,15.92,2.68,2.79,5.29,5.77,7.86,9.15,2.49,3.49,5.26,6.99,6.91,13.29.47,1.73.5,2.84.66,4.16.11,1.31.32,2.56.3,3.92-.13,2.78-.23,5.55-1.12,8.44-1.49,5.66-4.98,11.18-9.18,14.8-4.17,3.71-8.71,6.27-13.19,8.05-4.46,1.69-8.9,2.86-13.29,3.61-4.38.73-8.74,1.08-13.11,1.1-4.55-.02-8.46-.34-12.31-.64-7.53-.69-14.45-1.46-20.4-1.17-6.01.16-10.56,1.35-13.72,3.6-3.25,1.99-6.25,6.42-8.12,11.14-1.78,4.87-2.42,10.58-2.06,16.64.48,6.05,1.89,12.36,4.09,18.53,4.41,12.39,11.87,24.22,21.57,33.82,4.87,4.81,10.49,8.81,16.76,11.84,3.15,1.45,6.5,2.63,10.02,3.22,3.54.88,7.18.79,11.01.71-6.79,3.37-15.07,4.51-23.06,3.29-8.03-1.14-15.78-4.24-22.74-8.44-13.89-8.56-25.23-20.98-32.98-35.74-3.85-7.41-6.83-15.48-8.34-24.19-1.54-8.69-1.33-18.17,1.29-27.54,1.46-4.64,3.41-9.26,6.22-13.39,2.6-4.2,6.36-8.32,10.69-11.56,8.95-6.63,19.65-8.67,28.4-8.97,8.95-.22,16.86.83,24.13,1.67,3.56.44,7.06.84,9.96.98,3.07.13,6.15-.03,9.15-.25,2.99-.29,5.81-.85,8.39-1.58,2.49-.81,4.62-1.77,6.18-2.81,1.64-1.04,2.31-2.1,3.04-3.48.45-.63.53-1.6.81-2.52.11-.49.03-1.1.09-1.65.03-.53.1-1.29.07-1.37.1-1.02-1-4.07-2.51-6.81-1.51-2.84-3.4-5.81-5.35-8.84-3.96-6.05-8.28-12.25-12.31-18.85-3.93-6.63-7.96-13.6-9.75-21.87-.86-4.06-.98-8.78.98-12.78,1.98-3.98,5.5-6.42,9.05-7.65Z"/>
      </g>
      <g class="cls-1">
        <path class="cls-22" d="M1580.45,1459c-4.05,3.88-7.71,8.03-9.83,12.52-1.97,4.56-2.44,9.01-1.15,13.17,1.15,4.16,3.58,8.11,6.65,11.78,3.06,3.67,6.66,7.1,10.53,10.28,7.77,6.35,16.51,11.94,25.5,16.54,2.26,1.11,4.5,2.25,6.74,3.21,1.12.53,2.23.93,3.35,1.39l3.54,1.28c5.67,2.08,11.27,4.65,16.71,7.87,5.39,3.27,10.58,7.33,15.13,12.27,4.48,4.98,8.31,10.89,10.7,17.37.53,1.63,1.07,3.27,1.52,4.92.36,1.68.76,3.29,1.04,5.02.61,3.47.67,7.17.3,10.75-.7,7.26-3.46,13.64-6.31,18.86-2.89,5.26-5.91,9.71-8.58,14.22-2.69,4.54-5.28,9.13-7.55,13.9-2.31,4.76-4.36,9.67-6.18,14.77-1.79,5.1-3.27,10.4-4.66,15.85-2.21-11.03-1.93-22.72.3-34.08,1.12-5.68,2.73-11.26,4.64-16.69,1.91-5.48,4.19-10.66,5.91-15.37,1.72-4.73,2.66-8.91,2.58-12.66-.05-1.9-.3-3.73-.8-5.64-.25-.97-.62-1.99-.9-2.99l-1.16-2.87c-3.43-7.4-9.62-13.53-17.66-18.33-3.97-2.45-8.36-4.53-12.95-6.37l-4.12-1.73c-1.39-.66-2.83-1.28-4.17-1.98-2.74-1.35-5.35-2.8-7.88-4.36-10.13-6.2-19.36-13.55-27.38-22.49-3.97-4.49-7.65-9.38-10.58-14.92-2.94-5.48-5.16-11.82-5.22-18.62-.2-6.8,2.76-13.56,7.06-17.95,4.36-4.44,9.58-7.14,14.9-8.91Z"/>
      </g>
      <g>
        <path class="cls-33" d="M1855.54,1383.81c0,27.6,17.99,49.97,40.16,49.97s40.16-22.37,40.16-49.97-17.98-49.97-40.16-49.97-40.16,22.37-40.16,49.97Z"/>
        <path class="cls-20" d="M1873.76,1383.81c0,14.76,9.62,26.73,21.48,26.73s21.49-11.97,21.49-26.73-9.62-26.73-21.49-26.73-21.48,11.97-21.48,26.73Z"/>
      </g>
      <g>
        <path class="cls-33" d="M1871.2,1640.15c-12.16-2.62-21.1-11.62-28.61-21-8.35-10.44-16.67-21.47-21.22-34.19-3.33-9.33-4.89-19.25-5.59-29.1-.14-1.94-.16-4.05-.17-6.26-.05-10.92.35-24.14-9.62-29.31-3.03-1.57-6.51-1.79-9.88-1.98-12.19-.69-24.37-1.38-36.56-2.07-.02-.47-.03-.91-.05-1.38-4.05.23-8.1.46-12.16.69-4.05-.23-8.1-.46-12.15-.69-.02.47-.03.91-.05,1.38-12.19.69-24.37,1.38-36.56,2.07-3.37.19-6.85.41-9.88,1.98-9.97,5.17-9.57,18.39-9.62,29.31-.01,2.21-.04,4.33-.17,6.26-1.24,17.6-8.29,33.75-17.23,48.74-8.47,14.19-18.34,30.38-35.9,33.93l-.81.17c11.76,44.76,62.62,78.49,123.86,78.49s110.72-32.91,123.29-76.83c-.31-.07-.62-.14-.93-.2Z"/>
        <path class="cls-29" d="M1815.61,1549.6c-.05-10.92.35-24.14-9.62-29.31-3.03-1.57-6.51-1.79-9.88-1.98-12.19-.69-24.37-1.38-36.56-2.07-.02-.47-.03-.91-.05-1.38-4.05.23-8.1.46-12.16.69-4.05-.23-8.1-.46-12.15-.69-.02.47-.03.91-.05,1.38-12.19.69-24.37,1.38-36.56,2.07-3.37.19-6.85.41-9.88,1.98-9.97,5.17-9.57,18.39-9.62,29.31-.01,2.21-.04,4.33-.17,6.26-1.24,17.6-8.29,33.75-17.23,48.74-8.47,14.19-18.34,30.38-35.9,33.93l-.81.17c.42,1.6,1,3.15,1.52,4.71,73.32-4.74,138.04-39.2,189.21-90.5-.03-1.1-.09-2.14-.09-3.31Z"/>
      </g>
      <path class="cls-6" d="M1757.35,1591.84c18.92,1.57,33.28-13.08,51.43-21.89l3.83-105.21c0-31.76-30.82-57.81-66.54-57.81h-5.92c-35.72,0-51.89,23.18-51.89,54.95l-5.74,98.52c20.48,14.19,53.83,29.71,74.82,31.45Z"/>
      <path class="cls-33" d="M1903.65,1362.06c-13.62,87.92-85.46,208.59-158.79,201.76-74.19-6.91-155.05-145.05-145.71-233.52,14.1-133.69,79.65-193.11,172.29-184.95,92.63,8.16,153.86,76.99,132.21,216.71Z"/>
      <path class="cls-29" d="M1857.88,1174.08c-1.8.19-3.39.65-4.81,1.3-22.24-17.29-50.06-27.25-81.64-30.03-92.65-8.17-158.19,51.26-172.29,184.95-.3,2.86-.48,5.8-.59,8.76-.02.43-.03.86-.04,1.3-.07,2.27-.08,4.55-.04,6.86.01.58.01,1.15.03,1.73.07,2.4.18,4.83.35,7.28.03.39.04.76.07,1.14.21,2.67.48,5.36.8,8.08.14,1.19.32,2.39.48,3.58.21,1.49.42,2.99.66,4.49.24,1.5.5,3.01.77,4.52.22,1.17.45,2.35.68,3.54.34,1.66.66,3.34,1.04,5.02.03.13.05.26.08.39h0c18.01,81.11,81.85,171.27,141.42,176.81,65.65,6.11,130.06-89.92,152.62-173.19.02-.08.04-.16.06-.24.8-2.97,6.32-29.63,6.37-29.96-.03.18-.1.51-.15.8,12.75-83.45-10.38-152.28-45.89-187.15ZM1744.85,1535.8c-54.81-2.27-112.87-80.29-136-156.18,4.87-7.19,20.46,3.15,36.35-15.39,23.14-27,27.06-53.43,55.61-74.15,40.53-29.43,74.22-44.85,117.15-68.75,9.04-5.04,18.6-11.97,25.91-19.9,1.87,23.8,15.44,55.97,22.18,66.24,9.8,14.94,17.19,31.47,18.32,49.52,1.05,16.66-8.03,110.26,7.03,88.81-18.61,53.25-60.94,133.35-146.56,129.8Z"/>
      <path class="cls-17" d="M1851.73,1147.87c-8.79-5.5-20.95-7.37-32.07-7.96-24.44-1.3-45.56-7.38-68.43-6.45-25.52,1.04-45.96,12.47-68.35,26.91-15.71,10.12-31.76,23.78-44.73,37.33-9.84,10.29-20.98,20.34-29.2,31.61-10.22,14.02-6.86,26.89-12.68,41.34-9.73,24.18-29.93,42.52-34.94,69.29-1.74,9.3-2.65,31.01,9.65,35.2,29.86,10.2,49.01-19.02,61.98-40.98,16.85-28.52,32.99-57.99,61.78-76.31,40.85-26.01,92.83-23.06,136.01-43.95,27.25-13.19,59.69-41.79,20.99-66.04Z"/>
      <path class="cls-17" d="M1934.24,1244.77c3.24-35.81-22.95-60.71-53.79-68.19l4.74,1.64c-53.04-16.08-25.85,62.09-13.53,80.85,9.81,14.94,17.19,31.47,18.32,49.51,1.34,21.31-13.9,168.64,26.04,39.73,12.66-40.86,14.4-61.61,18.21-103.54Z"/>
      <path class="cls-28" d="M1923.89,1305.42c-34.88,123.13-25.38-16.64-27.56-36.75-1.84-17.03-9.84-32.43-20.24-46.24-4.33-5.78-10.54-17.77-14.96-30.65,6.34-7.47,9.89-15.75,7.74-24.15-8.53,8.98-21.22,16.5-32.92,21.48-46.45,19.72-100.93,13.94-145.2,39.16-31.2,17.76-49.68,47.91-68.86,77.01-13.82,20.97-33.65,48.33-61.42,41.71-.7,10.44.73,24.83,10.51,28.15,29.86,10.2,61.26-3.71,74.23-25.66,16.85-28.52,38.3-64.66,67.09-82.98,40.85-26.01,75.27-31.71,118.45-52.6,7.85-3.8,16.1-8.89,22.98-14.78-.31,20.74,11.1,49.49,17.95,59.93,9.81,14.94,17.19,31.47,18.32,49.51,1.34,21.31-13.9,168.64,26.04,39.73,9.26-29.92,12.68-49.08,15.35-73.65-1.8,9.24-4.19,19.13-7.48,30.75Z"/>
      <g class="cls-1">
        <path class="cls-16" d="M1740.42,1157.51c-2.21,6.26-6.24,11.94-11.31,16.45-5.04,4.58-11.04,7.98-17.2,10.75-12.47,5.42-25.63,8.37-38.7,10.89-13.06,2.56-26.11,4.35-38.59,7.7-12.42,3.21-24.55,7.84-34.52,15.19-10.07,7.14-16.87,17.81-20.78,29.78-4.08,11.94-5.75,25.06-7.46,38.01-1.54,13.03-2.78,26.56-7.09,39.5-4.41,12.83-11.2,24.41-18.64,35.36,5.72-11.95,11.35-23.98,14.39-36.6,3.13-12.55,3.39-25.66,4.34-38.91.42-6.67,1.07-13.34,2.05-19.99.97-6.67,2.26-13.38,4.29-20,2.04-6.61,4.95-13.09,8.89-19.02,3.92-5.93,8.96-11.17,14.66-15.39,11.51-8.24,24.65-13.08,37.83-16.2,13.23-3.02,26.47-4.63,39.5-6.35,12.97-1.89,25.99-3.85,38.22-8.07,12.18-4.02,23.84-11.21,30.13-23.1Z"/>
      </g>
      <g class="cls-41">
        <path class="cls-22" d="M1529.89,1478.79c-.2,8.41-.19,16.53.16,24.54.45,8,1.2,15.87,2.82,23.5,1.64,7.63,4.12,14.94,7.53,21.96,3.41,7.09,8.38,13.19,13.76,19.76-7.57-3.5-14.76-8.88-19.75-16.07-5.02-7.11-8.61-15.3-10.36-23.8-1.62-8.51-2.01-17.16-1-25.61.99-8.42,3.01-16.74,6.85-24.29Z"/>
      </g>
      <path class="cls-33" d="M940.11,1881.48c21.48,14.36,33.61,10.78,36.02,7.6,2.41-3.21-18.75-16.16-40.21-30.53-21.46-14.36-41.07-25.83-43.48-22.63-.64.85,4.29,6.28,8.51,10.6,9.25,9.46,23.36,24.39,39.16,34.97Z"/>
      <path class="cls-33" d="M925.96,1813.18c13.67-.1,30.13,35.69,48.28,41.8,12.92,4.34,39.19-3.84,53.77-7.32,52.17-12.47,75.82-15.76,91.6,4.12l.16-.15s208.01,252.98,229.88,180.53l73.15-256.77,106.6,75.27s-71.37,463.8-276.67,259.78c0,0-125.54-127.48-161.24-223.34-25.66,6.44-62.86,10.3-103.31,10.02-9.03-.07-22.1.1-23.62-11.18-.24-1.87-9.21,1.27-11.42-10.61-1.6-8.54-6.85,4.83-12.68-25.85-4.01-21.06-25.46-36.21-14.49-36.29Z"/>
      <g class="cls-2">
        <path class="cls-33" d="M1146.7,1984.21c-62.61-99.05-42.52-94.49-33.48-103.62l12.09-8.53-33.83,15.04c10.6,28.74,30.8,62.93,55.22,97.11Z"/>
        <path class="cls-33" d="M1260.66,2093.27c193.73,156.08,236.43-163.5,244.74-259.55l23.99,16.94s-71.37,463.8-276.67,259.78c0,0-57.71-58.61-106.02-126.23,54.14,59.8,113.96,109.06,113.96,109.06Z"/>
      </g>
      <g>
        <path class="cls-33" d="M1074.3,1814.04c-3.13-22.97-4.86-51.93,13.53-46.75,0,0-8.29,11.44,10.68,38.3,6.81,9.65,7.14,30.73,19.45,45.46-11.52-4.13-34.79,13.06-48.14,8.1,3.71-8.42,5.95-34.25,4.47-45.1Z"/>
        <path class="cls-33" d="M956.89,1862.6c2.9,18.94,8.15,18.62,11.95,18.15,3.8-.47,4.53-16.21,1.64-35.15-2.91-18.94-8.34-33.9-12.14-33.43-1.2.14-1.68,6.06-1.94,11-.54,10.76-1.5,26.49.48,39.43Z"/>
        <path class="cls-33" d="M971.86,1872.6c-2.36,12.22,2.15,13.22,5.49,13.8,3.33.58,7.94-8.86,10.31-21.07,2.36-12.23,1.59-22.6-1.75-23.18-1.4-.24-2.95,4.2-5.33,8.91-3.24,6.45-7.36,14.48-8.72,21.54Z"/>
      </g>
      <path class="cls-11" d="M2169.44,1885.21c-4.33,3.27-8.6,6.17-12.88,8.81-.32.16-.58.37-1,.63-7.33,4.49-14.62,8.18-21.74,11.5-15.83,7.34-30.92,12.61-44.49,19.84-6.97,3.69-13.51,7.86-19.47,13.14-.05.05-.11.05-.16.16-6.02,5.28-11.45,11.66-16.31,19.79-1.54,2.61-3.03,5.43-4.42,8.47-1.18.1-1.42.13-2.59.23-14.12-23.08-64.13-66.8-71.72-84.43-12.61,87.92-65.97,193.57-40.16,279.48,9.29,30.82,18.21,57.15,26.23,79.53,12.08,33.62,28.2,71.98,34.69,90.29,8.79,24.8-56.59,24.91-67.45,25.11-69.35,1.28-136.31,9.9-205.67,9.9-69-.4-136.08-7.81-204.46-13.73-5.32-.46-9.1-5.46-8-10.68,12.82-60.57,32.55-120.72,48.65-180.41,25.44-94.25-11.98-150.19-30.93-254.84-3.06-16.83-8.34,52.4-14.04,86.07-.26,1.58-.53,3.06-.79,4.43,0,.11,0,.21-.05.26-1.53,8.02-3.11,13.03-4.64,12.77-7.55-1.37-14.88-2.53-22.01-3.48-4.96-.69-9.82-1.27-14.57-1.79-51.87-5.7-89.55-2.74-107.5-7.97-.05-.05-.16-.05-.21-.11-.11.05-.21,0-.32-.05-3.11-.95-5.54-2.11-7.39-3.75-3.9-3.27-4.91-8.18-2.69-15.57.11-.32.21-.63.26-.95,24.96-83.75,47.44-147.39,67.76-194.2,1.06-2.38,2.06-4.75,3.11-7.02,27.13-60.95,50.4-91.51,70.5-99.74,19.05-7.81,46.28-17.2,75.89-26.49,18.36-5.75,37.63-11.45,56.36-16.73l2.32,1.69,1.95,1.42,5.28,3.85,2.27,1.64,4.75,3.48,97.79,71.24,2.43,1.74,2.11-1.64,90.61-70.87,14.99-11.72,3.22-2.48,1.74-1.37c24.01,6.02,50.93,13.25,82.59,21.64,12.19,3.22,25.07,6.65,38.79,10.24,26.44,6.86,137.26,134.99,188.98,218.8.84,1.32,1.58,2.59,2.38,3.85Z"/>
      <path class="cls-11" d="M1513.53,1994.08c-.26,1.58-.53,3.06-.79,4.43,0,.11,0,.21-.05.26-1.58,6.49-3.49,12.01-3.49,12.01-8.39.84-17.3,1.71-24.64,1.55-5.17-.05-10.08-.26-14.88-.37-3.32-.05-6.54-.05-9.71,0-5.12.16-10.03.26-14.72,0-47.81-2.9-70.03-9.02-81.27-13.67-.05-.05-.16-.05-.21-.11-.11-.05-.21-.11-.32-.11-3.32-1.43-5.65-2.69-7.39-3.69-3.9-3.27-4.91-8.18-2.69-15.57.11-.32.21-.63.26-.95,3.69,1.85,8.23,3.8,13.77,5.7,20.79,7.28,55.09,14.04,106.97,12.77,5.07-.11,10.34-.32,15.83-.58,7.44-.42,15.2-.95,23.33-1.69Z"/>
      <g>
        <polygon class="cls-22" points="1860.04 1627.83 1741.52 1720.77 1806.09 1764.56 1889.89 1638.74 1860.04 1627.83"/>
        <polygon class="cls-22" points="1627.07 1627.83 1745.59 1720.77 1681.02 1764.56 1597.22 1638.74 1627.07 1627.83"/>
      </g>
      <g>
        <path class="cls-11" d="M1773.86,1524.85c-1.95,0-3.6-1.51-3.75-3.49-.15-2.07,1.41-3.87,3.49-4.03l61.05-4.43c42.75,0,71.29-43.93,71.29-84.95,0-2.08,1.68-3.76,3.76-3.76s3.76,1.68,3.76,3.76c0,44.47-30.03,92.47-78.54,92.47l-60.78,4.43c-.09,0-.18,0-.28,0Z"/>
        <rect class="cls-11" x="1749.86" y="1508.17" width="43.16" height="25.84" rx="1.46" ry="1.46"/>
        <path class="cls-11" d="M1750.89,1190.04c87.45,0,149.11,69.72,157.15,160.77,8.81,1.54,15.67,3.73,15.67-2.01,0-99.05-79.99-192.8-172.82-192.8s-177.92,97.5-177.92,196.54c0,5.74,7.84,1.35,16.48,1.65,8.04-91.06,73.99-164.15,161.44-164.15Z"/>
        <g>
          <g>
            <path class="cls-11" d="M1564.19,1326.16h39.93c.05,0,.09.04.09.09v110.29c0,.05-.04.09-.09.09h-39.93c-2,0-3.63-1.63-3.63-3.63v-103.21c0-2,1.63-3.63,3.63-3.63Z"/>
            <path class="cls-11" d="M1609.63,1326.16h-6.08c.37,0,.67.3.67.66v109.14c0,.37-.3.67-.67.67h6.08c.37,0,.66-.3.66-.67v-109.14c0-.37-.3-.66-.66-.66Z"/>
            <path class="cls-11" d="M1550.93,1357.43h9.63v47.92h-9.63c-.61,0-1.11-.5-1.11-1.11v-45.71c0-.61.5-1.11,1.11-1.11Z"/>
          </g>
          <g>
            <path class="cls-11" d="M1896.1,1326.16h39.93c.05,0,.09.04.09.09v110.29c0,.05-.04.09-.09.09h-39.93c-2,0-3.63-1.63-3.63-3.63v-103.21c0-2,1.62-3.63,3.63-3.63Z" transform="translate(3828.6 2762.79) rotate(180)"/>
            <path class="cls-11" d="M1887.06,1326.16h6.08c-.37,0-.66.3-.66.66v109.14c0,.37.3.67.66.67h-6.08c-.37,0-.66-.3-.66-.67v-109.14c0-.37.3-.66.66-.66Z"/>
            <path class="cls-11" d="M1937.24,1357.43h9.63v47.92h-9.63c-.61,0-1.11-.5-1.11-1.11v-45.71c0-.61.5-1.11,1.11-1.11Z" transform="translate(3883 2762.79) rotate(180)"/>
          </g>
        </g>
      </g>
      <g>
        <path class="cls-22" d="M1755.83,1749.82c0,4.27-3.47,7.74-7.74,7.74s-7.74-3.47-7.74-7.74,3.47-7.74,7.74-7.74,7.74,3.47,7.74,7.74Z"/>
        <path class="cls-22" d="M1751.87,1749.82c0,2.09-1.69,3.78-3.78,3.78s-3.78-1.69-3.78-3.78,1.69-3.78,3.78-3.78,3.78,1.69,3.78,3.78Z"/>
        <path class="cls-22" d="M1755.83,1774.42c0,4.27-3.47,7.74-7.74,7.74s-7.74-3.47-7.74-7.74,3.47-7.74,7.74-7.74,7.74,3.47,7.74,7.74Z"/>
        <path class="cls-22" d="M1755.83,1799.02c0,4.28-3.47,7.74-7.74,7.74s-7.74-3.46-7.74-7.74,3.47-7.74,7.74-7.74,7.74,3.47,7.74,7.74Z"/>
        <path class="cls-22" d="M1751.87,1774.42c0,2.09-1.69,3.78-3.78,3.78s-3.78-1.69-3.78-3.78,1.69-3.78,3.78-3.78,3.78,1.69,3.78,3.78Z"/>
        <path class="cls-22" d="M1751.87,1799.02c0,2.09-1.69,3.78-3.78,3.78s-3.78-1.69-3.78-3.78,1.69-3.78,3.78-3.78,3.78,1.69,3.78,3.78Z"/>
      </g>
      <g class="cls-41">
        <path class="cls-22" d="M1875.83,1202.84c6.53-1.39,13.67.48,19.52,4.32,5.97,3.79,10.38,9.77,13.06,16.09,1.5,3.16,2.23,6.49,3,9.79.59,3.32.84,6.67.93,9.98-.14,3.31-.31,6.61-.81,9.83-.72,3.22-1.41,6.41-2.51,9.51-.9-3.23-1.4-6.37-1.92-9.48-.55-3.1-1.33-6.12-1.77-9.13-.84-2.94-1.41-5.89-2.25-8.73-.97-2.78-1.69-5.64-2.96-8.21-2.23-5.28-5.16-10.11-9.16-14.19-4.04-4.02-9.01-7.43-15.14-9.79Z"/>
      </g>
      <g class="cls-41">
        <path class="cls-22" d="M1603.25,1291.29c-3.8-8.5-5.44-18.02-4.58-27.71.38-4.86,1.77-9.73,3.96-14.37,2.3-4.59,5.84-8.7,10.07-11.81,4.28-3.06,9.21-4.96,14.12-5.87,4.9-.88,9.97-.91,14.19-.84,8.83-.15,17.61-1.01,26.6-3.33-7.38,5.75-16.7,8.87-25.97,10.35-4.85.8-8.94.98-12.93,2.16-3.97,1.05-7.66,2.62-10.78,4.88-6.41,4.34-10.28,11.72-12.34,19.98-1.99,8.31-2.49,17.31-2.34,26.55Z"/>
      </g>
      <rect class="cls-22" x="1813.26" y="1883.36" width="115.92" height="21.03"/>
      <path class="cls-15" d="M1345.49,2045.99c25.68,11.17,49.16,35.71,50.82,64.74-2.48-6.71-5.3-13.04-8.75-19.01-10.35-18.08-26.19-32.48-42.06-45.74h0Z"/>
      <path class="cls-33" d="M2237.14,1971.3c-67.7-86.09-39.91-46.03-76.73-90.81-15.46,8.27-66.23,38.91-105.06,70.18.34.4.68.71,1.02,1.11,13.84,15.26,33.93,33.08,50.15,45.95,9.97,7.85,47,26.7,35.42,44.68-6.53,10.12-113.54,135.89-113.54,135.89-2.38,4.96-44.09,52.99-47.38,57.81-1.91,2.8-4.29,5.09-7.49,6.33-19,7.32-39.56,1.61-59.22,3.74-18.34,1.98-36.01,14.13-49.44,26.26-10.71,9.68-24.47,17.75-37.05,24.74-14.68,8.16-9.58,30.21,12.83,18.9-6.88,6.46-29.49,14.07-26.02,25.91,0,0,3.2,10.92,15.45,7.89,0,0-.06,19.68,17.23,12.97l14.98-9.7s-3.82,21.63,12.66,10.77c14.93-6.57,29.85-13.16,44.76-19.76,10.64-4.72,21.28-9.44,31.8-14.4,13.56-6.4,28.56-7.1,43.21-8.94,17.09-2.15,25.84-13.62,37.82-24.1,26.54-23.22,59.94-49.89,85.24-74.91,24.71-24.44,54.04-54.47,77.17-80.4,21.69-24.32,32.76-35.9,51.97-62.25,8.78-12.04,25.81-30.91,25.61-47.03-.3-24.36-35.39-60.82-35.39-60.82Z"/>
      <path class="cls-22" d="M1816.79,2310.87c1.55-1.38,14.85-11.08,17.94-7.04,7.4,9.68-5.99,13.77-12.28,17.29-.99.55-6.93-9.13-5.66-10.26Z"/>
      <path class="cls-22" d="M1814.21,2339.21c1.55-1.38,14.86-11.08,17.94-7.04,7.4,9.69-5.99,13.77-12.28,17.29-.99.55-6.93-9.13-5.67-10.25Z"/>
      <path class="cls-22" d="M1827.95,2354.57c1.55-1.38,14.86-11.08,17.94-7.04,7.4,9.69-5.99,13.77-12.28,17.29-.99.55-6.93-9.13-5.67-10.25Z"/>
      <path class="cls-22" d="M1859.34,2358.12c1.43-1.28,13.75-10.26,16.61-6.51,6.85,8.97-5.54,12.75-11.37,16.01-.91.51-6.42-8.45-5.25-9.49Z"/>
      <path class="cls-18" d="M1830.08,2349.88c11.28-9.69,23.18-18.63,35.25-27.33,12.32-8.32,24.58-16.72,37.18-24.62-11.96,8.83-24.38,17-36.43,25.7-12.32,8.3-24.02,17.44-36,26.25Z"/>
      <path class="cls-18" d="M1863.16,2352.56c8.05-6.73,16.13-13.38,24.63-19.59,8.6-6.05,17.64-11.4,26.91-16.32-8.71,5.85-17.69,11.25-26.15,17.39-4.29,2.98-8.41,6.21-12.62,9.33-4.19,3.14-8.45,6.21-12.77,9.19Z"/>
      <path class="cls-18" d="M1840.65,2316.08c7.57-7.21,15.25-14.32,23.69-20.6,8.52-6.13,17.49-11.53,26.66-16.57-8.59,5.96-17.52,11.42-25.88,17.63-4.23,3.03-8.26,6.34-12.29,9.66-4.02,3.33-8.07,6.64-12.18,9.88Z"/>
      <path class="cls-11" d="M2169.44,1885.21s-5.28-9.29-8.64-13.77c-19.39,8.1-44.55,20.36-65.94,37.21-24.64,19.42-41.4,37.86-54.62,56.99,5.36,6.26,9.14,10.89,9.7,11.57,42.87-63.09,119.5-92.01,119.5-92.01Z"/>
      <g class="cls-4">
        <path class="cls-33" d="M1982.55,2236.49c60.6-68.48,134.03-133.09,183.77-191.97,7.02-8.31,9.57-16.42,3.15-25.94-21.02-31.19-67.17-78.33-106.64-80.61,9.11.53-8.25,13.76-2.35,19.86,14.97,15.46,55.15,45.25,72.34,58.16,3.7,2.78,7.52,5.7,9.61,9.83,4.51,8.91-.58,19.54-6.1,27.86-15.42,23.23-35.14,42.21-53.76,62.72-8.83,9.73-17,20.14-25.49,30.18-21.2,25.04-41.82,50.16-62.45,75.87-7.61,9.49-15.98,17.29-25.58,24.78,4.56-3.53,9.7-6.44,13.51-10.74Z"/>
      </g>
      <g class="cls-3">
        <path class="cls-39" d="M1841.86,2298.76c.4,1.21.8,2.43,1.21,3.64"/>
        <path class="cls-39" d="M1845.99,2296.71c.67,1.35,1.35,2.69,2.02,4.04"/>
        <path class="cls-39" d="M1848.41,2293.48c.94,1.62,1.89,3.23,2.83,4.85"/>
      </g>
      <path class="cls-5" d="M1846.39,2321.77c.94,1.08,1.89,2.16,2.83,3.23"/>
      <path class="cls-5" d="M1850.18,2318.44c.93,1.36,1.86,2.71,2.8,4.07"/>
      <path class="cls-19" d="M1893.67,2259.14c-1.67-2.91,2.58-6.06,4.92-3.77,1.05,1.02,1.69,2.4,2.18,3.82.34.98.61,2.03.47,3.1-.14,1.07-.76,2.19-1.75,2.66-3.14,1.5-5.26-3.73-5.82-5.81"/>
      <path class="cls-19" d="M1902.89,2281.23c-1.67-2.91,2.58-6.06,4.92-3.77,1.05,1.02,1.69,2.4,2.18,3.82.34.98.61,2.03.47,3.1-.14,1.07-.76,2.19-1.75,2.66-3.14,1.5-5.26-3.73-5.81-5.81"/>
      <path class="cls-19" d="M1915.07,2300c-1.67-2.91,2.58-6.06,4.92-3.77,1.05,1.02,1.69,2.4,2.18,3.82.34.98.61,2.03.47,3.1s-.76,2.19-1.75,2.66c-3.14,1.5-5.26-3.73-5.82-5.81"/>
      <path class="cls-19" d="M1926.39,2325.06c-1.67-2.91,2.58-6.06,4.92-3.77,1.05,1.02,1.69,2.4,2.18,3.82.34.98.61,2.03.47,3.1s-.76,2.19-1.75,2.66c-3.14,1.5-5.26-3.73-5.81-5.81"/>
      <g>
        <path class="cls-14" d="M548.16,1885.39l492.17-17.22c11.26-.41,20.41-9.24,21.22-20.48l22.18-316.09c1.16-16.65-11.11-31.22-27.72-32.9l-470.36-47.83c-16.93-1.76-32.08,10.55-33.84,27.48-.04.35-.07.7-.09,1.05l-26.83,381.88c-.96,13.31,9.91,24.54,23.29,24.1Z"/>
        <path class="cls-10" d="M557.1,1885.39l492.17-17.22c11.26-.41,20.41-9.24,21.22-20.48l22.18-316.09c1.16-16.65-11.11-31.22-27.72-32.9l-470.36-47.83c-16.93-1.76-32.08,10.55-33.84,27.48-.04.35-.07.7-.09,1.05l-26.83,381.88c-.96,13.31,9.91,24.54,23.29,24.1Z"/>
        <path class="cls-40" d="M722.39,1508.02l-119.75-9.39M722.39,1544.39l-119.75-9.46M722.39,1582.6l-119.75-9.39"/>
        <g>
          <path class="cls-31" d="M907.79,1725.72c3.84-2.74,11.24-9.68,4.66-30.97-6.58-21.29-71.93-16.63-75.4-22.84-3.47-6.21,12.79-21.66,25.95-56.48,13.16-34.82-15.08-69.26-25.95-64.98s-20.11,62.32-46.05,75.84c-19.07,9.98-47.01,43.24-60.39,60.1-.15,0-.37-.07-.52-.07-67.49,42.8-41.1,151.84,9.68,142.15,8.72-1.03,16.34-2.22,22.32-3.47,25.36,8.06,82.87,9.39,107.78,6.8,25.95-2.74,25.13-28.98,25.13-28.98,18.55-7.32,13.53-38.66,13.53-38.66,12.79-15.67-.74-38.44-.74-38.44Z"/>
          <g>
            <path class="cls-10" d="M903.87,1724.46c-9.54,3.03-19.66,4.44-29.72,4.58-10.13.15-20.18-1.03-30.16-3.62-4.95-1.48-10.13-3.7-13.9-7.98-1.85-2.07-3.25-4.58-3.99-7.39-.74-2.81-.52-5.84.52-8.5,2.07-5.32,6.8-8.94,11.75-10.5,5.03-1.55,10.2-1.48,15.15-.81-4.95.37-9.98.96-14.34,2.96-4.29,1.85-7.84,5.4-9.17,9.54-1.33,4.14.22,8.57,3.25,11.75,2.96,3.25,7.32,5.17,11.9,6.43,9.31,2.51,19.15,3.92,28.98,4.51,9.91.59,19.81.22,29.72-.96ZM893.08,1763.12c-9.83.37-19.66.3-29.42-.52-9.83-.74-19.66-2.22-29.27-4.73-4.8-1.33-9.76-2.96-14.12-5.99-4.36-2.96-8.06-7.84-8.57-13.31-.67-5.4,1.18-11.01,5.03-14.64s9.24-5.25,14.12-4.29c-4.88.07-9.54,2.29-12.42,5.84-2.96,3.47-3.92,8.21-3.1,12.49.81,4.29,3.62,7.84,7.47,10.2,3.77,2.44,8.28,3.99,12.86,5.17,9.31,2.51,18.85,4.14,28.46,5.62,9.54,1.48,19.29,2.59,28.98,4.14ZM886.35,1801.49c-7.98-.37-15.89-1.55-23.73-3.25-7.84-1.63-15.52-3.92-23.14-6.58-3.77-1.4-7.69-3.03-11.16-5.54-3.47-2.51-6.51-5.77-8.28-9.83-1.77-3.92-2.07-8.87-.07-12.79,1.85-3.84,5.77-6.87,9.83-6.73-3.92.96-6.65,4.14-7.76,7.61-1.18,3.47-.44,7.17,1.26,10.35,3.47,6.43,10.42,9.98,17.74,12.57,7.39,2.66,14.93,5.1,22.47,7.39,0,0,22.84,6.8,22.84,6.8Z"/>
            <path class="cls-10" d="M854.79,1823.96c-5.03-.74-9.91-1.92-14.64-3.84-4.73-1.92-9.24-4.88-12.86-8.8-3.55-3.99-6.14-9.17-6.21-14.71-.15-5.4,2.14-11.01,6.43-13.82-2.88,4.21-3.55,9.02-2.81,13.53.74,4.44,2.96,8.5,6.06,11.9,3.03,3.47,6.87,6.21,11.01,8.65,4.14,2.44,8.65,4.51,13.01,7.1ZM827.51,1677.37c.37,8.87-.89,17.59-3.55,25.8-2.74,8.13-6.87,15.82-12.42,22.25-5.47,6.51-12.42,11.75-20.03,15.75-7.8,3.94-16.23,6.47-24.91,7.47,8.87.89,18.04-.67,26.46-4.21,8.49-3.53,16.03-9,22.03-15.97,5.99-7.02,10.2-15.38,12.42-24.25,2.07-8.87,2.29-18.26,0-26.83Z"/>
          </g>
        </g>
      </g>
    </g>
  </g>
</svg>