<svg xmlns="http://www.w3.org/2000/svg" xmlns:xlink="http://www.w3.org/1999/xlink" width="487" height="387" viewBox="0 0 487 387"><defs><linearGradient id="c" x1="68.925%" x2="-4.715%" y1="73.266%" y2="15.508%"><stop offset=".41%" stop-color="#F2841E"/><stop offset="36.65%" stop-color="#F27F1F" stop-opacity=".636"/><stop offset="82.47%" stop-color="#F06F23" stop-opacity=".176"/><stop offset="100%" stop-color="#EF6724" stop-opacity="0"/></linearGradient><linearGradient id="d" x1="92.381%" x2="-8.04%" y1="52.762%" y2="48.03%"><stop offset=".41%" stop-color="#F2841E"/><stop offset="36.65%" stop-color="#F27F1F" stop-opacity=".636"/><stop offset="82.47%" stop-color="#F06F23" stop-opacity=".176"/><stop offset="100%" stop-color="#EF6724" stop-opacity="0"/></linearGradient><linearGradient id="e" x1=".027%" x2="99.992%" y1="50.048%" y2="50.048%"><stop offset=".41%" stop-color="#F2841E"/><stop offset="36.65%" stop-color="#F27F1F" stop-opacity=".636"/><stop offset="82.47%" stop-color="#F06F23" stop-opacity=".176"/><stop offset="100%" stop-color="#EF6724" stop-opacity="0"/></linearGradient><linearGradient id="f" x1=".031%" x2="99.987%" y1="50.029%" y2="50.029%"><stop offset=".41%" stop-color="#F2841E"/><stop offset="36.65%" stop-color="#F27F1F" stop-opacity=".636"/><stop offset="82.47%" stop-color="#F06F23" stop-opacity=".176"/><stop offset="100%" stop-color="#EF6724" stop-opacity="0"/></linearGradient><path id="a" d="M0 0h487v387H0z"/></defs><g fill="none" fill-rule="evenodd"><path fill="#FFF" d="M-736-6801H704V3486H-736z"/><g><mask id="b" fill="#fff"><use xlink:href="#a"/></mask><use fill="#FFF" xlink:href="#a"/><g mask="url(#b)"><path fill="#7091E7" fill-rule="nonzero" d="M25.45 323.68c-5.96 3.12-11.53 6.95-11.39 11.28.24 7.8 18.25 12.33 33.73 12.69 12.74.3 25.62-.98 37.17-3.71 5.82-1.37 11.34-3.11 17.49-4.05 11.98-1.82 24.82-.42 37.17.58 19.39 1.56 40.43 1.93 57.4-3.05 16.97-4.98 26.94-16.97 16.06-25.2-9.14-6.91-27.83-8.38-44.31-8.73-49.71-1.06-106.83 1.1-143.32 20.19zM327.71 207.78c-4.07 2.13-7.88 4.75-7.78 7.71.17 5.33 12.47 8.42 23.04 8.67 8.71.21 17.5-.67 25.4-2.54 3.97-.94 7.75-2.13 11.95-2.77 8.18-1.25 16.95-.29 25.4.39 13.25 1.07 27.62 1.32 39.22-2.08 11.59-3.4 18.41-11.6 10.97-17.22-6.24-4.72-19.01-5.73-30.27-5.97-33.97-.71-73 .77-97.93 13.81z" opacity=".6"/><g fill-rule="nonzero"><path fill="#F0A424" d="M359.76 97.12c1.19.44 2.95 2.23 4.2 1.6-.07.07.55 1.31.45 1.33-.62.17-2.26.73-2.87.37-.6-.35-3.15-3.8-1.78-3.3z"/><path fill="#F0A424" d="M355.22 98.56c1.35 1.89 7.39 1.01 8.16 1.73.35.33 1.79-1.81.26-1.49-3.1.65-8.94-.97-8.42-.24z"/><path fill="#FAAB2C" d="M354.04 99.21c1.35 1.89 9.39 1.86 10.16 2.57.35.33-.95-.97-.51-1.15.45-.19 2.58-1.42 1.82-1.8-1.5-.62-1.68.15-3.21.47-3.09.65-8.78-.82-8.26-.09z"/><path fill="#FCB514" d="M415.32 114.16c-4.79-.14-15.32 1.41-24.37 0-2.91-.45-16.58-9.43-22.01-13.4-3.28-2.39-4.27-2.5-5.85-1.71-3.82 1.5-10.5.24-7.43 1.83 3.41 1.77 7.74.08 8.55.91 3.78 3.46 12.44 20.28 17.02 24.08 5.2 4.31 20.06 5.06 28.78 6.3 18.27 2.57 12.01-17.11 5.31-18.01z"/><path fill="#FAAB2C" d="M415.32 114.16c-4.73-.14-15.03 1.36-24 .05-2.26 1.61-4.03 3.71-5.32 6.29.86-.86 1.72.86 2.58.86-8.2 6.3-11.77-3.1-17.16-9.25 3.51 5.59 7.28 11.66 9.81 13.75 5.2 4.31 20.06 5.06 28.78 6.3 18.27 2.58 12.01-17.1 5.31-18z"/><g transform="translate(380 59)"><g fill="#C44249"><path d="M84.84 59.78c1.5.15-.32 11.74-2.45 16.07-2.4-1.64 2.04-9.78 2.45-16.07z"/><path d="M97.13 75.52c-1.92-.53-9.9.59-14.7-.53 1.98-2.13 17.03-1.25 14.7.53z"/><path d="M97.93 61.97c.9 1.04-10.25 12.58-16.05 13.6-2.08-3.1 14.56-15.34 16.05-13.6z"/></g><g fill="#F68E1E"><path d="M84.84 59.78c.91.48-.69 13.4-3.83 17.19-.45-.31-4.91-2.99-3.81-3.23 4.35-.93 6.61-14.49 7.64-13.96z"/><path d="M97.13 75.52c-.02 1.03-9.89.63-15 1.63.84-4.55 15.03-3.05 15-1.63z"/><path d="M97 62.34c.87 1.06-10.7 13.33-16.5 14.35-2.08-3.1 15.3-15.81 16.5-14.35z"/></g><path fill="#F68E1E" d="M82.14 77.16l-1.8-1.29 1.99-2.48 2.23 2.28-2.42 1.49"/><path fill="#F8AA2A" d="M31.23 144.67c-.33-.14-.65-.29-.96-.48-.09-.06-.19-.12-.28-.17-.43-.12-.87-.21-1.3-.29-.15-.03-.3-.07-.44-.11-2.16-.26-6.36.01-9.21 1.49-2.1 1.14.18.86 3.03.58 1.72-.19.43.17-1.54 1.31-1.97 1.14-3.04 2.44-2.6 3.08.43.65 5.45-3.19 7.99-2.66.35.08-2.95 3.13-3.49 5.42-.2 1.51.57 1.46 1.47.03.89-1.43 5.24-6.47 6.72-5.62 1.47.85 1.44 1.71 2.34 1.4.9-.31-.32-2.28-1.15-3.31-.22-.27-.41-.48-.58-.67z"/><g fill="#F68E1F"><path d="M20.77 145.3c-1.12.14-1.66.06-1.9-.11-1.81 1.04.42.77 3.19.49 1.44-.16.77.07-.64.81.22-.08.44-.17.68-.28 2.25-1.05 2.06-1.24-1.33-.91zM32.17 147.75c-.7-.83-1.69-1.13-2.03-1.2-.34-.07-.57-.15-1.82.67-.95.62-4.37 4.91-5.16 5.45-.3.2-.5.04-.61-.25-.05.14-.09.28-.13.41-.2 1.51.57 1.46 1.47.03.89-1.43 5.24-6.47 6.72-5.62 1.47.85 1.44 1.71 2.34 1.4.09-.03.15-.08.2-.14-.3-.04-.61-.31-.98-.75zM25.39 146.82c-2.32.25-4.44 1.19-6.26 2.15-.64.34-.94.29-1.07.09-.25.4-.32.76-.14 1.01.43.64 5.45-3.19 7.99-2.66.09.02-.06.23-.33.57.64-.66.78-1.22-.19-1.16z"/></g><path fill="#F7CF61" d="M25.82 144.04s-2.86.25-5.13 1c-1.06.31-.46-.41 2.16-.93 2.63-.37 4.19-.23 2.97-.07zM22.84 146.55s-2.39.93-3.78 2.12c-.43.41-.22-.37 1.36-1.32 1.57-.94 3.07-1.11 2.42-.8zM26.5 148.03s-1.89 1.73-2.75 3.35c-.25.54-.34-.27.79-1.72 1.12-1.47 2.45-2.16 1.96-1.63z"/><path fill="#FAAB2C" d="M31.44 129.38c.66-1.57-.05-1.36-1.44-2.38-.21.47-1.05 2.76-1.18 3.44-1.14 4.31-1.23 8.1-.63 12.5-.1.38-.23.59-.41.67.77.45 2.62 1.73 3.46 1.05-1.86-5.06-1.87-10.36.2-15.28z"/><path fill="#F68E1E" d="M30.88 132.1c.51-2.04 1.17-4.03 1.87-6.01-.79.54-1.66.69-2.59.49-.05.14-.83 2.22-.88 2.36 1.39 1.02 1.53 1.44.87 3.01-2.07 4.92-1.22 7.37.63 12.44.26.16.21.12.47.28-.2-.35-.3-.75-.41-1.14-1.16-4.12-.98-7.39.04-11.43z"/><path fill="#CB7128" d="M38.26 127.05s-14.01 12.51-15.56-22.99c-1.55-35.5 18.38-17.41 18.38-17.41s7.26 16.56-2.82 40.4z"/><path fill="#F8AA2A" d="M45.91 130.91s-.31 11.52 2.26 14.88c.65 1.78-7.14.41-10.24 1.09-2.21.53 2.96.64 5.65 1.08 1.63.25.36.26-1.74.82-2.09.56-3.39 1.49-3.15 2.19.24.7 5.79-1.59 8-.47.3.16-3.48 2.15-4.54 4.12-.56 1.34.17 1.48 1.34.39 1.17-1.09 6.4-4.76 8-4.56 1.63-.27-.61-2.55-1.02-3.46-2.12-4.69-.94-15.1-1.27-17.74-1.44.06-3.29 1.66-3.29 1.66z"/><g fill="#F68E1F"><path d="M50.46 146.98c-2.25-6.78-.94-15.1-1.27-17.74-1.44.08-3.29 1.67-3.29 1.67l.36 4.53c2.32-4.29 1.32 8.76 4.2 11.54zM42.47 147.29c-1.07-.15-4.55-.16-4.72-.37-1.92.5 3.21.61 5.82 1.04 1.36.21.69.25-.78.58.22-.02.45-.05.7-.09 2.31-.42 2.18-.64-1.02-1.16zM50.95 147.75c.6 1.51-.99 2.49-2.01 3.16-.9.59-5.22 3.43-6.09 3.73-.33.11-.46-.09-.5-.38-.08.12-.15.23-.22.35-.56 1.34.17 1.48 1.34.39 1.17-1.09 6.5-3.81 7.86-4.39 2-.72.03-2.42-.38-2.86zM46.34 149.82c-2.19-.34-4.37-.01-6.28.43-.67.15-.94.04-1-.18-.33.31-.48.62-.38.89.24.7 5.79-1.59 8-.47.08.04-.11.2-.45.44.75-.44 1.02-.93.11-1.11z"/></g><path fill="#F7CF61" d="M47.43 147.34s-2.69-.45-4.96-.32c-4.07.13-3.32-.67 2.22-.34 2.49.3 3.9.8 2.74.66zM44.06 148.94s-2.42.26-4 1.01c-.5.27-.11-.39 1.57-.88 1.69-.47 3.11-.26 2.43-.13zM47.06 151.2s-2.17 1.12-3.36 2.39c-.37.43-.25-.33 1.15-1.39 1.4-1.05 2.79-1.36 2.21-1z"/><path fill="#F68E1E" d="M51.32 129.8s-14.01 12.51-15.56-22.99C34.21 71.31 54.14 89.4 54.14 89.4s7.26 16.56-2.82 40.4z"/><path fill="#F68E1E" d="M26.52 95.81c2.95-6.59 6.89-12.85 12.31-17.63 5.42-4.78 12.42-7.98 19.65-7.95 8.43.03 17.49 1.19 23.66 6.93-5.62 1.4-10.08 23.22-14.53 30.24-4.27 6.74-11.13 12.18-18.76 13.94-5.86 1.35-12.93 1.14-18.55-1.01-2.7-1.04-6.09-19.37-3.78-24.52z"/><path fill="#E38027" d="M63.56 70.4c1.65.13 2.48.16 4.1.45 1.75 4.14 2.69 15.12.32 20.39 1.43-6.82-.39-16.56-4.42-20.84z"/><path fill="#F68E1E" d="M15.67 57.51c-12.64 12.92-12.9 40.01-1.45 54.26 11.45 14.25 30.98 15.33 43.62 2.41 12.64-12.92 13.59-34.95 2.14-49.2s-31.67-20.39-44.31-7.47z"/><path fill="#E38027" d="M22.87 109.23c1.51-1.65-18.49-17.6-6.58-21.99 6.51-2.39 2.35 31.14 36.24 32.94-16.56 6.5-33.65 2.51-42.02-14.28-4.02-5.85-4.59-16.41-4.59-21.89-.02-6.31 7.05 31.47 16.95 25.22z"/><path fill="#E38027" d="M37.33 67.7c.11 6.55 2.04 17.3-16.61 28.64-9.42 2.29-15.97-1.88-17.86-2.06 2.84 5.56 11.78 6.5 10.4 6.4-1.37-.1-6.46-.91-8.14-.8 4.59 4.32 9.85 2.5 8.92 2.93-.93.42-1.4.68-2.96 1.13 4.06.89 6.05-.79 9.94-2.3 4.06.39 18.45-1.01 26.31-9.23 3.57-4.23 5.93-11.51 6.41-23.29.65-15.6-17.86-14.99-16.41-1.42z"/><path fill="#FCB514" d="M35.3 66.72c.11 6.55 2.04 17.3-16.61 28.64C9.27 97.65 2.72 93.48.83 93.3c2.84 5.56 11.78 6.5 10.4 6.4-1.37-.1-6.46-.91-8.14-.8 4.59 4.32 9.85 2.5 8.92 2.93-.93.42-1.4.68-2.96 1.13 4.06.89 6.05-.79 9.94-2.3 4.06.39 18.45-1.01 26.31-9.23 3.57-4.23 5.93-11.51 6.41-23.29.65-15.59-17.86-14.99-16.41-1.42z"/><path fill="#E38027" d="M47.76 64.24c-1.78 4.63-7.79 5.53-12.47 1.21-1.77 1.59-11.18 7.38-13.82-3.77-2.64.85-6.18 2.44-9.88 1.15 2.48 1.93 6.89 2.88 9.45 1.39 2.63 10.79 12.48 4.54 14.25 2.95 4.69 4.31 10.1 3.08 11.88-1.55 6.92 3.6 11.82-2.79 11.65-2.9-1.93 1.74-5.53 4.39-11.06 1.52z"/><g><path fill="#F68E1E" d="M22.15 63.25c0 2.35 1.54 4.34 3.42 5.28 3.38 1.69 7.96-1.06 9.73-2.65 4.69 4.31 10.72 2.86 12.49-1.77 6.92 3.6 11.09-1.13 12.32-2.36-.33-.23-.67-.45-1.04-.65-12.25-6.82-10.24-22.22-11.11-27.24-1.18-21.58-20.68-15.08-20.68-15.08-.78.54-8.75 3.01-10.67 13.22 2.69 18.43-1.6 20.77-7.07 29.86 2.25 1.69 10.05 2.88 12.61 1.39z"/><path fill="#E38027" d="M20.48 44.46s6.64 10.25.21 17.41c0 0 .02 1.52.68 3.53s5.75-4.93 5.75-4.93.03-16.61-6.64-16.01z"/><path fill="#FAAB2C" d="M59.07 61.1c-10.45-5.82-10.71-17.49-11.05-26.49-.65-18.45-15.07-18.73-20.74-15.82-2.18.98-5.05 2.6-7.71 5.56-1.16 1.48-1.27 2.82-2.21 5.36-.32 7.97 6.45 7.65 3.12 14.75 6.84 8.36 3.54 15.67.68 17.73 0 2.35 2.32 5.73 4.2 6.67 3.93 1.86 8.16-1.38 9.93-2.97 4.69 4.31 10.72 2.86 12.49-1.77 6.92 3.6 11.09-1.13 12.32-2.36-.32-.24-.67-.45-1.03-.66z"/><path fill="#E59F62" d="M13.51 42.9l3.93-4.02 5.87.66z"/><path fill="#4C1715" d="M15.17 41.77l2.27-2.89 5.87.66z"/><path fill="#D1683E" d="M30.08 17.11c-1.46.18-1.68 1.11-2.8 1.68-1.61-.49-4.38-3.24-2.75-6.5 1.56-3.11 6.84-.27 7.16.51-2.26-4.68.52-16.04 10.72-11.24.63.29 1.19.68 1.72 1.12 11.2 9.24 7.81 17.54 7.51 21.59 1.19-.35 4.46-9.14 7.34-3.08 2.33 4.9-6.69 12.14-11.03 12.67-1.16-6.72-10.46-17.67-17.87-16.75z"/><path fill="#C44249" d="M31.13 17.64c-1.46.18-2.74.58-3.85 1.14-1.7-1.36-3.42-3.42-2.23-5.95 1.77-3.78 6.32-.82 6.64-.04-1.64-4.72 1.57-15.5 11.77-10.71.63.29 1.19.68 1.72 1.12 11.2 9.24 7.09 17.82 6.79 21.87 1.19-.35 5.05-10.44 7.28-3.08 1.57 5.19-6.91 12.07-11.24 12.61-1.16-6.72-9.46-17.88-16.88-16.96z"/></g><path fill="#F8BD68" d="M21.5 24.34s-9.87 2.65-4.43 12.14l4.54-4.3-.11-7.84z"/><path fill="#F4E1CA" d="M21.07 25.01s-8.7 2.61-4.14 10.71l4.23-3.79-.09-6.92z"/><path fill="#4C1715" d="M17.13 29.09c.53.47.78 1.72.55 2.79-.23 1.08-.85 1.57-1.38 1.1-.53-.47-.78-1.72-.55-2.79.22-1.08.84-1.57 1.38-1.1z"/><path fill="#F68E1E" d="M21.21 27.72s-3.84-.53-5 .14c-.88-.48-.16-2.35 1.12-1.93 1.94-4.41 6.94-2.73 8.05-.62.12.22-4.17 2.41-4.17 2.41z"/><path fill="#F6A82D" d="M21.21 28.11s-4.03-.74-5-.26c-.52-.28-.27-2.11 1.16-1.85 2.83-4.7 8.04-1.9 8.18-.51.08.26-4.34 2.62-4.34 2.62z"/><path fill="#F68E1E" d="M17.74 26.02c.52-.16 1.07-.2 1.61-.2.54.01 1.09.07 1.62.18.53.11 1.06.25 1.57.44.26.09.51.2.76.3l.74.34c.07.03.1.11.06.18-.03.07-.11.1-.18.06h-.01l-.73-.33c-.25-.1-.49-.21-.74-.3-.5-.18-1.01-.35-1.53-.47a10.6 10.6 0 00-1.58-.25c-.52-.04-1.06-.05-1.59.05z"/><circle cx="28.31" cy="40.16" r="5.44" fill="#F16A6D" opacity=".33"/><path fill="#F7B66B" d="M13.51 42.9l6.97 1.56 2.83-4.92z"/><g fill="#F8C890"><path d="M19.16 32.01s.01 2.18-8.34 7.54l13.66-.03s-4.41-1.3-5.32-7.51z"/></g><g transform="translate(18 25)"><ellipse cx="7.017" cy="7.948" fill="#F8BD68" rx="7.12" ry="5.81" transform="rotate(-82.386 7.017 7.948)"/><ellipse cx="6.583" cy="7.887" fill="#F4E1CA" rx="6.28" ry="5.12" transform="rotate(-82.386 6.583 7.887)"/><path fill="#4C1715" d="M4.31 5.15c.92.7 1.27 2.45.78 3.93s-1.63 2.11-2.55 1.41c-.92-.7-1.27-2.45-.78-3.93.49-1.47 1.63-2.11 2.55-1.41z"/></g><g><path fill="#F68E1E" d="M19.43 28.93s7.34-3.4 12.93 6.26c.97 1.73-.59-17.33-11.06-8.08-1.2-.42-2.48.84-1.87 1.82z"/><path fill="#F6A82D" d="M19.43 28.93s6.21-2.42 12.46 6.36c2.52 4.03.31-17.04-10.57-7.99-1.19-.42-2.45 1.04-1.89 1.63z"/><path fill="#F68E1E" d="M21.64 27.4c1.03-.1 2.07.02 3.07.26.5.12 1 .28 1.48.46l.72.3.69.37c.23.11.44.27.66.41.22.14.44.28.63.45l.61.49c.19.18.37.36.56.54l.28.27c.09.09.17.19.26.29l.5.59c.09.1.16.2.23.31l.22.32.44.64c.04.06.03.14-.03.18-.06.04-.14.03-.18-.03l-.01-.01-.44-.63-.22-.31c-.07-.11-.14-.21-.23-.3l-.49-.59c-.08-.1-.16-.2-.25-.29l-.27-.27c-.18-.18-.36-.36-.54-.53l-.59-.48c-.19-.17-.4-.31-.62-.45-.21-.14-.41-.3-.64-.41-.87-.52-1.82-.92-2.81-1.19-.97-.28-2-.43-3.03-.39z"/></g></g></g><path fill="#2F4E9C" fill-rule="nonzero" d="M20.67 213.6l39.36 56.01-56.22-19.16c-3.09-1.55-3.3-3.51-1.43-6.41l18.29-30.44z"/><path fill="#223870" fill-rule="nonzero" d="M38.49 236.35l-34.75 11.2c-.58.19 18.08-30.68 18.08-30.68l16.67 19.48z"/><path fill="#1B2C59" fill-rule="nonzero" d="M38.49 236.35l22.28 29.92-57.03-18.72z"/><path fill="#2F4E9C" fill-rule="nonzero" d="M20.67 213.6l24.7-7.89 58.69 50.84-44.03 13.06z"/><path fill="#223870" fill-rule="nonzero" d="M20.67 213.6l24.7-7.89 58.69 50.84-22.64 6.72z" opacity=".74"/><path fill="#2F4E9C" fill-rule="nonzero" d="M307.71 125.42L26.36 211.81v1.58c0 2.36 1.09 4.6 2.95 6.05l166.86 129.12a5.673 5.673 0 005.5.81l281.86-108.38.26-.43c1.33-2.18.65-5.02-1.52-6.37L307.71 125.42z"/><path fill="#567EE3" fill-rule="nonzero" d="M310.37 121.06l-284 90.75 170.36 131.85a9.074 9.074 0 008.81 1.29l276.71-106.8c1.65-.64 1.89-2.88.41-3.85L310.37 121.06z"/><path fill="#D9E2F8" fill-rule="nonzero" d="M302.95 139.89l-236.5 75.48 140.42 104.86 238.4-86.81z"/><path fill="#7091E7" fill-rule="nonzero" d="M41.15 201.45c-.83 0-1.49 1.26-1.49 2.82 0 1.56.67 2.82 1.49 2.82.16 0 .31-.06.45-.14l39.55-12.64c-.51-1.72-1.39-3.34-2.49-4.84l-37.51 11.98z"/><path fill="#5A81E4" fill-rule="nonzero" d="M258.21 132.08L78.65 189.47c1.1 1.5 1.98 3.11 2.49 4.84l179.06-57.24c-.16-1.74-.95-3.46-1.99-4.99z"/><path fill="#B4C5F2" fill-rule="nonzero" d="M284.66 161.28l-155.49 53.57c-2.45.84-2.91 4.11-.79 5.6l16 11.25c.83.59 1.9.74 2.86.4l156.72-54.05c2.53-.87 2.91-4.28.65-5.7l-17.22-10.76c-.82-.51-1.82-.62-2.73-.31zM164.45 239.66l158.27-54.58c.91-.31 1.91-.2 2.72.31l17.34 10.84c2.27 1.42 1.88 4.83-.65 5.7l-159.56 55.03c-.96.33-2.03.18-2.86-.4l-16.05-11.29c-2.12-1.5-1.66-4.77.79-5.61zM367.55 213.09l-96.39 33.24c-2.45.85-2.91 4.11-.79 5.6l16.72 11.75c.83.59 1.9.74 2.86.4l97.74-33.71c2.53-.87 2.91-4.28.65-5.7l-18.06-11.29c-.82-.49-1.82-.6-2.73-.29z"/><path fill="#B4C5F2" fill-rule="nonzero" d="M295.37 181.01l1.88 2.75c1.05 1.54-.2 3.6-2.05 3.37l-12.94-1.6M203.97 249.62l1.88 2.75c1.05 1.54-.2 3.6-2.05 3.37l-12.94-1.6M381.91 231.99l1.88 2.75c1.05 1.54-.2 3.6-2.05 3.37l-12.94-1.6"/><g fill="#86A2EB" fill-rule="nonzero"><path d="M156.9 225.04c-4.33 0-9.87-1.23-13.92-3.26-3.12-1.53-4.76-3.28-4.63-4.92.07-.85.66-2.02 3.06-2.74 4.25-1.36 12.01-.25 17.28 2.48 3.3 1.73 5.07 3.73 4.87 5.46-.1.85-.71 1.99-3.06 2.6-1.02.26-2.25.38-3.6.38zm-11.01-10.51c-1.58 0-3.02.18-4.18.55-1.46.44-2.29 1.1-2.36 1.87-.1 1.17 1.43 2.64 4.07 3.94 5.13 2.56 12.68 3.83 16.83 2.81 1.4-.36 2.22-.99 2.31-1.75.11-.99-.97-2.69-4.34-4.46-3.6-1.87-8.4-2.96-12.33-2.96z"/><path d="M159.35 220.27c.62.32 1.12.66 1.52.99-.27.79-1.13 1.43-2.61 1.82-1.48.38-3.37.46-5.43.3-.71-.24-1.39-.52-2-.83-2.87-1.45-3.28-3.13-.95-3.78 2.33-.67 6.56-.01 9.47 1.5zM148.52 216.21c1.6.81 1.86 1.78.56 2.16-1.3.37-3.64.02-5.23-.78-1.58-.79-1.82-1.73-.54-2.12 1.29-.39 3.62-.07 5.21.74z"/></g><g fill="#86A2EB" fill-rule="nonzero"><path d="M297.15 257.37c-4.34 0-9.74-1.14-13.67-3.05-3.03-1.45-4.64-3.13-4.52-4.74.06-.87.67-2.07 3.17-2.84 4.34-1.4 12.13-.39 17.37 2.26 3.22 1.65 4.95 3.57 4.77 5.27-.09.87-.72 2.04-3.18 2.69-1.12.28-2.47.41-3.94.41zm-10.21-10.27c-1.7 0-3.25.19-4.5.6-1.54.47-2.42 1.17-2.47 1.96-.08 1.14 1.39 2.54 3.95 3.77 5.08 2.47 12.68 3.62 16.93 2.57 1.48-.39 2.35-1.04 2.43-1.83.11-.97-.95-2.6-4.23-4.28-3.5-1.78-8.19-2.79-12.11-2.79z"/><path d="M300.07 252.62c.62.31 1.11.64 1.5.96-.3.78-1.19 1.42-2.71 1.82-1.51.39-3.43.5-5.51.36-.7-.23-1.38-.49-1.99-.79-2.85-1.4-3.2-3.06-.82-3.73 2.38-.69 6.64-.08 9.53 1.38zM289.26 248.73c1.59.79 1.81 1.74.49 2.13-1.32.38-3.68.06-5.26-.7-1.57-.76-1.78-1.69-.47-2.09 1.32-.42 3.65-.12 5.24.66z"/></g><g fill="#86A2EB" fill-rule="nonzero"><path d="M329.58 202.29c-4.33 0-9.87-1.23-13.92-3.26-3.12-1.53-4.76-3.28-4.63-4.92.07-.85.66-2.02 3.06-2.74 4.26-1.36 12.01-.25 17.28 2.48 3.3 1.73 5.07 3.73 4.87 5.46-.1.85-.71 1.99-3.06 2.6-1.02.26-2.25.38-3.6.38zm-11.01-10.51c-1.58 0-3.02.18-4.18.55-1.46.44-2.29 1.1-2.36 1.87-.1 1.17 1.43 2.64 4.07 3.94 5.13 2.56 12.68 3.83 16.83 2.81 1.4-.36 2.22-.99 2.31-1.75.11-.99-.97-2.69-4.34-4.46-3.6-1.88-8.41-2.96-12.33-2.96z"/><path d="M332.03 197.52c.62.32 1.12.66 1.52.99-.27.79-1.13 1.43-2.61 1.82-1.48.38-3.37.46-5.43.3-.71-.24-1.39-.52-2-.83-2.87-1.45-3.28-3.13-.95-3.78 2.33-.67 6.56-.01 9.47 1.5zM321.2 193.46c1.6.81 1.86 1.78.56 2.16-1.3.37-3.64.02-5.23-.78-1.58-.79-1.82-1.73-.54-2.12 1.29-.39 3.61-.07 5.21.74z"/></g><path stroke="#C6D4F5" stroke-linecap="round" d="M286.15 166.06l-110.29 37.99M291.43 169.13l-101.71 35.04M298.11 173.3l-69.5 23.44M304.67 198.08l-114.19 39.34M309.96 201.15l-88.84 30.6M316.64 205.33l-68.82 23.2"/><path fill="#C6D4F5" fill-rule="nonzero" d="M321.49 246.74c1.59.79 1.81 1.74.49 2.13-1.32.38-3.68.06-5.26-.7-1.57-.76-1.78-1.69-.47-2.09 1.31-.41 3.65-.12 5.24.66z"/><path fill="#C6D4F5" fill-rule="nonzero" d="M332.86 242.8c1.59.79 1.81 1.74.49 2.13-1.32.38-3.68.06-5.26-.7-1.57-.76-1.78-1.69-.47-2.09 1.31-.41 3.65-.12 5.24.66z" opacity=".7"/><path fill="#C6D4F5" fill-rule="nonzero" d="M343.88 239.19c1.59.79 1.81 1.74.49 2.13-1.32.38-3.68.06-5.26-.7-1.57-.76-1.78-1.69-.47-2.09 1.32-.42 3.65-.12 5.24.66z" opacity=".5"/><path fill="#7091E7" fill-rule="nonzero" d="M282.52 127.09c-.47-1.33-1.43-2.21-2.19-2.04l-.01-.03-22.1 7.06c1.04 1.53 1.82 3.26 1.99 4.99l21.78-6.96c.77-.28 1.01-1.63.53-3.02z"/><g transform="translate(37 115)"><path fill="#F66318" fill-rule="nonzero" d="M98.45 89.51c3.45-.2 8.14-6.63 10.42-11.47 4.06-8.61 2.71-15.42 2.18-16.49-.54-1.07-2.2-2.55-2.2-2.55l-1.84-4.46.55.08c.63.09 1.19.45 1.52 1 .4.65 1 1.47 1.56 1.71.97.42 1.06-.69 1.06-.69L110.47 49l1.41-.08 1.32 6.38.72-6.5 1.88-.11-.71 6.66 1.88-5.46 1.16 1.03s-2.82 2.34-2.28 16.96c.54 14.61.31 30.35-13.89 44.64-15.15 10.15-22.93-18.26-3.51-23.01z"/><path fill="#E8580E" fill-rule="nonzero" d="M94.91 90.77c-.16 1.85.56 3.31 1.17 5.17 1.24 4.14 5.33 9.26 8.68 7.94 6.24-2.45 7.27-7.13 9.69-13.53-1.77 7.53-5.37 15.02-12.46 22.15-14.16 9.49-21.87-14.6-7.08-21.73z"/><path fill="#C8E8E8" fill-rule="nonzero" d="M92.09 86.51l-1.11 12.42" opacity=".36"/><g fill-rule="nonzero"><path fill="#2D355C" d="M45.77 172.7s-3.31 4.29-6.73 5.9c-6.3 2.96-13.46 2.93-4.5-6.68 0 0-20.77 8.16-3-4.32 0 0-31.62 10.3-3.99-5.28 0 0-31.64-1.38-3.55-8.2 0 0-40.36.73-2.57-7.74 0 0-18.06-3.57-1.55-5.32 0 0-34.63-5.21-1.61-8.24 0 0-30.84-10.63-1.63-9.7 0 0-29.38-10.66-.62-7.29 0 0-33.71-8.15-1.12-8.25 0 0-25.91-7.31 1.3-8.78 0 0-24.11-15.13 1.85-5.38 0 0-22.2-17.11 4.74-6.9 0 0-21.99-21.98 4.75-6.41 0 0-15.44-20.15 4.76-5.92 0 0-7.08-14.95 3.36-2.49 0 0-13.23-32.35 5.31-2.53 0 0-5.73-21.3 5.31-2.04 0 0-2.85-23.3 3.85-2.02 0 0-4.87-27.15 5.8-2.05 0 0-2.02-31.09 6.3-1.57 0 0 .61-19.95 6.81-.12 0 0 3-22.43 3.9.42 0 0 13.3-17.75 8.79 1.79 0 0 12.51-7.52-.31 9.73 0 0-26.41-7.79-39.68 11.42s-14.29 38.1-8.59 63.39c5.4 23.98 12.62 24.58 12.62 24.58z"/><path fill="#3A436B" d="M48.96 165.35c-1.18 4.63-11.41 12.7-13.71 10.46-1.05-1.02 1.26-2.98 4.17-11.6 0 0-23.43 13.62-2.55-3.68 0 0-31.64 7.77-3.4-4.5 0 0-26.95-1.17-3.03-6.99 0 0-34.37.62-2.19-6.59 0 0-15.38-3.04-1.32-4.53 0 0-29.49-4.44-1.37-7.02 0 0-26.26-9.06-1.39-8.26 0 0-25.02-9.08-.53-6.21 0 0-28.71-6.94-.96-7.02 0 0-22.07-6.23 1.11-7.48 0 0-20.53-12.89 1.57-4.59 0 0-18.9-14.57 4.04-5.87 0 0-18.72-18.72 4.04-5.46 0 0-13.15-17.16 4.05-5.04 0 0-6.03-12.73 2.86-2.12 0 0-11.27-27.55 4.52-2.15 0 0-4.88-18.14 4.53-1.74 0 0-2.43-19.84 3.28-1.72 0 0-4.14-23.12 4.94-1.75 0 0-1.72-26.48 5.36-1.34 0 0 .52-16.99 5.8-.1 0 0 2.56-19.1 3.32.35 0 0 11.33-15.12 7.48 1.52 0 0 13.61-8.72-2.34 8.12 0 0-20.42-6.47-31.72 9.89-11.31 16.36-20.71 36.43-7.31 53.99 9.62 12.59 12.2 15.78 10.75 21.43z"/><path fill="#575F81" d="M22.76 149.46c.08.93 3.64 1.37 7.95.99 4.31-.38 7.73-1.44 7.64-2.37-.08-.93-3.64-1.37-7.95-.99-4.31.38-7.73 1.44-7.64 2.37zM28.11 158.61c.43.83 3.89-.12 7.72-2.11 3.83-1.99 6.59-4.27 6.16-5.1-.43-.83-3.89.12-7.72 2.11-3.84 2-6.6 4.28-6.16 5.1zM37.05 167.18c.67.64 3.64-1.37 6.63-4.49 2.99-3.12 4.86-6.18 4.19-6.82-.67-.64-3.64 1.37-6.63 4.49-2.99 3.13-4.87 6.18-4.19 6.82zM20.06 135c.07.93 3.63 1.41 7.94 1.07 4.31-.34 7.74-1.36 7.66-2.29-.07-.93-3.63-1.41-7.94-1.07-4.31.34-7.74 1.36-7.66 2.29zM17.45 108.16c-.17.91 3.13 2.32 7.38 3.14 4.25.82 7.83.74 8-.17.17-.91-3.13-2.32-7.38-3.14-4.25-.83-7.83-.75-8 .17zM23.53 92.16c-.17.91 3.13 2.32 7.38 3.14 4.25.82 7.83.74 8-.17.17-.91-3.13-2.32-7.38-3.14-4.24-.82-7.82-.75-8 .17zM34.28 77.04c-.75.56.73 3.83 3.29 7.31 2.57 3.48 5.26 5.85 6 5.29.75-.56-.73-3.83-3.29-7.31-2.56-3.48-5.25-5.85-6-5.29zM48.96 71.78c-.69.19-.53 2.95.36 6.16s2.16 5.66 2.85 5.47c.69-.19.53-2.95-.36-6.16-.88-3.22-2.16-5.67-2.85-5.47zM63.14 66.01c-.71 0-1.3 2.71-1.31 6.04-.01 3.34.56 6.04 1.28 6.04.71 0 1.3-2.71 1.31-6.04.01-3.33-.56-6.04-1.28-6.04zM75.88 68.96c-.61-.36-2.5 1.67-4.21 4.53-1.71 2.87-2.59 5.49-1.98 5.85.61.36 2.5-1.67 4.21-4.53 1.71-2.87 2.59-5.49 1.98-5.85z"/><path fill="#474F76" d="M49.69 157.88c-1 1.24-11.24 11.6-6.27-1.08 0 0-19.75 11.49-2.15-3.1 0 0-26.68 6.55-2.86-3.79 0 0-22.72-.99-2.55-5.89 0 0-28.98.52-1.85-5.55 0 0-12.97-2.56-1.12-3.82 0 0-24.86-3.74-1.15-5.92 0 0-22.14-7.63-1.17-6.96 0 0-21.09-7.65-.44-5.23 0 0-24.2-5.85-.81-5.92 0 0-18.6-5.25.93-6.3 0 0-17.31-10.86 1.33-3.87 0 0-15.94-12.29 3.4-4.95 0 0-15.79-15.78 3.41-4.6 0 0-11.09-14.47 3.42-4.25 0 0-5.08-10.73 2.41-1.79 0 0-9.5-23.23 3.81-1.81 0 0-4.12-15.29 3.81-1.47 0 0-2.05-16.73 2.77-1.45 0 0-3.49-19.49 4.16-1.47 0 0-1.45-22.32 4.52-1.13 0 0 .44-14.33 4.89-.09 0 0 2.15-16.1 2.8.3 0 0 9.55-12.74 6.31 1.28 0 0 11.48-7.35-1.97 6.85 0 0-17.21-5.46-26.74 8.34-2.35 3.4-4.8 7.13-6.94 10.99-6.56 11.83-10.23 24.92.85 33.53 12.83 9.95 10.29 15.35 7.2 19.15z"/><path fill="#F66318" d="M59.72 80.51l-4.55 5.31-9.37-5.19a5.524 5.524 0 01-.6-7.78 5.524 5.524 0 017.78-.6l6.74 8.26z"/><path fill="#E8580E" d="M55.77 77.94s-3.72-6-6.95-4.55c-3.24 1.45-2.83 4.82-1.78 5.79 1.05.97 5.11 2.58 5.11 2.58l3.62-3.82z"/><path fill="#575F81" d="M50.99 136.94s2.99-1.89-.13-6.81c0 0 3.47.8 1.03-2.83 0 0 4.93.78 2.25-5.66 0 0 6.1 1.19 1.9-4.14 0 0 3.73 2.96 4.06-2.67 0 0 4.76.13 1.43-4.78 0 0 7.77-.79 3.97-7.42 0 0 4.97-.09.98-5.42 0 0 7.63 3.32 1.46-2.84 0 0 4.53-.51 2.71-5.67 0 0 2.88 3.62 3.86-1.58 0 0 9.18-14.32-.49-6.45 0 0 5.05-12.41-4.38-.17 0 0-1.25-9.27-4.32.51 0 0-7.08-8.95-4.94 1.6 0 0-8.16-8.93-4.28 2.45 0 0-13.15-9.92-5.36 2.47 0 0-10.49-6.3-2.98 2.86 0 0-10.7-6.08-3.18 3.52 0 0-13.18-11.47-2.53 3.49 0 0-16.94-4.22-2.95 4.17 0 0-14.79-5.14-1.86 4.79 0 0-8.65.16-2.08 4.58 0 0-17.26 2.04-1.22 4.13 0 0-19.03-.09-.56 4.98 0 0-10.61-.67-.79 4.34 0 0-12.73 1.53.07 4.11 0 0-10.49 2.94 2.36 3.82 0 0-11.86 8.68 3.2 5.16 0 0-11.75 7.15 2.19 2.13 0 0-7.92 6.13 1.64 1.99 0 0-3.77 11.67 3.4 1.59 0 0-.7 5.9.44 6.15 2.58.56 2.03-7.44 2.03-7.44s7.78-1.55 7.61-3.65c-.07-1.17-4.54-1.31-4.54-1.31z"/><path fill="#575F81" d="M33.42 123.48c-.09.75 2.17 1.64 5.06 1.99 2.88.35 5.3.02 5.39-.73.09-.75-2.18-1.64-5.06-1.99-2.89-.35-5.3-.02-5.39.73zM32.46 104.18c-.16.57 2.35 1.79 5.61 2.72 3.26.94 6.04 1.23 6.2.66.16-.57-2.35-1.79-5.61-2.72-3.26-.94-6.04-1.23-6.2-.66zM31.81 116.93c-.17.73 1.98 1.87 4.8 2.54 2.82.67 5.25.62 5.42-.12.17-.73-1.98-1.87-4.8-2.54-2.82-.67-5.25-.62-5.42.12zM40.22 115.97c-.17.74 1.98 1.87 4.8 2.54 2.82.67 5.25.62 5.42-.12.17-.73-1.98-1.87-4.8-2.54-2.82-.67-5.25-.62-5.42.12zM31.24 113.16c.07.75 2.95 1.11 6.43.8 3.49-.31 6.25-1.17 6.19-1.92-.07-.75-2.95-1.11-6.43-.8-3.49.31-6.26 1.17-6.19 1.92z"/><path fill="#474F76" d="M34.84 121.35c.12.47 2.14.34 4.51-.27 2.37-.62 4.19-1.49 4.07-1.96-.12-.47-2.14-.34-4.51.27-2.37.61-4.19 1.49-4.07 1.96zM36.26 108.47c-.26.52 1.3 1.84 3.49 2.94 2.18 1.1 4.17 1.58 4.43 1.06.26-.52-1.3-1.84-3.49-2.94-2.18-1.11-4.17-1.58-4.43-1.06zM39.94 102.97c-.41.4.33 1.84 1.67 3.22 1.34 1.37 2.75 2.16 3.17 1.76.41-.4-.33-1.84-1.67-3.22l-.21-.21c-1.27-1.25-2.57-1.94-2.96-1.55zM62.09 91.36c-.39.38.2 1.6 1.3 2.73 1.11 1.13 2.32 1.74 2.71 1.36.39-.38-.19-1.6-1.3-2.73l-.17-.17c-1.06-1.02-2.17-1.55-2.54-1.19zM45.35 120.92c-.41.4.33 1.84 1.67 3.22 1.33 1.37 2.75 2.16 3.17 1.76.41-.4-.33-1.84-1.67-3.22l-.21-.21c-1.28-1.24-2.57-1.93-2.96-1.55zM61.51 83.02c-.58-.04-1.16 1.48-1.29 3.39-.14 1.91.22 3.49.8 3.53.58.04 1.16-1.48 1.29-3.39.14-1.91-.22-3.49-.8-3.53zM58.77 104.9c-.58-.04-1.16 1.48-1.29 3.39-.14 1.91.22 3.49.8 3.53.58.04 1.15-1.48 1.29-3.39.14-1.91-.22-3.49-.8-3.53zM69.68 83.96c-.24-.25-1.57.62-2.97 1.94-1.4 1.33-2.34 2.61-2.09 2.86.24.25 1.57-.62 2.97-1.94 1.4-1.32 2.33-2.6 2.09-2.86zM51.8 86.13c-.41.4.33 1.84 1.67 3.22 1.34 1.37 2.75 2.16 3.17 1.76.41-.4-.33-1.84-1.67-3.22-1.34-1.38-2.76-2.17-3.17-1.76z"/><path fill="#575F81" d="M73.82 85.66c-.4-.42-1.85.33-3.22 1.66-1.38 1.33-2.17 2.75-1.77 3.16.4.42 1.85-.33 3.22-1.66 1.38-1.33 2.17-2.75 1.77-3.16z"/><path fill="#474F76" d="M41.05 134.69c.12.47 1.47.52 3.01.12 1.54-.4 2.69-1.1 2.57-1.57-.12-.47-1.47-.52-3.01-.12-1.54.4-2.69 1.11-2.57 1.57zM41.86 101.78c.12.47 1.47.52 3.01.12 1.54-.4 2.69-1.1 2.57-1.57-.12-.47-1.47-.52-3.01-.12-1.54.4-2.69 1.1-2.57 1.57zM46.67 103.8c-.13.46 1.02 1.17 2.56 1.59 1.54.41 2.89.37 3.02-.09.13-.46-1.02-1.18-2.56-1.59-1.55-.41-2.9-.37-3.02.09zM49.07 118.62c.12.47 1.47.52 3.01.12 1.54-.4 2.69-1.1 2.57-1.57-.12-.47-1.47-.52-3.01-.12-1.54.4-2.69 1.1-2.57 1.57zM69.04 87.02c-.34.02-.56.95-.5 2.09.06 1.14.38 2.04.72 2.02.34-.02.56-.95.5-2.09-.06-1.13-.38-2.04-.72-2.02zM72.65 81.47c-.31-.13-.92.62-1.36 1.68-.44 1.06-.55 2.02-.23 2.14.31.13.92-.62 1.37-1.68.43-1.05.53-2.01.22-2.14zM45.56 94.82c-.19.45.86 1.3 2.33 1.9 1.47.6 2.82.73 3 .28.19-.45-.86-1.3-2.33-1.9-1.47-.6-2.81-.72-3-.28z"/><path fill="#474F76" d="M50.01 90.03c-.47.09-.57 1.66-.21 3.52s1.03 3.29 1.5 3.2c.47-.09.57-1.67.21-3.52-.36-1.86-1.03-3.29-1.5-3.2zM41.35 114.19c-.29.38.7 1.61 2.21 2.75s2.97 1.75 3.26 1.37c.29-.38-.7-1.61-2.21-2.75-1.52-1.14-2.98-1.75-3.26-1.37zM54.49 93.61c-.45.17-.26 1.74.42 3.5.68 1.76 1.59 3.05 2.04 2.88.45-.17.26-1.74-.42-3.5-.68-1.76-1.59-3.05-2.04-2.88zM38.22 128.31c.12.47 1.47.52 3.01.12 1.54-.4 2.69-1.1 2.57-1.57-.12-.47-1.47-.52-3.01-.12-1.54.4-2.69 1.11-2.57 1.57z"/><path fill="#575F81" d="M38.37 131.31c-.09.75 1.86 1.6 4.36 1.9 2.5.3 4.59-.06 4.68-.81.09-.75-1.86-1.6-4.36-1.9-2.49-.31-4.59.06-4.68.81zM51.61 103.73c.14.74 2.26.96 4.73.48 2.47-.48 4.36-1.47 4.22-2.21-.14-.74-2.26-.96-4.73-.48-2.47.48-4.36 1.47-4.22 2.21zM45.3 109.59c-.18.73 1.66 1.81 4.1 2.4 2.45.59 4.58.48 4.76-.25.18-.73-1.66-1.81-4.1-2.4-2.45-.59-4.57-.48-4.76.25zM56.97 92.72c-.41.44.76 2.18 2.62 3.89 1.85 1.7 3.69 2.72 4.1 2.28.41-.44-.76-2.18-2.62-3.89-1.85-1.7-3.69-2.72-4.1-2.28zM41.64 94.51c-.54.5.54 2.53 2.4 4.54 1.87 2.01 3.82 3.24 4.35 2.74.54-.5-.54-2.53-2.4-4.54-1.86-2.02-3.81-3.24-4.35-2.74zM66.45 82.19c-.53-.13-1.37 1.5-1.89 3.65-.52 2.14-.51 3.99.01 4.12.53.13 1.38-1.5 1.89-3.65.52-2.15.52-3.99-.01-4.12zM44.5 89.75c-.54.5.54 2.53 2.4 4.54 1.87 2.01 3.82 3.24 4.35 2.74.54-.5-.54-2.53-2.4-4.54-1.86-2.01-3.81-3.24-4.35-2.74zM54.79 83.18c-.54.5.54 2.53 2.4 4.54 1.87 2.01 3.82 3.24 4.35 2.74.54-.5-.54-2.53-2.4-4.54-1.86-2.02-3.81-3.24-4.35-2.74zM46.7 88.17c-.16.57 2.35 1.79 5.61 2.72 3.26.93 6.04 1.23 6.2.66.16-.57-2.35-1.79-5.61-2.72-3.27-.93-6.04-1.23-6.2-.66z"/><path fill="#474F76" d="M44.73 129.6c.12.47 1.47.52 3.01.12 1.54-.4 2.69-1.1 2.57-1.57-.12-.47-1.47-.52-3.01-.12-1.54.4-2.69 1.11-2.57 1.57zM51.41 109.46c-.42.4.33 1.84 1.67 3.22 1.34 1.37 2.75 2.16 3.17 1.76.41-.4-.33-1.84-1.67-3.22l-.21-.21c-1.27-1.24-2.57-1.93-2.96-1.55zM47.36 108.6c-.47.09-.57 1.67-.21 3.52.36 1.86 1.03 3.29 1.5 3.2.47-.09.57-1.67.21-3.52s-1.03-3.28-1.5-3.2zM51.63 99.1c-.41.4.33 1.84 1.67 3.22 1.34 1.37 2.75 2.16 3.17 1.76.41-.4-.33-1.84-1.67-3.22-1.34-1.37-2.76-2.16-3.17-1.76zM59 102.54c-.13.46 1.02 1.17 2.56 1.59 1.54.41 2.89.37 3.02-.09.13-.46-1.02-1.18-2.56-1.59-1.55-.41-2.9-.37-3.02.09zM60.39 93.78c-.47.09-.57 1.66-.21 3.52s1.03 3.29 1.5 3.21c.47-.09.57-1.67.21-3.52-.36-1.87-1.03-3.3-1.5-3.21z"/></g><path fill="#F66318" fill-rule="nonzero" d="M80.2 82.31l-6.91-2.74 1.98-11.21c1.19-3.01 4.6-4.48 7.61-3.29 3.01 1.19 4.48 4.6 3.29 7.61l-5.97 9.63z"/><path fill="#F66318" fill-rule="nonzero" d="M29.51 174.14c2.2-4.42 4.07-9.33 5.48-14.65.51-1.89 3-14.54 3.38-16.53 5.72-23.68 6.21-23.48 5.41-27.26-.12-16.59-2.75-21.93 1.2-30.03 1.89-5 10.48-14.42 20.07-15.72 9.59-1.3 20.05.38 23.5 6.82 3.44 6.43 6.52 6.8 6.24 12.13-.29 5.33 4.63 16.69 6.67 19.55 2.04 2.86 10.13 15.14 10.98 31.26.86 16.12 1.87 22.41-2.57 41.46-3.16 10.54-4.45 20.98-4.45 20.98l-3.29.74s-4.05-16.63-11.55-20.55c-7.5-3.93-27.04-6.23-38.21 3.41-16.83 13.26-21.91 27.01-21.91 27.01l-3.07-1.28c-.01.01-3.79-18.62 2.12-37.34z"/><path fill="url(#c)" fill-rule="nonzero" d="M86.38 111.29c9.01 2.96 17.35 10.4 17.23 35.24-.14 28.27-36.26 24.48-55.2 31.2-7.53 2.67-9.57-1.48-6.66-4.52 21.29-22.32 4.41-75.14 44.63-61.92z" opacity=".39"/><path fill="#DE540D" fill-rule="nonzero" d="M47.02 98.87c-2.98.18-8.59-3.73-4.13-5.61l.22-1.84c3.4 6.41 3.91 7.45 3.91 7.45z"/><path fill="#F66318" fill-rule="nonzero" d="M80.45 77s.19-3.72 3.7-4.14c3.51-.42 6.4 6.3 11.86 8.72 5.46 2.42 10.13 4.18 15.03 4.23 4.9.05 9.49-2.25 9.46-.81-.03 1.44-7.97 14.04-19.97 15.39-12 1.35-19.25 1.22-26.43-10.07-7.18-11.3-9.19-13.57-4.44-14.69C74.43 74.5 80.45 77 80.45 77z"/><path fill="url(#d)" fill-rule="nonzero" d="M80.45 77s.19-3.72 3.7-4.14c3.51-.42 6.4 6.3 11.86 8.72 5.46 2.42 10.13 4.18 15.03 4.23 4.9.05 9.49-2.25 9.46-.81-.03 1.44-7.97 14.04-19.97 15.39-12 1.35-19.25 1.22-26.43-10.07-7.18-11.3-9.19-13.57-4.44-14.69C74.43 74.5 80.45 77 80.45 77z" opacity=".39"/><circle cx="72.21" cy="85.56" r="5.99" fill="#FFF" fill-rule="nonzero"/><g fill-rule="nonzero" transform="translate(69 81)"><path fill="#FAF5DF" d="M6.56 1.62S8.27 3.73 8.3 6.88c1.54-3.71.26-5.18-1.74-5.26z"/><circle cx="4.56" cy="4.31" r="4.16" fill="#8B6239"/><path fill="#D9A556" d="M8.25 3.73a3.743 3.743 0 01-3.11 4.28A3.743 3.743 0 01.86 4.9C.54 2.86 2.8 6.48 4.85 6.16c2.04-.33 3.08-4.47 3.4-2.43z" opacity=".4"/><circle cx="4.56" cy="4.31" r="3.03" fill="#1A1A1A"/><circle cx="5.76" cy="2.92" r="1" fill="#FFF"/></g><circle cx="90.9" cy="80.51" r="4.9" fill="#FFF" fill-rule="nonzero"/><g fill-rule="nonzero" transform="translate(88 77)"><path fill="#FAF5DF" d="M5.74 1.33s1.73 2.5 1.37 5.06c.93-3.45.25-4.75-1.37-5.06z"/><circle cx="3.84" cy="3.7" r="3.4" fill="#8B6239"/><path fill="#D9A556" d="M6.82 3.02A3.067 3.067 0 01.84 4.38c-.38-1.65 1.68 1.18 3.33.81 1.65-.38 2.28-3.82 2.65-2.17z" opacity=".4"/><circle cx="3.823" cy="3.74" r="2.48" fill="#1A1A1A" transform="rotate(-3.83 3.823 3.74)"/><circle cx="4.74" cy="2.49" r="1" fill="#FFF"/></g><path fill="#010101" fill-rule="nonzero" d="M113.97 85.59s6.96-2.66 7.64-1.99c.68.66-.23 4.73-4.08 6.28-3.84 1.55-3.56-4.29-3.56-4.29z"/><circle cx="108.01" cy="90.6" r="1.1" fill="#81524F" fill-rule="nonzero"/><circle cx="105.58" cy="92.53" r="1" fill="#81524F" fill-rule="nonzero"/><circle cx="108.28" cy="93.45" r="1" fill="#81524F" fill-rule="nonzero"/><path fill="#E8580E" fill-rule="nonzero" d="M76.46 70.76s-.44-3.9 2.71-4.21c3.15-.3 4.31.62 5.2 1.76.89 1.14.69 3.42-.38 4.23-1.07.81-7.53-1.78-7.53-1.78z"/><path fill="#3F122A" fill-rule="nonzero" d="M30.4 213.38c-.17.9.08 3.99-.72 4.45-.61.35-6.93 1.46-8.97 1.31-2.07-.16-3.46-.1-5.15-1.32-.43-.31-.63-.58-.65-.81-.01-.08.03-.7.08-.77.75-1.33 8.78-.58 10.16-1.53.61-.42 1.77-2.22 2.17-2.61l3.08 1.28z"/><path fill="#5E1C3D" fill-rule="nonzero" d="M30.45 212.78c-.17.9.08 3.99-.72 4.45-.61.35-6.93 1.46-8.97 1.31-2.07-.16-3.46-.1-5.15-1.32-3.47-2.51 7.92-1.97 9.58-3.1.61-.42 1.77-2.22 2.17-2.61l3.09 1.27z"/><path fill="#3F122A" fill-rule="nonzero" d="M28.85 216.03c-3-.88-5.55-1.21-8.46-1.08 2.11-.21 4.18-.4 4.82-.84.61-.42 1.77-2.22 2.17-2.61l.28.12c-.79 1.42-.88 3.5 1.19 4.41z" opacity=".5"/><path fill="#3F122A" fill-rule="nonzero" d="M102.1 203.48c.01.92-.79 3.91-.09 4.51.54.46 6.56 2.66 8.59 2.88 2.06.21 3.43.52 5.3-.38.48-.23.73-.46.78-.68.02-.08.09-.69.06-.77-.5-1.44-8.53-2.13-9.72-3.31-.53-.52-1.35-2.5-1.68-2.96l-3.24.71z"/><path fill="#5E1C3D" fill-rule="nonzero" d="M102.15 202.87c.01.92-.79 3.91-.09 4.51.54.46 6.56 2.66 8.59 2.88 2.06.21 3.43.52 5.3-.38 3.86-1.85-7.44-3.34-8.88-4.76-.53-.52-1.35-2.5-1.68-2.96l-3.24.71z"/><path fill="#3F122A" fill-rule="nonzero" d="M103.15 206.35c3.11-.34 5.68-.21 8.52.44-2.04-.58-4.04-1.13-4.59-1.68-.53-.52-1.35-2.5-1.68-2.96l-.29.06c.52 1.55.25 3.62-1.96 4.14z" opacity=".5"/><path fill="#FFF" fill-rule="nonzero" d="M97.67 100.25s-10.17 1.3-19.26-2.12c-9.09-3.43 4.47 24.17 19.26 2.12z"/><path fill="#F66318" fill-rule="nonzero" d="M96.61 78.41s-5.8-2.27-12.4 2.73c-6.6 5-.73-7.22 5.61-6.64 6.34.58 6.79 3.91 6.79 3.91zM78.84 82.61s-5.8-2.27-12.4 2.73c-6.6 5 .64-8.03 5.61-6.64 6.34.58 6.79 3.91 6.79 3.91z"/><path fill="url(#e)" fill-rule="nonzero" d="M96.61 78.41s-5.8-2.27-12.4 2.73c-6.6 5-.73-7.22 5.61-6.64 6.34.58 6.79 3.91 6.79 3.91z" opacity=".39"/><path fill="url(#f)" fill-rule="nonzero" d="M78.84 82.61s-5.8-2.27-12.4 2.73c-6.6 5 .64-8.03 5.61-6.64 6.34.58 6.79 3.91 6.79 3.91z" opacity=".39"/><path fill="#F66318" fill-rule="nonzero" d="M47.02 98.87c-1.94-2.78-8.74-10.56-8.46-16.15.1-1.85 2.57-18.17 3.18-18.74.92-.85 4.23-3.01 4.23-3.01l.74-2.72s-1.84 1.7-2.89 1.75c-1.05.05-.68-1.07-.68-1.07l4.22-7.01-1.25-.6-3.78 5.75 1.98-6.61-1.67-.8-2.05 6.76.67-6.01-1.64.56s-.41 6.48-1.03 11.5c-.52 1.31-6.89 13.54-7.55 14.99-9.68 18.46 10.65 34.98 9.97 54.71-.45 13.13 6.01-33.3 6.01-33.3z"/><path fill="#B4C5F2" fill-rule="nonzero" d="M42.65 59.21l66.58-2.33a2.986 2.986 0 002.87-2.77l3-42.76a4.18 4.18 0 00-3.75-4.45L47.72.43a4.17 4.17 0 00-4.59 3.86L39.5 55.95c-.13 1.8 1.34 3.32 3.15 3.26z"/><path fill="#C6D4F5" fill-rule="nonzero" d="M43.86 59.21l66.58-2.33a2.986 2.986 0 002.87-2.77l3-42.76a4.18 4.18 0 00-3.75-4.45L48.93.43a4.17 4.17 0 00-4.59 3.86l-3.63 51.66c-.13 1.8 1.34 3.32 3.15 3.26z"/><path fill="#F66318" fill-rule="nonzero" d="M47.82 56.51l-1.59.22s-.98 1.83-1.64 2.3c-.39.28-2.73 1.42-2.75 1.42l4.14.51 1.84-4.45zM107.02 54.55l1.59.22s.98 1.83 1.64 2.3c.39.28 2.73 1.42 2.75 1.42l-4.14.51-1.84-4.45z"/><path stroke="#D9E2F8" stroke-linecap="round" d="M66.22 8.16l-16.2-1.27M66.22 13.08l-16.2-1.28M66.22 18.25l-16.2-1.27"/><g fill-rule="nonzero"><path fill="#8EA9EC" d="M91.3 37.61c.52-.37 1.52-1.31.63-4.19-.89-2.88-9.73-2.25-10.2-3.09-.47-.84 1.73-2.93 3.51-7.64 1.78-4.71-2.04-9.37-3.51-8.79-1.47.58-2.72 8.43-6.23 10.26-2.58 1.35-6.36 5.85-8.17 8.13-.02 0-.05-.01-.07-.01-9.13 5.79-5.56 20.54 1.31 19.23 1.18-.14 2.21-.3 3.02-.47 3.43 1.09 11.21 1.27 14.58.92 3.51-.37 3.4-3.92 3.4-3.92 2.51-.99 1.83-5.23 1.83-5.23 1.73-2.12-.1-5.2-.1-5.2z"/><g fill="#C6D4F5"><path d="M90.77 37.44c-1.29.41-2.66.6-4.02.62-1.37.02-2.73-.14-4.08-.49-.67-.2-1.37-.5-1.88-1.08-.25-.28-.44-.62-.54-1-.1-.38-.07-.79.07-1.15.28-.72.92-1.21 1.59-1.42.68-.21 1.38-.2 2.05-.11-.67.05-1.35.13-1.94.4-.58.25-1.06.73-1.24 1.29-.18.56.03 1.16.44 1.59.4.44.99.7 1.61.87 1.26.34 2.59.53 3.92.61 1.34.08 2.68.03 4.02-.13zM89.31 42.67c-1.33.05-2.66.04-3.98-.07-1.33-.1-2.66-.3-3.96-.64-.65-.18-1.32-.4-1.91-.81-.59-.4-1.09-1.06-1.16-1.8-.09-.73.16-1.49.68-1.98s1.25-.71 1.91-.58c-.66.01-1.29.31-1.68.79-.4.47-.53 1.11-.42 1.69.11.58.49 1.06 1.01 1.38.51.33 1.12.54 1.74.7 1.26.34 2.55.56 3.85.76 1.29.2 2.61.35 3.92.56zM88.4 47.86c-1.08-.05-2.15-.21-3.21-.44-1.06-.22-2.1-.53-3.13-.89-.51-.19-1.04-.41-1.51-.75s-.88-.78-1.12-1.33c-.24-.53-.28-1.2-.01-1.73.25-.52.78-.93 1.33-.91-.53.13-.9.56-1.05 1.03-.16.47-.06.97.17 1.4.47.87 1.41 1.35 2.4 1.7 1 .36 2.02.69 3.04 1l3.09.92z"/><path d="M84.13 50.9c-.68-.1-1.34-.26-1.98-.52-.64-.26-1.25-.66-1.74-1.19-.48-.54-.83-1.24-.84-1.99-.02-.73.29-1.49.87-1.87-.39.57-.48 1.22-.38 1.83.1.6.4 1.15.82 1.61.41.47.93.84 1.49 1.17.56.33 1.17.61 1.76.96zM80.44 31.07c.05 1.2-.12 2.38-.48 3.49-.37 1.1-.93 2.14-1.68 3.01-.74.88-1.68 1.59-2.71 2.13a9.98 9.98 0 01-3.37 1.01c1.2.12 2.44-.09 3.58-.57a7.971 7.971 0 002.98-2.16c.81-.95 1.38-2.08 1.68-3.28.28-1.2.31-2.47 0-3.63z"/></g></g></g><path fill="#D9E2F8" fill-rule="nonzero" d="M369.53 89.92H250.38a5.08 5.08 0 01-5.08-5.08V67.1a5.08 5.08 0 015.08-5.08h119.15a5.08 5.08 0 015.08 5.08v17.74c.01 2.81-2.27 5.08-5.08 5.08z"/><g fill-rule="nonzero"><path fill="#A1B7EF" d="M264.77 67.87l2.63 5.33 5.89.85-4.26 4.15 1 5.86-5.26-2.76-5.26 2.76 1-5.86-4.25-4.15 5.88-.85z"/><path fill="#8EA9EC" d="M288.25 67.87l2.63 5.33 5.89.85-4.26 4.15 1.01 5.86-5.27-2.76-5.26 2.76L284 78.2l-4.26-4.15 5.88-.85z"/><path fill="#7C9BE9" d="M311.74 67.87l2.63 5.33 5.88.85-4.26 4.15 1.01 5.86-5.26-2.76-5.27 2.76 1.01-5.86-4.26-4.15 5.88-.85z"/><path fill="#698CE6" d="M335.22 67.87l2.63 5.33 5.88.85-4.25 4.15 1 5.86-5.26-2.76-5.26 2.76 1-5.86-4.26-4.15 5.89-.85z"/><path fill="#567EE3" d="M358.7 67.87l2.63 5.33 5.88.85-4.25 4.15 1 5.86-5.26-2.76-5.26 2.76 1-5.86-4.26-4.15 5.89-.85z"/></g></g></g></g></svg>