<?xml version="1.0" encoding="UTF-8"?>
<svg xmlns="http://www.w3.org/2000/svg" viewBox="0 0 3710 3710">
  <defs>
    <style>
      .cls-1 {
        fill: #0873ff;
      }

      .cls-1, .cls-2, .cls-3, .cls-4, .cls-5 {
        stroke-width: 0px;
      }

      .cls-6 {
        isolation: isolate;
      }

      .cls-2 {
        fill: #3659b3;
        opacity: .4;
      }

      .cls-3, .cls-5 {
        fill: #fff;
      }

      .cls-4 {
        fill: #567ee3;
      }

      .cls-5 {
        mix-blend-mode: soft-light;
      }
    </style>
  </defs>
  <g class="cls-6">
    <g id="Illustration">
      <path class="cls-1" d="M3120.65,1037.87c4.99-10.65-9.2-21.41-20.5-15.62-114.73,58.81-400.28,247.15-429.21,675.32-36.29,537.21-202.25,701.05-383.37,784.17,0,0,226.65-9.28,402.7-173.93,432.25-404.25,341.63-1080.62,430.38-1269.94Z"/>
      <path class="cls-5" d="M3011.75,1185.1c-24.49,55.5-47.69,111.45-68.46,168.19-21.11,56.62-40.22,113.87-57.21,171.67-16.73,57.86-32.21,116.06-44.78,174.89-12.88,58.76-22.83,118.09-32.57,177.7-10.12,59.51-19.93,119.53-36.86,178.49-16.84,58.85-42.11,116.47-78.97,167.71-9.21,12.77-18.72,25.42-29.03,37.42-10.05,12.18-20.74,23.94-31.69,35.52-22.03,23.05-45.94,44.78-71.69,64.75-51.63,39.83-110.64,72.38-173.34,97.25-6.6,2.62-14.69-.07-18.09-6.01-3.33-5.83-.88-12.62,5.46-15.34l.04-.02c15.03-6.44,29.94-13.02,44.43-20.18,7.32-3.48,14.42-7.24,21.61-10.88,7.01-3.88,14.21-7.52,21.06-11.59,27.74-15.87,54.05-33.49,78.63-52.81,49.33-38.37,91.9-83.74,127.22-132.63,17.33-24.64,32.48-50.47,45.23-77.35,12.73-26.89,23.05-54.8,31.52-83.34,16.95-57.12,27.23-116.43,37.84-175.84,10.71-59.41,21.94-119.03,35.99-178,6.93-29.5,14.48-58.86,22.63-88.06,3.98-14.62,8.29-29.16,12.56-43.7,4.44-14.5,8.97-28.97,13.64-43.39,18.79-57.67,39.63-114.71,62.54-170.99,23.22-56.16,48.18-111.68,75.61-166.13.78-1.56,2.9-2.19,4.73-1.41,1.78.76,2.62,2.57,1.95,4.1Z"/>
      <path class="cls-1" d="M2541.67,2193.51c6,16.86,27.28,22.11,40.6,10.15,73.49-66,264.39-271.38,247.58-611.95-14.2-287.59,5.44-444.89,19.3-515.67,2.93-14.97-14.95-24.98-26.2-14.68-124.09,113.66-498.87,521.07-281.28,1132.15Z"/>
      <path class="cls-5" d="M2565.9,2193.78c.37.25.76.46,1.19.64,3.56,1.5,7.66-.17,9.15-3.73,1.7-4.03,169.72-407.89,168.05-808.66-.02-3.86-3.16-6.97-7.02-6.96-3.86.02-6.98,3.16-6.96,7.02,1.66,397.85-165.27,799.17-166.95,803.17-1.32,3.13-.18,6.69,2.54,8.51Z"/>
      <path class="cls-2" d="M1563.15,657.96c440.84-45.58,509.87-262.01,845.65-236.72,312.94,23.56,658.86,242.11,810.99,548.64,194.02,390.92-93.58,589.55-110.91,1621.99-5.78,344.57,24.59,421.59-55.45,526.8-111.73,146.86-319.56,192.14-1608.12,62.38-695.58-70.04-814.94-101.36-887.24-214.88-166.06-260.75,191.25-523.27,221.81-1171.43,31.88-676.18-325.6-1055.79-145.56-1219.95,151.86-138.48,399.29,137.93,928.83,83.18Z"/>
      <g>
        <path class="cls-1" d="M1098.88,3056.8v113.45h.16c6.95,68.48,293.35,194.24,709.33,196.56,611.62,3.42,818.18-133.16,827.79-203.1h.23v-104.54l-1537.51-2.38Z"/>
        <path class="cls-1" d="M2636.39,3059.6c0,70.52-352.9,126.21-781.19,124.41-420.7-1.77-756.32-58.53-756.32-126.8s335.62-123.99,756.32-124.45c428.29-.47,781.19,56.32,781.19,126.84Z"/>
        <path class="cls-1" d="M2630.43,3051.02c0,69.99-350.21,125.38-775.33,123.74-417.71-1.62-751.01-57.87-751.01-125.67s333.31-123.21,751.01-123.76c425.12-.57,775.33,55.7,775.33,125.7Z"/>
        <polygon class="cls-1" points="2636.39 3163.72 2636.39 3059.18 1098.88 3056.8 1098.88 3170.25 2636.39 3163.72"/>
        <path class="cls-1" d="M2636.39,3059.6c0,70.52-352.9,126.21-781.19,124.41-420.7-1.77-756.32-58.53-756.32-126.8s335.62-123.99,756.32-124.45c428.29-.47,781.19,56.32,781.19,126.84Z"/>
        <path class="cls-1" d="M2630.43,3051.02c0,69.99-350.21,125.38-775.33,123.74-417.71-1.62-751.01-57.87-751.01-125.67s333.31-123.21,751.01-123.76c425.12-.57,775.33,55.7,775.33,125.7Z"/>
      </g>
      <g>
        <path class="cls-1" d="M1098.88,2841.78v113.45h.16c6.95,68.48,293.35,188.28,709.33,186.14,659.17-3.39,818.18-122.74,827.79-192.67h.23v-104.54l-1537.51-2.38Z"/>
        <path class="cls-1" d="M2636.39,2844.58c0,70.52-352.9,126.21-781.19,124.41-420.7-1.77-756.32-58.53-756.32-126.8s335.62-123.99,756.32-124.45c428.29-.47,781.19,56.32,781.19,126.84Z"/>
        <path class="cls-1" d="M2630.43,2836c0,69.99-350.21,125.38-775.33,123.73-417.71-1.62-751.01-57.87-751.01-125.66s333.31-123.21,751.01-123.77c425.12-.57,775.33,55.7,775.33,125.69Z"/>
        <polygon class="cls-1" points="2636.39 2948.7 2636.39 2844.16 1098.88 2841.78 1098.88 2955.23 2636.39 2948.7"/>
        <path class="cls-1" d="M2636.39,2844.58c0,70.52-352.9,126.21-781.19,124.41-420.7-1.77-756.32-58.53-756.32-126.8s335.62-123.99,756.32-124.45c428.29-.47,781.19,56.32,781.19,126.84Z"/>
        <path class="cls-1" d="M2630.43,2836c0,69.99-350.21,125.38-775.33,123.73-417.71-1.62-751.01-57.87-751.01-125.66s333.31-123.21,751.01-123.77c425.12-.57,775.33,55.7,775.33,125.69Z"/>
      </g>
      <g>
        <path class="cls-1" d="M1098.88,2626.23v113.45h.16c6.95,68.48,293.35,188.28,709.33,186.14,659.17-3.39,818.18-122.74,827.79-192.67h.23v-104.54l-1537.51-2.38Z"/>
        <path class="cls-1" d="M2636.39,2629.03c0,70.52-352.9,126.21-781.19,124.41-420.7-1.77-756.32-58.53-756.32-126.8s335.62-123.99,756.32-124.45c428.29-.47,781.19,56.32,781.19,126.84Z"/>
        <path class="cls-1" d="M2630.43,2620.45c0,69.99-350.21,125.38-775.33,123.73-417.71-1.62-751.01-57.87-751.01-125.66s333.31-123.21,751.01-123.77c425.12-.57,775.33,55.7,775.33,125.7Z"/>
        <polygon class="cls-1" points="2636.39 2733.15 2636.39 2628.61 1098.88 2626.23 1098.88 2739.68 2636.39 2733.15"/>
        <path class="cls-1" d="M2636.39,2629.03c0,70.52-352.9,126.21-781.19,124.41-420.7-1.77-756.32-58.53-756.32-126.8s335.62-123.99,756.32-124.45c428.29-.47,781.19,56.32,781.19,126.84Z"/>
        <path class="cls-1" d="M2630.43,2620.45c0,69.99-350.21,125.38-775.33,123.73-417.71-1.62-751.01-57.87-751.01-125.66s333.31-123.21,751.01-123.77c425.12-.57,775.33,55.7,775.33,125.7Z"/>
      </g>
      <g>
        <path class="cls-1" d="M1098.88,2410.68v113.45h.16c6.95,68.48,293.35,188.28,709.33,186.14,659.17-3.39,818.18-122.74,827.79-192.67h.23v-104.54l-1537.51-2.38Z"/>
        <path class="cls-1" d="M2636.39,2413.49c0,70.52-352.9,126.21-781.19,124.41-420.7-1.77-756.32-58.53-756.32-126.8s335.62-123.99,756.32-124.45c428.29-.46,781.19,56.32,781.19,126.84Z"/>
        <path class="cls-1" d="M2630.43,2404.9c0,69.99-350.21,125.38-775.33,123.74-417.71-1.62-751.01-57.87-751.01-125.66s333.31-123.21,751.01-123.77c425.12-.57,775.33,55.7,775.33,125.69Z"/>
        <polygon class="cls-1" points="2636.39 2517.6 2636.39 2413.07 1098.88 2410.68 1098.88 2524.14 2636.39 2517.6"/>
        <path class="cls-1" d="M2636.39,2413.49c0,70.52-352.9,126.21-781.19,124.41-420.7-1.77-756.32-58.53-756.32-126.8s335.62-123.99,756.32-124.45c428.29-.46,781.19,56.32,781.19,126.84Z"/>
        <path class="cls-1" d="M2630.43,2404.9c0,69.99-350.21,125.38-775.33,123.74-417.71-1.62-751.01-57.87-751.01-125.66s333.31-123.21,751.01-123.77c425.12-.57,775.33,55.7,775.33,125.69Z"/>
      </g>
      <g>
        <path class="cls-1" d="M1098.88,2195.14v113.45h.16c6.95,68.48,293.35,188.28,709.33,186.14,659.17-3.39,818.18-122.74,827.79-192.67h.23v-104.54l-1537.51-2.38Z"/>
        <path class="cls-1" d="M2636.39,2197.94c0,70.52-352.9,126.21-781.19,124.41-420.7-1.77-756.32-58.53-756.32-126.8s335.62-123.99,756.32-124.45c428.29-.47,781.19,56.32,781.19,126.84Z"/>
        <path class="cls-1" d="M2630.43,2189.35c0,69.99-350.21,125.38-775.33,123.74-417.71-1.62-751.01-57.87-751.01-125.67s333.31-123.2,751.01-123.76c425.12-.57,775.33,55.7,775.33,125.69Z"/>
        <polygon class="cls-1" points="2636.39 2302.05 2636.39 2197.52 1098.88 2195.14 1098.88 2308.59 2636.39 2302.05"/>
        <path class="cls-1" d="M2636.39,2197.94c0,70.52-352.9,126.21-781.19,124.41-420.7-1.77-756.32-58.53-756.32-126.8s335.62-123.99,756.32-124.45c428.29-.47,781.19,56.32,781.19,126.84Z"/>
        <path class="cls-1" d="M2630.43,2189.35c0,69.99-350.21,125.38-775.33,123.74-417.71-1.62-751.01-57.87-751.01-125.67s333.31-123.2,751.01-123.76c425.12-.57,775.33,55.7,775.33,125.69Z"/>
      </g>
      <g>
        <path class="cls-1" d="M1098.88,1979.59v113.45h.16c6.95,68.48,293.35,188.28,709.33,186.14,659.17-3.39,818.18-122.74,827.79-192.67h.23v-104.54l-1537.51-2.38Z"/>
        <path class="cls-1" d="M2636.39,1982.39c0,70.52-352.9,126.21-781.19,124.41-420.7-1.77-756.32-58.53-756.32-126.8s335.62-123.99,756.32-124.45c428.29-.47,781.19,56.32,781.19,126.84Z"/>
        <path class="cls-1" d="M2630.43,1973.81c0,69.99-350.21,125.38-775.33,123.73-417.71-1.62-751.01-57.87-751.01-125.66s333.31-123.21,751.01-123.77c425.12-.57,775.33,55.7,775.33,125.7Z"/>
        <polygon class="cls-1" points="2636.39 2086.5 2636.39 1981.97 1098.88 1979.59 1098.88 2093.04 2636.39 2086.5"/>
        <path class="cls-1" d="M2636.39,1982.39c0,70.52-352.9,126.21-781.19,124.41-420.7-1.77-756.32-58.53-756.32-126.8s335.62-123.99,756.32-124.45c428.29-.47,781.19,56.32,781.19,126.84Z"/>
        <path class="cls-1" d="M2630.43,1973.81c0,69.99-350.21,125.38-775.33,123.73-417.71-1.62-751.01-57.87-751.01-125.66s333.31-123.21,751.01-123.77c425.12-.57,775.33,55.7,775.33,125.7Z"/>
      </g>
      <g>
        <path class="cls-1" d="M1098.88,1764.04v113.45h.16c6.95,68.48,293.35,188.28,709.33,186.14,659.17-3.39,818.18-122.74,827.79-192.67h.23v-104.54l-1537.51-2.38Z"/>
        <path class="cls-1" d="M2636.39,1766.84c0,70.52-352.9,126.21-781.19,124.41-420.7-1.77-756.32-58.53-756.32-126.8s335.62-123.99,756.32-124.45c428.29-.47,781.19,56.32,781.19,126.84Z"/>
        <path class="cls-1" d="M2630.43,1758.26c0,69.99-350.21,125.38-775.33,123.74-417.71-1.62-751.01-57.87-751.01-125.67s333.31-123.21,751.01-123.76c425.12-.57,775.33,55.7,775.33,125.69Z"/>
        <polygon class="cls-1" points="2636.39 1870.96 2636.39 1766.42 1098.88 1764.04 1098.88 1877.49 2636.39 1870.96"/>
        <path class="cls-1" d="M2636.39,1766.84c0,70.52-352.9,126.21-781.19,124.41-420.7-1.77-756.32-58.53-756.32-126.8s335.62-123.99,756.32-124.45c428.29-.47,781.19,56.32,781.19,126.84Z"/>
        <path class="cls-1" d="M2630.43,1758.26c0,69.99-350.21,125.38-775.33,123.74-417.71-1.62-751.01-57.87-751.01-125.67s333.31-123.21,751.01-123.76c425.12-.57,775.33,55.7,775.33,125.69Z"/>
      </g>
      <path class="cls-4" d="M1804.73,1765.18c-29.5.85-58.28-6.58-83.2-21.52-75.94-45.52-188.15-120.7-289.11-219.11-128.1-124.88-201.7-251.81-217.81-376.46l-.25-1.95-3.12-531.87c0-105.11,68.56-190.44,197.28-246.5,106.35-46.32,247.3-69.27,396.21-64.96,147.18,4.26,283.36,34.63,384.17,85.23,119.82,60.15,182.69,144.68,182.69,244.9l-2.85,508.21-.23,1.87c-14.72,119.36-82.44,242.74-202.12,367.51-96,100.07-204.49,179.37-278.99,228.51-24.65,16.26-53.23,25.31-82.66,26.17Z"/>
      <path class="cls-4" d="M1833.94,1765.18c-29.11.85-57.51-6.58-82.11-21.52-74.94-45.52-185.67-120.7-285.29-219.11-126.41-124.88-199.04-251.81-214.93-376.46l-.25-1.95-3.08-531.87c0-105.11,67.65-190.44,194.67-246.5,104.94-46.32,244.04-69.27,390.98-64.96,145.23,4.26,279.62,34.63,379.09,85.23,118.24,60.15,180.28,144.68,180.28,244.9l-2.81,508.21-.23,1.87c-14.52,119.36-81.34,242.74-199.45,367.51-94.73,100.07-201.79,179.37-275.31,228.51-24.32,16.26-52.52,25.31-81.57,26.17Z"/>
      <path class="cls-3" d="M1283.4,614.64l3.1,529.18c34.83,270,352.15,488.6,490.35,571.66,39.59,23.79,90.21,22.38,129.52-3.49,135.32-89.04,435.25-313.2,467.3-572.8l2.85-506.81c0-376.01-1093.12-410.38-1093.12-17.75Z"/>
      <path class="cls-4" d="M1841.78,1633.92c-2.53.06-6.37-.36-10.24-2.71-56.9-34.46-167.21-106.64-263.17-200.9-103.65-101.82-163.44-200.81-177.14-293.78l-3.04-520.42c.13-49.93,39.65-92.67,117.14-126.86,86.5-38.18,209.33-58.21,336.46-55.19,125.86,2.99,245.11,28.32,327.73,69.32,73.08,36.26,110.02,79.01,110.14,127.22l-2.83,502.4c-12.79,89.97-68.9,186.96-167.42,288.92-92.63,95.86-200.83,171.86-257.39,208.81-3.87,2.53-7.7,3.13-10.23,3.19Z"/>
      <path class="cls-4" d="M1828.79,1598.34c-57.47-35.39-159.65-103.74-248.81-191.48-97.41-95.87-153.78-187.86-167.03-272.98l-3.02-517.4c.09-35.7,32.91-68.45,97.29-96.96,81.94-36.28,199.33-55.4,321.57-52.66,121.06,2.72,235.17,26.63,313.58,65.43,60.93,30.14,91.75,63.03,91.83,97.85l-2.83,500.55c-12.43,82.59-65.6,172.91-158.58,268.96-86.33,89.18-186.79,160.89-244,198.68Z"/>
      <path class="cls-3" d="M2034.41,920.93l-386.97,3.44c-29.75.27-53.98,23.45-53.98,51.78v247.94c0,28.16,24.15,49.99,53.79,48.77l385.61-15.79c27.43-1.12,49.67-23.83,49.81-50.73l1.22-236.85c.14-27.05-21.95-48.8-49.47-48.56Z"/>
      <path class="cls-3" d="M2028.98,896.34c-11.62.08-21.02-9.16-20.97-20.62l.24-54.01c.24-54.24-44.61-98.87-100.5-99.42l-126.31-1.25c-57.84-.58-105.4,44.53-105.45,100.49l-.05,55.72c-.01,11.83-10.08,21.48-22.52,21.57-12.47.08-22.59-9.48-22.59-21.36l.02-55.95c.03-79.98,68.14-144.2,150.67-143.05l126.36,1.76c79.38,1.1,142.8,64.64,142.43,141.53l-.26,53.79c-.05,11.42-9.48,20.74-21.07,20.82Z"/>
      <path class="cls-4" d="M1893.88,1063.1c.09-27.38-23.42-49.03-52.11-47.21-25.41,1.6-46.48,22.12-47.91,46.75-1.11,19.1,9.22,35.65,24.95,44.05,6.69,3.57,9.99,11.06,8.67,18.44l-11.18,62.63c-1.42,7.97,4.9,14.99,13.23,14.69l28.31-.99c8.28-.29,14.57-7.71,13.2-15.54l-10.82-62.04c-1.29-7.41,2.53-14.75,9.23-18.79,14.59-8.77,24.37-24.39,24.43-41.99Z"/>
    </g>
  </g>
</svg>