<svg xmlns="http://www.w3.org/2000/svg" width="443" height="368" viewBox="0 0 443 368"><g fill="none" fill-rule="evenodd"><path fill="#7091E7" fill-rule="nonzero" d="M20.991 335.66c-39.96 10.495-18.166 23.046 26.431 13.76 57.753-12.035 84.503-25.882 193.217.604 55.259 17.364 151.41 7.528 165.874 1.286 13.628-5.88-29.487-6.55 28.31-19.816 54.27-12.451-206.284-50.334-413.832 4.166z"/><path fill="#B4C5F2" fill-rule="nonzero" d="M37.026.396s75.678 70.116 280.313 82.184v230.979s-150.311-17.013-281.445 31.277c0 0-4.825-3.286-6.374-6.462-3.814-29.849-17.903-160.4 1.373-332.494.21-1.825 3.341-4.957 6.133-5.484z"/><path fill="#D9E2F8" fill-rule="nonzero" d="M37.026.396s81.173 70.116 285.82 82.184v230.979s-155.818-17.013-286.941 31.277c0 0-21.925-145.014 1.12-344.44z"/><path fill="#B4C5F2" fill-rule="nonzero" d="M42.74 41.861s84.097 54.896 269.73 67.238l.594 195.129S169.16 290.38 45.202 329.175c.011 0-18.408-114.637-2.461-287.314z"/><path fill="#C6D4F5" fill-rule="nonzero" d="M306.437 156.84l-.12-39.3a890.638 890.638 0 01-42.39-3.825c.11 13.66-1.593 29.574-1.066 43.125 13.848.406 29.619 1.483 43.576 0z"/><path fill="#A1B7EF" fill-rule="nonzero" d="M272.027 94.735C130.189 81.997 44.565 30.64 44.565 30.64s-4.352-2.286-3.682-7.583c.868-6.89 3.682-5.154 3.682-5.154s85.624 57.082 227.462 69.82c0 0 2.11.758 1.967 3.539-.154 2.78-1.967 3.473-1.967 3.473z"/><circle cx="286.292" cy="93.284" r="3.671" fill="#A1B7EF" fill-rule="nonzero"/><circle cx="297.546" cy="94.064" r="3.671" fill="#A1B7EF" fill-rule="nonzero"/><circle cx="308.8" cy="94.735" r="3.671" fill="#A1B7EF" fill-rule="nonzero"/><g transform="translate(295.733 154.96)"><path fill="#FCB514" fill-rule="nonzero" d="M23.442 30.563c.264 0-1.802 3.825-3.275 4.089-.34.055-1.374-1.956-1.055-2.044.857-.231 4.066-2.056 4.33-2.045z"/><path fill="#E38027" fill-rule="nonzero" d="M20.354 32.07c-.253.175-1.176.45-1.242.527-.187.263.703 2.099 1.055 2.044 1.066-.187 2.45-2.242 3.022-3.363-.835.879-1.934 1.681-2.835.791z" opacity=".5"/><path fill="#FCB514" fill-rule="nonzero" d="M18.771 35.366s-4.55 22.76-2.429 24.024c-9.506-6.385 17.31 13.21 20.321 15.782 3.484 2.979 4.33 8.012 2 11.947-3.363 5.692-10.32 5.154-15.485 1.022C17.342 83.459 1.132 70.227.198 61.215c-.978-9.518 14.573-29.31 14.836-29.553 3.451-.142 3.737 3.704 3.737 3.704z"/><path fill="#E38027" fill-rule="nonzero" d="M15.034 31.662c-.054.055-1.154 1.627-2.362 3.155l1.252.659c.242.143.484.286.726.44.132 1.791.362 5.319.626 5.385.66.165.572-3.396.814-4.649h.087c.11.011.539-.022.66-.022.384 1.352.681 2.78 1.055 3.484.143-.802.198-.99.264-1.44a22.568 22.568 0 00-.088-.934 36.563 36.563 0 00-.89-1.033c.44.022.879.044 1.33.099.175-.901.274-1.429.274-1.429s-.297-3.857-3.748-3.715z" opacity=".5"/><g fill-rule="nonzero"><path fill="#1F4AB9" d="M23.244 20.244l1.517-5.517 1.01.274a2.22 2.22 0 002.737-1.56l1.22-4.418a2.22 2.22 0 00-1.56-2.737l-1.011-.274.175-.627a2.205 2.205 0 00-1.538-2.703A2.191 2.191 0 0023.09 4.22L19.013 19.08c-3.77-.033-7.243 2.45-8.287 6.264a8.534 8.534 0 005.968 10.485 8.534 8.534 0 0010.485-5.968 8.55 8.55 0 00-3.935-9.616zM13.2 26.332a5.871 5.871 0 017.22-4.11 5.871 5.871 0 014.11 7.22 5.871 5.871 0 01-7.22 4.11 5.871 5.871 0 01-4.11-7.22z"/><path fill="#4470E0" d="M25.673 15.31l-2.011-.55a2.24 2.24 0 01-1.56-2.737l1.219-4.418a2.24 2.24 0 012.737-1.56l2.01.55A2.24 2.24 0 0129.63 9.33l-1.22 4.418a2.22 2.22 0 01-2.736 1.56z"/><path fill="#4470E0" d="M20.365 22.43a2.204 2.204 0 01-1.539-2.703l4.176-15.2a2.204 2.204 0 012.704-1.538 2.204 2.204 0 011.538 2.704l-4.176 15.2a2.214 2.214 0 01-2.703 1.538z"/><path fill="#1F4AB9" d="M25.695 2.99a2.204 2.204 0 011.538 2.703l-4.176 15.2a1.781 1.781 0 01-.143.362l-2.077-.572L25.695 2.99z"/><path fill="#4470E0" d="M27.08 30.168a8.534 8.534 0 00-5.968-10.485 8.534 8.534 0 00-10.485 5.968 8.534 8.534 0 005.968 10.484c4.539 1.242 9.232-1.428 10.485-5.967zm-2.253-.627c-.902 3.297-4.308 5.232-7.606 4.33-3.297-.9-5.23-4.308-4.33-7.605.902-3.297 4.309-5.231 7.606-4.33 3.297.912 5.23 4.32 4.33 7.605z"/><path fill="#1F4AB9" d="M24.54 29.475c.87-3.143-.988-6.385-4.12-7.253-3.144-.868-6.386.99-7.254 4.121-.868 3.143.99 6.386 4.121 7.254a5.894 5.894 0 007.254-4.122zm.979.264a6.898 6.898 0 01-8.484 4.825c-3.671-1.011-5.836-4.814-4.825-8.484 1.011-3.671 4.814-5.836 8.484-4.825a6.902 6.902 0 014.825 8.484z"/></g><g fill-rule="nonzero"><g fill="#C44249"><path d="M100.647 78.36c1.264-.418 3.89 9.528 3.715 13.759-2.506-.473-1.813-8.572-3.715-13.76z"/><path d="M116.077 86.646c-1.725.253-7.737 3.978-11.979 4.77.835-2.407 13.21-7.034 11.98-4.77z"/><path d="M111.923 75.48c1.088.517-3.77 13.716-8.067 16.584-2.77-1.736 6.254-17.441 8.067-16.584z"/></g><g fill="#F68E1E"><path d="M100.647 78.36c.902.054 4.177 10.99 3 15.144-.472-.088-4.989-.66-4.198-1.242 3.166-2.286.187-13.969 1.198-13.903z"/><path d="M116.077 86.646c.352.835-7.89 4.913-11.528 6.55-.945-3.945 11.045-7.704 11.528-6.55z"/><path d="M111.308 76.106c1.077.539-3.869 14.474-8.166 17.343-2.758-1.737 6.682-18.079 8.166-17.343z"/></g><path fill="#F68E1E" d="M104.46 92.701l-1.593-1.099 1.693-2.198 1.989 1.957-2.088 1.34"/><path fill="#F8AA2A" d="M40.982 176.963a8.455 8.455 0 01-1.22-.616c-.12-.077-.242-.143-.362-.22-.55-.154-1.11-.274-1.66-.373a4.826 4.826 0 01-.571-.143c-2.759-.33-8.122.022-11.77 1.901-2.682 1.462.23 1.1 3.868.736 2.198-.241.55.21-1.968 1.67-2.516 1.452-3.88 3.111-3.319 3.935.56.825 6.957-4.077 10.21-3.396.44.11-3.758 4-4.45 6.924-.254 1.934.736 1.869 1.868.033 1.142-1.824 6.703-8.264 8.583-7.187 1.88 1.088 1.835 2.187 2.99 1.791 1.153-.396-.408-2.912-1.463-4.231-.274-.308-.527-.583-.736-.824z"/><g fill="#F68E1F"><path d="M27.618 177.776c-1.44.176-2.121.066-2.418-.143-2.308 1.319.539.978 4.078.626 1.835-.197.989.088-.814 1.033.275-.098.572-.22.88-.362 2.846-1.341 2.604-1.583-1.726-1.154zM42.191 180.908c-.89-1.066-2.154-1.44-2.594-1.539-.44-.088-.725-.186-2.33.847-1.22.79-5.583 6.275-6.594 6.967-.384.264-.637.055-.78-.307-.066.175-.12.351-.165.527-.253 1.934.737 1.868 1.869.033 1.143-1.824 6.703-8.264 8.583-7.187 1.88 1.088 1.835 2.187 2.99 1.791a.527.527 0 00.263-.187c-.385-.044-.78-.384-1.242-.945zM33.52 179.71c-2.968.319-5.671 1.517-8.001 2.748-.813.428-1.198.373-1.363.11-.318.516-.406.978-.187 1.296.56.825 6.957-4.077 10.21-3.396.11.033-.077.297-.428.737.835-.846 1.01-1.572-.231-1.495z"/></g><path fill="#F7CF61" d="M34.08 176.16s-3.648.319-6.55 1.275c-1.352.407-.582-.527 2.77-1.187 3.33-.472 5.33-.297 3.78-.088zM30.256 179.37s-3.056 1.186-4.825 2.714c-.55.527-.286-.473 1.737-1.693 2.01-1.208 3.923-1.428 3.088-1.022zM34.938 181.26s-2.418 2.209-3.517 4.275c-.33.681-.44-.34 1-2.198 1.44-1.868 3.143-2.759 2.517-2.077z"/><path fill="#FAAB2C" d="M41.257 157.433c.846-2-.066-1.736-1.847-3.044-.274.604-1.34 3.528-1.505 4.396-1.462 5.506-1.572 10.353-.813 15.969-.132.483-.286.747-.528.857.978.571 3.352 2.209 4.418 1.352-2.363-6.474-2.374-13.243.275-19.53z"/><path fill="#F68E1E" d="M40.531 160.906c.649-2.605 1.495-5.154 2.385-7.682-1.01.692-2.11.88-3.308.626-.066.187-1.066 2.836-1.132 3.012 1.78 1.308 1.957 1.835 1.11 3.835-2.648 6.287-1.56 9.419.803 15.892.34.198.263.154.604.363-.264-.44-.385-.957-.527-1.451-1.462-5.253-1.231-9.43.065-14.595z"/><path fill="#CB7128" d="M49.961 154.455s-17.892 15.98-19.881-29.366c-1.99-45.345 23.475-22.244 23.475-22.244s9.286 21.156-3.594 51.61z"/><g><path fill="#F8AA2A" d="M59.731 159.39s-.406 14.715 2.88 19.001c.824 2.275-9.122.517-13.079 1.385-2.824.681 3.781.813 7.21 1.385 2.077.319.45.33-2.22 1.044-2.67.714-4.33 1.901-4.022 2.791.307.89 7.396-2.033 10.22-.593.385.209-4.44 2.747-5.802 5.264-.715 1.715.208 1.89 1.714.495 1.495-1.396 8.177-6.078 10.22-5.825 2.089-.352-.78-3.264-1.296-4.418-2.704-5.99-1.209-19.288-1.616-22.662-1.846.088-4.209 2.132-4.209 2.132z"/><g fill="#F68E1F"><path d="M65.545 179.908c-2.88-8.66-1.209-19.288-1.616-22.662-1.835.1-4.198 2.143-4.198 2.143l.462 5.792c2.956-5.484 1.67 11.177 5.352 14.727zM55.346 180.304c-1.363-.187-5.814-.21-6.033-.473-2.451.648 4.099.78 7.429 1.319 1.736.275.89.319-1 .747.275-.022.571-.055.89-.12 2.956-.517 2.791-.792-1.286-1.473zM66.171 180.908c.77 1.923-1.263 3.176-2.56 4.033-1.154.759-6.671 4.385-7.781 4.77-.418.143-.594-.11-.638-.483-.099.153-.198.296-.274.44-.715 1.714.208 1.89 1.714.494 1.495-1.396 8.298-4.858 10.034-5.616 2.55-.912.033-3.077-.495-3.638zM60.292 183.546c-2.803-.44-5.583-.011-8.023.55-.857.197-1.198.043-1.286-.232-.429.396-.615.792-.483 1.143.307.89 7.396-2.033 10.22-.593.1.055-.143.253-.571.56.956-.571 1.297-1.198.143-1.428z"/></g><path fill="#F7CF61" d="M61.676 180.38s-3.428-.582-6.34-.406c-5.2.165-4.243-.857 2.835-.429 3.187.374 4.978 1.011 3.505.835zM57.368 182.425s-3.099.34-5.1 1.296c-.637.341-.142-.505 2.012-1.12 2.154-.616 3.957-.341 3.088-.176zM61.204 185.315s-2.77 1.429-4.286 3.055c-.462.55-.319-.417 1.472-1.77 1.77-1.362 3.561-1.758 2.814-1.285z"/><path fill="#F68E1E" d="M66.644 157.972s-17.892 15.98-19.881-29.366c-1.99-45.345 23.475-22.244 23.475-22.244s9.286 21.156-3.594 51.61z"/></g><path fill="#F68E1E" d="M40.894 115.715c3.33-7.814 7.825-15.265 14.1-21.002 6.265-5.737 14.441-9.65 22.937-9.782 9.913-.153 20.595 1.023 27.98 7.639-6.582 1.769-11.352 27.53-16.43 35.882-4.868 8.012-10.121 15.189-19.067 17.42-6.87 1.714-17.881 1-24.541-1.407-3.21-1.154-7.583-22.65-4.979-28.75z"/><path fill="#E38027" d="M87.404 85.36c1.924.297 2.89.407 4.77.89 1.703 5.012 4.858 18.387 1.605 24.365 2.263-7.902-2.023-19.88-6.375-25.255z"/><path fill="#F68E1E" d="M30.31 69.05c-15.572 15.914-15.891 49.291-1.78 66.854 14.112 17.562 44.51 17.463 54.775 4.264 15.573-15.914 15.716-44.345 1.605-61.908-14.112-17.562-39.037-25.123-54.6-9.21z"/><path fill="#284386" d="M66.061 98.361s11.628-6.605 25.278 4.726l7.275-8.715s-13.924-12.44-31.497-5.847l-1.056 9.836z"/><path fill="#1F4AB9" d="M64.5 99.911s11.628-6.605 25.278 4.726l7.276-8.715S83.129 83.48 65.556 90.075L64.5 99.91z"/><path fill="#E38027" d="M39.169 132.782c1.857-2.033-22.783-21.694-8.111-27.09 8.012-2.946 2.89 38.366 44.642 40.586-20.398 8.001-41.455 3.088-51.775-17.595-4.945-7.21-5.66-20.21-5.66-26.959.012-7.792 8.705 38.762 20.904 31.058z"/></g><path d="M52.181 93.779h-1.56l-.11-.67 2.066-.056z"/><path fill="#48484A" fill-rule="nonzero" d="M77.447 107.56v.055l-.055-.165z"/><path fill="#E38027" fill-rule="nonzero" d="M80.843 74.546c.945 1.67 1.11 4.187-.56 7.924-6.023 13.891.22 34.915-15.617 29.277-13.947-4.967-24.09-8.198-28.333-7.253a6.4 6.4 0 00-1.505 2.791c1.055-2.01 3.626-2.12 3.626-2.12l-1.176 2.065c2.902-2.395 13.892 1.055 29.674 6.693 15.781 5.638 12.495-14.496 14.781-29.552 1.011-6.374.286-9.045-.89-9.825z"/><path fill="#E38027" fill-rule="nonzero" d="M70.139 77.502c-2.231 5.748-9.65 6.858-15.452 1.506-2.176 1.956-13.826 9.144-17.123-4.682-3.286 1.055-7.638 3.011-12.21 1.45 3.066 2.397 8.528 3.573 11.716 1.726 3.23 13.386 15.452 5.638 17.628 3.682 5.802 5.352 12.495 3.846 14.726-1.901 8.584 4.462 14.606-3.462 14.386-3.572-2.351 2.066-6.813 5.352-13.671 1.791z"/><path fill="#FCB514" fill-rule="nonzero" d="M66.82 79.755c-.846 5.89-2.32 20.167-2.32 20.167-9.429-2.56-25.43-.45-27.771 1.23-2.901 2.067-3.286 4.408-3.286 4.408 1.055-2.011 3.627-2.121 3.627-2.121l-1.176 2.066c2.901-2.396 13.891 1.055 29.673 6.693 15.782 5.638 15.32-16.265 17.441-29.31 1.737-13.035-14.232-16.684-16.188-3.133z"/><path fill="#284386" fill-rule="nonzero" d="M64.5 99.911s-6.747 14.177 8.068 25.86l-5.408 6.484s-31.354-25.959-1.692-41.378l-.967 9.034z"/><path fill="#F68E1E" fill-rule="nonzero" d="M38.465 76.271c.055 2.792 1.726 5.298 4.243 6.528 4.187 2.121 9.869-1.34 12.045-3.286 5.802 5.353 13.276 3.572 15.452-2.176 8.583 4.462 13.715-1.395 15.221-2.901-.396-.275-.835-.56-1.286-.78-15.166-8.419-12.66-27.498-13.77-33.74-1.451-26.717-25.596-18.683-25.596-18.683-.945.67-10.815 3.737-13.221 16.397 3.34 22.805-2.012 25.706-8.76 36.97 2.836 2.056 12.485 3.507 15.672 1.671z"/><path fill="#E38027" fill-rule="nonzero" d="M36.4 53.016s8.198 12.716.274 21.585c.055 1.505.396 2.956.835 4.352.835 2.506 7.144-6.078 7.144-6.078s0-20.584-8.254-19.859z"/><path fill="#FAAB2C" fill-rule="nonzero" d="M84.14 73.59C71.205 66.39 70.864 51.95 70.48 40.795c-.836-22.87-18.684-23.2-25.651-19.573-3.627 1.615-6.913 3.956-9.54 6.858-1.45 1.835-1.56 3.517-2.736 6.638-.396 9.869 7.978 9.484 3.846 18.287 8.474 10.375 4.352 19.409.835 21.915 0 2.9 2.902 7.077 5.188 8.253 4.846 2.286 10.089-1.725 12.265-3.682 5.803 5.353 13.276 3.572 15.452-2.176 8.583 4.462 13.715-1.395 15.221-2.901-.33-.264-.78-.539-1.22-.824z"/><path fill="#E59F62" fill-rule="nonzero" d="M25.695 51.675l5.792-5.912 8.594 1.01z"/><path fill="#481C19" fill-rule="nonzero" d="M28.146 50.005l3.34-4.242 8.595 1.01z"/><path fill="#F7B66B" fill-rule="nonzero" d="M25.695 51.675l10.704 1.341 3.682-6.242z"/><path fill="#D1683E" fill-rule="nonzero" d="M48.225 21.398c-1.78.22-2.067 1.395-3.462 2.066-2.012-.616-5.407-4.012-3.407-8.034 1.901-3.846 8.473-.33 8.869.616-2.792-5.803.615-19.849 13.276-13.947.78.396 1.505.835 2.12 1.396 13.892 11.43 9.65 21.694 9.31 26.717 1.505-.45 5.517-11.32 9.088-3.792 2.902 6.078-8.253 15.057-13.66 15.727-1.451-8.32-12.99-21.87-22.134-20.75z"/><path fill="#C44249" fill-rule="nonzero" d="M49.5 22.068c-1.671.165-3.287.67-4.792 1.396-2.121-1.67-4.242-4.242-2.737-7.364 2.176-4.681 7.803-1 8.199-.054-2.011-5.858 1.956-19.19 14.55-13.276.781.395 1.506.835 2.122 1.395 13.891 11.43 8.814 22.08 8.418 27.047 1.45-.45 6.243-12.935 9.034-3.792 1.956 6.419-8.528 14.947-13.946 15.617-1.385-8.32-11.639-22.145-20.849-20.969z"/><path fill="#FCB514" fill-rule="nonzero" d="M43.872 99.416s-11.484.165-12.935.89c-1.45.726-5.187 2.342-2.846 2.177 2.34-.165 5.517-1.616 8.253-.396 2.737 1.23 6.528-1.616 6.528-1.616l1-1.055z"/><path fill="#F8BD68" fill-rule="nonzero" d="M37.773 28.278s-12.21 3.286-5.462 15.056l5.638-5.352-.176-9.704z"/><path fill="#F4E1CA" fill-rule="nonzero" d="M37.344 28.98s-10.759 3.232-5.132 13.277l5.242-4.682-.11-8.594z"/><path fill="#4C1715" fill-rule="nonzero" d="M33.08 36.278c.78.56 1.176 2.121.835 3.462-.33 1.341-1.175 1.956-1.9 1.396-.726-.56-1.177-2.121-.891-3.462.275-1.34 1.176-1.956 1.956-1.396z"/><path fill="#F68E1E" fill-rule="nonzero" d="M37.29 32.267s-4.737-.67-6.188.165c-1.055-.616-.22-2.902 1.396-2.396 2.396-5.462 8.583-3.341 9.979-.78.11.34-5.188 3.01-5.188 3.01z"/><path fill="#FAAB2E" fill-rule="nonzero" d="M37.29 32.772s-4.968-.89-6.188-.33c-.67-.329-.33-2.615 1.45-2.285 3.518-5.803 9.925-2.341 10.156-.616.043.33-5.419 3.231-5.419 3.231z"/><path fill="#F68E1E" fill-rule="nonzero" d="M32.992 30.2c.67-.164 1.341-.274 2.011-.219.67 0 1.341.11 2.012.22.67.11 1.285.33 1.956.56.33.11.615.22.945.396l.89.45c.055.055.11.11.11.22-.055.055-.165.11-.22.055l-.89-.395c-.33-.11-.615-.275-.89-.396a19.2 19.2 0 00-1.901-.56 12.125 12.125 0 00-1.957-.33 6.513 6.513 0 00-2.066 0z"/><circle cx="46.103" cy="47.664" r="6.748" fill="#F16A6D" fill-rule="nonzero" opacity=".33"/><path fill="#F8C890" fill-rule="nonzero" d="M35.124 36.839s-4.758 5.967-13.287 12.715c0 0 18.233-2.45 19.464-2.681.055.01-5.056-2.33-6.177-10.034z"/><ellipse cx="42.102" cy="38.691" fill="#F8BD68" fill-rule="nonzero" rx="8.814" ry="7.199" transform="rotate(-82.519 42.102 38.691)"/><ellipse cx="41.358" cy="38.702" fill="#F4E1CA" fill-rule="nonzero" rx="7.748" ry="6.352" transform="rotate(-82.392 41.358 38.702)"/><path fill="#4C1715" fill-rule="nonzero" d="M38.949 36.784c1.176.835 1.67 3.011 1.11 4.846-.56 1.836-1.956 2.682-3.121 1.836-1.176-.835-1.67-3.011-1.11-4.847.56-1.835 1.945-2.615 3.12-1.835z"/><path fill="#F68E1E" fill-rule="nonzero" d="M35.058 33.773s9.09-4.243 16.002 7.748c1.23 2.12-.725-21.475-13.66-9.98-1.506-.56-3.067 1.012-2.342 2.232z"/><path fill="#FAAB2E" fill-rule="nonzero" d="M35.058 33.773s7.693-3.012 15.452 7.857c3.122 5.023.396-21.079-13.1-9.869-1.461-.494-3.022 1.286-2.352 2.012z"/><path fill="#F68E1E" fill-rule="nonzero" d="M37.85 31.882c1.286-.11 2.56 0 3.791.33.616.165 1.231.33 1.836.56l.89.396.835.45c.275.166.56.33.836.506.274.165.56.33.78.56l.725.616.67.67.33.33c.11.11.22.22.33.396l.615.725c.11.11.22.22.275.396l.275.396.56.78a.167.167 0 010 .22.167.167 0 01-.22 0s0-.055-.054-.055l-.56-.78-.276-.396c-.11-.11-.164-.275-.274-.396l-.616-.725-.33-.33-.33-.33-.67-.67-.725-.615c-.22-.22-.505-.396-.78-.561-.275-.165-.506-.33-.78-.505-1.11-.67-2.286-1.11-3.462-1.451-1.165-.407-2.451-.517-3.671-.517z"/><path fill="#FCB514" fill-rule="nonzero" d="M22.728 41.004c-.011 1.231-2.759-3-3.298-4.704-.571-1.319.66 6.814-.043 6.54-.495-.198-2.012-5.22-2.495-7.177-.253-.912-.99 5.693-1.45 5.451-.55-.286.153-8.517-.408-9.452.539-1.099 5.386-.67 5.946 1.693.429 1.956 1.748 7.352 1.748 7.65z"/></g><path fill="#2E5FDC" fill-rule="nonzero" d="M396.798 246.08l3.385-2.627a2.274 2.274 0 012.692.307l39.367 36.718c.626.594.692 1.572.132 2.231l-40.884 48.192-4.725 1.978.033-86.8z"/><path fill="#1F4AB9" fill-rule="nonzero" d="M360.234 254.871s-11.98 11.31 5.484 28.454l-5.408 6.484s-28.673-29.355.99-44.785l-1.066 9.847z"/><path fill="#2253CF" fill-rule="nonzero" d="M436.68 282.237l6.067-.616s.044.495-.12.77l-41.312 48.818c-.121.142-.286.252-.473.318l-5.055 1.946 40.894-51.236z"/><path fill="#4470E0" fill-rule="nonzero" d="M357.277 293.447l39.52-47.368a1.613 1.613 0 012.33-.143l37.312 35.08c.604.572.67 1.517.154 2.177l-39.828 49.675a1.609 1.609 0 01-2.396.121l-37.004-37.4a1.589 1.589 0 01-.088-2.142z"/><circle cx="394.71" cy="285.116" r="6.462" fill="#1F4AB9" fill-rule="nonzero"/><path fill="#1F4AB9" fill-rule="nonzero" d="M409.271 298.238a2.337 2.337 0 01-3.286.165l-11.122-10.056a2.337 2.337 0 01-.164-3.286 2.337 2.337 0 013.286-.165l11.122 10.056c.956.858 1.022 2.33.164 3.286z"/><g fill-rule="nonzero"><path fill="#5A81E4" d="M177.754 284.127c-29.508-19.815-46.818-53.994-45.785-89.822l2.21-76.799c31.958-3.539 65.138 1.055 96.635 12.914l-2.209 72.303c-1.033 33.74-20.255 64.325-50.851 81.404z" opacity=".5"/><path fill="#4470E0" d="M170.588 193.305l.726-24.706c6.352-.857 12.858-.77 19.31.198-7.177-1.308-14.464-1.528-21.563-.572l-.726 24.74c-.34 11.528 5.474 22.716 15.376 29.519.351-.187.703-.374 1.055-.572-9.177-6.858-14.507-17.573-14.178-28.607z" opacity=".5"/><path fill="#F6FBFD" d="M135.09 194.887l2.21-76.656c19.738-2.132 39.926-1.22 59.917 2.517-21.463-4.484-41.86-5.429-63.083-3.143l-2.209 76.799c-1.033 35.828 15.276 69.886 45.356 89.734l1.352.132-1.352-.132c.704-.396 1.396-.791 2.089-1.198-28.597-20.002-45.28-53.269-44.28-88.053z" opacity=".5"/><path fill="#C6D4F5" d="M181.26 283.973c-9.792-6.11-18.508-13.957-25.706-23.046-7.188-9.188-12.76-19.64-16.551-30.717a103.896 103.896 0 01-5.473-34.487l.868-34.498 1.077-34.421.275-8.594.022-.539v-.198c-.682.737.934-1.077.791-.89l.264-.022 1.066-.099 2.143-.198c1.429-.132 2.857-.264 4.297-.34 5.726-.429 11.529-.473 17.331-.308 11.617.395 23.321 1.923 34.872 4.484 11.55 2.593 22.947 6.088 34.124 10.177-22.54-7.44-45.828-12.683-68.842-12.958-1.44-.055-2.868 0-4.297 0-1.429.011-2.868.011-4.297.077l-4.286.154-4.264.286c-1.429.077-2.836.22-4.253.363l-2.121.208-1.056.11-.263.022c-.198.176 1.44-1.56.747-.791v.198l-.011.538-.22 8.595-.912 34.388-1.066 34.399c-.23 11.385 1.594 22.88 5.055 33.882 7.034 21.881 21.563 41.257 40.686 54.225zM133.76 105.208a142.715 142.715 0 0123.333-1.868c7.89 0 15.87.66 23.826 1.868a187.367 187.367 0 0123.695 5.308c7.814 2.242 15.518 4.99 23.068 8.1-7.781-2.297-15.551-4.473-23.354-6.407-7.803-1.912-15.639-3.56-23.486-4.737-7.847-1.23-15.716-1.967-23.563-2.33-7.869-.307-15.704-.263-23.518.066z" opacity=".7"/><path fill="#1F4AB9" d="M173.633 293.282c-6.99-4.264-13.441-9.397-19.31-15.156-5.814-5.846-11.045-12.341-15.43-19.397-4.407-7.078-7.913-14.727-10.638-22.629-2.682-7.935-4.627-16.155-5.495-24.475-.89-8.33-.55-16.672-.264-24.848.285-8.21.494-16.42.868-24.618l1.033-24.574c.429-8.177.78-16.353 1.286-24.508.033 8.22-.088 16.43-.121 24.65l-.374 24.63c-.088 8.21-.362 16.408-.538 24.618-.22 8.231-.473 16.364.461 24.507 1.638 16.277 7.078 32.158 15.332 46.335 4.12 7.055 9.121 13.573 14.704 19.518 5.54 5.979 11.793 11.265 18.486 15.947z" opacity=".7"/><path fill="#C6D4F5" d="M180.49 294.359c6.968-4.22 13.54-8.98 19.442-14.364 5.935-5.297 11.33-11.111 15.88-17.453 9.1-12.528 15.508-26.727 18.134-41.652 1.429-7.418 1.67-15.001 1.968-22.684.33-7.649.571-15.298.978-22.925l1.143-22.87c.472-7.605.857-15.222 1.395-22.805 0 7.66-.164 15.298-.23 22.948l-.484 22.925c-.132 7.649-.429 15.287-.648 22.925-.22 7.605-.396 15.375-1.792 22.959-1.385 7.594-3.813 14.968-6.978 22.035-3.199 7.077-7.166 13.891-12.002 20.145-4.802 6.308-10.43 12.078-16.595 17.265-6.21 5.154-12.968 9.77-20.21 13.55z" opacity=".7"/><path fill="#C6D4F5" d="M134.882 201.492c2.395 14.892 6.594 29.806 15.232 43.334 41.279-32.19 69.424-74.688 83.81-123.935-35.278-13.738-70.215-19.727-106.098-15.386l-2.814 92.207c-.68 20.716 4.44 38.212 12.771 56.28 3.55-2.495 6.012-4.22 9.397-6.858-5.353-11.528-12.013-26.815-12.298-45.642z" opacity=".35"/><path fill="#F6FBFD" d="M185.964 222.78c-9.903-6.792-15.716-17.969-15.376-29.475l.726-24.706c10.715-1.429 21.848-.242 32.41 3.407l-.726 24.211c-.34 11.276-6.78 21.299-17.034 26.563z"/><path fill="#1F4AB9" d="M180.985 252.948c-3.253-2.308-6.473-4.737-9.276-7.605l-1.088-1.044-1.022-1.11-2.033-2.22-1.901-2.341-.945-1.176-.88-1.23-1.736-2.474-1.583-2.571c-.263-.429-.538-.857-.78-1.297l-.714-1.33-1.418-2.67-1.264-2.748-.626-1.374-.55-1.407-1.088-2.813-.923-2.868-.461-1.44-.374-1.462-.758-2.923c-.21-.978-.374-1.967-.572-2.956-.187-.99-.374-1.968-.483-2.968l-.374-2.978c-.11-.99-.143-1.99-.22-2.978-.187-1.99-.143-3.979-.154-5.968l.56-23.508.781-23.453.198-5.857.022-.737.01-.362c-.164.153 1.43-1.583.781-.847h.044l.088-.01.187-.023 1.472-.176c.99-.098 1.957-.252 2.957-.318 3.945-.385 7.935-.484 11.946-.45 4 .054 8.023.34 12.034.757 4.012.44 8.023 1.088 12.012 1.89 3.979.847 7.935 1.88 11.848 3.045a138.816 138.816 0 0111.561 4.1 187.39 187.39 0 00-11.671-3.572c-3.924-1.012-7.88-1.89-11.837-2.561-3.967-.67-7.934-1.231-11.902-1.56-3.967-.308-7.935-.495-11.87-.44-3.934.077-7.857.263-11.737.66-.978.076-1.934.23-2.9.34l-1.452.187-.175.022-.088.01-.044.012c-.682.747.868-1.012.714-.814l-.011.363-.022.736-.143 5.858-.582 23.453-.759 23.442c-.132 7.726.825 15.55 3.012 23.101l.835 2.824 1 2.78.506 1.386.582 1.362 1.165 2.715c1.736 3.539 3.572 7.056 5.847 10.298 4.319 6.649 9.968 12.386 16.254 17.298z" opacity=".3"/><g fill="#5A81E4"><path d="M198.943 196.943c-.45.912-.967 1.802-1.462 2.703l-.483-.33c.637-.79 1.263-1.593 1.945-2.373zM195.382 202.712l-.66.847-.802-.627.693-.802zM192.327 206.416a196.782 196.782 0 01-2.957 3.1l-.725-.638a128.867 128.867 0 012.825-3.165l.857.703zM186.601 212.076c-.813.66-1.605 1.33-2.45 1.956.648-.813 1.34-1.582 2.021-2.363l.429.407zM199.02 186.425c-.484.89-1.022 1.77-1.55 2.649l-.395-.286c.648-.78 1.274-1.583 1.945-2.363zM196.305 190.744l-.351.473-.594-.473.396-.428zM194.7 192.821l-1.516 1.792-.791-.682 1.582-1.692zM191.8 196.13c-.803.857-1.616 1.692-2.451 2.527l-.803-.747c.803-.847 1.616-1.682 2.429-2.517l.824.736zM187.887 200.097l-.429.406-.747-.703.407-.418zM185.942 201.9l-1.78 1.549-.506-.484 1.626-1.692zM182.579 204.79c-.825.637-1.627 1.296-2.473 1.923.692-.78 1.418-1.517 2.12-2.264l.353.34z"/><g><path d="M200.042 175.105c-.517.868-1.066 1.726-1.605 2.594l-.33-.253c.638-.78 1.264-1.56 1.935-2.34zM196.899 179.732l-.462.56-.55-.45.506-.528zM194.789 182.238c-.649.725-1.32 1.429-1.979 2.154l-.758-.692c.692-.682 1.363-1.385 2.066-2.056l.67.594zM191.008 186.238a208.28 208.28 0 01-3.165 3.066l-.78-.758a164.3 164.3 0 013.154-3.044l.791.736zM185.953 191.04l-.55.495-.714-.703.527-.516zM183.458 193.239l-2.253 1.901-.462-.472 2.1-2.056zM179.183 196.778c-.825.637-1.638 1.275-2.484 1.89.714-.747 1.462-1.473 2.187-2.198l.297.308z"/></g><g><path d="M191.678 174.918c-.626.814-1.285 1.583-1.945 2.363l-.428-.406c.78-.66 1.55-1.33 2.373-1.957zM187.337 179.853l-.714.714-.725-.725.747-.67zM184.073 182.996c-1 .901-2.01 1.792-3.044 2.66l-.67-.693c.956-.934 1.945-1.857 2.923-2.758l.791.791zM178.26 187.887c-.847.615-1.671 1.242-2.54 1.813.682-.78 1.419-1.506 2.133-2.253l.407.44z"/></g><g><path d="M181.139 174.369c-.517.934-1.198 1.714-1.934 2.44l-.748-.78c.814-.638 1.66-1.231 2.682-1.66zM178.94 177.061l-.076.066-.758-.802.077-.066zM178.611 177.37l-.319.263-.758-.802.297-.275zM178.018 177.853c-.814.637-1.682 1.22-2.704 1.626.539-.934 1.231-1.703 1.967-2.407l.737.78z"/></g></g></g><g fill-rule="nonzero"><path fill="#4470E0" d="M286.303 120.88a156.44 156.44 0 01-5.99 7.913c1.979.12 3.946.286 5.913.517 2.737.318 5.473.725 8.21 1.23a251.103 251.103 0 01-8.133-9.66z"/><path fill="#4470E0" d="M286.006 154.015c3.506-7.957 6.287-15.749 8.43-23.475a124.358 124.358 0 00-8.21-1.23c-1.967-.231-3.934-.396-5.912-.517 1.417 8.33 3.286 16.77 5.692 25.222z"/><path fill="#5A81E4" d="M294.436 130.54a110.397 110.397 0 003.473-7.462 104.85 104.85 0 00-4.748-1.044 106.273 106.273 0 00-6.858-1.154c2.484 3.11 5.187 6.33 8.133 9.66z"/><path fill="#7091E7" d="M297.909 123.078c2.099 3.187 4.363 6.418 6.814 9.671a164.283 164.283 0 00-10.287-2.22 119.054 119.054 0 003.473-7.45z"/><path fill="#2E5FDC" d="M280.314 128.793a228.86 228.86 0 01-5.66-8.65 85.878 85.878 0 014.77.1c2.296.12 4.593.33 6.88.637a158.051 158.051 0 01-5.99 7.913z"/><path fill="#2253CF" d="M274.643 120.144a218.665 218.665 0 01-7.012 8.792 90.464 90.464 0 0112.672-.143 243.245 243.245 0 01-5.66-8.65z"/><path fill="#1C4CC7" d="M267.642 128.936a204.248 204.248 0 0012.485 18.112 186.986 186.986 0 005.88 6.956c-2.407-8.451-4.276-16.892-5.693-25.222a92.184 92.184 0 00-12.672.154z"/><path fill="#173EA3" d="M278.313 144.718a172.325 172.325 0 01-8.033-15.958c1.55-2.901 3-5.77 4.363-8.627a218.665 218.665 0 01-7.012 8.792 206.174 206.174 0 0010.682 15.793z" opacity=".57"/><path fill="#5A81E4" d="M294.436 130.54c-2.143 7.726-4.924 15.507-8.43 23.475 7.781-7.616 13.925-14.595 18.717-21.255a164.283 164.283 0 00-10.287-2.22z"/><path fill="#A1B7EF" d="M286.006 154.015c7.067-7.67 12.628-14.792 16.97-21.661a180.48 180.48 0 01-5.067-9.265c1.286 3 2.66 6.012 4.143 9.023-4.1 6.979-9.364 14.188-16.046 21.903z"/><path fill="#7091E7" d="M286.292 121.935a213.929 213.929 0 006.199 8.353 211.115 211.115 0 01-6.485 23.727 229.785 229.785 0 005.847-23.86c-2-2.802-3.846-5.538-5.56-8.22z"/><path fill="#C6D4F5" d="M287.402 129.485c-2.264-.186-4.528-.406-6.792-.538-2.264-.154-4.55-.22-6.825-.308 2.308-.143 4.572-.088 6.836.033 2.264.176 4.517.407 6.781.813z" opacity=".39"/></g><g transform="translate(66.04 235.188)"><ellipse cx="67.721" cy="116.385" fill="#7091E7" fill-rule="nonzero" rx="67.281" ry="8.594"/><g transform="translate(19.782)"><path fill="#2253CF" fill-rule="nonzero" d="M48.631 62.918c-37.696-.714-37.113 5.298-37.113 5.298-.978 3.374 4.506 25.2 4.506 25.2L1.209 122.913c18.112 6.825 33.498 9.045 47.433 8.98 13.936.065 29.322-2.155 47.433-8.98L85.25 98.56s5.682-21.98 4.704-25.354c-.011 0-4.506-10.836-41.323-10.287z"/><path fill="#1F4AB9" fill-rule="nonzero" d="M48.631 68.688C14.09 68.04 14.947 73.59 14.947 73.59c-.89 3.088 3.802 23.046 3.802 23.046L5.165 123.66c16.595 6.253 30.696 8.286 43.466 8.22 12.77.066 26.871-1.967 43.466-8.22l-9.913-22.321s5.198-20.145 4.308-23.233c-.01.01-4.132-9.924-37.86-9.419z"/><path fill="#1B2C59" fill-rule="nonzero" d="M48.631 80.338c-28.178-.528-27.475 3.989-27.475 3.989-.725 2.517 3.1 18.804 3.1 18.804l-11.079 22.046c13.54 5.1 25.036 6.76 35.454 6.704 10.419.055 21.914-1.604 35.454-6.704l-8.088-18.2s4.242-16.43 3.516-18.946c-.01 0-3.374-8.1-30.882-7.693z" opacity=".62"/><path fill="#4470E0" fill-rule="nonzero" d="M76.348 97.02s-3.78-12.66-4.956-16.43c2.813-1.263 18.144-4.143 16.66-7.847-1.835-3.681-13.056-7.835-21.628-9.143 20.376 1.89 23.53 9.605 23.53 9.605.978 3.374-4.704 25.354-4.704 25.354l10.825 24.354c-7.748 2.924-14.99 4.99-21.837 6.407-3.121-10.473-4.308-20.947-6.385-31.332l8.495-.967zM16.013 93.416s-5.484-21.837-4.506-25.2c0 0-1.088-5.847 31.816-5.32-10.98.055-28.058 2.704-29.42 5.155-1.726 2.66 10.616 7.88 16.54 10.1-2.22 5.187-4.418 16.375-4.418 16.375l5.56 1.604c-1.285 8.683-7 24.102-8.33 33.234-6.913-1.417-14.243-3.505-22.068-6.45l14.826-29.498z"/><path fill="#1F4AB9" fill-rule="nonzero" d="M77.03 112.033l5.594-1.824c.186-.066.296-.264.23-.45l-.066-.188c-.066-.187-.263-.296-.45-.23l-5.594 1.824c-.187.066-.297.264-.23.45l.065.187a.367.367 0 00.45.231z"/><path fill="#44BEE0" fill-rule="nonzero" d="M76.92 111.681l5.594-1.824c.186-.066.296-.264.23-.45l-.065-.187c-.066-.187-.264-.297-.451-.231l-5.594 1.824c-.187.066-.297.264-.23.45l.065.188a.353.353 0 00.45.23z"/><circle cx="19.837" cy="109.231" r="3.077" fill="#1F4AB9" fill-rule="nonzero"/><circle cx="19.837" cy="107.791" r="3.077" fill="#44BEE0" fill-rule="nonzero"/><path d="M65.193 46.257c4.847.506 8.353 4.847 7.847 9.683a9.431 9.431 0 01-.077.55l-.23-.023.23.022a8.82 8.82 0 01-9.616 7.298 8.808 8.808 0 01-7.88-9.133l.286.033-.286-.033c.011-.187.022-.363.044-.55.506-4.846 4.847-8.352 9.682-7.847z"/><path fill="#E0B444" fill-rule="nonzero" d="M73.04 55.95a8.805 8.805 0 00-7.847-9.682c-4.835-.505-9.176 3-9.682 7.847-.022.187-.033.374-.044.55l-1.11-.121c.011-.187.022-.363.044-.55.571-5.45 5.462-9.407 10.913-8.836 5.451.572 9.408 5.462 8.836 10.913a9.431 9.431 0 01-.077.55l-1.11-.12c.033-.188.055-.375.077-.55z"/><path fill="#223870" fill-rule="nonzero" d="M55.467 54.654c-.198 4.616 3.231 8.649 7.88 9.133 4.66.494 8.847-2.737 9.616-7.298l1.11.121c-.835 5.165-5.572 8.847-10.836 8.287-5.264-.55-9.144-5.133-8.88-10.364l1.11.12z"/><path fill="#E0B444" fill-rule="nonzero" d="M49.415 53.735l.138-1.311 5.093.535-.138 1.312zM73.862 56.602l.24-2.273 1.29.135-.24 2.274z"/><path fill="#142143" fill-rule="nonzero" d="M55.302 54.082a9.028 9.028 0 008.023 9.913 9.028 9.028 0 009.913-8.022 9.028 9.028 0 00-8.023-9.913c-4.956-.528-9.385 3.066-9.913 8.022z"/><path d="M40.597 43.675c-4.835-.506-9.176 3-9.682 7.847-.022.186-.033.373-.044.55l.231.021-.23-.022c-.199 4.616 3.23 8.65 7.88 9.133 4.659.494 8.846-2.737 9.615-7.298l-.285-.033.285.033c.033-.175.055-.362.077-.55.506-4.835-3-9.176-7.847-9.681z"/><path fill="#E0B444" fill-rule="nonzero" d="M30.915 51.522c.506-4.847 4.847-8.353 9.682-7.847 4.847.505 8.353 4.846 7.847 9.682a9.431 9.431 0 01-.077.55l1.11.12c.033-.176.055-.362.077-.55.572-5.45-3.385-10.34-8.836-10.912-5.45-.572-10.341 3.385-10.913 8.836a9.249 9.249 0 00-.044.55l1.11.12c.011-.187.022-.374.044-.55z"/><path fill="#223870" fill-rule="nonzero" d="M48.367 53.906a8.82 8.82 0 01-9.616 7.298 8.808 8.808 0 01-7.88-9.133l-1.11-.12c-.264 5.23 3.605 9.802 8.88 10.363 5.264.55 10.012-3.121 10.836-8.287l-1.11-.12z"/><path fill="#E0B444" fill-rule="nonzero" d="M28.697 51.858l.24-2.274 1.29.136-.24 2.273z"/><path fill="#142143" fill-rule="nonzero" d="M48.642 53.379a9.006 9.006 0 01-9.913 8.023 9.006 9.006 0 01-8.023-9.913c.517-4.957 4.957-8.54 9.913-8.023 4.957.527 8.55 4.967 8.023 9.913z"/><path fill="#5A81E4" fill-rule="nonzero" d="M65.204 46.147c2.99.32 5.583 2.286 6.715 4.309.923 1.648 1.44 3.143 1.187 5.572-.176 1.626-.725 3.044-1.857 4.527L58.423 48.28c2.056-1.726 4.451-2.374 6.781-2.133z" opacity=".22"/><path fill="#0D162C" fill-rule="nonzero" d="M68.886 62.775s-3.033 1.946-6.627 1.034c-1.275-.32-2.956-1-4.077-2.144-4.254-4.352-2.682-8.231-2.473-9.462 0 0-.495 4.748 1.934 7.572 1.901 2.21 4.462 3.616 6.968 3.649 2.275.033 4.275-.649 4.275-.649z"/><path fill="#CFA63F" fill-rule="nonzero" d="M49.51 53.736l.138-1.312.995.105-.138 1.312zM53.81 54.193l.139-1.312.994.104-.138 1.312z"/><path fill="#0D162C" fill-rule="nonzero" d="M44.202 60.182s-3.033 1.945-6.627 1.033c-1.275-.319-2.956-1-4.077-2.143-4.253-4.352-2.682-8.232-2.473-9.463 0 0-.495 4.748 1.934 7.572 1.902 2.21 4.462 3.616 6.968 3.65 2.286.032 4.275-.65 4.275-.65z"/><path fill="#FFE5BB" fill-rule="nonzero" d="M75.03 56.588l.23-2.143-.868 2.077zM73.93 53.654s.055-2.935-3.11-5.902c-2.297-2.143-4.912-2.34-4.912-2.34s2.747.845 4.473 2.373c1.472 1.308 2.154 2.517 2.593 3.319.396.736.99 2.209.956 2.55zM49.368 51.071s.054-2.934-3.11-5.902c-2.298-2.143-4.913-2.34-4.913-2.34s2.758.846 4.473 2.373c1.472 1.308 2.154 2.517 2.593 3.32.396.736.99 2.208.957 2.549z"/><path fill="#5A81E4" fill-rule="nonzero" d="M40.597 43.565c2.99.318 5.583 2.286 6.715 4.308.924 1.648 1.44 3.143 1.187 5.572-.176 1.626-.725 3.044-1.857 4.528L33.817 45.697c2.055-1.726 4.45-2.374 6.78-2.132z" opacity=".22"/><path fill="#1F4AB9" fill-rule="nonzero" d="M100.724 49.884L.978 44.455l21.706-8.76 14.188-31.09s1.725-6.473 12.133-3.341c10.407 3.132 9.781 4.385 17.078 0 7.309-4.385 10.254 20.035 10.254 20.035l2.89 18.99 21.497 9.595z"/><path fill="#44BEE0" fill-rule="nonzero" d="M22.684 35.696l3.758-8.243c17.793-2.593 36.597-2.308 51.533 4.594l1.253 8.243s-24.08-6.177-56.544-4.594z"/><path fill="#1B2C59" fill-rule="nonzero" d="M66.083 1.264c7.309-4.385 10.254 20.035 10.254 20.035l2.89 18.99 21.497 9.595-29.41-1.604C63.403 35.949 61.49 19.035 61.227 3.759c1.253-.407 2.714-1.21 4.857-2.495z" opacity=".37"/><path fill="#E0B444" fill-rule="nonzero" d="M52.071 68.205c-.198 1.373-1.066 2.824-2.714 3.604-3.32 1.583-18.662 4.704-20.376-5.495.692 1.165 4.011 5.803 11.067 2.495 2.67-1.253 3.627-4.759 7.418-4.759 2.363 0 4.297 1.78 4.594 4.067-.01.022.011.066.011.088z"/><path fill="#CFA63F" fill-rule="nonzero" d="M52.104 68.666v.11c.011 1.539-.857 3.319-2.758 4.231-3.473 1.66-20.09 4.979-20.53-6.957 0 0 .044.1.154.264 1.714 10.2 17.057 7.078 20.376 5.495 1.637-.78 2.516-2.23 2.714-3.604.033.153.044.296.044.461z"/><path fill="#E0B444" fill-rule="nonzero" d="M52.082 68.205c.198 1.373 1.066 2.824 2.715 3.604 3.319 1.583 18.66 4.704 20.375-5.495-.692 1.165-4.011 5.803-11.067 2.495-2.67-1.253-3.626-4.759-7.418-4.759-2.363 0-4.297 1.78-4.594 4.067 0 .022-.01.066-.01.088z"/><path fill="#CFA63F" fill-rule="nonzero" d="M52.038 68.666v.11c-.01 1.539.857 3.319 2.759 4.231 3.473 1.66 20.09 4.979 20.53-6.957 0 0-.045.1-.155.264-1.714 10.2-17.056 7.078-20.375 5.495-1.638-.78-2.517-2.23-2.715-3.604a2.122 2.122 0 00-.044.461z"/></g></g></g></svg>