<?xml version="1.0" encoding="UTF-8"?>
<svg xmlns="http://www.w3.org/2000/svg" viewBox="0 0 3710 3710">
  <defs>
    <style>
      .cls-1, .cls-2, .cls-3, .cls-4 {
        stroke-width: 0px;
      }

      .cls-1, .cls-5 {
        fill: #0873ff;
      }

      .cls-6 {
        isolation: isolate;
      }

      .cls-2 {
        fill: #3659b3;
        opacity: .4;
      }

      .cls-7 {
        mix-blend-mode: soft-light;
        stroke-miterlimit: 10;
      }

      .cls-7, .cls-3 {
        fill: #fff;
      }

      .cls-7, .cls-5 {
        stroke: #fff;
        stroke-width: 5px;
      }

      .cls-4 {
        fill: #567ee3;
      }
    </style>
  </defs>
  <g class="cls-6">
    <g id="Illustration">
      <g>
        <path class="cls-5" d="M2420.3,2428.94c3.82,17.49,24.26,25.39,38.99,15.21,81.25-56.17,296.61-235.75,323.03-575.7,22.31-287.08,61.69-440.62,84.39-509.09,4.8-14.48-11.67-26.67-24.13-17.87-137.48,97.05-560.79,453.76-422.28,1087.45Z"/>
        <path class="cls-5" d="M3156.91,1366.6c6.3-9.93-6.41-22.41-18.35-18.09-121.24,43.82-428.34,194.51-511.21,615.58-103.98,528.29-289.34,669.83-479.52,729.35,0,0,226,19.47,421.47-121.57,479.93-346.3,475.62-1028.7,587.62-1205.27Z"/>
        <path class="cls-7" d="M3014.21,1488.12c-31.32,51.95-61.41,104.52-89.19,158.17-28.11,53.49-54.3,107.86-78.47,163.05-23.92,55.28-46.63,111.05-66.55,167.81-20.21,56.66-37.59,114.25-54.79,172.15-17.57,57.75-34.89,116.05-59.15,172.39-24.15,56.25-56.51,110.21-99.56,156.37-10.75,11.5-21.79,22.85-33.53,33.44-11.51,10.81-23.61,21.12-35.93,31.22-24.77,20.08-51.24,38.6-79.31,55.16-56.26,32.98-118.91,57.8-184.25,74.53-6.88,1.76-14.57-1.93-17.18-8.25-2.56-6.2.72-12.63,7.35-14.53h.05c15.72-4.5,31.35-9.14,46.62-14.41,7.7-2.52,15.22-5.35,22.82-8.05,7.44-2.96,15.05-5.66,22.36-8.83,29.52-12.23,57.86-26.38,84.68-42.44,53.79-31.82,101.76-71.44,142.98-115.46,20.31-22.25,38.61-45.96,54.66-71.01,16.03-25.06,29.8-51.44,41.81-78.69,24.04-54.51,41.74-112.04,59.79-169.64,18.14-57.58,36.82-115.3,58.22-172.02,10.61-28.39,21.81-56.56,33.59-84.49,5.8-14,11.91-27.88,17.99-41.76,6.24-13.82,12.56-27.6,19.02-41.32,25.94-54.83,53.82-108.78,83.67-161.7,30.14-52.77,61.93-104.68,96.02-155.23.98-1.45,3.16-1.8,4.87-.8,1.67.98,2.28,2.88,1.42,4.32Z"/>
        <path class="cls-7" d="M2449.63,2339.32c.33.29.7.55,1.1.79,3.34,1.94,7.62.8,9.55-2.54,2.19-3.79,219.97-383.13,269.02-780.89.47-3.83-2.25-7.32-6.08-7.79-3.83-.47-7.32,2.25-7.79,6.08-48.69,394.86-265.06,771.83-267.24,775.59-1.71,2.94-1.03,6.61,1.44,8.77Z"/>
      </g>
      <g>
        <path class="cls-1" d="M1813.82,2029.61c-198.72-5.6-398.59-24.73-583.45-112.26-63.54-30.09-124.27-72.64-175.35-121.04-80.14-75.94-76.64-180.13-3.23-262.24,75.88-84.87,175.52-129.76,280.65-162.71,192.26-60.26,389.47-79.5,590.59-66.12,155.61,10.35,307.42,35.88,452.09,96.13,76.51,31.87,147.7,71.83,202.46,136.2,69.17,81.32,69.27,174.84-.66,254.63-82.55,94.18-193.65,138.66-309.14,173.99-146.84,44.92-298.28,59.3-453.97,63.43Z"/>
        <path class="cls-1" d="M996.36,2145.42c25.65,112.69,98.03,172.6,183.66,218.9,128.81,69.63,268.66,102.73,413.1,120.99,218.64,27.64,434.57,16.71,647.67-40.18,93.6-24.99,183.05-59.98,262.98-116.43,61.5-43.43,108.04-97.26,126.33-172.93,0,86.55.41,173.1-.13,259.64-.44,70.95-37.63,123.46-88.75,167.37-89.16,76.58-195.68,118.76-307.69,146.62-318.49,79.22-634.83,74.93-946.61-33.71-93.08-32.43-182.5-75.65-242.16-157.49-24.73-33.92-42.91-79.2-46.28-120.75-7-86.31-2.11-173.58-2.11-272.03Z"/>
        <path class="cls-1" d="M996.01,1779.07c19.19,78.71,66.2,133.88,129.69,177.24,110.95,75.76,236.12,114.84,366.44,138.42,275.11,49.79,547.9,42.23,815.07-45.4,60.06-19.7,117.7-49.34,172.89-80.67,74.54-42.31,131.19-102,150.29-189.93,0,71.73-4,143.75.93,215.14,7.64,110.64-43.39,186.82-130.17,245.64-113.45,76.91-241.52,116.74-374.4,139.75-269.73,46.7-537.47,39.62-800.36-43.94-87.58-27.84-170.15-66.05-240.87-126.49-57.43-49.09-91.38-108.68-89.87-186.77,1.56-80.97.35-161.99.35-242.98Z"/>
        <path class="cls-1" d="M996.03,2523.74c40.51,148.7,153.22,209.58,273.66,256.75,209.75,82.15,428.91,103.95,652.86,89.93,155.76-9.75,307.85-35.42,451.94-96.88,45.23-19.29,88.73-44.19,129.79-71.39,69.74-46.2,97.22-87.52,125.14-177.07,0,97.54,2.72,187.5-.81,277.22-3.16,80.01-54.64,133.51-115.1,177.82-107.36,78.68-231.31,118.46-359.85,143.44-285.11,55.41-567.76,46.99-845.11-44.65-90.79-30-175.85-71.97-244.74-141.5-44.52-44.94-68.43-97.27-67.93-160.99.63-80.96.15-161.93.15-252.68Z"/>
      </g>
      <path class="cls-2" d="M1563.15,657.96c440.84-45.58,509.87-262.01,845.65-236.72,312.94,23.56,658.86,242.11,810.99,548.64,194.02,390.92-93.58,589.55-110.91,1621.99-5.78,344.57,24.59,421.59-55.45,526.8-111.73,146.86-319.56,192.14-1608.12,62.38-695.58-70.04-814.94-101.36-887.24-214.88-166.06-260.75,191.25-523.27,221.81-1171.43,31.88-676.18-325.6-1055.79-145.56-1219.95,151.86-138.48,399.29,137.93,928.83,83.18Z"/>
      <path class="cls-1" d="M1804.73,1765.18c-29.5.85-58.28-6.58-83.2-21.52-75.94-45.52-188.15-120.7-289.11-219.11-128.1-124.88-201.7-251.81-217.81-376.46l-.25-1.95-3.12-531.87c0-105.11,68.56-190.44,197.28-246.5,106.35-46.32,247.3-69.27,396.21-64.96,147.18,4.26,283.36,34.63,384.17,85.23,119.82,60.15,182.69,144.68,182.69,244.9l-2.85,508.21-.23,1.87c-14.72,119.36-82.44,242.74-202.12,367.51-96,100.07-204.49,179.37-278.99,228.51-24.65,16.26-53.23,25.31-82.66,26.17Z"/>
      <path class="cls-1" d="M1833.94,1765.18c-29.11.85-57.51-6.58-82.11-21.52-74.94-45.52-185.67-120.7-285.29-219.11-126.41-124.88-199.04-251.81-214.93-376.46l-.25-1.95-3.08-531.87c0-105.11,67.65-190.44,194.67-246.5,104.94-46.32,244.04-69.27,390.98-64.96,145.23,4.26,279.62,34.63,379.09,85.23,118.24,60.15,180.28,144.68,180.28,244.9l-2.81,508.21-.23,1.87c-14.52,119.36-81.34,242.74-199.45,367.51-94.73,100.07-201.79,179.37-275.31,228.51-24.32,16.26-52.52,25.31-81.57,26.17Z"/>
      <path class="cls-3" d="M1283.4,614.64l3.1,529.18c34.83,270,352.15,488.6,490.35,571.66,39.59,23.79,90.21,22.38,129.52-3.49,135.32-89.04,435.25-313.2,467.3-572.8l2.85-506.81c0-376.01-1093.12-410.38-1093.12-17.75Z"/>
      <path class="cls-4" d="M1841.78,1633.92c-2.53.06-6.37-.36-10.24-2.71-56.9-34.46-167.21-106.64-263.17-200.9-103.65-101.82-163.44-200.81-177.14-293.78l-3.04-520.42c.13-49.93,39.65-92.67,117.14-126.86,86.5-38.18,209.33-58.21,336.46-55.19,125.86,2.99,245.11,28.32,327.73,69.32,73.08,36.26,110.02,79.01,110.14,127.22l-2.83,502.4c-12.79,89.97-68.9,186.96-167.42,288.92-92.63,95.86-200.83,171.86-257.39,208.81-3.87,2.53-7.7,3.13-10.23,3.19Z"/>
      <path class="cls-1" d="M1828.79,1598.34c-57.47-35.39-159.65-103.74-248.81-191.48-97.41-95.87-153.78-187.86-167.03-272.98l-3.02-517.4c.09-35.7,32.91-68.45,97.29-96.96,81.94-36.28,199.33-55.4,321.57-52.66,121.06,2.72,235.17,26.63,313.58,65.43,60.93,30.14,91.75,63.03,91.83,97.85l-2.83,500.55c-12.43,82.59-65.6,172.91-158.58,268.96-86.33,89.18-186.79,160.89-244,198.68Z"/>
      <path class="cls-3" d="M1961.24,830.02l-29.15-.41,1.11-79.35c0-58.31-47.61-105.92-106.12-105.92s-106.12,47.61-106.12,106.12l-1.11,79.55-29.15-.41,1.11-79.35c0-74.38,60.68-135.06,135.27-135.06s135.27,60.68,135.27,135.27l-1.11,79.55Z"/>
      <rect class="cls-3" x="1626.68" y="791.35" width="403.87" height="394.58" rx="18.29" ry="18.29"/>
      <path class="cls-1" d="M1868.88,967.84c0-22.24-18.03-40.26-40.26-40.26s-40.26,18.03-40.26,40.26c0,14.45,7.64,27.08,19.07,34.19l-10.31,47.69h66.04s-7.42-29.96-12.09-48.45c10.75-7.23,17.82-19.5,17.82-33.43Z"/>
      <path class="cls-1" d="M1652.54,1066.3c-2.62-.06-3.78-46.09-2.59-102.82,1.19-56.74,4.27-102.68,6.89-102.63,2.62.06,3.78,46.08,2.59,102.83-1.19,56.72-4.28,102.67-6.89,102.62Z"/>
    </g>
  </g>
</svg>