<?xml version="1.0" encoding="UTF-8"?>
<svg id="Illustration" xmlns="http://www.w3.org/2000/svg" viewBox="0 0 3710 3710">
  <defs>
    <style>
      .cls-1 {
        fill: #0873ff;
      }

      .cls-1, .cls-2, .cls-3, .cls-4, .cls-5, .cls-6, .cls-7, .cls-8 {
        stroke-width: 0px;
      }

      .cls-2 {
        fill: #375a64;
      }

      .cls-3 {
        fill: #ececec;
      }

      .cls-9 {
        opacity: .2;
      }

      .cls-4, .cls-10 {
        opacity: .4;
      }

      .cls-4, .cls-8, .cls-11 {
        fill: #3659b3;
      }

      .cls-5 {
        fill: #567ee3;
      }

      .cls-6 {
        fill: #084aa3;
      }

      .cls-7 {
        fill: #fafafa;
      }

      .cls-11 {
        stroke: #fff;
        stroke-width: 4px;
      }
    </style>
  </defs>
  <path class="cls-4" d="M2202.54,2102.22c-151.33-4.23-1582.72-111.67-1796.22-28.91-215.98,83.59,1187.58,59.41,530.62,252.32-408.43,119.9,1625.42,347.15,1557.04,122.29-86.62-309.05,365.15-69.76,954.13-212.06,414.5-100.28-1245.57-133.63-1245.57-133.63Z"/>
  <path class="cls-1" d="M962.65,1239.08l-299.47,74.8-303.13,84.46c-39.73,11.07-62.61,53.51-51.11,94.79l57.27,205.56c39.77,142.75,111.53,275.2,212.87,381.54,85.28,89.49,202.13,173.54,354.78,205.13,109.86-80.28,167.21-228.68,193.93-349.37,31.75-143.43,24.67-293.9-15.1-436.65l-57.27-205.56c-11.5-41.28-53.03-65.78-92.76-54.71Z"/>
  <polygon class="cls-7" points="789.17 1805.83 653.82 1745.48 678.42 1690.33 760 1726.71 833.8 1572 888.31 1598 789.17 1805.83"/>
  <path class="cls-8" d="M962.65,1239.08l-299.47,74.8-303.13,84.46c-39.73,11.07-62.61,53.51-51.11,94.79l57.27,205.56c39.77,142.75,111.53,275.2,212.87,381.54,85.28,89.49,202.13,173.54,354.78,205.13,109.86-80.28,167.21-228.68,193.93-349.37,31.75-143.43,24.67-293.9-15.1-436.65l-57.27-205.56c-11.5-41.28-53.03-65.78-92.76-54.71ZM1035.16,1537.32c31.47,112.94,37.06,231.99,11.95,345.46-21.13,95.49-62.45,199.26-152.89,283.1-120.77-24.99-207.33-93.13-274.8-163.93-80.18-84.14-136.95-188.92-168.42-301.87l-45.31-162.63c-9.1-32.66,9-66.24,40.43-75l230.5-64.23,9.33-2.6,230.5-64.22c31.43-8.76,64.29,10.62,73.39,43.28l45.31,162.63Z"/>
  <g class="cls-10">
    <path class="cls-11" d="M3000.55,2119.89c-98.47-68.8-120.81-196.49-116.92-311.28.65-19.16-1.46-39.36,7.66-56.17,9.12-16.81,30.38-28.3,47.54-20.22,14.23,6.7,20.43,23.25,28.39,36.94,10.59,18.21,26.37,33.28,44.94,42.92,12.2,6.33,27.3,10.2,39.34,3.56,16.53-9.12,18.48-31.95,18.36-51.01-.22-35.52-.44-71.04-.67-106.55-.12-19.05-.17-38.51,5.75-56.6,5.93-18.09,19.02-34.89,37.15-39.97,18.13-5.08,40.55,5.38,44.38,24.03,1.59,7.76.01,15.82.54,23.73.53,7.91,4.21,16.66,11.73,18.87,7.61,2.23,15.23-3.17,20.93-8.75,19.67-19.24,33.02-44.03,45.49-68.68,12.47-24.65,24.58-49.89,42.43-70.87,17.85-20.99,42.53-37.62,69.82-39.16,27.3-1.54,56.37,15.3,63.27,42.09,6.92,26.87-8.76,54.12-25.81,75.87-25.3,32.27-55.24,60.8-88.57,84.42-6.01,4.26-12.52,8.87-14.81,15.93-4.14,12.7,7.9,25.32,20.44,29.5,14.21,4.73,29.62,3.26,44.48,5,14.86,1.75,30.96,8.3,36.58,22.35,7.81,19.48-8.48,39.89-24.51,53.27-32.09,26.78-68.75,47.93-107.85,62.26-14.02,5.13-28.77,9.63-40.08,19.48-11.3,9.85-18.13,26.98-11.3,40.4,6.84,13.44,24.36,17.73,39.05,15.01,14.68-2.72,27.83-10.69,41.82-15.97,26.19-9.89,60.01-8.08,76.78,14.55,11.02,14.88,12,35.59,6.42,53.33-5.57,17.73-16.88,33.01-28.89,47.1-41.97,49.24-95.71,88.89-156.46,109.96-60.75,21.06-117.04,26.77-177.41,4.69"/>
  </g>
  <g class="cls-10">
    <path class="cls-8" d="M2999.05,2204.99c4.16-45.47,14.13-99.17,31.14-157.06,16.89-57.93,40.68-119.89,67.78-183.85,6.83-15.96,13.59-31.73,20.24-47.28,6.68-15.5,13.3-30.88,20.71-45.51,14.69-29.34,31.05-56.43,47.38-81.66,16.33-25.25,32.74-48.61,48.25-70.34,15.56-21.71,30.45-41.67,44.79-59.28,28.58-35.35,54.97-61.08,73.8-78,9.4-8.5,16.91-14.85,22.05-19.08,2.48-2.01,4.42-3.59,5.88-4.78,1.34-1.06,2.04-1.58,2.08-1.53.04.05-.59.66-1.85,1.81-1.41,1.25-3.28,2.92-5.66,5.05-4.99,4.41-12.35,10.92-21.6,19.56-18.52,17.21-44.53,43.12-72.79,78.56-14.18,17.66-28.91,37.66-44.35,59.41-15.39,21.79-31.7,45.18-47.91,70.41-16.22,25.22-32.45,52.25-47.02,81.45-7.35,14.57-13.89,29.81-20.58,45.35-6.65,15.54-13.39,31.3-20.22,47.26-27.08,63.9-50.89,125.68-67.91,183.38-17.12,57.66-27.3,111.09-31.76,156.37"/>
  </g>
  <g class="cls-10">
    <path class="cls-8" d="M3139.92,1771.16c-.24.04-.88-2.86-1.86-8.13-1-5.27-2.2-12.93-3.54-22.42-2.7-18.97-5.52-45.3-8.53-74.34-3.01-29.06-6.2-55.27-9.17-74.15-1.46-9.44-2.72-17.08-3.66-22.34-.91-5.27-1.3-8.22-1.06-8.27.24-.05,1.08,2.79,2.4,7.99,1.35,5.19,2.99,12.78,4.76,22.2,3.62,18.84,7.21,45.12,10.22,74.2,2.89,28.67,5.51,54.6,7.51,74.41.96,8.95,1.77,16.48,2.43,22.53.55,5.32.75,8.29.51,8.33Z"/>
  </g>
  <g class="cls-10">
    <path class="cls-8" d="M3384.93,1725.37c0,.24-3.48.65-9.77,1.17-6.29.56-15.39,1.32-26.6,2.62-22.44,2.42-53.32,6.85-87.18,13.23-33.86,6.44-64.25,13.58-86.08,19.37-10.94,2.82-19.73,5.34-25.82,7.05-6.08,1.73-9.48,2.58-9.56,2.35-.07-.24,3.19-1.52,9.16-3.67,5.98-2.11,14.68-5,25.57-8.15,21.73-6.43,52.13-13.97,86.09-20.44,33.96-6.39,65.01-10.45,87.58-12.24,11.28-.98,20.44-1.37,26.77-1.5,6.33-.1,9.83-.04,9.84.21Z"/>
  </g>
  <g class="cls-10">
    <path class="cls-8" d="M3033.2,2043.42c-.11.05-.68-.98-1.68-2.99-1.13-2.4-2.52-5.32-4.19-8.86-3.6-7.71-8.53-19.01-14.43-33.05-11.82-28.07-26.93-67.35-43.01-110.93-16.1-43.59-30.82-82.97-42.04-111.24-5.5-13.75-10.02-25.05-13.38-33.45-1.44-3.65-2.62-6.65-3.59-9.13-.78-2.1-1.15-3.23-1.03-3.28.11-.04.68.98,1.68,2.99,1.13,2.4,2.51,5.32,4.19,8.86,3.6,7.71,8.53,19.01,14.43,33.05,11.82,28.07,26.93,67.35,43.02,110.95,16.09,43.58,30.81,82.95,42.03,111.23,5.5,13.74,10.02,25.05,13.38,33.45,1.44,3.65,2.62,6.66,3.59,9.13.78,2.1,1.15,3.23,1.03,3.28Z"/>
  </g>
  <g class="cls-10">
    <path class="cls-8" d="M3358.78,1938.49c.03.12-1.08.57-3.23,1.33-2.55.85-5.67,1.9-9.46,3.17-8.73,2.83-20.52,6.65-34.87,11.3-29.44,9.55-69.94,23.2-114.68,38.35-44.75,15.16-85.42,28.45-115.07,37.39-14.82,4.48-26.85,7.97-35.21,10.22-3.87,1.01-7.05,1.85-9.64,2.53-2.22.54-3.4.77-3.43.65-.03-.12,1.08-.57,3.23-1.34,2.54-.85,5.66-1.89,9.46-3.16,8.73-2.83,20.52-6.65,34.86-11.3,29.44-9.54,69.95-23.2,114.7-38.35,44.74-15.15,85.4-28.44,115.05-37.38,14.82-4.48,26.85-7.97,35.21-10.22,3.87-1.01,7.05-1.85,9.64-2.53,2.22-.54,3.39-.77,3.43-.65Z"/>
  </g>
  <rect class="cls-1" x="946.55" y="937.47" width="2070.98" height="1369.52" rx="14.57" ry="14.57"/>
  <path class="cls-1" d="M859.95,2205.69h2243.74v102.03c0,9.82-7.97,17.8-17.8,17.8H877.75c-9.82,0-17.8-7.97-17.8-17.8v-102.03h0Z"/>
  <polygon class="cls-6" points="1777.88 2205.69 1805.73 2249.98 2197.51 2249.98 2223.37 2205.69 1777.88 2205.69"/>
  <path class="cls-3" d="M1045.66,1031.03h1870.98c1.81,0,3.27,1.47,3.27,3.27v1107.14c0,1.81-1.47,3.27-3.27,3.27h-1870.98c-1.81,0-3.27-1.47-3.27-3.27v-1107.14c0-1.81,1.47-3.27,3.27-3.27Z"/>
  <rect class="cls-7" x="1042.39" y="1025.76" width="1877.53" height="1118.95"/>
  <path class="cls-2" d="M2999.73,2205.69c0,.74-459.66,1.34-1026.54,1.34s-1026.64-.6-1026.64-1.34,459.56-1.34,1026.64-1.34,1026.54.6,1026.54,1.34Z"/>
  <g>
    <path class="cls-5" d="M2133.25,1512.19l-29.15-.41,1.11-79.35c0-58.31-47.61-105.92-106.12-105.92s-106.12,47.61-106.12,106.12l-1.11,79.55-29.15-.41,1.11-79.35c0-74.38,60.68-135.06,135.27-135.06s135.27,60.68,135.27,135.27l-1.11,79.55Z"/>
    <rect class="cls-5" x="1798.69" y="1473.52" width="403.87" height="394.58" rx="18.29" ry="18.29"/>
    <path class="cls-7" d="M2040.89,1650c0-22.24-18.03-40.26-40.26-40.26s-40.26,18.03-40.26,40.26c0,14.45,7.64,27.08,19.07,34.19l-10.31,47.69h66.04s-7.42-29.96-12.09-48.45c10.75-7.23,17.82-19.5,17.82-33.43Z"/>
    <path class="cls-7" d="M1824.55,1748.47c-2.62-.06-3.78-46.09-2.59-102.82,1.19-56.74,4.27-102.68,6.89-102.63,2.62.06,3.78,46.08,2.59,102.83-1.19,56.72-4.28,102.67-6.89,102.62Z"/>
  </g>
  <g class="cls-9">
    <path class="cls-5" d="M1931.22,1802.74c-2.96-.97,4-30.63,16.14-70.11l1.5,6.53c-5.48-5.48-11.21-11.22-17.2-17.53-9.97-11.38-14.72-25.2-15.38-37.89-.73-12.79,2.93-24.1,7.6-32.17,4.69-8.17,10.28-13.43,14.48-16.35,4.24-2.93,7.06-3.7,7.56-2.99,1.33,1.63-7.4,8.53-13.52,23.5-2.98,7.43-5,16.81-3.8,27.02,1.08,10.14,5.44,21.24,13.01,29.87,5.76,6.08,11.34,11.98,16.58,17.51l2.76,2.91-1.26,3.61c-13.58,39.01-25.51,67.04-28.47,66.07Z"/>
  </g>
</svg>