<?xml version="1.0" encoding="UTF-8"?>
<svg xmlns="http://www.w3.org/2000/svg" viewBox="0 0 3710 3710">
  <defs>
    <style>
      .cls-1 {
        opacity: .69;
      }

      .cls-2 {
        fill: #49258d;
        opacity: .57;
      }

      .cls-2, .cls-3, .cls-4, .cls-5, .cls-6, .cls-7, .cls-8, .cls-9 {
        stroke-width: 0px;
      }

      .cls-2, .cls-6 {
        mix-blend-mode: multiply;
      }

      .cls-3, .cls-6 {
        fill: #0873ff;
      }

      .cls-10 {
        isolation: isolate;
      }

      .cls-4 {
        fill: #3659b3;
        opacity: .4;
      }

      .cls-5 {
        fill: none;
      }

      .cls-6, .cls-11 {
        opacity: .3;
      }

      .cls-11 {
        mix-blend-mode: soft-light;
      }

      .cls-7 {
        fill: #fff;
      }

      .cls-8 {
        fill: #86a2eb;
      }

      .cls-9 {
        fill: #bed5e5;
      }
    </style>
  </defs>
  <g class="cls-10">
    <g id="Illustration">
      <path class="cls-4" d="M1776.03,646.5C1176.11,202.05,383.27,1158.79,285.6,1859.51c-106.79,766.13,475.2,1627.84,1204.14,1565.88,1401.78-119.15,1816.63-781.52,1372.98-1524.59-591.4-990.54-466.56-794.88-1086.69-1254.3Z"/>
      <rect class="cls-5" x="913.85" y="515.56" width="2159.01" height="2371.66"/>
      <path class="cls-3" d="M629.89,945.89v2191.47c0,22.84,16.1,42.52,38.49,47.05l562.89,113.7,153.22-1451.02-148.49-1022.68-564.35,73.9c-23.9,3.13-41.77,23.49-41.77,47.59Z"/>
      <path class="cls-3" d="M2231.25,863.82l-991.18-39.69c-39.07-1.56-70.84,26.2-70.84,62.02v2351.04c0,35.82,31.76,63.04,70.84,60.8l991.18-56.77c35.98-2.06,65.06-31.48,65.06-65.71V928.41c0-34.23-29.09-63.15-65.06-64.59Z"/>
      <path class="cls-2" d="M1237.6,1098.9v-166.36c0-25.46,22.52-45.25,50.25-44.2l899.11,33.8c25.74.97,46.57,21.58,46.57,46.04v159.85c0,24.46-20.83,43.72-46.57,43.01l-899.11-24.65c-27.73-.76-50.25-22.02-50.25-47.47Z"/>
      <path class="cls-7" d="M1331.26,951.14c0,11.74-10.36,20.89-23.15,20.45-12.8-.44-23.19-10.33-23.19-22.08s10.39-20.91,23.19-20.45c12.79.46,23.15,10.35,23.15,22.08Z"/>
      <path class="cls-7" d="M1404.37,953.71c0,11.7-10.3,20.83-23.01,20.4-12.73-.44-23.05-10.3-23.05-22.02s10.33-20.85,23.05-20.4c12.72.46,23.01,10.31,23.01,22.02Z"/>
      <path class="cls-7" d="M1477.07,956.27c0,11.67-10.24,20.77-22.88,20.34-12.65-.43-22.92-10.26-22.92-21.95s10.27-20.8,22.92-20.34c12.64.46,22.88,10.28,22.88,21.95Z"/>
      <polygon class="cls-8" points="2182.67 1130.84 1522.7 1111.67 1522.7 936.79 2182.67 960.56 2182.67 1130.84"/>
      <g class="cls-11">
        <polygon class="cls-9" points="1586.98 1101.22 1567.07 1100.63 1567.07 959.44 1586.98 960.14 1586.98 1101.22"/>
        <polygon class="cls-9" points="1622.3 1102.26 1602.45 1101.68 1602.45 960.68 1622.3 961.38 1622.3 1102.26"/>
        <polygon class="cls-9" points="1657.53 1103.31 1637.73 1102.72 1637.73 961.92 1657.53 962.62 1657.53 1103.31"/>
        <polygon class="cls-9" points="1692.65 1104.34 1672.91 1103.76 1672.91 963.16 1692.65 963.85 1692.65 1104.34"/>
        <polygon class="cls-9" points="1727.68 1105.38 1707.99 1104.8 1707.99 964.39 1727.68 965.09 1727.68 1105.38"/>
        <polygon class="cls-9" points="1762.61 1106.41 1742.97 1105.83 1742.97 965.62 1762.61 966.31 1762.61 1106.41"/>
        <polygon class="cls-9" points="1797.44 1107.44 1777.86 1106.86 1777.86 966.85 1797.44 967.54 1797.44 1107.44"/>
        <polygon class="cls-9" points="1832.17 1108.47 1812.64 1107.89 1812.64 968.07 1832.17 968.76 1832.17 1108.47"/>
        <polygon class="cls-9" points="1866.8 1109.49 1847.33 1108.91 1847.33 969.3 1866.8 969.98 1866.8 1109.49"/>
        <polygon class="cls-9" points="1901.34 1110.51 1881.93 1109.94 1881.93 970.51 1901.34 971.19 1901.34 1110.51"/>
        <polygon class="cls-9" points="1935.79 1111.53 1916.43 1110.96 1916.43 971.73 1935.79 972.41 1935.79 1111.53"/>
        <polygon class="cls-9" points="1970.14 1112.54 1950.83 1111.97 1950.83 972.94 1970.14 973.61 1970.14 1112.54"/>
        <polygon class="cls-9" points="2004.39 1113.55 1985.13 1112.99 1985.13 974.14 2004.39 974.82 2004.39 1113.55"/>
        <polygon class="cls-9" points="2038.55 1114.56 2019.34 1114 2019.34 975.35 2038.55 976.02 2038.55 1114.56"/>
        <polygon class="cls-9" points="2072.61 1115.57 2053.46 1115.01 2053.46 976.55 2072.61 977.22 2072.61 1115.57"/>
        <polygon class="cls-9" points="2106.58 1116.57 2087.48 1116.01 2087.48 977.74 2106.58 978.41 2106.58 1116.57"/>
        <polygon class="cls-9" points="2140.45 1117.58 2121.41 1117.01 2121.41 978.94 2140.45 979.61 2140.45 1117.58"/>
      </g>
      <g>
        <polygon class="cls-7" points="1586.98 1101.22 1567.07 1100.63 1567.07 980.49 1586.98 981.17 1586.98 1101.22"/>
        <polygon class="cls-7" points="1622.3 1102.26 1602.45 1101.68 1602.45 1087.23 1622.3 1087.83 1622.3 1102.26"/>
        <polygon class="cls-7" points="1657.53 1103.31 1637.73 1102.72 1637.73 1020.71 1657.53 1021.36 1657.53 1103.31"/>
        <polygon class="cls-7" points="1692.65 1104.34 1672.91 1103.76 1672.91 1068.39 1692.65 1069.01 1692.65 1104.34"/>
        <polygon class="cls-7" points="1727.68 1105.38 1707.99 1104.8 1707.99 1014.34 1727.68 1014.99 1727.68 1105.38"/>
        <polygon class="cls-7" points="1762.61 1106.41 1742.97 1105.83 1742.97 1043.54 1762.61 1044.17 1762.61 1106.41"/>
        <polygon class="cls-7" points="1797.44 1107.44 1777.86 1106.86 1777.86 998.84 1797.44 999.5 1797.44 1107.44"/>
        <polygon class="cls-7" points="1832.17 1108.47 1812.64 1107.89 1812.64 988.92 1832.17 989.59 1832.17 1108.47"/>
        <polygon class="cls-7" points="1866.8 1109.49 1847.33 1108.91 1847.33 1049.51 1866.8 1050.13 1866.8 1109.49"/>
        <polygon class="cls-7" points="1901.34 1110.51 1881.93 1109.94 1881.93 980.06 1901.34 980.73 1901.34 1110.51"/>
        <polygon class="cls-7" points="1935.79 1111.53 1916.43 1110.96 1916.43 1000.5 1935.79 1001.16 1935.79 1111.53"/>
        <polygon class="cls-7" points="1970.14 1112.54 1950.83 1111.97 1950.83 1082.4 1970.14 1082.99 1970.14 1112.54"/>
        <polygon class="cls-7" points="2004.39 1113.55 1985.13 1112.99 1985.13 1043.56 2004.39 1044.19 2004.39 1113.55"/>
        <polygon class="cls-7" points="2038.55 1114.56 2019.34 1114 2019.34 1014.08 2038.55 1014.73 2038.55 1114.56"/>
        <polygon class="cls-7" points="2072.61 1115.57 2053.46 1115.01 2053.46 1042.24 2072.61 1042.86 2072.61 1115.57"/>
        <polygon class="cls-7" points="2106.58 1116.57 2087.48 1116.01 2087.48 1003.3 2106.58 1003.95 2106.58 1116.57"/>
        <polygon class="cls-7" points="2140.45 1117.58 2121.41 1117.01 2121.41 991.9 2140.45 992.56 2140.45 1117.58"/>
      </g>
      <path class="cls-2" d="M1237.6,1379.8v-166.36c0-25.46,22.52-45.5,50.25-44.76l899.11,23.86c25.74.68,46.57,21.06,46.57,45.52v159.85c0,24.46-20.83,43.95-46.57,43.52l-899.11-14.72c-27.73-.45-50.25-21.46-50.25-46.92Z"/>
      <path class="cls-7" d="M1331.26,1231.01c0,11.74-10.36,21.01-23.15,20.71-12.8-.3-23.19-10.07-23.19-21.83s10.39-21.03,23.19-20.71c12.79.32,23.15,10.09,23.15,21.83Z"/>
      <path class="cls-7" d="M1404.37,1232.77c0,11.7-10.3,20.95-23.01,20.65-12.73-.3-23.05-10.04-23.05-21.76s10.33-20.97,23.05-20.65c12.72.32,23.01,10.06,23.01,21.76Z"/>
      <path class="cls-7" d="M1477.07,1234.52c0,11.67-10.24,20.89-22.88,20.59-12.65-.3-22.92-10.01-22.92-21.7s10.27-20.91,22.92-20.59c12.64.32,22.88,10.03,22.88,21.7Z"/>
      <polygon class="cls-8" points="2182.67 1401.3 1522.7 1389.41 1522.7 1214.54 2182.67 1231.01 2182.67 1401.3"/>
      <g>
        <polygon class="cls-7" points="1586.98 1378.26 1567.07 1377.89 1567.07 1236.69 1586.98 1237.17 1586.98 1378.26"/>
        <polygon class="cls-7" points="1622.3 1378.91 1602.45 1378.55 1602.45 1237.55 1622.3 1238.03 1622.3 1378.91"/>
        <polygon class="cls-7" points="1657.53 1379.56 1637.73 1379.2 1637.73 1238.4 1657.53 1238.88 1657.53 1379.56"/>
        <polygon class="cls-7" points="1692.65 1380.21 1672.91 1379.85 1672.91 1239.25 1692.65 1239.72 1692.65 1380.21"/>
        <polygon class="cls-7" points="1727.68 1380.86 1707.99 1380.5 1707.99 1240.09 1727.68 1240.57 1727.68 1380.86"/>
        <polygon class="cls-7" points="1762.61 1381.51 1742.97 1381.14 1742.97 1240.94 1762.61 1241.41 1762.61 1381.51"/>
        <polygon class="cls-7" points="1797.44 1382.15 1777.86 1381.79 1777.86 1241.78 1797.44 1242.25 1797.44 1382.15"/>
        <polygon class="cls-7" points="1832.17 1382.79 1812.64 1382.43 1812.64 1242.62 1832.17 1243.09 1832.17 1382.79"/>
        <polygon class="cls-7" points="1866.8 1383.44 1847.33 1383.08 1847.33 1243.46 1866.8 1243.93 1866.8 1383.44"/>
        <polygon class="cls-7" points="1901.34 1384.07 1881.93 1383.72 1881.93 1244.29 1901.34 1244.76 1901.34 1384.07"/>
        <polygon class="cls-7" points="1935.79 1384.71 1916.43 1384.35 1916.43 1245.12 1935.79 1245.59 1935.79 1384.71"/>
        <polygon class="cls-7" points="1970.14 1385.35 1950.83 1384.99 1950.83 1245.95 1970.14 1246.42 1970.14 1385.35"/>
        <polygon class="cls-7" points="2004.39 1385.98 1985.13 1385.62 1985.13 1246.78 2004.39 1247.25 2004.39 1385.98"/>
        <polygon class="cls-7" points="2038.55 1386.61 2019.34 1386.26 2019.34 1247.61 2038.55 1248.07 2038.55 1386.61"/>
        <polygon class="cls-7" points="2072.61 1387.24 2053.46 1386.89 2053.46 1248.43 2072.61 1248.89 2072.61 1387.24"/>
        <polygon class="cls-7" points="2106.58 1387.87 2087.48 1387.52 2087.48 1249.25 2106.58 1249.71 2106.58 1387.87"/>
        <polygon class="cls-7" points="2140.45 1388.5 2121.41 1388.15 2121.41 1250.07 2140.45 1250.53 2140.45 1388.5"/>
      </g>
      <g class="cls-1">
        <polygon class="cls-9" points="1586.98 1378.26 1567.07 1377.89 1567.07 1257.75 1586.98 1258.21 1586.98 1378.26"/>
        <polygon class="cls-9" points="1622.3 1378.91 1602.45 1378.55 1602.45 1364.1 1622.3 1364.48 1622.3 1378.91"/>
        <polygon class="cls-9" points="1657.53 1379.56 1637.73 1379.2 1637.73 1297.19 1657.53 1297.62 1657.53 1379.56"/>
        <polygon class="cls-9" points="1692.65 1380.21 1672.91 1379.85 1672.91 1344.48 1692.65 1344.88 1692.65 1380.21"/>
        <polygon class="cls-9" points="1727.68 1380.86 1707.99 1380.5 1707.99 1290.04 1727.68 1290.48 1727.68 1380.86"/>
        <polygon class="cls-9" points="1762.61 1381.51 1742.97 1381.14 1742.97 1318.86 1762.61 1319.27 1762.61 1381.51"/>
        <polygon class="cls-9" points="1797.44 1382.15 1777.86 1381.79 1777.86 1273.77 1797.44 1274.22 1797.44 1382.15"/>
        <polygon class="cls-9" points="1832.17 1382.79 1812.64 1382.43 1812.64 1263.46 1832.17 1263.92 1832.17 1382.79"/>
        <polygon class="cls-9" points="1866.8 1383.44 1847.33 1383.08 1847.33 1323.67 1866.8 1324.08 1866.8 1383.44"/>
        <polygon class="cls-9" points="1901.34 1384.07 1881.93 1383.72 1881.93 1253.84 1901.34 1254.3 1901.34 1384.07"/>
        <polygon class="cls-9" points="1935.79 1384.71 1916.43 1384.35 1916.43 1273.9 1935.79 1274.34 1935.79 1384.71"/>
        <polygon class="cls-9" points="1970.14 1385.35 1950.83 1384.99 1950.83 1355.41 1970.14 1355.79 1970.14 1385.35"/>
        <polygon class="cls-9" points="2004.39 1385.98 1985.13 1385.62 1985.13 1316.2 2004.39 1316.61 2004.39 1385.98"/>
        <polygon class="cls-9" points="2038.55 1386.61 2019.34 1386.26 2019.34 1286.34 2038.55 1286.78 2038.55 1386.61"/>
        <polygon class="cls-9" points="2072.61 1387.24 2053.46 1386.89 2053.46 1314.12 2072.61 1314.54 2072.61 1387.24"/>
        <polygon class="cls-9" points="2106.58 1387.87 2087.48 1387.52 2087.48 1274.81 2106.58 1275.25 2106.58 1387.87"/>
        <polygon class="cls-9" points="2140.45 1388.5 2121.41 1388.15 2121.41 1263.04 2140.45 1263.49 2140.45 1388.5"/>
      </g>
      <path class="cls-2" d="M1237.6,1660.7v-166.36c0-25.46,22.52-45.74,50.25-45.31l899.11,13.93c25.74.4,46.57,20.55,46.57,45.01v159.85c0,24.46-20.83,44.18-46.57,44.04l-899.11-4.78c-27.73-.15-50.25-20.9-50.25-46.36Z"/>
      <path class="cls-7" d="M1331.26,1510.87c0,11.74-10.36,21.12-23.15,20.97-12.8-.16-23.19-9.81-23.19-21.57s10.39-21.14,23.19-20.97c12.79.18,23.15,9.84,23.15,21.57Z"/>
      <path class="cls-7" d="M1404.37,1511.82c0,11.7-10.3,21.06-23.01,20.91-12.73-.16-23.05-9.79-23.05-21.51s10.33-21.08,23.05-20.91c12.72.18,23.01,9.81,23.01,21.51Z"/>
      <path class="cls-7" d="M1477.07,1512.78c0,11.67-10.24,21-22.88,20.85-12.65-.15-22.92-9.76-22.92-21.45s10.27-21.02,22.92-20.85c12.64.18,22.88,9.78,22.88,21.44Z"/>
      <polygon class="cls-8" points="2182.67 1671.76 1522.7 1667.16 1522.7 1492.28 2182.67 1501.47 2182.67 1671.76"/>
      <g class="cls-11">
        <polygon class="cls-9" points="1586.98 1655.3 1567.07 1655.15 1567.07 1513.95 1586.98 1514.21 1586.98 1655.3"/>
        <polygon class="cls-9" points="1622.3 1655.56 1602.45 1655.41 1602.45 1514.42 1622.3 1514.67 1622.3 1655.56"/>
        <polygon class="cls-9" points="1657.53 1655.82 1637.73 1655.67 1637.73 1514.88 1657.53 1515.14 1657.53 1655.82"/>
        <polygon class="cls-9" points="1692.65 1656.08 1672.91 1655.94 1672.91 1515.34 1692.65 1515.59 1692.65 1656.08"/>
        <polygon class="cls-9" points="1727.68 1656.35 1707.99 1656.2 1707.99 1515.8 1727.68 1516.05 1727.68 1656.35"/>
        <polygon class="cls-9" points="1762.61 1656.61 1742.97 1656.46 1742.97 1516.25 1762.61 1516.51 1762.61 1656.61"/>
        <polygon class="cls-9" points="1797.44 1656.86 1777.86 1656.72 1777.86 1516.71 1797.44 1516.96 1797.44 1656.86"/>
        <polygon class="cls-9" points="1832.17 1657.12 1812.64 1656.98 1812.64 1517.16 1832.17 1517.42 1832.17 1657.12"/>
        <polygon class="cls-9" points="1866.8 1657.38 1847.33 1657.24 1847.33 1517.62 1866.8 1517.87 1866.8 1657.38"/>
        <polygon class="cls-9" points="1901.34 1657.64 1881.93 1657.49 1881.93 1518.07 1901.34 1518.32 1901.34 1657.64"/>
        <polygon class="cls-9" points="1935.79 1657.9 1916.43 1657.75 1916.43 1518.52 1935.79 1518.77 1935.79 1657.9"/>
        <polygon class="cls-9" points="1970.14 1658.15 1950.83 1658.01 1950.83 1518.97 1970.14 1519.22 1970.14 1658.15"/>
        <polygon class="cls-9" points="2004.39 1658.41 1985.13 1658.26 1985.13 1519.42 2004.39 1519.67 2004.39 1658.41"/>
        <polygon class="cls-9" points="2038.55 1658.66 2019.34 1658.52 2019.34 1519.87 2038.55 1520.12 2038.55 1658.66"/>
        <polygon class="cls-9" points="2072.61 1658.91 2053.46 1658.77 2053.46 1520.31 2072.61 1520.56 2072.61 1658.91"/>
        <polygon class="cls-9" points="2106.58 1659.17 2087.48 1659.03 2087.48 1520.76 2106.58 1521.01 2106.58 1659.17"/>
        <polygon class="cls-9" points="2140.45 1659.42 2121.41 1659.28 2121.41 1521.2 2140.45 1521.45 2140.45 1659.42"/>
      </g>
      <g>
        <polygon class="cls-7" points="1586.98 1655.3 1567.07 1655.15 1567.07 1535 1586.98 1535.25 1586.98 1655.3"/>
        <polygon class="cls-7" points="1622.3 1655.56 1602.45 1655.41 1602.45 1640.97 1622.3 1641.13 1622.3 1655.56"/>
        <polygon class="cls-7" points="1657.53 1655.82 1637.73 1655.67 1637.73 1573.67 1657.53 1573.88 1657.53 1655.82"/>
        <polygon class="cls-7" points="1692.65 1656.08 1672.91 1655.94 1672.91 1620.57 1692.65 1620.75 1692.65 1656.08"/>
        <polygon class="cls-7" points="1727.68 1656.35 1707.99 1656.2 1707.99 1565.74 1727.68 1565.96 1727.68 1656.35"/>
        <polygon class="cls-7" points="1762.61 1656.61 1742.97 1656.46 1742.97 1594.17 1762.61 1594.37 1762.61 1656.61"/>
        <polygon class="cls-7" points="1797.44 1656.86 1777.86 1656.72 1777.86 1548.7 1797.44 1548.93 1797.44 1656.86"/>
        <polygon class="cls-7" points="1832.17 1657.12 1812.64 1656.98 1812.64 1538.01 1832.17 1538.25 1832.17 1657.12"/>
        <polygon class="cls-7" points="1866.8 1657.38 1847.33 1657.24 1847.33 1597.84 1866.8 1598.03 1866.8 1657.38"/>
        <polygon class="cls-7" points="1901.34 1657.64 1881.93 1657.49 1881.93 1527.62 1901.34 1527.86 1901.34 1657.64"/>
        <polygon class="cls-7" points="1935.79 1657.9 1916.43 1657.75 1916.43 1547.29 1935.79 1547.52 1935.79 1657.9"/>
        <polygon class="cls-7" points="1970.14 1658.15 1950.83 1658.01 1950.83 1628.43 1970.14 1628.6 1970.14 1658.15"/>
        <polygon class="cls-7" points="2004.39 1658.41 1985.13 1658.26 1985.13 1588.84 2004.39 1589.04 2004.39 1658.41"/>
        <polygon class="cls-7" points="2038.55 1658.66 2019.34 1658.52 2019.34 1558.6 2038.55 1558.82 2038.55 1658.66"/>
        <polygon class="cls-7" points="2072.61 1658.91 2053.46 1658.77 2053.46 1586.01 2072.61 1586.21 2072.61 1658.91"/>
        <polygon class="cls-7" points="2106.58 1659.17 2087.48 1659.03 2087.48 1546.31 2106.58 1546.54 2106.58 1659.17"/>
        <polygon class="cls-7" points="2140.45 1659.42 2121.41 1659.28 2121.41 1534.17 2140.45 1534.41 2140.45 1659.42"/>
      </g>
      <path class="cls-2" d="M1237.6,1941.6v-166.36c0-25.46,22.52-45.99,50.25-45.87l899.11,3.99c25.74.11,46.57,20.04,46.57,44.49v159.85c0,24.46-20.83,44.41-46.57,44.55l-899.11,5.15c-27.73.16-50.25-20.35-50.25-45.81Z"/>
      <path class="cls-7" d="M1331.26,1790.73c0,11.74-10.36,21.24-23.15,21.22-12.8-.02-23.19-9.56-23.19-21.32s10.39-21.26,23.19-21.22c12.79.04,23.15,9.58,23.15,21.32Z"/>
      <path class="cls-7" d="M1404.37,1790.88c0,11.7-10.3,21.18-23.01,21.16-12.73-.02-23.05-9.53-23.05-21.25s10.33-21.2,23.05-21.16c12.72.04,23.01,9.55,23.01,21.25Z"/>
      <path class="cls-7" d="M1477.07,1791.03c0,11.67-10.24,21.11-22.88,21.1-12.65-.02-22.92-9.5-22.92-21.19s10.27-21.14,22.92-21.1c12.64.04,22.88,9.52,22.88,21.19Z"/>
      <polygon class="cls-8" points="2182.67 1942.21 1522.7 1944.91 1522.7 1770.03 2182.67 1771.92 2182.67 1942.21"/>
      <g>
        <polygon class="cls-7" points="1586.98 1932.33 1567.07 1932.41 1567.07 1791.21 1586.98 1791.25 1586.98 1932.33"/>
        <polygon class="cls-7" points="1622.3 1932.21 1602.45 1932.28 1602.45 1791.28 1622.3 1791.32 1622.3 1932.21"/>
        <polygon class="cls-7" points="1657.53 1932.08 1637.73 1932.15 1637.73 1791.35 1657.53 1791.39 1657.53 1932.08"/>
        <polygon class="cls-7" points="1692.65 1931.95 1672.91 1932.03 1672.91 1791.43 1692.65 1791.47 1692.65 1931.95"/>
        <polygon class="cls-7" points="1727.68 1931.83 1707.99 1931.9 1707.99 1791.5 1727.68 1791.54 1727.68 1931.83"/>
        <polygon class="cls-7" points="1762.61 1931.7 1742.97 1931.77 1742.97 1791.57 1762.61 1791.61 1762.61 1931.7"/>
        <polygon class="cls-7" points="1797.44 1931.58 1777.86 1931.65 1777.86 1791.64 1797.44 1791.68 1797.44 1931.58"/>
        <polygon class="cls-7" points="1832.17 1931.45 1812.64 1931.52 1812.64 1791.71 1832.17 1791.75 1832.17 1931.45"/>
        <polygon class="cls-7" points="1866.8 1931.33 1847.33 1931.4 1847.33 1791.78 1866.8 1791.82 1866.8 1931.33"/>
        <polygon class="cls-7" points="1901.34 1931.2 1881.93 1931.27 1881.93 1791.85 1901.34 1791.89 1901.34 1931.2"/>
        <polygon class="cls-7" points="1935.79 1931.08 1916.43 1931.15 1916.43 1791.92 1935.79 1791.96 1935.79 1931.08"/>
        <polygon class="cls-7" points="1970.14 1930.96 1950.83 1931.03 1950.83 1791.99 1970.14 1792.03 1970.14 1930.96"/>
        <polygon class="cls-7" points="2004.39 1930.83 1985.13 1930.9 1985.13 1792.06 2004.39 1792.1 2004.39 1930.83"/>
        <polygon class="cls-7" points="2038.55 1930.71 2019.34 1930.78 2019.34 1792.13 2038.55 1792.17 2038.55 1930.71"/>
        <polygon class="cls-7" points="2072.61 1930.59 2053.46 1930.66 2053.46 1792.2 2072.61 1792.24 2072.61 1930.59"/>
        <polygon class="cls-7" points="2106.58 1930.47 2087.48 1930.53 2087.48 1792.27 2106.58 1792.3 2106.58 1930.47"/>
        <polygon class="cls-7" points="2140.45 1930.34 2121.41 1930.41 2121.41 1792.33 2140.45 1792.37 2140.45 1930.34"/>
      </g>
      <g class="cls-1">
        <polygon class="cls-9" points="1586.98 1932.33 1567.07 1932.41 1567.07 1812.26 1586.98 1812.29 1586.98 1932.33"/>
        <polygon class="cls-9" points="1622.3 1932.21 1602.45 1932.28 1602.45 1917.84 1622.3 1917.78 1622.3 1932.21"/>
        <polygon class="cls-9" points="1657.53 1932.08 1637.73 1932.15 1637.73 1850.15 1657.53 1850.14 1657.53 1932.08"/>
        <polygon class="cls-9" points="1692.65 1931.95 1672.91 1932.03 1672.91 1896.66 1692.65 1896.62 1692.65 1931.95"/>
        <polygon class="cls-9" points="1727.68 1931.83 1707.99 1931.9 1707.99 1841.44 1727.68 1841.44 1727.68 1931.83"/>
        <polygon class="cls-9" points="1762.61 1931.7 1742.97 1931.77 1742.97 1869.49 1762.61 1869.46 1762.61 1931.7"/>
        <polygon class="cls-9" points="1797.44 1931.58 1777.86 1931.65 1777.86 1823.63 1797.44 1823.64 1797.44 1931.58"/>
        <polygon class="cls-9" points="1832.17 1931.45 1812.64 1931.52 1812.64 1812.55 1832.17 1812.58 1832.17 1931.45"/>
        <polygon class="cls-9" points="1866.8 1931.33 1847.33 1931.4 1847.33 1872 1866.8 1871.97 1866.8 1931.33"/>
        <polygon class="cls-9" points="1901.34 1931.2 1881.93 1931.27 1881.93 1801.4 1901.34 1801.43 1901.34 1931.2"/>
        <polygon class="cls-9" points="1935.79 1931.08 1916.43 1931.15 1916.43 1820.69 1935.79 1820.71 1935.79 1931.08"/>
        <polygon class="cls-9" points="1970.14 1930.96 1950.83 1931.03 1950.83 1901.45 1970.14 1901.4 1970.14 1930.96"/>
        <polygon class="cls-9" points="2004.39 1930.83 1985.13 1930.9 1985.13 1861.48 2004.39 1861.47 2004.39 1930.83"/>
        <polygon class="cls-9" points="2038.55 1930.71 2019.34 1930.78 2019.34 1830.86 2038.55 1830.87 2038.55 1930.71"/>
        <polygon class="cls-9" points="2072.61 1930.59 2053.46 1930.66 2053.46 1857.89 2072.61 1857.88 2072.61 1930.59"/>
        <polygon class="cls-9" points="2106.58 1930.47 2087.48 1930.53 2087.48 1817.82 2106.58 1817.84 2106.58 1930.47"/>
        <polygon class="cls-9" points="2140.45 1930.34 2121.41 1930.41 2121.41 1805.3 2140.45 1805.33 2140.45 1930.34"/>
      </g>
      <path class="cls-2" d="M1237.6,2222.5v-166.36c0-25.46,22.52-46.24,50.25-46.43l899.11-5.94c25.74-.17,46.57,19.52,46.57,43.98v159.85c0,24.46-20.83,44.64-46.57,45.07l-899.11,15.08c-27.73.46-50.25-19.79-50.25-45.25Z"/>
      <path class="cls-7" d="M1331.26,2070.6c0,11.73-10.36,21.35-23.15,21.48-12.8.13-23.19-9.3-23.19-21.06s10.39-21.37,23.19-21.48c12.79-.1,23.15,9.32,23.15,21.06Z"/>
      <path class="cls-7" d="M1404.37,2069.94c0,11.7-10.3,21.29-23.01,21.41-12.73.13-23.05-9.28-23.05-21s10.33-21.31,23.05-21.41c12.72-.1,23.01,9.3,23.01,21Z"/>
      <path class="cls-7" d="M1477.07,2069.28c0,11.67-10.24,21.23-22.88,21.35-12.65.12-22.92-9.25-22.92-20.94s10.27-21.25,22.92-21.35c12.64-.1,22.88,9.27,22.88,20.94Z"/>
      <polygon class="cls-8" points="2182.67 2212.67 1522.7 2222.66 1522.7 2047.78 2182.67 2042.38 2182.67 2212.67"/>
      <g class="cls-11">
        <polygon class="cls-9" points="1586.98 2209.37 1567.07 2209.66 1567.07 2068.47 1586.98 2068.29 1586.98 2209.37"/>
        <polygon class="cls-9" points="1622.3 2208.86 1602.45 2209.15 1602.45 2068.15 1622.3 2067.97 1622.3 2208.86"/>
        <polygon class="cls-9" points="1657.53 2208.34 1637.73 2208.63 1637.73 2067.83 1657.53 2067.65 1657.53 2208.34"/>
        <polygon class="cls-9" points="1692.65 2207.83 1672.91 2208.11 1672.91 2067.51 1692.65 2067.34 1692.65 2207.83"/>
        <polygon class="cls-9" points="1727.68 2207.31 1707.99 2207.6 1707.99 2067.2 1727.68 2067.02 1727.68 2207.31"/>
        <polygon class="cls-9" points="1762.61 2206.8 1742.97 2207.09 1742.97 2066.88 1762.61 2066.7 1762.61 2206.8"/>
        <polygon class="cls-9" points="1797.44 2206.29 1777.86 2206.58 1777.86 2066.57 1797.44 2066.39 1797.44 2206.29"/>
        <polygon class="cls-9" points="1832.17 2205.78 1812.64 2206.07 1812.64 2066.25 1832.17 2066.08 1832.17 2205.78"/>
        <polygon class="cls-9" points="1866.8 2205.27 1847.33 2205.56 1847.33 2065.94 1866.8 2065.76 1866.8 2205.27"/>
        <polygon class="cls-9" points="1901.34 2204.77 1881.93 2205.05 1881.93 2065.63 1901.34 2065.45 1901.34 2204.77"/>
        <polygon class="cls-9" points="1935.79 2204.26 1916.43 2204.55 1916.43 2065.32 1935.79 2065.14 1935.79 2204.26"/>
        <polygon class="cls-9" points="1970.14 2203.76 1950.83 2204.04 1950.83 2065.01 1970.14 2064.83 1970.14 2203.76"/>
        <polygon class="cls-9" points="2004.39 2203.26 1985.13 2203.54 1985.13 2064.7 2004.39 2064.52 2004.39 2203.26"/>
        <polygon class="cls-9" points="2038.55 2202.76 2019.34 2203.04 2019.34 2064.39 2038.55 2064.22 2038.55 2202.76"/>
        <polygon class="cls-9" points="2072.61 2202.26 2053.46 2202.54 2053.46 2064.08 2072.61 2063.91 2072.61 2202.26"/>
        <polygon class="cls-9" points="2106.58 2201.76 2087.48 2202.04 2087.48 2063.77 2106.58 2063.6 2106.58 2201.76"/>
        <polygon class="cls-9" points="2140.45 2201.27 2121.41 2201.54 2121.41 2063.47 2140.45 2063.3 2140.45 2201.27"/>
      </g>
      <g>
        <polygon class="cls-7" points="1586.98 2209.37 1567.07 2209.66 1567.07 2089.52 1586.98 2089.32 1586.98 2209.37"/>
        <polygon class="cls-7" points="1622.3 2208.86 1602.45 2209.15 1602.45 2194.7 1622.3 2194.42 1622.3 2208.86"/>
        <polygon class="cls-7" points="1657.53 2208.34 1637.73 2208.63 1637.73 2126.62 1657.53 2126.4 1657.53 2208.34"/>
        <polygon class="cls-7" points="1692.65 2207.83 1672.91 2208.11 1672.91 2172.75 1692.65 2172.49 1692.65 2207.83"/>
        <polygon class="cls-7" points="1727.68 2207.31 1707.99 2207.6 1707.99 2117.15 1727.68 2116.93 1727.68 2207.31"/>
        <polygon class="cls-7" points="1762.61 2206.8 1742.97 2207.09 1742.97 2144.8 1762.61 2144.56 1762.61 2206.8"/>
        <polygon class="cls-7" points="1797.44 2206.29 1777.86 2206.58 1777.86 2098.56 1797.44 2098.35 1797.44 2206.29"/>
        <polygon class="cls-7" points="1832.17 2205.78 1812.64 2206.07 1812.64 2087.1 1832.17 2086.91 1832.17 2205.78"/>
        <polygon class="cls-7" points="1866.8 2205.27 1847.33 2205.56 1847.33 2146.16 1866.8 2145.92 1866.8 2205.27"/>
        <polygon class="cls-7" points="1901.34 2204.77 1881.93 2205.05 1881.93 2075.17 1901.34 2074.99 1901.34 2204.77"/>
        <polygon class="cls-7" points="1935.79 2204.26 1916.43 2204.55 1916.43 2094.09 1935.79 2093.89 1935.79 2204.26"/>
        <polygon class="cls-7" points="1970.14 2203.76 1950.83 2204.04 1950.83 2174.47 1970.14 2174.21 1970.14 2203.76"/>
        <polygon class="cls-7" points="2004.39 2203.26 1985.13 2203.54 1985.13 2134.12 2004.39 2133.89 2004.39 2203.26"/>
        <polygon class="cls-7" points="2038.55 2202.76 2019.34 2203.04 2019.34 2103.12 2038.55 2102.92 2038.55 2202.76"/>
        <polygon class="cls-7" points="2072.61 2202.26 2053.46 2202.54 2053.46 2129.78 2072.61 2129.55 2072.61 2202.26"/>
        <polygon class="cls-7" points="2106.58 2201.76 2087.48 2202.04 2087.48 2089.33 2106.58 2089.14 2106.58 2201.76"/>
        <polygon class="cls-7" points="2140.45 2201.27 2121.41 2201.54 2121.41 2076.44 2140.45 2076.25 2140.45 2201.27"/>
      </g>
      <path class="cls-2" d="M1237.6,2503.39v-166.36c0-25.46,22.52-46.49,50.25-46.98l899.11-15.87c25.74-.45,46.57,19.01,46.57,43.47v159.85c0,24.46-20.83,44.87-46.57,45.58l-899.11,25.02c-27.73.77-50.25-19.24-50.25-44.7Z"/>
      <path class="cls-7" d="M1331.26,2350.46c0,11.74-10.36,21.47-23.15,21.73-12.8.27-23.19-9.05-23.19-20.8s10.39-21.49,23.19-21.73c12.79-.25,23.15,9.07,23.15,20.8Z"/>
      <path class="cls-7" d="M1404.37,2348.99c0,11.7-10.3,21.4-23.01,21.67-12.73.27-23.05-9.02-23.05-20.74s10.33-21.43,23.05-21.67c12.72-.24,23.01,9.04,23.01,20.74Z"/>
      <path class="cls-7" d="M1477.07,2347.53c0,11.67-10.24,21.34-22.88,21.6-12.65.26-22.92-9-22.92-20.69s10.27-21.36,22.92-21.61c12.64-.24,22.88,9.02,22.88,20.69Z"/>
      <polygon class="cls-8" points="2182.67 2483.12 1522.7 2500.41 1522.7 2325.53 2182.67 2312.84 2182.67 2483.12"/>
      <g>
        <polygon class="cls-7" points="1586.98 2486.41 1567.07 2486.92 1567.07 2345.73 1586.98 2345.33 1586.98 2486.41"/>
        <polygon class="cls-7" points="1622.3 2485.5 1602.45 2486.01 1602.45 2345.02 1622.3 2344.62 1622.3 2485.5"/>
        <polygon class="cls-7" points="1657.53 2484.6 1637.73 2485.11 1637.73 2344.31 1657.53 2343.91 1657.53 2484.6"/>
        <polygon class="cls-7" points="1692.65 2483.7 1672.91 2484.2 1672.91 2343.6 1692.65 2343.21 1692.65 2483.7"/>
        <polygon class="cls-7" points="1727.68 2482.8 1707.99 2483.3 1707.99 2342.9 1727.68 2342.5 1727.68 2482.8"/>
        <polygon class="cls-7" points="1762.61 2481.9 1742.97 2482.4 1742.97 2342.2 1762.61 2341.8 1762.61 2481.9"/>
        <polygon class="cls-7" points="1797.44 2481 1777.86 2481.51 1777.86 2341.5 1797.44 2341.1 1797.44 2481"/>
        <polygon class="cls-7" points="1832.17 2480.11 1812.64 2480.61 1812.64 2340.8 1832.17 2340.41 1832.17 2480.11"/>
        <polygon class="cls-7" points="1866.8 2479.22 1847.33 2479.72 1847.33 2340.1 1866.8 2339.71 1866.8 2479.22"/>
        <polygon class="cls-7" points="1901.34 2478.33 1881.93 2478.83 1881.93 2339.41 1901.34 2339.02 1901.34 2478.33"/>
        <polygon class="cls-7" points="1935.79 2477.45 1916.43 2477.94 1916.43 2338.71 1935.79 2338.33 1935.79 2477.45"/>
        <polygon class="cls-7" points="1970.14 2476.56 1950.83 2477.06 1950.83 2338.02 1970.14 2337.64 1970.14 2476.56"/>
        <polygon class="cls-7" points="2004.39 2475.68 1985.13 2476.18 1985.13 2337.34 2004.39 2336.95 2004.39 2475.68"/>
        <polygon class="cls-7" points="2038.55 2474.81 2019.34 2475.3 2019.34 2336.65 2038.55 2336.26 2038.55 2474.81"/>
        <polygon class="cls-7" points="2072.61 2473.93 2053.46 2474.42 2053.46 2335.96 2072.61 2335.58 2072.61 2473.93"/>
        <polygon class="cls-7" points="2106.58 2473.06 2087.48 2473.55 2087.48 2335.28 2106.58 2334.9 2106.58 2473.06"/>
        <polygon class="cls-7" points="2140.45 2472.19 2121.41 2472.68 2121.41 2334.6 2140.45 2334.22 2140.45 2472.19"/>
      </g>
      <g class="cls-1">
        <polygon class="cls-9" points="1586.98 2486.41 1567.07 2486.92 1567.07 2366.78 1586.98 2366.36 1586.98 2486.41"/>
        <polygon class="cls-9" points="1622.3 2485.5 1602.45 2486.01 1602.45 2471.57 1622.3 2471.07 1622.3 2485.5"/>
        <polygon class="cls-9" points="1657.53 2484.6 1637.73 2485.11 1637.73 2403.1 1657.53 2402.66 1657.53 2484.6"/>
        <polygon class="cls-9" points="1692.65 2483.7 1672.91 2484.2 1672.91 2448.84 1692.65 2448.36 1692.65 2483.7"/>
        <polygon class="cls-9" points="1727.68 2482.8 1707.99 2483.3 1707.99 2392.85 1727.68 2392.41 1727.68 2482.8"/>
        <polygon class="cls-9" points="1762.61 2481.9 1742.97 2482.4 1742.97 2420.11 1762.61 2419.66 1762.61 2481.9"/>
        <polygon class="cls-9" points="1797.44 2481 1777.86 2481.51 1777.86 2373.48 1797.44 2373.07 1797.44 2481"/>
        <polygon class="cls-9" points="1832.17 2480.11 1812.64 2480.61 1812.64 2361.64 1832.17 2361.23 1832.17 2480.11"/>
        <polygon class="cls-9" points="1866.8 2479.22 1847.33 2479.72 1847.33 2420.32 1866.8 2419.86 1866.8 2479.22"/>
        <polygon class="cls-9" points="1901.34 2478.33 1881.93 2478.83 1881.93 2348.95 1901.34 2348.56 1901.34 2478.33"/>
        <polygon class="cls-9" points="1935.79 2477.45 1916.43 2477.94 1916.43 2367.49 1935.79 2367.08 1935.79 2477.45"/>
        <polygon class="cls-9" points="1970.14 2476.56 1950.83 2477.06 1950.83 2447.48 1970.14 2447.01 1970.14 2476.56"/>
        <polygon class="cls-9" points="2004.39 2475.68 1985.13 2476.18 1985.13 2406.76 2004.39 2406.32 2004.39 2475.68"/>
        <polygon class="cls-9" points="2038.55 2474.81 2019.34 2475.3 2019.34 2375.38 2038.55 2374.97 2038.55 2474.81"/>
        <polygon class="cls-9" points="2072.61 2473.93 2053.46 2474.42 2053.46 2401.66 2072.61 2401.22 2072.61 2473.93"/>
        <polygon class="cls-9" points="2106.58 2473.06 2087.48 2473.55 2087.48 2360.84 2106.58 2360.43 2106.58 2473.06"/>
        <polygon class="cls-9" points="2140.45 2472.19 2121.41 2472.68 2121.41 2347.57 2140.45 2347.18 2140.45 2472.19"/>
      </g>
      <path class="cls-2" d="M1237.6,2784.29v-166.36c0-25.46,22.52-46.74,50.25-47.54l899.11-25.81c25.74-.74,46.57,18.49,46.57,42.95v159.85c0,24.46-20.83,45.1-46.57,46.1l-899.11,34.95c-27.73,1.08-50.25-18.68-50.25-44.14Z"/>
      <path class="cls-7" d="M1331.26,2630.32c0,11.74-10.36,21.58-23.15,21.99-12.8.41-23.19-8.79-23.19-20.55s10.39-21.6,23.19-21.99c12.79-.39,23.15,8.81,23.15,20.55Z"/>
      <path class="cls-7" d="M1404.37,2628.05c0,11.7-10.3,21.52-23.01,21.92-12.73.41-23.05-8.77-23.05-20.49s10.33-21.54,23.05-21.92c12.72-.39,23.01,8.79,23.01,20.49Z"/>
      <path class="cls-7" d="M1477.07,2625.78c0,11.67-10.24,21.45-22.88,21.86-12.65.4-22.92-8.74-22.92-20.43s10.27-21.48,22.92-21.86c12.64-.38,22.88,8.77,22.88,20.43Z"/>
      <polygon class="cls-8" points="2182.67 2753.58 1522.7 2778.16 1522.7 2603.28 2182.67 2583.29 2182.67 2753.58"/>
      <g class="cls-11">
        <polygon class="cls-9" points="1586.98 2763.45 1567.07 2764.18 1567.07 2622.98 1586.98 2622.37 1586.98 2763.45"/>
        <polygon class="cls-9" points="1622.3 2762.15 1602.45 2762.88 1602.45 2621.88 1622.3 2621.27 1622.3 2762.15"/>
        <polygon class="cls-9" points="1657.53 2760.86 1637.73 2761.58 1637.73 2620.79 1657.53 2620.17 1657.53 2760.86"/>
        <polygon class="cls-9" points="1692.65 2759.57 1672.91 2760.29 1672.91 2619.69 1692.65 2619.08 1692.65 2759.57"/>
        <polygon class="cls-9" points="1727.68 2758.28 1707.99 2759 1707.99 2618.6 1727.68 2617.99 1727.68 2758.28"/>
        <polygon class="cls-9" points="1762.61 2756.99 1742.97 2757.72 1742.97 2617.51 1762.61 2616.9 1762.61 2756.99"/>
        <polygon class="cls-9" points="1797.44 2755.72 1777.86 2756.44 1777.86 2616.42 1797.44 2615.82 1797.44 2755.72"/>
        <polygon class="cls-9" points="1832.17 2754.44 1812.64 2755.16 1812.64 2615.34 1832.17 2614.73 1832.17 2754.44"/>
        <polygon class="cls-9" points="1866.8 2753.17 1847.33 2753.88 1847.33 2614.26 1866.8 2613.66 1866.8 2753.17"/>
        <polygon class="cls-9" points="1901.34 2751.9 1881.93 2752.61 1881.93 2613.19 1901.34 2612.58 1901.34 2751.9"/>
        <polygon class="cls-9" points="1935.79 2750.63 1916.43 2751.34 1916.43 2612.11 1935.79 2611.51 1935.79 2750.63"/>
        <polygon class="cls-9" points="1970.14 2749.37 1950.83 2750.08 1950.83 2611.04 1970.14 2610.44 1970.14 2749.37"/>
        <polygon class="cls-9" points="2004.39 2748.11 1985.13 2748.82 1985.13 2609.97 2004.39 2609.37 2004.39 2748.11"/>
        <polygon class="cls-9" points="2038.55 2746.86 2019.34 2747.56 2019.34 2608.91 2038.55 2608.31 2038.55 2746.86"/>
        <polygon class="cls-9" points="2072.61 2745.6 2053.46 2746.31 2053.46 2607.85 2072.61 2607.25 2072.61 2745.6"/>
        <polygon class="cls-9" points="2106.58 2744.35 2087.48 2745.06 2087.48 2606.79 2106.58 2606.19 2106.58 2744.35"/>
        <polygon class="cls-9" points="2140.45 2743.11 2121.41 2743.81 2121.41 2605.73 2140.45 2605.14 2140.45 2743.11"/>
      </g>
      <g>
        <polygon class="cls-7" points="1586.98 2763.45 1567.07 2764.18 1567.07 2644.04 1586.98 2643.4 1586.98 2763.45"/>
        <polygon class="cls-7" points="1622.3 2762.15 1602.45 2762.88 1602.45 2748.44 1622.3 2747.72 1622.3 2762.15"/>
        <polygon class="cls-7" points="1657.53 2760.86 1637.73 2761.58 1637.73 2679.58 1657.53 2678.92 1657.53 2760.86"/>
        <polygon class="cls-7" points="1692.65 2759.57 1672.91 2760.29 1672.91 2724.93 1692.65 2724.23 1692.65 2759.57"/>
        <polygon class="cls-7" points="1727.68 2758.28 1707.99 2759 1707.99 2668.55 1727.68 2667.89 1727.68 2758.28"/>
        <polygon class="cls-7" points="1762.61 2756.99 1742.97 2757.72 1742.97 2695.43 1762.61 2694.76 1762.61 2756.99"/>
        <polygon class="cls-7" points="1797.44 2755.72 1777.86 2756.44 1777.86 2648.41 1797.44 2647.78 1797.44 2755.72"/>
        <polygon class="cls-7" points="1832.17 2754.44 1812.64 2755.16 1812.64 2636.19 1832.17 2635.56 1832.17 2754.44"/>
        <polygon class="cls-7" points="1866.8 2753.17 1847.33 2753.88 1847.33 2694.48 1866.8 2693.81 1866.8 2753.17"/>
        <polygon class="cls-7" points="1901.34 2751.9 1881.93 2752.61 1881.93 2622.73 1901.34 2622.12 1901.34 2751.9"/>
        <polygon class="cls-7" points="1935.79 2750.63 1916.43 2751.34 1916.43 2640.88 1935.79 2640.26 1935.79 2750.63"/>
        <polygon class="cls-7" points="1970.14 2749.37 1950.83 2750.08 1950.83 2720.5 1970.14 2719.82 1970.14 2749.37"/>
        <polygon class="cls-7" points="2004.39 2748.11 1985.13 2748.82 1985.13 2679.4 2004.39 2678.74 2004.39 2748.11"/>
        <polygon class="cls-7" points="2038.55 2746.86 2019.34 2747.56 2019.34 2647.65 2038.55 2647.02 2038.55 2746.86"/>
        <polygon class="cls-7" points="2072.61 2745.6 2053.46 2746.31 2053.46 2673.54 2072.61 2672.9 2072.61 2745.6"/>
        <polygon class="cls-7" points="2106.58 2744.35 2087.48 2745.06 2087.48 2632.35 2106.58 2631.73 2106.58 2744.35"/>
        <polygon class="cls-7" points="2140.45 2743.11 2121.41 2743.81 2121.41 2618.7 2140.45 2618.1 2140.45 2743.11"/>
      </g>
      <path class="cls-2" d="M1237.6,3065.19v-166.36c0-25.46,22.52-46.99,50.25-48.09l899.11-35.74c25.74-1.02,46.57,17.98,46.57,42.44v159.85c0,24.46-20.83,45.33-46.57,46.61l-899.11,44.89c-27.73,1.38-50.25-18.13-50.25-43.58Z"/>
      <path class="cls-7" d="M1331.26,2910.19c0,11.74-10.36,21.69-23.15,22.24-12.8.55-23.19-8.53-23.19-20.29s10.39-21.72,23.19-22.25c12.79-.53,23.15,8.56,23.15,20.29Z"/>
      <path class="cls-7" d="M1404.37,2907.1c0,11.7-10.3,21.63-23.01,22.18-12.73.55-23.05-8.51-23.05-20.23s10.33-21.65,23.05-22.18c12.72-.53,23.01,8.54,23.01,20.24Z"/>
      <path class="cls-7" d="M1477.07,2904.04c0,11.67-10.24,21.57-22.88,22.11-12.65.54-22.92-8.49-22.92-20.18s10.27-21.59,22.92-22.11c12.64-.52,22.88,8.51,22.88,20.18Z"/>
      <polygon class="cls-8" points="2182.67 3024.04 1522.7 3055.9 1522.7 2881.03 2182.67 2853.75 2182.67 3024.04"/>
      <g class="cls-11">
        <polygon class="cls-9" points="1586.98 3040.49 1567.07 3041.44 1567.07 2900.24 1586.98 2899.4 1586.98 3040.49"/>
        <polygon class="cls-9" points="1622.3 3038.8 1602.45 3039.75 1602.45 2898.75 1622.3 2897.91 1622.3 3038.8"/>
        <polygon class="cls-9" points="1657.53 3037.11 1637.73 3038.06 1637.73 2897.26 1657.53 2896.43 1657.53 3037.11"/>
        <polygon class="cls-9" points="1692.65 3035.44 1672.91 3036.38 1672.91 2895.78 1692.65 2894.95 1692.65 3035.44"/>
        <polygon class="cls-9" points="1727.68 3033.76 1707.99 3034.7 1707.99 2894.3 1727.68 2893.47 1727.68 3033.76"/>
        <polygon class="cls-9" points="1762.61 3032.09 1742.97 3033.03 1742.97 2892.82 1762.61 2892 1762.61 3032.09"/>
        <polygon class="cls-9" points="1797.44 3030.43 1777.86 3031.36 1777.86 2891.35 1797.44 2890.53 1797.44 3030.43"/>
        <polygon class="cls-9" points="1832.17 3028.77 1812.64 3029.7 1812.64 2889.89 1832.17 2889.06 1832.17 3028.77"/>
        <polygon class="cls-9" points="1866.8 3027.11 1847.33 3028.04 1847.33 2888.42 1866.8 2887.6 1866.8 3027.11"/>
        <polygon class="cls-9" points="1901.34 3025.46 1881.93 3026.39 1881.93 2886.97 1901.34 2886.15 1901.34 3025.46"/>
        <polygon class="cls-9" points="1935.79 3023.82 1916.43 3024.74 1916.43 2885.51 1935.79 2884.69 1935.79 3023.82"/>
        <polygon class="cls-9" points="1970.14 3022.17 1950.83 3023.1 1950.83 2884.06 1970.14 2883.25 1970.14 3022.17"/>
        <polygon class="cls-9" points="2004.39 3020.54 1985.13 3021.46 1985.13 2882.61 2004.39 2881.8 2004.39 3020.54"/>
        <polygon class="cls-9" points="2038.55 3018.9 2019.34 3019.82 2019.34 2881.17 2038.55 2880.36 2038.55 3018.9"/>
        <polygon class="cls-9" points="2072.61 3017.28 2053.46 3018.19 2053.46 2879.73 2072.61 2878.92 2072.61 3017.28"/>
        <polygon class="cls-9" points="2106.58 3015.65 2087.48 3016.56 2087.48 2878.3 2106.58 2877.49 2106.58 3015.65"/>
        <polygon class="cls-9" points="2140.45 3014.03 2121.41 3014.94 2121.41 2876.87 2140.45 2876.06 2140.45 3014.03"/>
      </g>
      <g>
        <polygon class="cls-7" points="1586.98 3040.49 1567.07 3041.44 1567.07 2921.29 1586.98 2920.44 1586.98 3040.49"/>
        <polygon class="cls-7" points="1622.3 3038.8 1602.45 3039.75 1602.45 3025.3 1622.3 3024.37 1622.3 3038.8"/>
        <polygon class="cls-7" points="1657.53 3037.11 1637.73 3038.06 1637.73 2956.06 1657.53 2955.17 1657.53 3037.11"/>
        <polygon class="cls-7" points="1692.65 3035.44 1672.91 3036.38 1672.91 3001.01 1692.65 3000.1 1692.65 3035.44"/>
        <polygon class="cls-7" points="1727.68 3033.76 1707.99 3034.7 1707.99 2944.25 1727.68 2943.38 1727.68 3033.76"/>
        <polygon class="cls-7" points="1762.61 3032.09 1742.97 3033.03 1742.97 2970.74 1762.61 2969.85 1762.61 3032.09"/>
        <polygon class="cls-7" points="1797.44 3030.43 1777.86 3031.36 1777.86 2923.34 1797.44 2922.49 1797.44 3030.43"/>
        <polygon class="cls-7" points="1832.17 3028.77 1812.64 3029.7 1812.64 2910.73 1832.17 2909.89 1832.17 3028.77"/>
        <polygon class="cls-7" points="1866.8 3027.11 1847.33 3028.04 1847.33 2968.64 1866.8 2967.76 1866.8 3027.11"/>
        <polygon class="cls-7" points="1901.34 3025.46 1881.93 3026.39 1881.93 2896.51 1901.34 2895.68 1901.34 3025.46"/>
        <polygon class="cls-7" points="1935.79 3023.82 1916.43 3024.74 1916.43 2914.28 1935.79 2913.44 1935.79 3023.82"/>
        <polygon class="cls-7" points="1970.14 3022.17 1950.83 3023.1 1950.83 2993.52 1970.14 2992.62 1970.14 3022.17"/>
        <polygon class="cls-7" points="2004.39 3020.54 1985.13 3021.46 1985.13 2952.03 2004.39 2951.17 2004.39 3020.54"/>
        <polygon class="cls-7" points="2038.55 3018.9 2019.34 3019.82 2019.34 2919.91 2038.55 2919.07 2038.55 3018.9"/>
        <polygon class="cls-7" points="2072.61 3017.28 2053.46 3018.19 2053.46 2945.43 2072.61 2944.57 2072.61 3017.28"/>
        <polygon class="cls-7" points="2106.58 3015.65 2087.48 3016.56 2087.48 2903.85 2106.58 2903.03 2106.58 3015.65"/>
        <polygon class="cls-7" points="2140.45 3014.03 2121.41 3014.94 2121.41 2889.84 2140.45 2889.02 2140.45 3014.03"/>
      </g>
      <g>
        <path class="cls-3" d="M2493.22,2864.26l86.2,101.75,24.06,8.75,1.64-4.09,87.91-92.41,6.45-4.25-25.24-8.34-37.24-.29c-4.43-.03-7.93-3.65-7.83-8.07l28.05-139.71-24.73-7.3-47.43,1.47c-3.09.1-5.85-1.67-7.03-4.49-1.19-2.82-.58-6.19,1.54-8.58l113.92-128.33c3.21-3.62,9.2-4.01,12.27-.8l115.28,120.86c2.28,2.39,2.79,5.92,1.31,9.01-1.48,3.09-4.67,5.14-8.14,5.25l-51.8,1.6-1.65,69.83,26.33,7.95,168.11-10.68c73.01-1.03,136.73-56.78,139.77-124.37,1.52-33.77-11.73-64.83-37.1-87.22-13.15-11.61-2.51-14.25-19.62-19.37-3.02-.9-31.95-7.46-35.01-8.14-12.67-2.82-26-3.8-39.62-2.85-2.08.14-4.14.33-6.19.56-16.1,1.88-29.55-8.24-30.76-22.9-10.05-122.45-114.86-202.21-237.23-186.81-88.68,11.17-167.2,71.79-202.63,153.58-4.48,10.35-14.47,17.03-24.85,16.67-7.78-.28-15.72.16-23.59,1.29-68.11,9.79-123.11,72.86-127.35,143.72-2.29,38.37,9.51,74.22,33.46,101.24,24.28,27.4,57.94,42.35,95.11,41.83l91.12-1.28c4.21-.06,7.54,3.4,7.45,7.73l-1.52,69.71c-.09,4.32-3.58,7.8-7.78,7.77l-35.65-.28Z"/>
        <path class="cls-3" d="M3125.74,2656.74c-.85,18.91-6.48,36.92-15.74,53.05-24,41.88-72.5,71.26-125.93,71.88l-196.98,2.39,1.68-70.26,52.47-1.52c3.51-.1,6.75-2.18,8.24-5.27,1.49-3.11.98-6.66-1.33-9.07l-116.75-121.82c-3.09-3.24-9.16-2.87-12.42.79l-115.34,128.92c-2.16,2.41-2.76,5.79-1.56,8.62,1.18,2.87,3.99,4.63,7.1,4.55l48.02-1.39-3.38,147.9c-.1,4.46,3.45,8.1,7.93,8.14l37.71.37-96.01,100.74-87.23-102.53,36.09.35c4.24.04,7.77-3.45,7.87-7.81l1.54-70.12c.1-4.36-3.28-7.85-7.54-7.79l-92.19,1.1c-37.6.46-71.65-14.64-96.22-42.23-24.23-27.24-36.17-63.31-33.84-101.88,4.3-71.24,59.94-134.59,128.84-144.34,7.97-1.12,16.01-1.56,23.88-1.27,3.86.15,7.68-.66,11.17-2.3,6.02-2.74,11.11-7.85,13.97-14.41,35.86-82.22,115.32-143.12,205.12-154.25,123.91-15.34,230.1,65.07,240.27,188.34,1.22,14.74,14.85,24.96,31.16,23.09,2.08-.23,4.17-.42,6.27-.56,36.09-2.45,70.1,8.39,95.53,30.73,25.7,22.57,39.14,53.86,37.58,87.87Z"/>
        <path class="cls-6" d="M3110.01,2709.79c-24,41.88-72.5,71.26-125.93,71.88l-196.98,2.39,1.68-70.26,52.47-1.52c3.51-.1,6.75-2.18,8.24-5.27,1.49-3.11.98-6.66-1.33-9.07l-116.75-121.82c-3.09-3.24-9.16-2.87-12.42.79l-115.34,128.92c-2.16,2.41-2.76,5.79-1.56,8.62,1.18,2.87,3.99,4.63,7.1,4.55l48.02-1.39-3.38,147.9c-.1,4.46,3.45,8.1,7.93,8.14l37.71.37-96.01,100.74-87.23-102.53,36.09.35c4.24.04,7.77-3.45,7.87-7.81l1.54-70.12c.1-4.36-3.28-7.85-7.54-7.79l-92.19,1.1c-37.6.46-71.65-14.64-96.22-42.23-24.23-27.24-36.17-63.31-33.84-101.88,4.3-71.24,59.94-134.59,128.84-144.34,7.97-1.12,16.01-1.56,23.88-1.27,3.86.15,7.68-.66,11.17-2.3,2.26,2.82,4.49,5.71,6.64,8.64,19.54,26.37,39.59,59.98,76.3,61.75,35.71,1.7,68.29-22.26,101.22-32.29,41.4-12.58,82.39-10.22,117.35,17.32,35.17,27.7,58.18,67.65,93.54,95.2,28.63,22.3,62.93,34.9,98.83,39.03,36.94,4.28,75.06,2.47,109.63,18.48,3.7,1.7,7.25,3.61,10.65,5.73Z"/>
      </g>
    </g>
  </g>
</svg>