<svg xmlns="http://www.w3.org/2000/svg" width="481" height="329" viewBox="0 0 481 329"><defs><linearGradient id="a" x1="70.557%" x2="-5.78%" y1="75.967%" y2="12.326%"><stop offset=".41%" stop-color="#F2841E"/><stop offset="36.65%" stop-color="#F27F1F" stop-opacity=".636"/><stop offset="82.47%" stop-color="#F06F23" stop-opacity=".176"/><stop offset="100%" stop-color="#EF6724" stop-opacity="0"/></linearGradient><linearGradient id="b" x1="93.445%" x2="-7.244%" y1="54.087%" y2="46.303%"><stop offset=".41%" stop-color="#F2841E"/><stop offset="36.65%" stop-color="#F27F1F" stop-opacity=".636"/><stop offset="82.47%" stop-color="#F06F23" stop-opacity=".176"/><stop offset="100%" stop-color="#EF6724" stop-opacity="0"/></linearGradient></defs><g fill="none" fill-rule="evenodd"><path fill="#2F4E9C" fill-rule="nonzero" d="M472.757 124.027H199.578c-3.6 0-6.719 2.483-7.543 5.979l-42.862 183.74 285.657 14.983 45.46-195.207c1.138-4.852-2.545-9.495-7.533-9.495z"/><path fill="#567EE3" fill-rule="nonzero" d="M432.764 313.746l42.049-180.224c1.137-4.852-2.557-9.505-7.544-9.505H194.101c-3.6 0-6.72 2.483-7.544 5.978l-42.862 183.74"/><g fill-rule="nonzero" transform="translate(11.477 149.204)"><path fill="#F16422" d="M87.895 67.768c-8.462-6.74-1.555-21.254 4.246-16.934 21.692 13.7 26.2 10.256 28.641 6.782 3.172-4.518 10.288-22.475 9.85-23.32-.439-.845-3.527-3.934-3.527-3.934s-1.273-3.244-.866-4.017c.344-.667 1.889 3.746 2.807 2.776l6.124-.626c.157.355.042 3.193-.313 4.34-.27.877.49 1.993-.761 9.725-1.398 8.628-4.424 29.621-14.67 34.807-6.751 3.412-31.657-6.594-31.531-9.6z"/><path fill="#E8580E" d="M129.035 29.131c.272 1.127 2.108.678 2.056 3.6-1.555.209-4.424-6.542-4.81-6.427.407-.313 1.867 3.766 2.754 2.827z"/><path fill="#E8580E" d="M135.024 28.171c.407.449-.02 4.842-.688 4.81-.95-.052-.564-3.39-.918-4.1.093.302.24 4.173-.773 4.226-1.126.052-.855-3.016-1.293-3.944.23 1.012.407 3.578-.25 3.568-1.326-.02-1.472-4.434-1.368-4.59 1.033-1.66 4.028-1.347 5.29.03z"/><path fill="#5A81E4" d="M124.142 23.883l.26 5.447a1.004 1.004 0 001.086.949l11.446-1.043a1.083 1.083 0 00.99-1.159l-.208-3.161-1.294-.083.23 2.796-11.196.302-.24-3.84-1.074-.208z"/><path fill="#E8580E" d="M110.056 72.213C105.08 70.648 99.8 60.297 98.193 54.475c-.929-.553-5.05-3.005-6.052-3.641-5.801-4.32-12.708 10.194-4.246 16.934-.126 3.005 24.78 13.01 31.52 9.61 9.485-4.8 12.792-23.153 14.336-32.7-3.328 15.86-8.18 32.397-23.695 27.535z"/><path fill="#F16422" d="M134.763 27.796c.439.428.126 4.914-.553 4.925-.949.01-.855-4.967-1.179-4.028-.146.553.512 4.153-.5 4.267-1.117.126-1.106-5.571-1.44-4.037-.052 1.106.532 3.724-.125 3.756-1.326.062-1.753-4.33-1.67-4.497.94-1.722 4.122-1.68 5.467-.386z"/><path fill="#C8E8E8" d="M90.472 39.221L88.74 51.199" opacity=".36"/><path fill="#2D355C" d="M41.026 120.375s-3.433 3.986-6.834 5.374c-6.26 2.545-13.21 2.139-4.007-6.72 0 0-20.565 6.824-2.681-4.35 0 0-31.208 8.326-3.59-5.332 0 0-30.613-2.995-3.015-8.139 0 0-39.18-1.419-2.087-7.637 0 0-17.33-4.403-1.231-5.238 0 0-33.305-6.876-1.127-8.076 0 0-29.34-11.926-1.075-9.495 0 0-27.93-11.884-.219-7.095 0 0-32.261-9.672-.657-8.055 0 0-24.739-8.451 1.722-8.44 0 0-22.58-15.944 2.076-5.124 0 0-20.628-17.758 4.956-6.437 0 0-20.169-22.464 4.946-5.968 0 0-13.92-20.357 4.924-5.5 0 0-6.082-14.867 3.391-2.242 0 0-11.132-32.064 5.28-2.17 0 0-4.445-20.952 5.259-1.701 0 0-1.545-22.746 3.84-1.753 0 0-3.298-26.586 5.727-1.68 0 0-.323-30.258 6.188-1.19 0 0 1.638-19.313 6.604.24 0 0 4.09-21.587 3.757.606 0 0 13.824-16.517 8.43 2.19 0 0 12.531-6.635-.814 9.422 0 0-25.198-8.941-39.075 8.984C27.837 52.774 25.855 71.044 30.06 95.866c3.986 23.55 10.966 24.51 10.966 24.51z"/><path fill="#3A436B" d="M44.5 113.416c-1.387 4.424-11.727 11.717-13.835 9.422-.96-1.044 1.377-2.828 4.654-11.029 0 0-23.435 11.978-2.285-3.704 0 0-31.093 5.874-3.058-4.539 0 0-26.074-2.546-2.566-6.938 0 0-33.368-1.2-1.774-6.5 0 0-14.754-3.757-1.043-4.466 0 0-28.37-5.854-.96-6.876 0 0-24.99-10.163-.919-8.086 0 0-23.789-10.121-.187-6.041 0 0-27.473-8.233-.553-6.866 0 0-21.077-7.2 1.47-7.189 0 0-19.229-13.574 1.764-4.361 0 0-17.57-15.13 4.226-5.478 0 0-17.174-19.136 4.205-5.081 0 0-11.853-17.33 4.194-4.675 0 0-5.175-12.666 2.89-1.909 0 0-9.484-27.316 4.497-1.847 0 0-3.787-17.852 4.476-1.45 0 0-1.314-19.365 3.277-1.492 0 0-2.807-22.642 4.883-1.43 0 0-.282-25.771 5.269-1.022 0 0 1.398-16.454 5.624.198 0 0 3.484-18.395 3.203.522 0 0 11.78-14.065 7.178 1.867 0 0 13.658-7.741-2.692 7.753 0 0-19.459-7.346-31.28 7.92-11.822 15.274-21.995 34.243-9.923 51.97 8.64 12.688 10.966 15.912 9.265 21.327z"/><path fill="#575F81" d="M19.929 96.617c.03.908 3.464 1.524 7.658 1.378 4.194-.146 7.565-.992 7.533-1.9-.031-.907-3.464-1.523-7.658-1.377-4.195.146-7.575 1.002-7.533 1.9zM24.634 105.778c.376.825 3.777.094 7.596-1.638s6.615-3.798 6.24-4.622c-.376-.824-3.777-.094-7.596 1.638-3.83 1.732-6.626 3.798-6.24 4.622zM32.856 114.564c.616.657 3.61-1.138 6.667-4.007 3.057-2.87 5.04-5.728 4.414-6.396-.616-.657-3.61 1.137-6.667 4.007-3.057 2.869-5.04 5.728-4.414 6.396zM18.071 82.459c.021.907 3.444 1.554 7.648 1.45 4.195-.104 7.575-.918 7.555-1.816-.021-.907-3.444-1.554-7.648-1.45-4.205.094-7.586.908-7.555 1.816zM16.945 56.29c-.22.877 2.91 2.41 6.99 3.433 4.08 1.012 7.554 1.127 7.773.25.22-.876-2.91-2.41-6.99-3.432-4.08-1.012-7.565-1.127-7.773-.25zM23.685 41.099c-.22.876 2.91 2.41 6.99 3.433 4.08 1.012 7.555 1.126 7.774.25.219-.876-2.911-2.41-6.991-3.433-4.08-1.022-7.554-1.137-7.773-.25zM34.901 26.992c-.751.501.501 3.746 2.807 7.262 2.306 3.506 4.789 5.948 5.54 5.447.752-.501-.5-3.756-2.806-7.262-2.296-3.506-4.78-5.947-5.54-5.447zM49.415 22.662c-.679.146-.668 2.828.02 5.99.69 3.16 1.806 5.602 2.484 5.446.678-.146.668-2.828-.021-5.99-.7-3.15-1.805-5.592-2.483-5.446zM63.469 17.821c-.689-.042-1.409 2.556-1.586 5.79-.188 3.235.23 5.885.918 5.927.689.042 1.409-2.556 1.586-5.79.188-3.235-.219-5.896-.918-5.927zM75.666 21.348c-.574-.386-2.514 1.481-4.32 4.173-1.804 2.692-2.806 5.186-2.222 5.572.574.386 2.515-1.482 4.32-4.174 1.805-2.692 2.796-5.185 2.222-5.571z"/><path fill="#474F76" d="M45.606 106.206c-1.043 1.148-11.508 10.653-6.03-1.377 0 0-19.762 10.1-1.92-3.12 0 0-26.21 4.956-2.577-3.83 0 0-21.974-2.149-2.16-5.842 0 0-28.13-1.012-1.503-5.488 0 0-12.437-3.162-.887-3.767 0 0-23.914-4.935-.803-5.801 0 0-21.066-8.566-.772-6.813 0 0-20.054-8.525-.157-5.092 0 0-23.163-6.939-.47-5.78 0 0-17.768-6.073 1.243-6.063 0 0-16.215-11.445 1.492-3.683 0 0-14.806-12.75 3.557-4.622 0 0-14.482-16.13 3.548-4.288 0 0-9.996-14.608 3.537-3.944 0 0-4.361-10.674 2.431-1.607 0 0-7.992-23.027 3.788-1.565 0 0-3.193-15.046 3.777-1.22 0 0-1.106-16.33 2.765-1.263 0 0-2.369-19.084 4.11-1.21 0 0-.229-21.724 4.445-.856 0 0 1.18-13.867 4.748.167 0 0 2.932-15.505 2.702.438 0 0 9.933-11.853 6.052 1.575 0 0 11.519-6.531-2.275 6.542 0 0-16.402-6.197-26.377 6.678-2.451 3.172-5.029 6.657-7.303 10.298-6.98 11.133-11.237 23.633-.94 32.564 11.916 10.34 9.172 15.442 5.98 18.97z"/><path fill="#F66318" d="M59.39 31.708l-4.696 4.915-8.806-5.53a5.357 5.357 0 01-.167-7.575 5.357 5.357 0 017.575-.167l6.093 8.357z"/><path fill="#E8580E" d="M55.696 28.996s-3.287-6.01-6.5-4.78c-3.214 1.232-2.995 4.53-2.035 5.52.96.992 4.82 2.765 4.82 2.765l3.715-3.505z"/><path fill="#575F81" d="M47.964 85.964s2.995-1.68.23-6.604c0 0 3.328.96 1.148-2.692 0 0 4.737 1.012 2.483-5.374 0 0 5.853 1.472 2.055-3.912 0 0 3.464 3.067 4.08-2.369 0 0 4.612.376 1.638-4.56 0 0 7.575-.354 4.247-6.99 0 0 4.82.177 1.241-5.206 0 0 7.22 3.62 1.565-2.672 0 0 4.424-.26 2.922-5.352 0 0 2.598 3.662 3.83-1.336 0 0 9.65-13.407-.137-6.28 0 0 5.551-11.77-4.246-.387 0 0-.72-9.056-4.215.271 0 0-6.396-9.056-4.883 1.294 0 0-7.44-9.088-4.278 2.16 0 0-12.229-10.32-5.332 2.118 0 0-9.84-6.657-3.036 2.619 0 0-10.058-6.459-3.266 3.245 0 0-12.176-11.811-2.64 3.255 0 0-16.204-4.987-3.078 3.892 0 0-14.075-5.76-2.055 4.55 0 0-8.39-.303-2.254 4.33 0 0-16.84 1.074-1.398 3.943 0 0-18.447-1.085-.804 4.8 0 0-10.246-1.21-.99 4.163 0 0-12.427.814-.147 3.986 0 0-10.33 2.295 2.087 3.829 0 0-11.957 7.794 2.838 5.175 0 0-11.77 6.313 2.014 2.18 0 0-8.003 5.53 1.492 2.014 0 0-4.268 11.113 3.213 1.722 0 0-.99 5.686.105 5.99 2.473.677 2.358-7.117 2.358-7.117s7.627-1.095 7.575-3.14c-.042-1.18-4.362-1.545-4.362-1.545z"/><path fill="#575F81" d="M31.625 71.993c-.125.72 2.024 1.701 4.8 2.192 2.775.49 5.133.302 5.258-.428.125-.72-2.024-1.7-4.8-2.191-2.775-.49-5.133-.303-5.258.427zM31.708 53.223c-.187.543 2.181 1.857 5.3 2.932 3.11 1.075 5.792 1.513 5.98.97.187-.542-2.181-1.857-5.29-2.932-3.12-1.085-5.802-1.523-5.99-.97zM30.415 65.556c-.209.699 1.815 1.92 4.517 2.713 2.703.793 5.06.876 5.27.167.208-.7-1.816-1.92-4.518-2.713-2.713-.804-5.071-.877-5.27-.167zM38.616 65.055c-.209.7 1.815 1.92 4.517 2.713 2.703.793 5.06.876 5.27.167.208-.7-1.816-1.92-4.518-2.713-2.703-.793-5.06-.866-5.27-.167zM30.05 61.873c.03.73 2.806 1.23 6.197 1.116 3.402-.115 6.125-.803 6.104-1.534-.02-.73-2.807-1.23-6.198-1.116-3.401.115-6.124.803-6.104 1.534z"/><path fill="#474F76" d="M33.117 70c.094.46 2.055.45 4.393-.03 2.326-.47 4.142-1.232 4.048-1.691-.094-.459-2.055-.449-4.393.031-2.326.47-4.142 1.232-4.048 1.69zM35.172 57.584c-.281.49 1.159 1.847 3.225 3.037 2.055 1.19 3.954 1.752 4.236 1.262.281-.49-1.158-1.847-3.224-3.036-2.056-1.19-3.955-1.753-4.237-1.263zM39.033 52.44c-.428.366.23 1.806 1.45 3.214 1.221 1.398 2.557 2.243 2.984 1.868.418-.365-.23-1.805-1.45-3.203-.063-.073-.125-.147-.188-.21-1.179-1.282-2.4-2.023-2.796-1.669zM61.121 42.351c-.396.344.105 1.565 1.117 2.723s2.16 1.816 2.556 1.46c.397-.343-.104-1.564-1.116-2.722-.052-.063-.105-.115-.157-.178-.98-1.043-2.024-1.617-2.4-1.283zM43.332 70.136c-.428.365.23 1.805 1.45 3.214 1.22 1.398 2.556 2.243 2.984 1.868.428-.366-.23-1.806-1.45-3.204-.063-.073-.125-.146-.188-.208-1.179-1.284-2.4-2.024-2.796-1.67zM60.996 34.223c-.553-.073-1.2 1.367-1.43 3.214-.229 1.846.032 3.401.585 3.464.553.073 1.2-1.367 1.43-3.214.24-1.836-.021-3.391-.585-3.464zM57.188 55.3c-.553-.074-1.2 1.366-1.43 3.213-.23 1.847.032 3.401.585 3.464.553.073 1.2-1.367 1.43-3.214.24-1.836-.022-3.39-.585-3.464zM68.874 35.569c-.22-.26-1.555.511-2.974 1.732-1.43 1.21-2.4 2.41-2.18 2.671.219.26 1.554-.511 2.973-1.732 1.42-1.22 2.4-2.41 2.18-2.671zM51.418 36.738c-.428.365.23 1.805 1.45 3.213 1.221 1.398 2.557 2.243 2.984 1.868.428-.365-.23-1.805-1.45-3.203-1.231-1.42-2.567-2.254-2.984-1.878z"/><path fill="#575F81" d="M72.786 37.437c-.365-.428-1.805.219-3.213 1.44-1.409 1.22-2.243 2.545-1.878 2.973.365.428 1.805-.219 3.213-1.44 1.409-1.22 2.254-2.556 1.878-2.973z"/><path fill="#474F76" d="M38.438 83.262c.094.46 1.398.584 2.911.282 1.513-.303 2.671-.929 2.577-1.388-.093-.459-1.398-.584-2.91-.282-1.513.313-2.672.929-2.578 1.388zM40.953 51.387c.094.459 1.398.584 2.91.281 1.514-.302 2.672-.928 2.578-1.387-.094-.46-1.398-.585-2.911-.282-1.523.313-2.671.929-2.577 1.388zM45.512 53.599c-.146.448.929 1.19 2.4 1.669 1.471.48 2.786.511 2.932.073.146-.438-.929-1.19-2.4-1.67-1.481-.48-2.786-.51-2.932-.072zM47.057 68.102c.094.459 1.398.584 2.91.281 1.514-.302 2.672-.928 2.578-1.387-.094-.46-1.398-.585-2.911-.282-1.513.303-2.66.929-2.577 1.388zM68.08 38.511c-.323 0-.594.898-.594 2.004 0 1.106.271 2.003.595 1.992.334 0 .595-.897.595-2.003s-.261-2.003-.595-1.993zM71.879 33.315c-.292-.146-.929.553-1.409 1.555-.48 1.002-.636 1.93-.334 2.066.303.146.929-.553 1.409-1.555.48-1.001.636-1.93.334-2.066zM44.907 44.834c-.208.428.762 1.304 2.16 1.972 1.398.668 2.692.856 2.9.438.21-.427-.761-1.304-2.16-1.972-1.397-.667-2.691-.855-2.9-.438z"/><path fill="#474F76" d="M49.467 40.42c-.46.063-.637 1.587-.386 3.402.25 1.826.824 3.245 1.283 3.182.46-.062.637-1.585.386-3.401-.24-1.815-.814-3.245-1.283-3.182zM39.805 63.396c-.302.355.595 1.596 2.003 2.786 1.409 1.179 2.786 1.847 3.089 1.492.302-.355-.595-1.596-2.003-2.786-1.41-1.179-2.786-1.847-3.089-1.492zM53.63 44.135c-.438.146-.334 1.67.23 3.412.563 1.742 1.387 3.047 1.825 2.9.439-.145.334-1.669-.23-3.411-.563-1.743-1.376-3.047-1.825-2.9zM36.028 76.929c.094.459 1.398.584 2.911.281 1.513-.302 2.671-.928 2.577-1.387-.094-.46-1.398-.585-2.91-.282-1.514.313-2.661.929-2.578 1.388z"/><path fill="#575F81" d="M36.018 79.84c-.126.72 1.721 1.648 4.121 2.076 2.4.428 4.455.177 4.58-.542.126-.72-1.721-1.649-4.12-2.077-2.4-.417-4.456-.177-4.581.543zM50.312 53.797c.094.73 2.139 1.043 4.57.72 2.42-.334 4.31-1.19 4.215-1.92-.094-.73-2.139-1.043-4.57-.72-2.43.323-4.32 1.19-4.215 1.92zM43.885 59.15c-.209.699 1.513 1.836 3.85 2.545 2.347.71 4.413.71 4.632.01.21-.698-1.512-1.836-3.85-2.545-2.347-.71-4.424-.71-4.632-.01zM56.082 43.394c-.417.407.626 2.16 2.337 3.903 1.711 1.752 3.433 2.838 3.85 2.43.418-.406-.626-2.16-2.337-3.902-1.7-1.752-3.422-2.838-3.85-2.43zM41.12 44.323c-.553.449.386 2.483 2.087 4.528 1.7 2.045 3.526 3.34 4.08 2.88.552-.46-.387-2.483-2.088-4.528-1.7-2.045-3.526-3.329-4.08-2.88zM65.827 33.68c-.5-.156-1.408 1.388-2.024 3.444-.616 2.055-.71 3.84-.209 3.996.501.156 1.409-1.388 2.024-3.443.626-2.056.71-3.84.21-3.997zM44.146 39.857c-.553.449.386 2.484 2.086 4.529 1.701 2.045 3.527 3.338 4.08 2.88.553-.45-.386-2.484-2.087-4.529-1.7-2.035-3.526-3.328-4.08-2.88zM54.475 34.025c-.553.459.386 2.483 2.087 4.528 1.7 2.045 3.526 3.339 4.08 2.88.552-.46-.387-2.483-2.098-4.529-1.7-2.045-3.526-3.328-4.069-2.88zM46.358 38.449c-.188.542 2.18 1.857 5.3 2.932 3.11 1.074 5.79 1.513 5.979.97.187-.543-2.181-1.857-5.3-2.932-3.12-1.085-5.792-1.513-5.98-.97z"/><path fill="#474F76" d="M42.278 78.525c.094.46 1.398.584 2.911.282 1.513-.303 2.671-.929 2.577-1.388-.094-.459-1.398-.584-2.91-.282-1.514.303-2.672.929-2.578 1.388zM49.811 59.337c-.428.365.23 1.805 1.45 3.214 1.221 1.398 2.557 2.243 2.974 1.868.428-.366-.23-1.806-1.45-3.204a3.764 3.764 0 00-.188-.208c-1.169-1.284-2.39-2.014-2.786-1.67zM45.93 58.294c-.46.062-.637 1.586-.386 3.401.25 1.816.824 3.245 1.283 3.183.46-.063.637-1.586.386-3.402-.25-1.815-.824-3.245-1.283-3.182zM50.562 49.31c-.427.366.23 1.805 1.45 3.214 1.221 1.398 2.557 2.243 2.974 1.868.428-.376-.23-1.805-1.45-3.214-1.21-1.409-2.546-2.243-2.974-1.868zM57.532 53.025c-.146.448.929 1.19 2.4 1.67 1.471.48 2.786.51 2.932.072.146-.438-.929-1.19-2.4-1.67-1.471-.48-2.786-.51-2.932-.072zM59.337 44.605c-.459.062-.636 1.586-.386 3.401.25 1.826.824 3.245 1.284 3.182.459-.062.636-1.586.396-3.401-.25-1.816-.835-3.245-1.294-3.182z"/><path fill="#F66318" d="M79.162 34.526l-6.563-3.016 2.504-10.768a5.695 5.695 0 017.554-2.796 5.695 5.695 0 012.796 7.554l-6.291 9.026z"/><path fill="#F66318" d="M27.045 120.657c6.583-14.534 8.524-34.818 9.61-43.28 1.439-3.495-.815-7.94-.71-11.29.761-16.088 7.47-26.981 8.858-30.153 2.097-4.758 10.924-13.439 20.294-14.19 9.37-.751 19.428 1.42 22.432 7.846 2.995 6.417 5.958 6.939 5.416 12.093-.564 5.155.386 8.274 2.212 11.154 1.826 2.88 5.916 28.88 6.458 45.189.804 20.596.97 29.079-.605 40.128-1.262 10.382-4.403 19-4.403 19l-3.412 1.305s-7.742-20.012-14.806-24.207c-7.063-4.205-21.827-6.5-31.656-.866-17.017 11.978-20.826 26.252-20.826 26.252l-2.91-1.409s-3.068-21.567 4.048-37.572z"/><path fill="#E8580E" d="M51.919 53.181c-.021.063.02 0 0 0-.835.063-10.424-10.058-10.518-10.12-2.16 5.3-5.029 14.096-5.457 23.027-.041 1.492 15.453-10.705 15.975-12.907z"/><path fill="#7A2716" d="M95.157 52.837s-9.923.73-18.562-3.068c-8.64-3.808-1.127 35.465 18.562 3.068z"/><path fill="#FFF" d="M75.103 49.54l.615 2.222c.564 1.252 9.412 5.864 16.298 6.74.438.053.866-.146 1.033-.563l2.108-5.112s-11.123.146-17.999-2.87c-.73-.313-1.2-.574-2.055-.417z"/><path fill="#EFEFEF" d="M94.854 53.557l.303-.72s-11.123.146-17.999-2.87c-.72-.312-1.2-.584-2.045-.427l.178.657c8.482 3.089 16.068 3.35 19.563 3.36z"/><path fill="url(#a)" d="M83.627 62.947c8.577 3.34 16.277 10.987 14.858 35.079-1.617 27.41-36.445 21.838-55.164 27.357-7.45 2.202-9.202-1.93-6.229-4.737 21.828-20.512 8.222-72.63 46.535-57.699z" opacity=".39"/><path fill="#F66318" d="M79.683 29.382s.376-3.6 3.809-3.82c3.432-.218 5.884 6.439 11.049 9.078 5.165 2.64 9.61 4.58 14.357 4.883 4.747.303 9.317-1.68 9.213-.292-.104 1.398-8.472 13.199-20.169 13.877-11.654-.292-18.739.178-25.103-11.154-6.365-11.33-8.201-13.647-3.527-14.482 4.653-.834 10.371 1.91 10.371 1.91z"/><path fill="url(#b)" d="M79.683 29.382s.376-3.6 3.809-3.82c3.432-.218 5.884 6.439 11.049 9.078 5.165 2.64 9.61 4.58 14.357 4.883 4.747.303 9.317-1.68 9.213-.292-.104 1.398-8.472 13.199-20.169 13.877-11.477-.156-18.739.178-25.103-11.154-6.365-11.33-8.201-13.647-3.527-14.482 4.653-.834 10.371 1.91 10.371 1.91z" opacity=".39"/><g transform="translate(64.69 31.302)"><circle cx="6.552" cy="5.947" r="5.812" fill="#FFF"/><path fill="#FAF5DF" d="M10.653 3.245s1.46 3.297.48 6.187c1.847-3.819 1.335-5.467-.48-6.187z"/><circle cx="7.961" cy="5.06" r="4.038" fill="#8B6239"/><path fill="#D9A556" d="M11.53 5.718a3.641 3.641 0 01-4.226 2.921 3.641 3.641 0 01-2.922-4.225c.365-1.972 1.273 2.076 3.245 2.43 1.983.355 4.268-3.098 3.902-1.126z" opacity=".4"/><circle cx="7.968" cy="5.026" r="2.942" fill="#1A1A1A" transform="rotate(-70.628 7.968 5.026)"/><circle cx="9.505" cy="4.174" r="1" fill="#FFF"/></g><g transform="translate(84.514 28.171)"><circle cx="5.113" cy="5.165" r="4.758" fill="#FFF"/><path fill="#FAF5DF" d="M8.963 3.245s.584 2.89-.72 5.04c2.15-2.724 2.045-4.143.72-5.04z"/><circle cx="6.354" cy="4.633" r="3.308" fill="#8B6239"/><path fill="#D9A556" d="M9.286 5.165A2.976 2.976 0 113.433 4.09c.292-1.617 1.043 1.7 2.66 1.993 1.618.303 3.485-2.535 3.193-.918z" opacity=".4"/><circle cx="6.368" cy="4.601" r="2.41" fill="#1A1A1A" transform="rotate(-70.628 6.368 4.601)"/><circle cx="7.627" cy="3.902" r="1" fill="#FFF"/></g><path fill="#010101" d="M111.726 39.471s6.886-2.212 7.512-1.534c.626.679-.47 4.57-4.278 5.875-3.808 1.304-3.234-4.34-3.234-4.34z"/><circle cx="105.695" cy="44.031" r="1.064" fill="#81524F"/><circle cx="103.232" cy="45.763" r="1" fill="#81524F"/><circle cx="105.799" cy="46.796" r="1" fill="#81524F"/><path fill="#E8580E" d="M76.136 23.121s-.22-3.808 2.848-3.933c3.078-.125 4.153.824 4.956 1.972.804 1.148.49 3.36-.584 4.08-1.085.72-7.22-2.119-7.22-2.119z"/><path fill="#3F122A" d="M25.824 160.212c-.22.866-.125 3.87-.929 4.277-.615.313-6.792 1.054-8.764.793-2.004-.26-3.35-.281-4.925-1.544-.407-.323-.584-.594-.595-.814 0-.083.073-.678.115-.74.793-1.252 8.545-.105 9.933-.95.616-.375 1.836-2.055 2.243-2.42l2.922 1.398z"/><path fill="#5E1C3D" d="M25.907 159.638c-.219.866-.125 3.87-.928 4.278-.616.313-6.793 1.053-8.765.793-2.003-.261-3.35-.282-4.925-1.545-3.234-2.619 7.784-1.492 9.453-2.504.616-.375 1.837-2.055 2.244-2.42l2.921 1.398z"/><path fill="#3F122A" d="M24.186 162.695c-2.87-1.012-5.322-1.471-8.15-1.492 2.056-.094 4.07-.167 4.717-.553.616-.376 1.836-2.056 2.243-2.42l.261.124c-.835 1.346-1.033 3.36.929 4.34z" opacity=".5"/><path fill="#3F122A" d="M93.226 159.116c.157 1.002-.219 4.372.637 4.904.657.407 7.543 1.826 9.787 1.722 2.274-.105 3.798 0 5.686-1.273.48-.334.71-.616.741-.866.01-.094-.01-.762-.063-.846-.772-1.481-9.599-.928-11.08-2.013-.658-.48-1.868-2.484-2.296-2.932l-3.412 1.304z"/><path fill="#5E1C3D" d="M93.195 158.459c.157 1.001-.22 4.371.637 4.904.657.407 7.543 1.826 9.786 1.721 2.275-.104 3.798 0 5.687-1.273 3.881-2.64-8.608-2.41-10.392-3.714-.658-.48-1.868-2.483-2.296-2.932l-3.422 1.294z"/><path fill="#3F122A" d="M94.833 162.069c3.318-.866 6.125-1.148 9.307-.908-2.306-.302-4.57-.574-5.248-1.075-.657-.48-1.868-2.483-2.296-2.932l-.313.115c.825 1.586.856 3.882-1.45 4.8z" opacity=".5"/><g><path fill="#F66318" d="M36.654 77.962c-1.972-14.66-15.369-42.09-18.3-51.96 1.22-1.816 3.912-5.646 4.486-4.154 4.945 12.74 15.62 24.197 29.079 31.333l-15.265 24.78z"/><path fill="#DE540D" d="M17.936 25.396c.334-1.043 1.419-2.076 2.066-2.953.375-.5.782-.97 1.179-1.45.365.219 1.085.042 1.304.271 2.368 3.433.689 6.323-3.986 5.207l-.563-1.075c.094-.136-.063.188 0 0z"/><path fill="#F66318" d="M16.496 18.197c-2.859-.167-3.443-.647-4.153-1.033-3.005-1.158-5.718-3.84-6.166-2.64-.188.417 2.859 3.057 5.154 4.132-2.441.678-5.509-3.089-6.198-1.242-.198.334 4.393 3.255 5.854 3.996-.178.647-4.445-1.648-5.405-.814-1.628 1.221 9.881 4.863 13.575 5.572 4.674 1.116 5.352-3.088 2.608-5.749-1.012-1.043-3.819-2.128-5.27-2.222z"/><path fill="#F66318" d="M20.7 19.668c-3.954-2.744-5.06-6.897-5.978-6.281-.355.24.324 2.692.584 3.297.261.594.564 1.71-.406 1.419-.178-.052 1.44.907 1.596 1.012.313.219.636.417.96.605a312.8 312.8 0 002.483 1.492c.167.104.344.209.543.25.27.053.563-.01.834.053-.187-.199-.448-.345-.657-.543-.23-.22.313-1.116.042-1.304z"/><path fill="#DE540D" d="M15.296 16.684c-.156-.365-.48-1.44-.616-2.264.96 1.22.334 3.338 2.41 3.944-.646-.01-1.241-.073-1.752-.24.407-.167.167-.96-.042-1.44zM20.878 19.772s-1.544-1.043-3.996-.845c-2.452.198-1.836 3.6-1.836 3.6s-.397-3.485 1.95-3.34c2.359.157 3.882.585 3.882.585z"/><path fill="#DE540D" d="M20.962 21.796c-.366.021-.72.052-1.086.073-.24.021-.48.032-.699.136-.208.104-.386.323-.375.563.02.303.344.501.647.574.302.073.626.094.876.272.407.292.428.939.125 1.335-.302.397-.845.553-1.346.5-.5-.051-.96-.27-1.398-.51-.438-.24-.866-.512-1.168-.898a2.326 2.326 0 01-.46-1.805c.22-1.304 1.399-1.961 2.609-2.128 1.356-.178 2.014.678 2.275 1.888z"/></g><path fill="#D9E2F8" d="M112.519 17.425l34.15-12.698 2.994 20.982-35.892-2.379z"/><path fill="#A1B7EF" d="M121.356 14.138l-4.706 1.753c.209 2.692.856 5.248 1.795 7.752l3.735.25c-.876-3.109-.897-6.406-.824-9.755zM146.668 4.727L140.544 7c-.292 6.375.407 12.354 2.41 18.26l6.699.438-2.985-20.972z"/><path fill="#7091E7" d="M156.34 13.407c.585 7.857.022 15.213-1.335 15.307-1.356.104-5.217-6.72-5.79-14.576C148.63 6.28 150.56.136 151.926.042c1.346-.105 3.83 5.509 4.414 13.365z"/><path fill="#5A81E4" d="M154.38 13.762c.416 5.687.02 11.008-.971 11.081-.981.073-3.777-4.862-4.195-10.56-.417-5.696.981-10.13 1.962-10.203.991-.073 2.786 3.996 3.203 9.682z"/><ellipse cx="113.192" cy="20.386" fill="#A1B7EF" rx="1" ry="2.994" transform="rotate(-12.011 113.192 20.386)"/><ellipse cx="113.015" cy="20.354" fill="#86A2EB" rx="1" ry="2.327" transform="rotate(-12.011 113.015 20.354)"/><path fill="#86A2EB" d="M151.917.042l-6.845 1.554s-5.457 10.716 3.422 27.64l6.511-.658s-6.792-9.411-3.088-28.536z"/></g><path fill="#D9E2F8" fill-rule="nonzero" d="M460.205 133.856H196.511l-38.313 165.147h263.684z"/><path fill="#B4C5F2" fill-rule="nonzero" d="M445.984 154.18l-242.858-.25-12.875 55.488h242.92zM460.205 133.856H196.511l-2.327 10.037 263.695-.01z"/><g fill-rule="nonzero"><path fill="#86A2EB" d="M233.54 133.856h-31.937a6.398 6.398 0 00-6.24 4.956l-1.179 5.081 45.095-.01.501-2.17c.94-4.018-2.118-7.857-6.24-7.857z"/><path fill="#D9E2F8" d="M284.364 143.883l.5-2.17c.93-4.018-2.117-7.857-6.239-7.857h-31.938a6.398 6.398 0 00-6.24 4.956l-1.178 5.081"/><path fill="#86A2EB" d="M323.324 133.856h-31.938a6.398 6.398 0 00-6.24 4.956l-1.179 5.081 45.095-.01.501-2.17c.94-4.018-2.118-7.857-6.24-7.857z"/></g><path fill="#ECF0FB" fill-rule="nonzero" d="M254.784 217.243h-66.192L171.5 290.885h66.192zM432.326 217.243H263.33l-17.09 73.642h168.997z"/><circle cx="437.522" cy="139.062" r="1.774" fill="#86A2EB" fill-rule="nonzero"/><circle cx="445.984" cy="139.062" r="1.774" fill="#86A2EB" fill-rule="nonzero"/><circle cx="453.872" cy="139.062" r="1.774" fill="#86A2EB" fill-rule="nonzero"/><ellipse cx="439.885" cy="179.5" fill="#ECF0FB" fill-rule="nonzero" rx="7.523" ry="6.26" transform="rotate(-75.671 439.885 179.5)"/><ellipse cx="196.609" cy="179.498" fill="#ECF0FB" fill-rule="nonzero" rx="7.523" ry="6.26" transform="rotate(-75.671 196.609 179.498)"/><path stroke="#86A2EB" stroke-linecap="round" stroke-width="1.043" d="M285.042 189.437h54.246M285.042 193.057h9.464M300.15 193.057h39.138"/><circle cx="300.641" cy="200.924" r="1.294" fill="#86A2EB" fill-rule="nonzero"/><circle cx="309.196" cy="200.924" r="1.294" fill="#86A2EB" fill-rule="nonzero"/><circle cx="316.824" cy="200.924" r="1.294" fill="#86A2EB" fill-rule="nonzero"/><path fill="#86A2EB" fill-rule="nonzero" d="M312.16 172.263c2.034 7.69-13.22 1.982-7.325 8.41 4.361 4.757 10.684 5.842 7.794 1.637-4.34-6.312 6.375 6.083 11.133.7 3.923-4.445-7.7-8.588-4.048-8.63 2.869-.03 12.364-1.335 5.457-3.995-2.285-.866-14.68-4.435-13.011 1.878z"/><path fill="#86A2EB" fill-rule="nonzero" d="M309.969 174.016a2.974 2.974 0 01-4.09.95c-1.388-.867-3.986-4.05-3.11-5.447.877-1.399 4.862-.46 6.26.407a2.96 2.96 0 01.94 4.09z"/><path fill="#4470E0" fill-rule="nonzero" d="M229.106 269.433a23.148 23.148 0 01-17.08 7.492c-7.804 0-14.712-3.861-18.906-9.777l6.803-4.841c2.692 3.798 7.116 6.27 12.103 6.27a14.76 14.76 0 0010.914-4.81l6.166 5.666z"/><path fill="#6644E0" fill-rule="nonzero" d="M235.22 253.72c0 .094 0 .198-.01.292l-8.337-.105v-.187c0-5.54-3.057-10.392-7.575-12.938l4.09-7.283c7.075 3.975 11.832 11.54 11.832 20.22z"/><path fill="#44BEE0" fill-rule="nonzero" d="M223.399 233.499l-4.09 7.283a14.725 14.725 0 00-7.283-1.92c-8.19 0-14.847 6.667-14.847 14.858 0 3.192 1.012 6.166 2.744 8.587l-6.803 4.841a23.032 23.032 0 01-4.288-13.428c0-12.813 10.381-23.205 23.194-23.205 4.132 0 8.003 1.085 11.373 2.984z"/><path fill="#E04470" fill-rule="nonzero" d="M235.21 254.012a23.082 23.082 0 01-6.114 15.421l-6.167-5.666a14.777 14.777 0 003.944-9.86l8.337.105z"/><path fill="#B4C5F2" fill-rule="nonzero" d="M230.358 287.264h-48.767a1.178 1.178 0 01-1.18-1.179v-1.168c0-.647.522-1.18 1.18-1.18h48.767c.647 0 1.18.523 1.18 1.18v1.168a1.184 1.184 0 01-1.18 1.18z"/><path stroke="#E04470" stroke-linecap="round" stroke-width="1.043" d="M259.73 251.716l34.776-16.746 8.973 8.785 23.716 17.915 22.14.637 11.749-5.885 3.36-.303 17.79 13.314 21.743-9.787 8.807-.584"/><path stroke="#6644E0" stroke-linecap="round" stroke-width="1.043" d="M257.09 269.62l39.367 1.19 27.023 14.702h15.808l53.817-47.015 3.235 15.567 4.987 13.084 11.457 2.473"/><path stroke="#44BEE0" stroke-linecap="round" stroke-width="1.043" d="M254.784 283.748l20.22 1.764 24.343-17.341 7.157 5.582 29.758-36.435h26.293l9.985 11.519 40.244 5.603"/><path fill="#5A81E4" fill-rule="nonzero" d="M197.419 183.907c-.313 0-.626-.136-.825-.407l-3.87-5.04 5.696-2.806a1.052 1.052 0 011.398.47c.25.52.042 1.147-.47 1.397l-3.41 1.68 2.326 3.026c.355.46.26 1.116-.188 1.46-.209.147-.428.22-.657.22zM438.879 183.416c-.345 0-.689-.177-.887-.49a1.046 1.046 0 01.334-1.44l3.245-2.003-2.599-2.786a1.04 1.04 0 01.053-1.471 1.05 1.05 0 011.47.052l4.33 4.643-5.404 3.35a1.113 1.113 0 01-.542.145z"/><path fill="#6644E0" fill-rule="nonzero" d="M247.678 73.308c0 7.481-5.32 13.543-11.873 13.543-6.553 0-11.874-6.062-11.874-13.543 0-7.48 5.321-13.543 11.874-13.543 6.552 0 11.873 6.062 11.873 13.543zm-11.873-10.215c-4.946 0-8.952 4.57-8.952 10.205 0 5.634 4.006 10.204 8.952 10.204 4.945 0 8.952-4.57 8.952-10.204 0-5.635-4.007-10.205-8.952-10.205z"/><path fill="#44BEE0" fill-rule="nonzero" d="M420.087 91.098c0 6.072-4.32 10.997-9.64 10.997-5.322 0-9.641-4.925-9.641-10.997 0-6.073 4.32-10.997 9.64-10.997 5.322 0 9.641 4.924 9.641 10.997zm-9.64-8.295c-4.018 0-7.273 3.714-7.273 8.284 0 4.58 3.255 8.285 7.272 8.285s7.273-3.715 7.273-8.285-3.256-8.284-7.273-8.284z"/><circle cx="464.17" cy="31.427" r="4.372" fill="#6644E0" fill-rule="nonzero"/><circle cx="281.025" cy="95.47" r="4.372" stroke="#000" stroke-linecap="round" stroke-linejoin="round" stroke-width="1.043"/><circle cx="371.361" cy="10.204" r="4.372" fill="#44BEE0" fill-rule="nonzero"/><path fill="#4470E0" fill-rule="nonzero" d="M392.375 28.662s3.193 3.234 7.669 3.234c2.817 0 5.196-1.575 5.196-4.434 0-6.219-14.743-5.238-14.743-14.357 0-4.132 3.193-7.585 7.93-8.264V.835h3.025V4.8c4.769.344 7.283 2.942 7.283 2.942l-1.92 3.495s-2.765-2.598-6.604-2.598c-3.235 0-5.457 2.004-5.457 4.393 0 5.968 14.743 4.726 14.743 14.315 0 4.257-3.026 7.794-8.055 8.389v3.923h-3.026v-3.923c-5.457-.553-8.43-3.881-8.43-3.881l2.389-3.193z"/><path fill="#E04470" fill-rule="nonzero" d="M457.2 99.685s1.305 1.315 3.12 1.315c1.148 0 2.118-.647 2.118-1.805 0-2.536-6-2.14-6-5.843 0-1.68 1.305-3.089 3.225-3.37v-1.628h1.231v1.617c1.94.136 2.963 1.2 2.963 1.2l-.782 1.419s-1.127-1.054-2.692-1.054c-1.315 0-2.223.814-2.223 1.784 0 2.431 6 1.93 6 5.833 0 1.732-1.231 3.172-3.276 3.422v1.596h-1.232v-1.596c-2.222-.23-3.432-1.575-3.432-1.575l.98-1.315z"/><path fill="#4470E0" fill-rule="nonzero" d="M284.562 29.236s1.576 1.606 3.798 1.606c1.388 0 2.567-.782 2.567-2.19 0-3.079-7.294-2.599-7.294-7.106 0-2.045 1.586-3.756 3.924-4.09v-1.983h1.492v1.962c2.358.167 3.6 1.45 3.6 1.45l-.95 1.732s-1.367-1.283-3.266-1.283c-1.607 0-2.702.991-2.702 2.17 0 2.953 7.293 2.337 7.293 7.085 0 2.107-1.492 3.86-3.986 4.152v1.941h-1.492v-1.94c-2.702-.272-4.173-1.92-4.173-1.92l1.19-1.586z"/><path fill="#3659B3" fill-rule="nonzero" d="M434.789 328.729H6.093a5.709 5.709 0 01-5.707-5.708v-3.568a5.709 5.709 0 015.707-5.707h432.233l-3.537 14.983z"/><path fill="#2F4E9C" fill-rule="nonzero" d="M434.789 328.729h-138.52a5.709 5.709 0 01-5.707-5.708v-3.568a5.709 5.709 0 015.707-5.707h142.057l-3.537 14.983z"/><path fill="#3D64C9" fill-rule="nonzero" d="M94.53 313.746l6.46 5.091a5.71 5.71 0 003.557 1.231h71.597a5.718 5.718 0 003.047-.876l8.67-5.446M397.456 324.378h18.52c1.065 0 1.92-.856 1.92-1.92v-1.91c0-1.064-.855-1.92-1.92-1.92h-18.52c-1.064 0-1.92.856-1.92 1.92v1.91c0 1.064.856 1.92 1.92 1.92z"/><circle cx="386.282" cy="321.508" r="2.869" fill="#3D64C9" fill-rule="nonzero"/><circle cx="376.849" cy="321.508" r="2.869" fill="#3D64C9" fill-rule="nonzero"/><path fill="#E04470" fill-rule="nonzero" d="M330.648 10.09L273.21 67.528h32.157v56.499h50.563v-56.5h32.157z"/><path fill="#2F4E9C" fill-rule="nonzero" d="M418.272 51.93l2.493 2.608 7.106-6.824V71.46h3.61V47.714l7.095 6.824 2.504-2.609-11.404-10.611z"/><g fill="#2F4E9C" fill-rule="nonzero"><path d="M234.897 38.73v9.13l16.246-15.609 16.235 15.609v-9.13l-16.235-15.609z"/><path d="M234.897 21.848v9.14l16.246-15.609 16.235 15.61v-9.14l-16.235-15.6z"/></g><path fill="#E04470" fill-rule="nonzero" d="M256.506 92.559l-13.418 19.657 13.418-7.94 13.428 7.94z"/></g></svg>