<?xml version="1.0" encoding="UTF-8"?>
<svg xmlns="http://www.w3.org/2000/svg" viewBox="0 0 3710 3710">
  <defs>
    <style>
      .cls-1, .cls-2, .cls-3, .cls-4, .cls-5, .cls-6, .cls-7, .cls-8, .cls-9, .cls-10, .cls-11, .cls-12, .cls-13 {
        stroke-width: 0px;
      }

      .cls-1, .cls-14 {
        fill: #0873ff;
      }

      .cls-2 {
        mix-blend-mode: multiply;
      }

      .cls-2, .cls-8 {
        fill: #567ee3;
      }

      .cls-3 {
        fill: #ff6444;
      }

      .cls-15 {
        isolation: isolate;
      }

      .cls-4 {
        fill: #3659b3;
        opacity: .4;
      }

      .cls-5 {
        fill: #6644e0;
      }

      .cls-6 {
        fill: #b2b75b;
      }

      .cls-7 {
        fill: #fff;
      }

      .cls-9 {
        fill: #084aa3;
      }

      .cls-10 {
        fill: #ff6541;
      }

      .cls-14 {
        stroke: #084aa3;
        stroke-width: 6.39px;
      }

      .cls-16 {
        stroke: #0873ff;
        stroke-width: 6px;
      }

      .cls-16, .cls-17 {
        fill: none;
        stroke-miterlimit: 10;
      }

      .cls-11 {
        fill: #ffa343;
      }

      .cls-12 {
        fill: #44bee0;
      }

      .cls-17 {
        stroke: #d7d7d7;
        stroke-width: 6.27px;
      }

      .cls-13 {
        fill: #668cce;
      }
    </style>
  </defs>
  <g class="cls-15">
    <g id="Illustration">
      <path class="cls-4" d="M3412.99,2571.96c36.68-134.23,56.37-275.48,56.37-421.34,0-880.83-714.05-1594.88-1594.88-1594.88S279.59,1269.78,279.59,2150.61c0,145.87,19.69,287.11,56.37,421.34h3077.03Z"/>
      <line class="cls-16" x1="335.44" y1="2571.96" x2="3417.75" y2="2571.96"/>
      <rect class="cls-2" x="1643.99" y="2235.45" width="597.68" height="258.73"/>
      <path class="cls-1" d="M1231.43,452.51h1404.56c8.12,0,14.71,6.59,14.71,14.71v2153.44c0,8.12-6.59,14.71-14.71,14.71h-1404.56c-8.12,0-14.71-6.59-14.71-14.71V467.22c0-8.12,6.59-14.71,14.71-14.71Z" transform="translate(3477.66 -389.77) rotate(90)"/>
      <path class="cls-7" d="M2961.38,918.28v1251.3c0,14.1-10.59,25.75-24.29,27.39-1.05.12-2.17.18-3.28.18H933.66c-15.28,0-27.62-12.35-27.62-27.57V918.28c0-15.22,12.35-27.57,27.62-27.57h2000.15c15.22,0,27.57,12.35,27.57,27.57Z"/>
      <path class="cls-7" d="M2937.09,2196.97c-1.05.12-2.17.18-3.28.18H933.66c-15.28,0-27.62-12.35-27.62-27.57V918.28l2031.05,1278.69Z"/>
      <rect class="cls-7" x="991.69" y="1102.08" width="1884.05" height="1002.15" rx="2" ry="2"/>
      <rect class="cls-7" x="2024.82" y="947.2" width="827.23" height="96.57" rx="7.57" ry="7.57"/>
      <g>
        <rect class="cls-17" x="1075.51" y="1273.36" width="1694.55" height="728.84"/>
        <line class="cls-17" x1="1075.51" y1="1338.95" x2="2770.06" y2="1338.95"/>
        <line class="cls-17" x1="1075.51" y1="1412.75" x2="2770.06" y2="1412.75"/>
        <line class="cls-17" x1="1075.51" y1="1486.54" x2="2770.06" y2="1486.54"/>
        <line class="cls-17" x1="1075.51" y1="1560.34" x2="2770.06" y2="1560.34"/>
        <line class="cls-17" x1="1075.51" y1="1634.13" x2="2770.06" y2="1634.13"/>
        <line class="cls-17" x1="1075.51" y1="1707.93" x2="2770.06" y2="1707.93"/>
        <line class="cls-17" x1="1075.51" y1="1781.72" x2="2770.06" y2="1781.72"/>
        <line class="cls-17" x1="1075.51" y1="1855.52" x2="2770.06" y2="1855.52"/>
        <line class="cls-17" x1="1075.51" y1="1929.31" x2="2770.06" y2="1929.31"/>
      </g>
      <polygon class="cls-14" points="2812.89 2510.93 1034.52 2510.93 957.99 2584.72 957.99 2664.89 2927.68 2664.89 2927.68 2584.72 2812.89 2510.93"/>
      <polygon class="cls-9" points="2766.88 2487.7 1958.32 2487.7 1901.84 2487.7 1093.28 2487.7 1023.59 2547.83 1023.59 2584.72 1901.84 2584.72 1958.32 2584.72 2836.57 2584.72 2836.57 2547.83 2766.88 2487.7"/>
      <g>
        <rect class="cls-13" x="2462.44" y="1181.56" width="96.02" height="818.86" transform="translate(5020.91 3181.98) rotate(180)"/>
        <rect class="cls-10" x="2223.59" y="1293.18" width="96.02" height="707.24" transform="translate(4543.2 3293.6) rotate(180)"/>
        <rect class="cls-6" x="1984.74" y="1367.98" width="96.02" height="632.44" transform="translate(4065.5 3368.4) rotate(180)"/>
        <rect class="cls-13" x="1745.89" y="1498.63" width="96.02" height="501.79" transform="translate(3587.8 3499.05) rotate(180)"/>
        <rect class="cls-11" x="1507.04" y="1635.62" width="96.02" height="364.8" transform="translate(3110.09 3636.04) rotate(180)"/>
        <rect class="cls-3" x="1268.19" y="1802.53" width="96.02" height="197.89" transform="translate(2632.39 3802.95) rotate(180)"/>
        <polygon class="cls-10" points="2386.94 1122.41 2324.84 1152.8 2346.55 1159.88 2316.55 1194.32 2095.28 1194.32 2029.54 1297.16 1822.18 1297.16 1661.65 1509.21 1516.17 1509.21 1355.63 1721.25 1190.49 1721.25 1190.49 1732.96 1361.45 1732.96 1521.98 1520.91 1667.46 1520.91 1828 1308.86 2035.96 1308.86 2101.7 1206.02 2321.88 1206.02 2355.38 1167.56 2365.37 1188.1 2386.94 1122.41"/>
      </g>
      <path class="cls-1" d="M418.99,1784.21L61.35,2336.85l204.98-3.18,8.35,538.02,322.3-5-8.35-538.03,204.98-3.18-374.62-541.27Z"/>
      <circle class="cls-5" cx="3204.39" cy="466.24" r="31.69"/>
      <circle class="cls-12" cx="2531.72" cy="312.41" r="31.69"/>
      <path class="cls-1" d="M2871.73,614.84l18.07,18.9,51.5-49.46v172.11h26.16v-172.11l51.42,49.46,18.15-18.91-82.66-76.91-82.66,76.91Z"/>
      <g>
        <path class="cls-8" d="M3253.36,2615.81v66.17l117.75-113.13,117.67,113.13v-66.17l-117.67-113.13-117.75,113.13Z"/>
        <path class="cls-8" d="M3253.36,2493.45v66.25l117.75-113.13,117.67,113.14v-66.25l-117.67-113.07-117.75,113.06Z"/>
      </g>
    </g>
  </g>
</svg>