<?xml version="1.0" encoding="utf-8"?>
<!-- Generator: Adobe Illustrator 21.0.0, SVG Export Plug-In . SVG Version: 6.00 Build 0)  -->
<svg version="1.1" id="Layer_2" xmlns="http://www.w3.org/2000/svg" xmlns:xlink="http://www.w3.org/1999/xlink" x="0px" y="0px"
	 width="145px" height="145px" viewBox="0 0 145 145" style="enable-background:new 0 0 145 145;" xml:space="preserve">
<style type="text/css">
	.st0{fill:#F2F2F2;}
	.st1{fill:#D8D8D8;}
	.st2{fill:#FFCE00;}
	.st3{fill:#F2B200;}
	.st4{fill:#E5A900;}
	.st5{fill:none;stroke:#F2B200;stroke-width:2.8;stroke-linecap:round;stroke-linejoin:round;stroke-miterlimit:10;}
	.st6{opacity:0.3;fill:#FFFFFF;}
	.st7{fill:#21B8FF;}
	.st8{fill:#4E66D0;}
	.st9{fill:#FFFFFF;}
	.st10{opacity:0.5;fill:#FFFFFF;}
</style>
<g>
	<circle class="st0" cx="69" cy="73" r="65"/>
	<ellipse class="st1" cx="69" cy="123" rx="25" ry="10"/>
</g>
<g>
	<circle class="st2" cx="69.5" cy="71.5" r="45.5"/>
	<circle class="st3" cx="69.5" cy="71.5" r="35.7"/>
	<circle class="st2" cx="69.5" cy="75.7" r="35.7"/>
	<g>
		<path class="st4" d="M60.2,79.5c0,0,3.9,3.8,8.9,3.8c2.7,0,5.2-1.4,5.2-4.3c0-6-17-5.4-17-16.3c0-5.2,3.9-9.2,9.5-10.1v-4.7h4.3
			v4.6c5.8,0.5,8.9,3.7,8.9,3.7l-2.8,5.3c0,0-3.4-3.1-7.9-3.1c-3,0-5.4,1.8-5.4,4.3c0,6,17,4.9,17,16.2c0,5.1-3.6,9.5-9.7,10.3v4.6
			h-4.3v-4.6c-6.5-0.8-10.1-4.7-10.1-4.7L60.2,79.5z"/>
	</g>
	<path class="st5" d="M33.8,71.5c0-19.7,16-35.7,35.7-35.7s35.7,16,35.7,35.7"/>
	<path class="st6" d="M69.5,38.1c-14.5,0-26.6,7-29.6,16.4c2.5,2.8,5.8,4.7,9.5,5.5c5.4,1.1,12.5,2,21.3,2c9,0,16.1-0.9,21.6-2
		c2.7-0.6,5.2-1.8,7.3-3.4C97.8,46.2,85,38.1,69.5,38.1z"/>
</g>
<g>
	<path class="st7" d="M9.7,100.9c3.9-5.3,8.7-10.2,14.9-13.1c3-1.5,6.4-2.4,9.7-2.6c3.4-0.3,6.7,0.1,10,1c3.2,0.9,6.3,2.2,9.1,3.8
		c0.7,0.4,1.4,0.8,2.1,1.3l2.1,1.2c1.4,0.8,2.8,1.6,4.2,2.4c5.6,3.1,11.5,5.7,17.6,7.6c3.1,0.9,6.2,1.7,9.3,2.2
		c3.2,0.5,6.3,0.7,9.5,0.7c6.4-0.1,12.8-1.3,18.7-3.8c3-1.2,5.8-2.7,8.5-4.4c2.7-1.8,5.3-3.7,7.7-5.8c4.8-4.2,9.1-9.1,12.9-14.3
		c-3.7,5.3-7.9,10.2-12.7,14.6c-2.4,2.2-5,4.2-7.6,6c-2.7,1.8-5.6,3.3-8.5,4.6c-6,2.6-12.4,4-18.9,4.2c-3.3,0.1-6.5-0.1-9.7-0.6
		c-3.2-0.5-6.4-1.2-9.5-2.1c-6.3-1.8-12.3-4.4-18-7.4c-1.4-0.8-2.9-1.5-4.3-2.4c-1.4-0.8-2.8-1.6-4.2-2.4c-2.8-1.5-5.7-2.7-8.7-3.4
		c-3-0.7-6.1-1-9.2-0.7c-3.1,0.3-6,1.2-8.8,2.6c-5.5,2.8-10,7.4-13.6,12.6L9.7,100.9z"/>
</g>
<path class="st7" d="M97,104c-43,19-46-22-68,7c-4.7,6.2,2.5-21.5,17.8-16.3S66,108,83,100.8C91.4,97.2,97,104,97,104z"/>
<path class="st7" d="M118.4,59.1L144,44c0.6-0.4,0.8,2.2,0.6,2.9L140.2,71c-0.1,0.5-0.6,0.8-1.1,0.6l-20.5-8
	C117.9,63.4,117.8,59.5,118.4,59.1z"/>
<path class="st8" d="M128.6,56.1c-11.7,15.7-44.5,55.2-69.3,44.2c-0.4-0.2-0.9-0.4-1.3-0.5c32,18.3,50.6,2.2,79.9-36.8L128.6,56.1z"
	/>
<g>
	<path class="st9" d="M58,99.8c3.4,1.7,6.8,3.2,10.4,4.4c3.6,1.2,7.2,2,10.9,2.2c3.7,0.2,7.4-0.1,10.9-1.1c3.5-1,6.9-2.5,10.1-4.4
		c3.2-1.9,6.2-4.2,9-6.6c2.9-2.4,5.5-5,8.2-7.7c5.2-5.4,10.2-11.1,15.2-16.8c-2.2,3.1-4.4,6.1-6.7,9.2c-2.3,3-4.8,5.9-7.3,8.7
		c-5.1,5.6-10.7,10.9-17.3,15c-3.3,2-6.9,3.6-10.7,4.5c-3.8,1-7.7,1.2-11.6,0.8C71.5,107.2,64.4,103.8,58,99.8z"/>
</g>
<path class="st8" d="M118.4,59.1l25-16c0.6-0.4,1.4,0.1,1.3,0.9L140.2,68c-0.1,0.5-0.6,0.8-1.1,0.6l-20.5-8
	C117.9,60.4,117.8,59.5,118.4,59.1z"/>
<path class="st8" d="M55,98c-21.6-13.4-32-1.5-40.2,10.4c2.8,3.7,6,7.5,8.8,10.5c6.6-10.2,15.8-26.4,34.4-19.1
	C57,99.2,56,98.6,55,98z"/>
<g>
	<path class="st9" d="M23.6,118.9c1.6-3.3,3.4-6.5,5.5-9.5c2.1-3,4.6-5.9,7.6-8.1c1.5-1.1,3.2-2.1,5-2.8c1.8-0.7,3.7-1.1,5.6-1.2
		c3.8-0.2,7.5,0.8,10.8,2.5c-3.5-0.9-7.1-1.5-10.6-1c-3.5,0.5-6.7,1.9-9.5,4c-2.8,2.1-5.3,4.7-7.6,7.5C28.1,113.1,26,116,23.6,118.9
		z"/>
</g>
<g>
	<path class="st10" d="M40.5,95.5c-3,0.1-5.9,1.2-8.4,2.9c-2.5,1.7-4.7,3.8-6.6,6.1c-3.9,4.6-6.9,9.9-9.5,15.3
		c-0.1,0.2-0.4,0.4-0.7,0.2c-0.2-0.1-0.4-0.4-0.2-0.7c0,0,0,0,0,0c2.8-5.4,6-10.6,10-15.1c2-2.3,4.3-4.4,6.8-6
		C34.5,96.6,37.5,95.5,40.5,95.5z"/>
</g>
</svg>
