<svg xmlns="http://www.w3.org/2000/svg" viewBox="0 0 86 86" xmlns:v="https://vecta.io/nano"><circle cx="43" cy="43" r="42" fill="#f2f2f2"/><ellipse cx="43.66" cy="75.64" rx="16.11" ry="5.44" fill="#d8d8d8"/><path d="M12.28 19.17c0 38.18 29.07 52.71 29.07 52.71h3.3s25.77-21.52 25.77-52.71C59.09 1.4 25.19.64 12.28 19.17z" fill="#545ec5"/><path d="M15.58 19.17c0 38.18 29.07 52.71 29.07 52.71s29.07-14.52 29.07-52.71C62.39 1.4 28.49.64 15.58 19.17z" fill="#8b96de"/><path d="M44.65,59.59c-6.48-5.04-17.51-16.52-18.68-36.86,4.33-4.31,11.28-6.9,18.91-6.9s14.49,2.57,18.46,6.71c-1.11,20.45-12.19,31.99-18.69,37.05Z" fill="#ffca83"/><path d="M63.35 22.55C62.23 43 51.16 54.54 44.65 59.6c5.13-4.89 14.03-15.26 15.15-35.72-10.28-10.52-29.32-4.79-33.49-1.46 4.35-4.12 11.15-6.58 18.57-6.58s14.49 2.57 18.47 6.71z" fill="#ffa733"/><path d="M63.67 53.94c6.53-10.39 9.55-22.56 9.47-34.74v-.03c-.01.05.16.5.08.29l-1.17-1.65C58.72 1.52 28.23 2.37 15.58 19.17 27.6 1.1 59.61.1 72.98 17.1c.42.57.81 1.16 1.21 1.74-.07-.19.12.27.1.33v.03.1c-.03 12.24-3.48 24.63-10.62 34.64h0z" fill="#b0bcf4"/></svg>