<?xml version="1.0" encoding="utf-8"?>
<!-- Generator: Adobe Illustrator 21.0.0, SVG Export Plug-In . SVG Version: 6.00 Build 0)  -->
<svg version="1.1" id="Layer_2" xmlns="http://www.w3.org/2000/svg" xmlns:xlink="http://www.w3.org/1999/xlink" x="0px" y="0px"
	 width="145px" height="145px" viewBox="0 0 145 145" style="enable-background:new 0 0 145 145;" xml:space="preserve">
<style type="text/css">
	.st0{fill:#F2F2F2;}
	.st1{fill:#D8D8D8;}
	.st2{fill:#4E66D0;}
	.st3{fill:#3650B2;}
	.st4{fill:#E5A900;}
	.st5{fill:#FFCE00;}
	.st6{opacity:0.5;}
	.st7{fill:#1F1F66;}
	.st8{fill:#21B8FF;}
	.st9{fill:#FFFFFF;}
	.st10{fill:none;}
	.st11{fill:none;stroke:#E5A900;stroke-width:3;stroke-miterlimit:10;}
</style>
<g>
	<circle class="st0" cx="72.8" cy="73" r="65"/>
	<ellipse class="st1" cx="72.8" cy="123" rx="25" ry="10"/>
</g>
<rect x="49.7" y="36" transform="matrix(0.9368 0.3497 -0.3497 0.9368 30.245 -24.5967)" class="st2" width="67" height="71"/>
<path class="st3" d="M69.6,42.2c0.9,11.8-23,31.5-23,31.5l10.5-28.2L69.6,42.2z"/>
<ellipse transform="matrix(0.3497 -0.9368 0.9368 0.3497 -50.6479 134.0771)" class="st2" cx="71.3" cy="103.5" rx="10.5" ry="34.5"/>
<ellipse transform="matrix(0.3497 -0.9368 0.9368 0.3497 26.7096 114.3681)" class="st2" cx="95.7" cy="37.9" rx="10.5" ry="34.5"/>
<ellipse transform="matrix(0.3497 -0.9368 0.9368 0.3497 27.2873 114.2209)" class="st4" cx="95.9" cy="37.5" rx="8.8" ry="30.5"/>
<path class="st5" d="M122.2,49.1c-1.3,3.6-14.5,2.2-29.1-3.3S68,32.9,69.3,29.3s14.3-2.1,28.9,3.4S123.6,45.5,122.2,49.1z"/>
<g class="st6">
	<path class="st7" d="M125.5,54.1c-1.2,1-2.6,1.6-4,2.1c-1.5,0.4-3,0.7-4.5,0.9c-3,0.3-6.1,0.2-9.1-0.1c-3-0.3-6-0.9-8.9-1.6
		c-2.9-0.7-5.8-1.7-8.7-2.7c-2.8-1.1-5.6-2.3-8.3-3.6c-2.7-1.4-5.3-2.9-7.8-4.7c-2.5-1.7-4.9-3.7-6.9-5.9c-1-1.1-2-2.3-2.8-3.6
		c-0.8-1.3-1.4-2.7-1.7-4.2c0.5,1.4,1.3,2.7,2.1,3.9c0.9,1.1,1.9,2.2,3.1,3.2c2.2,2,4.6,3.7,7.1,5.3c5,3.1,10.4,5.6,16,7.7
		c5.6,2.1,11.3,3.7,17.1,4.6c2.9,0.5,5.9,0.8,8.8,0.7c1.5,0,2.9-0.2,4.4-0.4C122.7,55.3,124.2,54.9,125.5,54.1z"/>
</g>
<g>
	<path class="st8" d="M74.5,110.4c-3.2-1-6.2-2.2-9.3-3.5c-3-1.3-6-2.8-8.9-4.4c-2.9-1.6-5.7-3.4-8.4-5.4c-0.7-0.5-1.3-1-1.9-1.6
		c-0.6-0.5-1.3-1.1-1.9-1.7c-1.1-1.2-2.3-2.4-3-4c0.8,1.4,2.1,2.6,3.3,3.6c0.6,0.5,1.3,1.1,1.9,1.5c0.6,0.5,1.3,1,2,1.4
		c2.7,1.8,5.5,3.5,8.4,5.1c2.9,1.6,5.8,3.1,8.7,4.6C68.5,107.7,71.5,109.1,74.5,110.4z"/>
</g>
<path class="st5" d="M89.8,44.5c1.6,0.6,3,1.4,4.1,2.4c1.3,1.2,1.7,3.7,1.7,8.6c0,10.8,0,19.1,0,22.3c0,3.7,4.9,4,4.9,0
	c0-3.9,0-2.3,0-11.1c0-3.5,2-3.6,2.6-1.1c1.5,5.9,10.6,5.9,10.6-2.2c0-9.6,2.1-12.3,7.4-12.9C121.2,50.5,95.6,37.1,89.8,44.5z"/>
<g>
	<g>
		<path class="st4" d="M95.7,53.5c0-9.5-3.4-9-5.9-9c1.6,0.6,3,1.4,4.1,2.4c1.3,1.2,1.7,3.7,1.7,8.6C95.7,54.9,95.7,54.2,95.7,53.5z
			"/>
		<path class="st4" d="M95.7,75.8c0,0.8,0,1.5,0,2c0,3.7,4.9,4,4.9,0c0-0.9,0-1.5,0-2C100.6,79.8,95.7,79.5,95.7,75.8z"/>
		<path class="st4" d="M113.8,61.3c0,8.1-9,8.1-10.6,2.2c-0.6-2.5-2.6-2.4-2.6,1.1c0,0.7,0,1.4,0,2c0-3.5,2-3.6,2.6-1.1
			c1.5,5.9,10.6,5.9,10.6-2.2c0-9.6,2.1-12.3,7.4-12.9C121.2,50.5,113.8,46.7,113.8,61.3z"/>
	</g>
</g>
<g>
	<path class="st9" d="M112.4,65.9c-0.3,0.7-0.9,1.3-1.6,1.8c-0.7,0.4-1.6,0.6-2.4,0.6c-0.8,0-1.7-0.2-2.4-0.7
		c-0.7-0.4-1.3-1-1.6-1.7c1.3,0.9,2.6,1.4,4,1.4C109.8,67.3,111.2,66.8,112.4,65.9z"/>
</g>
<g>
	<path class="st9" d="M100,77.6c-0.1,0.4-0.3,0.8-0.7,1C99,78.9,98.6,79,98.2,79c-0.4,0-0.9-0.1-1.2-0.4c-0.3-0.2-0.6-0.6-0.7-1
		c0.8,0.3,1.3,0.4,1.9,0.4C98.8,78,99.3,77.9,100,77.6z"/>
</g>
<g>
	<path class="st8" d="M91,48.6c-2.8-0.8-5.5-1.9-8.2-3.1c-2.7-1.2-5.2-2.6-7.7-4.2c-2.5-1.6-4.8-3.4-6.9-5.4l-0.8-0.8l-0.7-0.8
		c-0.5-0.5-0.9-1.2-1.4-1.7c-0.8-1.2-1.5-2.6-1.8-4c1,2.8,3,4.9,5.1,6.8c2.1,1.9,4.5,3.6,6.9,5.2c2.4,1.6,4.9,3,7.5,4.3
		C85.7,46.2,88.4,47.4,91,48.6z"/>
</g>
<g>
	<path class="st10" d="M126.2,51.6"/>
</g>
<g>
	<path class="st11" d="M68.4,85.5l-8.7-9c-4.1-4.3-10.9-4.4-15.1-0.3l-12,11.6c-3.1,3-8.1,3-11.2-0.1l0,0c-3.2-3.2-3.1-8.4,0.2-11.5
		l5.5-5.2"/>
	<path class="st8" d="M85,110.5L63.1,88.4c-2.3-2.3-2.3-6.1,0-8.4l0,0c2.3-2.3,6.1-2.3,8.4,0l21.9,22.1c2.3,2.3,2.3,6.1,0,8.4l0,0
		C91.1,112.9,87.3,112.8,85,110.5z"/>
	<polygon class="st8" points="69.6,42.1 29.1,82.3 16.3,69.4 56.8,29.2 	"/>
</g>
<ellipse transform="matrix(0.7071 -0.7071 0.7071 0.7071 -49.868 96.2867)" class="st3" cx="91.3" cy="108.3" rx="4.7" ry="3.1"/>
<g>
	<path class="st9" d="M87.3,109.5c-0.1-0.7,0-1.4,0.3-2.1c0.3-0.7,0.7-1.2,1.2-1.7c0.5-0.5,1.1-0.9,1.8-1.2c0.7-0.3,1.4-0.4,2.1-0.2
		c-0.7,0.2-1.2,0.5-1.7,0.9c-0.5,0.4-1,0.7-1.4,1.2C88.6,107.3,87.9,108.2,87.3,109.5z"/>
</g>
<ellipse transform="matrix(0.7071 -0.7071 0.7071 0.7071 -6.7673 55.0472)" class="st5" cx="63.1" cy="35.7" rx="3.5" ry="9.2"/>
<path class="st5" d="M64.8,37.3l-1,1l-7.2-9.1L45.7,40.1l5.3,5.5c1.5,1.5,1.5,3.9,0,5.3l0,0c-2.7,2.7-2.7,7,0,9.7l0,0l18.6-18.5
	L64.8,37.3z"/>
<ellipse transform="matrix(0.7071 -0.7071 0.7071 0.7071 -46.9749 38.1975)" class="st8" cx="22.6" cy="75.8" rx="3.5" ry="9.2"/>
</svg>
