<?xml version="1.0" encoding="utf-8"?>
<!-- Generator: Adobe Illustrator 21.0.0, SVG Export Plug-In . SVG Version: 6.00 Build 0)  -->
<svg version="1.1" id="Layer_3" xmlns="http://www.w3.org/2000/svg" xmlns:xlink="http://www.w3.org/1999/xlink" x="0px" y="0px"
	 width="145px" height="145px" viewBox="0 0 145 145" style="enable-background:new 0 0 145 145;" xml:space="preserve">
<style type="text/css">
	.st0{fill:#F2F2F2;}
	.st1{fill:#D8D8D8;}
	.st2{fill:#4E66D0;}
	.st3{fill:none;stroke:#4E66D0;stroke-width:4.0916;stroke-linecap:round;stroke-linejoin:round;stroke-miterlimit:10;}
	.st4{fill:#FFCE00;}
	.st5{fill:#21B8FF;}
	.st6{fill:#FFFFFF;}
	.st7{fill:none;stroke:#4E66D0;stroke-width:3.8093;stroke-linecap:round;stroke-linejoin:round;stroke-miterlimit:10;}
	.st8{opacity:0.5;fill:#4E66D0;}
</style>
<g>
	<circle class="st0" cx="72.7" cy="73" r="65"/>
	<ellipse class="st1" cx="72.7" cy="123" rx="25" ry="10"/>
</g>
<g>
	<path class="st2" d="M54.2,45.8c0.4,1.4,0.7,2.9,0.8,4.4c17.7-2.8,35.2,7.1,41.9,23.9c1.9-1.3,4.1-2.3,6.4-3
		c6.6-1.9,13.4-0.8,18.8,2.6c2-7.7,2-16.1-0.4-24.3c-7.1-24.1-32.4-37.9-56.5-30.9c-8.7,2.6-16.1,7.5-21.6,13.9
		C48.6,35.2,52.4,39.9,54.2,45.8z"/>
	<path class="st3" d="M100.4,19.1L61.5,90.3c-2.2,4-0.7,9.1,3.3,11.3l0,0c4,2.2,9.1,0.7,11.3-3.3"/>
	<path class="st4" d="M98.7,22.5c0,0-30.8,13.8-43.7,27.3l0,0.2c0,0,0,0.1,0,0.1c17.6-2.1,34.6,7.3,41.8,23.4
		C101.6,54.7,98.7,22.5,98.7,22.5z"/>
</g>
<path class="st2" d="M75.2,100.1c-7.8-7.6-11.6-30.5-15.3-39.8c-0.2,0-0.3-0.1-0.5,0c-10.2,0.7-29.7-1.1-29.7-1.1s-1.6,0.9-3,1.9
	c-1.4,1-1.8,1.2-1.2,2.8c3.7,9.6,7.7,33.4,15.4,40.9c10,9.7,25.5-1.9,37.7,19.4c0.7,1.2,2,1.9,3.4,1.6c8.1-1.4,20.9-3.3,29.3-4.8
	c2.6-0.5,5.1-4.8,4.5-5.8C103.6,95.3,85,109.6,75.2,100.1z"/>
<path class="st5" d="M78.3,96.1C70.8,88.8,67,67.2,63.4,57.4c-0.2-0.6-0.8-1-1.5-1c-5,0.4-25.4,2.1-32,2.7c-1,0.1-1.6,1.1-1.2,2
	c3.8,9.3,7.5,32.1,15.3,39.7c10,9.7,25.5-1.9,37.7,19.4c0.7,1.2,2,1.9,3.4,1.6c8.1-1.4,21-3.1,29.3-4.8c1.2-0.2,1.7-1.5,1.1-2.5
	C103.4,94.6,88.2,105.7,78.3,96.1z"/>
<path class="st5" d="M78.3,96.1C70.8,88.8,67,67.2,63.4,57.4c-0.2-0.6-0.8-1-1.5-1c-5,0.4-25.4,2.1-32,2.7c-1,0.1-1.6,1.1-1.2,2
	c3.8,9.3,7.5,32.1,15.3,39.7c10,9.7,25.5-1.9,37.7,19.4c0.7,1.2,2,1.9,3.4,1.6c8.1-1.4,21-3.1,29.3-4.8c1.2-0.2,1.7-1.5,1.1-2.5
	C103.4,94.6,88.2,105.7,78.3,96.1z"/>
<path class="st6" d="M51.6,100c10.3,9.9,26.2-2.4,38.5,21c1.9-0.3,3.9-0.6,6-0.9c-12.3-23.2-28.2-10.9-38.4-20.8
	c-8.3-8-12-33.2-16-41.2c-2.2,0.2-4.3,0.4-6.2,0.5C39.6,66.4,43.2,91.9,51.6,100z"/>
<path class="st6" d="M71.4,97.8c-8.2-7.9-11.9-32.5-15.8-40.8c-1.9,0.2-4,0.3-6.2,0.5c4,8.1,7.7,33.1,15.9,41.1
	c10.2,9.9,26-2.3,38.2,20.4c2.1-0.3,4.1-0.6,6-1C97.3,95.6,81.6,107.6,71.4,97.8z"/>
<path class="st7" d="M27.2,63c5.9,19.6,9,37.4,1.4,50.2l36.9-3.3"/>
<path class="st8" d="M63.4,57.4c-0.2-0.6-0.8-1-1.5-1c-3.4,0.3-14.2,1.2-22.7,1.9c-0.7,12.1,10.8,25.2,28,30.9
	c2.5,0.8,5,1.5,7.5,1.9C69.5,81.6,66.4,65.5,63.4,57.4z"/>
</svg>
