<?xml version="1.0" encoding="utf-8"?>
<!-- Generator: Adobe Illustrator 21.0.0, SVG Export Plug-In . SVG Version: 6.00 Build 0)  -->
<svg version="1.1" id="Layer_3" xmlns="http://www.w3.org/2000/svg" xmlns:xlink="http://www.w3.org/1999/xlink" x="0px" y="0px"
	 width="145px" height="145px" viewBox="0 0 145 145" style="enable-background:new 0 0 145 145;" xml:space="preserve">
<style type="text/css">
	.st0{fill:#F2F2F2;}
	.st1{fill:#D8D8D8;}
	.st2{fill:#1F1F66;}
	.st3{fill:#4E66D0;}
	.st4{fill:#21B8FF;}
	.st5{fill:#FFFFFF;}
	.st6{fill:#FFCE00;}
	.st7{opacity:0.5;fill:#4E66D0;}
	.st8{opacity:0.5;}
</style>
<g>
	<circle class="st0" cx="73" cy="73" r="65"/>
	<ellipse class="st1" cx="73" cy="123" rx="25" ry="10"/>
</g>
<path class="st2" d="M103.4,29.2c1.5,0.3,3.9-0.7,6-0.9c1.1,1.7,1.6,3,2,4l-14.8,7.8l-1.2,12.4l11.6,7.3L119.8,48l2,4
	c-0.1,2.9-0.8,5.8-2.1,8.6c-3.8,8.1-12.2,13.1-21.2,12.7c-0.7,0-1.5-0.1-2.2-0.2c-4.6-0.7-9.2,1.1-12.3,4.5l-35.2,39.2
	c-3,3.3-8,3.6-11.3,0.6l0,0c-3.3-3-5.6-8-2.6-11.3l39-41.2c2.7-3,4-7.1,3.5-11.2c-0.4-3.6,0-7.4,1.5-11
	C82.8,33,93.2,27.3,103.4,29.2z"/>
<path class="st3" d="M101.4,25.2c2.9,0.5,5.6,1.6,8,3.1l-14.8,7.8l-1.2,12.4l11.6,7.3l14.8-7.8c-0.1,2.9-0.8,5.8-2.1,8.6
	c-3.8,8.1-12.2,13.1-21.2,12.7c-0.7,0-1.5-0.1-2.2-0.2c-4.6-0.7-9.2,1.1-12.3,4.5l-35.2,39.2c-3,3.3-8,3.6-11.3,0.6l0,0
	c-3.3-3-3.6-8-0.6-11.3l37-41.2c2.7-3,4-7.1,3.5-11.2c-0.4-3.6,0-7.4,1.5-11C80.8,29,91.2,23.3,101.4,25.2z"/>
<g>
	<path class="st4" d="M109.4,28.3c-2.4,1.5-4.8,2.9-7.2,4.3c-2.4,1.3-4.9,2.7-7.4,4l0.3-0.4c-0.2,2.1-0.5,4.1-0.7,6.2
		c-0.1,1-0.3,2.1-0.4,3.1c-0.2,1-0.3,2.1-0.5,3.1c0-1,0.1-2.1,0.1-3.1c0-1,0.1-2.1,0.2-3.1c0.1-2.1,0.3-4.1,0.5-6.2
		c0-0.2,0.1-0.3,0.2-0.4l0,0c2.5-1.3,4.9-2.6,7.4-3.8C104.3,30.6,106.8,29.4,109.4,28.3z"/>
</g>
<g>
	<path class="st4" d="M82,73.6c-3.5,4.2-7,8.3-10.6,12.4c-3.6,4.1-7.2,8.1-10.8,12.2c-3.7,4-7.3,8.1-11,12.1c-0.9,1-1.8,2-2.8,3
		c-1,1-2.3,1.7-3.6,2.1c-2.7,0.7-5.7,0-7.7-2c1.1,0.9,2.3,1.5,3.6,1.7c1.3,0.2,2.7,0.2,3.9-0.2c1.3-0.4,2.4-1.1,3.3-2.1
		c0.9-1,1.8-2,2.7-3.1c3.6-4.1,7.2-8.1,10.8-12.2c3.7-4,7.3-8.1,11-12.1C74.6,81.5,78.3,77.5,82,73.6z"/>
</g>
<polygon class="st2" points="59.1,75.3 67.6,91.2 76.2,80.8 62.6,71.3 "/>
<polygon class="st3" points="85.1,95 40.8,44 32.5,37.2 28.1,30.5 31,27.8 37.7,32.3 43.9,41.4 90.4,90.1 "/>
<g>
	<path class="st5" d="M61.6,63.1L43.8,43.7l18.5,18.7c0.2,0.2,0.2,0.5,0,0.7C62.1,63.3,61.8,63.3,61.6,63.1
		C61.6,63.1,61.6,63.1,61.6,63.1z"/>
</g>
<path class="st4" d="M56.4,71.7l3.7,1l37,43.5c3.5,3.8,9.5,4.1,13.3,0.6l0,0c3.8-3.5,4.1-9.5,0.6-13.3L70.7,62.3l-1.2-3.7
	C66.2,55,52.7,67.7,56.4,71.7z"/>
<path class="st6" d="M107.6,113.9c-2.2,1.9-5.6,1.6-7.5-0.7c-1.9-2.2-5.8-10.4-3.6-12.2s9.9,3.2,11.7,5.4S109.9,112,107.6,113.9z"/>
<circle class="st0" cx="104.2" cy="109.8" r="2.9"/>
<path class="st7" d="M62.3,68.8c2.9,5.3,23.8,33.9,26.8,37.5c3,3.7-28.9-33.6-28.9-33.6S59.5,71.1,62.3,68.8z"/>
<g class="st8">
	<path class="st3" d="M59.6,72.6c0.2-0.9,0.7-1.7,1.1-2.4c0.5-0.7,1-1.3,1.6-1.9c1.2-1.2,2.4-2.2,3.7-3.2c-1.2,1.1-2.4,2.3-3.4,3.5
		c-0.5,0.6-1,1.3-1.4,2c-0.4,0.7-0.7,1.4-0.8,2.1L59.6,72.6z"/>
</g>
<circle class="st0" cx="40.9" cy="106.9" r="2.9"/>
<path class="st2" d="M42.9,106.9c0.3,0,0.6,0.1,0.9,0.2c0-0.1,0-0.1,0-0.2c0-1.6-1.3-2.9-2.9-2.9s-2.9,1.3-2.9,2.9
	c0,1.3,0.9,2.4,2,2.8C40.1,108.1,41.4,106.9,42.9,106.9z"/>
<g class="st8">
	<polygon class="st3" points="64.8,66.5 91,95.6 64,67.2 	"/>
</g>
<g>
	<path class="st4" d="M43,105c-0.8-0.3-1.4-0.4-2.1-0.4c-0.7,0-1.3,0.1-2.1,0.4c0.1-0.4,0.4-0.8,0.8-1c0.4-0.2,0.8-0.4,1.3-0.4
		C41.8,103.6,42.7,104.1,43,105z"/>
</g>
</svg>
