<?xml version="1.0" encoding="utf-8"?>
<!-- Generator: Adobe Illustrator 21.0.0, SVG Export Plug-In . SVG Version: 6.00 Build 0)  -->
<svg version="1.1" id="Layer_1" xmlns="http://www.w3.org/2000/svg" xmlns:xlink="http://www.w3.org/1999/xlink" x="0px" y="0px"
	 width="145px" height="145px" viewBox="0 0 145 145" style="enable-background:new 0 0 145 145;" xml:space="preserve">
<style type="text/css">
	.st0{fill:#F2F2F2;}
	.st1{fill:#D8D8D8;}
	.st2{fill:#4E66D0;}
	.st3{fill:#21B8FF;}
	.st4{opacity:0.3;fill:#4E66D0;}
	.st5{fill:#1F1F66;}
	.st6{fill:none;stroke:#21B8FF;stroke-width:2.009;stroke-linecap:round;stroke-miterlimit:10;}
	.st7{fill:none;stroke:#FFCE00;stroke-width:2.0843;stroke-linecap:round;stroke-miterlimit:10;}
	.st8{fill:none;stroke:#FFFFFF;stroke-width:2.0843;stroke-linecap:round;stroke-miterlimit:10;}
	.st9{fill:#FFFFFF;}
	.st10{fill:#FFCE00;}
	.st11{opacity:0.3;fill:none;stroke:#4E66D0;stroke-width:1.0422;stroke-linecap:round;stroke-miterlimit:10;}
	.st12{fill:none;stroke:#4E66D0;stroke-width:2.0843;stroke-linecap:round;stroke-miterlimit:10;}
</style>
<g>
	<circle class="st0" cx="72.5" cy="73" r="65"/>
	<ellipse class="st1" cx="72.5" cy="123" rx="25" ry="10"/>
</g>
<path class="st2" d="M111,99L31.5,53.1L60.1,3.5c1-1.8,3.3-2.4,5-1.3l73.1,42.2c1.8,1,2.4,3.3,1.3,5L111,99z"/>
<path class="st3" d="M106.9,94.4L37.4,54.2c-0.9-0.5-1.2-1.7-0.7-2.6L61.9,7.9c0.4-0.7,1.4-1,2.1-0.6l70.2,40.5
	c0.7,0.4,1,1.4,0.6,2.1l-25.2,43.7C109,94.6,107.8,94.9,106.9,94.4z"/>
<path class="st4" d="M52.6,60.1l-12.1-7c-0.9-0.5-1.2-1.6-0.7-2.5l22.9-39.6c0.4-0.7,1.3-0.9,2-0.5l12.7,7.3c0.7,0.4,0.9,1.3,0.5,2
	L55,59.5C54.5,60.3,53.4,60.6,52.6,60.1z"/>
<polygon class="st2" points="111.2,114.4 17.5,61.2 31.7,52.6 111.2,98.5 "/>
<path class="st5" d="M21.5,60.6l88.2,50.1c1.6,0.9,2.1,2.9,1.2,4.5v0c-0.9,1.6-2.9,2.2-4.5,1.2L18.2,66.4c-1.5-0.9-2.1-2.8-1.3-4.4
	l0,0C17.7,60.3,19.8,59.7,21.5,60.6z"/>
<line class="st6" x1="96" y1="23" x2="104.2" y2="27.8"/>
<path class="st2" d="M53.1,77.8v2.5c0,0.9,0.5,1.8,1.3,2.3l17.4,10.1c0.8,0.4,1.7,0.5,2.5,0.1l2.2-1.2L53.1,77.8z"/>
<line class="st7" x1="64.3" y1="15.9" x2="72.3" y2="20.5"/>
<line class="st8" x1="61.4" y1="21.3" x2="66.1" y2="24"/>
<line class="st8" x1="58.5" y1="26.6" x2="64.6" y2="30.2"/>
<line class="st8" x1="55.5" y1="31.8" x2="58.3" y2="33.4"/>
<line class="st8" x1="52.7" y1="36.7" x2="58" y2="39.8"/>
<line class="st8" x1="49.7" y1="42" x2="52" y2="43.3"/>
<path class="st9" d="M72.2,55.6L72.2,55.6c-1.4-0.8-1.9-2.7-1.1-4.1v0c0.8-1.4,2.7-1.9,4.1-1.1l0,0c1.4,0.8,1.9,2.7,1.1,4.1l0,0
	C75.5,56,73.6,56.5,72.2,55.6z"/>
<path class="st2" d="M82.7,61.9L82.7,61.9c-1.4-0.8-1.9-2.7-1.1-4.1l0,0c0.8-1.4,2.7-1.9,4.1-1.1l0,0c1.4,0.8,1.9,2.7,1.1,4.1l0,0
	C86,62.3,84.1,62.7,82.7,61.9z"/>
<path class="st2" d="M67.1,64L67.1,64c-1.4-0.8-1.9-2.7-1.1-4.1v0c0.8-1.4,2.7-1.9,4.1-1.1v0c1.4,0.8,1.9,2.7,1.1,4.1v0
	C70.3,64.3,68.5,64.8,67.1,64z"/>
<path class="st10" d="M77.8,70.1L77.8,70.1c-1.4-0.8-1.9-2.7-1.1-4.1v0c0.8-1.4,2.7-1.9,4.1-1.1v0c1.4,0.8,1.9,2.7,1.1,4.1v0
	C81.1,70.4,79.3,70.9,77.8,70.1z"/>
<line class="st11" x1="72.1" y1="43.4" x2="116" y2="68.4"/>
<path class="st7" d="M77.5,36.8c7-2.3,10.3,0.5,11.5,3.6c1.9,5,4.8,7.6,12.6,5.3c13.4-3.9,7.4,9.8,20.5,6.1"/>
<path class="st12" d="M77.5,37.8c7-2.3,9.2,3.6,10.4,6.8c3.4,9,12.8,1.7,16.7,8.9c3.3,6,10.3,0.8,13.3,5.7"/>
<line class="st11" x1="73.9" y1="44.4" x2="76.8" y2="39.4"/>
<line class="st11" x1="80.1" y1="47.9" x2="85" y2="39.4"/>
<line class="st11" x1="86.9" y1="51.9" x2="89.6" y2="47.2"/>
<line class="st11" x1="93.7" y1="55.6" x2="97.7" y2="48.8"/>
<line class="st11" x1="100.6" y1="59.6" x2="107.4" y2="48.1"/>
<line class="st11" x1="113.3" y1="66.8" x2="120.1" y2="55.5"/>
<line class="st11" x1="107.1" y1="63.4" x2="112.7" y2="53.8"/>
<path class="st10" d="M99.8,74.2l3.7,8.2c-1.2,0.5-2.4,0.8-3.7,0.8c-4.9,0-9-4-9-9c0-4.9,4-9,9-9c3.7,0,7,2.2,8.3,5.6L99.8,74.2z"/>
<path class="st9" d="M99.8,74.2l0-9c1.8,0,3.6,0.5,5,1.6c1.5,1,2.6,2.5,3.3,4.1L99.8,74.2z"/>
<path class="st2" d="M99.8,74.2l8.3-3.3c0.4,1.1,0.6,2.2,0.6,3.3c0,3.5-2.1,6.7-5.3,8.2L99.8,74.2z"/>
</svg>
