<svg xmlns="http://www.w3.org/2000/svg" viewBox="0 0 86 86" xmlns:v="https://vecta.io/nano"><defs><clipPath id="A"><path d="M58.96 60.45c5.26-5.14 8.55-12.5 8.55-20.67 0-15.54-11.91-28.14-26.6-28.14s-26.6 12.6-26.6 28.14 11.91 28.14 26.6 28.14h.21 18.59c1.05 0 1.77-1.06 1.39-2.04l-2.14-5.43z" stroke-width="0" fill="none"/></clipPath></defs><circle cx="43" cy="43" r="42" fill="#f2f2f2"/><ellipse cx="43.66" cy="75.64" rx="16.11" ry="5.44" fill="#d8d8d8"/><ellipse cx="17.4" cy="40.96" rx="8.78" ry="11.62" fill="#ffa733"/><path d="M36.07,8.08c-13.2,3.15-21.19,16.29-21.19,30.62h5.85c0-15.11,7.79-31.37,25.75-28.26,0,0,2.44-3.38-10.4-2.36Z" fill="#f29101"/><g fill="#545ec5"><ellipse cx="20.12" cy="40.96" rx="8.78" ry="11.62"/><ellipse cx="44" cy="39.78" rx="26.6" ry="28.14"/><path d="M44.2 67.92h18.59c1.05 0 1.77-1.06 1.39-2.04l-3.44-8.75L44.2 67.91z"/></g><g fill="#8b96de"><ellipse cx="40.92" cy="39.78" rx="26.6" ry="28.14"/><path d="M41.12,67.92h18.59c1.05,0,1.77-1.06,1.39-2.04l-3.44-8.75-16.54,10.78Z"/></g><path d="M32.52 9.2c2.56-1.09 5.42-1.7 8.39-1.7C56.78 7.5 69.19 18.04 71 38.69h-6.72C61.43 3.52 32.52 9.19 32.52 9.19z" fill="#ffa733"/><path d="M64.29,38.7c-1.78-15.18-9.04-28.16-25.59-29.51-2.04-.21-4.11-.2-6.17.01,8.15-1.69,17.32.45,23.3,6.48,5.95,6.05,8.2,14.74,8.47,23.02h0Z" fill="#ffca83"/><ellipse cx="66.27" cy="41.13" rx="8.78" ry="11.62" fill="#545ec5"/><path d="M77.38,40.96c0,1.51-.22,2.95-.61,4.27h0c-1.29,4.31-4.47,7.36-8.17,7.36-4.78,0-8.67-5.08-8.77-11.39v-.24c0-6.41,3.92-11.62,8.77-11.62s8.78,5.21,8.78,11.62Z" fill="#ffa733"/><ellipse cx="71" cy="40.96" rx="4.78" ry="5.61" fill="#f29101"/><ellipse cx="71.54" cy="40.96" rx="4.23" ry="5.61" fill="#ffca83"/><path d="M76.77,45.24c-1.29,4.3-4.47,7.35-8.17,7.35-4.78,0-8.67-5.08-8.77-11.39,1.36.26,2.83.77,3.62,1.64.6.85,1.78,3.27,2.41,4.16,3.26,4.6,7.61,2.52,10.91-1.76Z" fill="#f29101" opacity=".5"/><g clip-path="url(#A)"><path d="M70.4 46.03c-.16.58-3.85 13.36-21.67 14.03-.17-.75-.83-1.31-1.63-1.31h-4.51c-.93 0-1.68.75-1.68 1.68s.75 1.68 1.68 1.68h4.51s.07 0 .11-.01h.03c20.7 0 25.05-15.38 25.1-15.54l-1.93-.52z" fill="#545ec5" opacity=".4"/></g><path d="M71,44.49s-4.26,15.97-26.54,14.73" fill="none" stroke="#ffca83" stroke-width="2" stroke-miterlimit="10"/><rect x="40.55" y="56.95" width="7.86" height="3.35" rx="1.68" fill="#ffca83"/><path d="M27.29 35.07H52.9m-25.61 9.1l17.18.32" fill="none" stroke-miterlimit="10" stroke="#bcd2f9" stroke-linecap="round" stroke-width="1.92"/></svg>