<?xml version="1.0" encoding="utf-8"?>
<!-- Generator: Adobe Illustrator 24.0.1, SVG Export Plug-In . SVG Version: 6.00 Build 0)  -->
<svg version="1.1" id="Layer_3" xmlns="http://www.w3.org/2000/svg" xmlns:xlink="http://www.w3.org/1999/xlink" x="0px" y="0px"
	 width="145px" height="145px" viewBox="0 0 145 145" style="enable-background:new 0 0 145 145;" xml:space="preserve">
<style type="text/css">
	.st0{fill:#F2F2F2;}
	.st1{fill:#D8D8D8;}
	.st2{fill:#243EC6;}
	.st3{fill:#180293;}
	.st4{fill:none;stroke:#FFFFFF;stroke-width:2;stroke-linecap:round;stroke-linejoin:round;stroke-miterlimit:10;}
	.st5{fill:#2579DC;}
	.st6{fill:#DE4F03;}
	.st7{fill:#FF8C42;}
</style>
<g>
	<circle class="st0" cx="71.8" cy="73.2" r="65"/>
	<ellipse class="st1" cx="71.8" cy="123.2" rx="25" ry="10"/>
</g>
<path class="st2" d="M106,96.2L33.5,54.3c-1.7-1-2.3-3.2-1.3-5L58.7,3.3c1-1.7,3.2-2.3,5-1.3l72.5,41.9c1.7,1,2.3,3.2,1.3,5
	L111,94.9C110,96.6,107.7,97.2,106,96.2z"/>
<path class="st3" d="M102.4,102L29.8,60.1c-1.7-1-2.3-3.2-1.3-4.9L58.7,3.3l78.9,45.5l-30.3,51.9C106.3,102.4,104.1,103,102.4,102z"
	/>
<polygon class="st2" points="28.5,55.2 7.1,61.6 111.9,121.1 107.3,100.7 "/>
<path class="st3" d="M14.4,64.5c8.9-2.2,23-1.1,28.1,0.7s-10,10.3-10,10.3L14.4,64.5z"/>
<path class="st3" d="M8.3,61.9l102.6,58c1.2,0.7,1.6,2.2,0.9,3.4l0,0c-0.7,1.2-2.2,1.6-3.3,0.9L5.9,66.3c-1.1-0.6-1.6-2.1-1-3.2
	l0-0.1C5.5,61.7,7.1,61.2,8.3,61.9z"/>
<polygon class="st2" points="46.9,82.7 46.9,85.7 69,98 72,96.9 "/>
<g>
	<polyline class="st4" points="76.9,40 66.2,43.4 69.8,54.7 	"/>
	<polyline class="st4" points="88.8,65.7 99.5,62.3 95.9,51 	"/>
	<line class="st4" x1="97.5" y1="42.6" x2="70" y2="62.7"/>
</g>
<g>
	<path class="st5" d="M61,4.6c6.2,3.3,12.2,6.7,18.3,10.1l18.2,10.4l18.1,10.6l9,5.4c3,1.8,6,3.6,9,5.5c-3.1-1.6-6.1-3.4-9.2-5
		l-9.1-5.1L97.1,26L79,15.4C73,11.8,67,8.3,61,4.6z"/>
</g>
<g>
	<path class="st5" d="M70.7,97c3.4,1.7,6.7,3.5,10,5.3c3.3,1.8,6.6,3.7,9.9,5.6c3.3,1.9,6.5,3.8,9.8,5.8l4.8,3c1.6,1,3.2,2,4.8,3
		c-1.7-0.8-3.4-1.8-5-2.6l-5-2.7c-3.3-1.8-6.6-3.7-9.9-5.6c-3.3-1.9-6.5-3.8-9.8-5.8C77.1,101,73.9,99,70.7,97z"/>
</g>
<path class="st6" d="M66.7,78.6v-2.4c0-1.2-1-2.2-2.2-2.2h0c-1,0-1.8-0.7-2.1-1.6c-0.5-2-1.3-4-2.4-5.7c-0.5-0.9-0.4-1.9,0.3-2.7
	l0,0c0.8-0.8,0.8-2.2,0-3.1l-1.7-1.7c-0.8-0.8-2.2-0.8-3.1,0l0,0c-0.7,0.7-1.8,0.8-2.7,0.3c-1.8-1.1-3.7-1.9-5.7-2.4
	c-0.9-0.2-1.6-1.1-1.6-2.1v0c0-1.2-1-2.2-2.2-2.2h-2.4c-1.2,0-2.2,1-2.2,2.2v0c0,1-0.7,1.8-1.6,2.1c-2,0.5-4,1.3-5.7,2.4
	c-0.9,0.5-1.9,0.4-2.7-0.3l0,0c-0.8-0.8-2.2-0.8-3.1,0L24.2,61c-0.8,0.8-0.8,2.2,0,3.1l0,0c0.7,0.7,0.8,1.8,0.3,2.7
	c-1.1,1.8-1.9,3.7-2.4,5.7c-0.2,0.9-1.1,1.6-2.1,1.6h0c-1.2,0-2.2,1-2.2,2.2v2.4c0,1.2,1,2.2,2.2,2.2h0c1,0,1.8,0.7,2.1,1.6
	c0.5,2,1.3,4,2.4,5.7c0.5,0.9,0.4,1.9-0.3,2.7l0,0c-0.8,0.8-0.8,2.2,0,3.1l1.7,1.7c0.8,0.8,2.2,0.8,3.1,0l0,0
	c0.7-0.7,1.8-0.8,2.7-0.3c1.8,1.1,3.7,1.9,5.7,2.4c0.9,0.2,1.6,1.1,1.6,2.1v0c0,1.2,1,2.2,2.2,2.2h2.4c1.2,0,2.2-1,2.2-2.2v0
	c0-1,0.7-1.8,1.6-2.1c2-0.5,4-1.3,5.7-2.4c0.9-0.5,1.9-0.4,2.7,0.3l0,0c0.8,0.8,2.2,0.8,3.1,0l1.7-1.7c0.8-0.8,0.8-2.2,0-3.1l0,0
	c-0.7-0.7-0.8-1.8-0.3-2.7c1.1-1.8,1.9-3.7,2.4-5.7c0.2-0.9,1.1-1.6,2.1-1.6h0C65.7,80.7,66.7,79.7,66.7,78.6z"/>
<g>
	<path class="st7" d="M52,60.6c-1.1-0.2-2-0.6-3-0.9c-0.9-0.4-1.9-0.8-2.8-1.4c1.1-0.1,2.2,0.1,3.2,0.5C50.4,59.2,51.3,59.7,52,60.6
		z"/>
</g>
<g>
	<path class="st7" d="M61.4,73.4c-0.6-0.9-1-1.8-1.4-2.8c-0.4-0.9-0.7-1.9-0.9-3c0.9,0.7,1.4,1.6,1.9,2.6
		C61.3,71.3,61.6,72.3,61.4,73.4z"/>
</g>
<path class="st6" d="M37.2,45.7v-2.2c0-1.2-1-2.3-2.3-2.3h-0.1c-1,0-1.8-0.6-2.1-1.5c-0.1-0.3-0.2-0.5-0.3-0.8
	C32,38,32.1,37,32.8,36.3l0.1-0.1c0.9-0.9,0.9-2.3,0-3.2l-1.6-1.6c-0.9-0.9-2.3-0.9-3.2,0L28,31.6c-0.7,0.7-1.7,0.8-2.6,0.4
	c-0.3-0.1-0.5-0.2-0.8-0.3c-0.9-0.3-1.5-1.2-1.5-2.1l0-0.1c0-1.2-1-2.3-2.3-2.3h-2.2c-1.2,0-2.3,1-2.3,2.3v0.1c0,1-0.6,1.8-1.5,2.1
	c-0.3,0.1-0.5,0.2-0.8,0.3c-0.9,0.4-1.9,0.2-2.6-0.4l-0.1-0.1c-0.9-0.9-2.3-0.9-3.2,0l-1.6,1.6c-0.9,0.9-0.9,2.3,0,3.2l0.1,0.1
	C7.4,37,7.6,38,7.2,38.9c-0.1,0.3-0.2,0.5-0.3,0.8c-0.3,0.9-1.2,1.5-2.1,1.5H4.6c-1.2,0-2.3,1-2.3,2.3v2.2c0,1.2,1,2.3,2.3,2.3h0.1
	c1,0,1.8,0.6,2.1,1.5C7,49.7,7.1,50,7.2,50.2c0.4,0.9,0.2,1.9-0.4,2.6l-0.1,0.1c-0.9,0.9-0.9,2.3,0,3.2l1.6,1.6
	c0.9,0.9,2.3,0.9,3.2,0l0.1-0.1c0.7-0.7,1.7-0.8,2.6-0.4c0.3,0.1,0.5,0.2,0.8,0.3c0.9,0.3,1.5,1.2,1.5,2.1v0.1c0,1.2,1,2.3,2.3,2.3
	h2.2c1.2,0,2.3-1,2.3-2.3l0-0.1c0-1,0.6-1.8,1.5-2.1c0.3-0.1,0.5-0.2,0.8-0.3c0.9-0.4,1.9-0.2,2.6,0.4l0.1,0.1
	c0.9,0.9,2.3,0.9,3.2,0l1.6-1.6c0.9-0.9,0.9-2.3,0-3.2l-0.1-0.1c-0.7-0.7-0.8-1.7-0.4-2.6c0.1-0.3,0.2-0.5,0.3-0.8
	c0.3-0.9,1.2-1.5,2.1-1.5h0.1C36.2,47.9,37.2,46.9,37.2,45.7z"/>
<circle class="st4" cx="19.7" cy="44.6" r="3.3"/>
<path class="st4" d="M37.9,80.8c0,0-0.1-0.1-0.1-0.1"/>
<path class="st4" d="M36.6,77.1c0-3.1,2.5-5.7,5.7-5.7s5.7,2.5,5.7,5.7s-2.5,5.7-5.7,5.7c-0.3,0-0.6,0-1-0.1"/>
</svg>
