<?xml version="1.0" encoding="utf-8"?>
<!-- Generator: Adobe Illustrator 21.0.0, SVG Export Plug-In . SVG Version: 6.00 Build 0)  -->
<svg version="1.1" id="Layer_2" xmlns="http://www.w3.org/2000/svg" xmlns:xlink="http://www.w3.org/1999/xlink" x="0px" y="0px"
	 width="145px" height="145px" viewBox="0 0 145 145" style="enable-background:new 0 0 145 145;" xml:space="preserve">
<style type="text/css">
	.st0{fill:#F2F2F2;}
	.st1{fill:#D8D8D8;}
	.st2{fill:#243EC6;}
	.st3{fill:#180293;}
	.st4{fill:#2579DC;}
	.st5{fill:#FFFFFF;}
	.st6{fill:none;stroke:#FFFFFF;stroke-width:2;stroke-linecap:round;stroke-miterlimit:10;}
	.st7{fill:none;stroke:#DE4F03;stroke-width:8;stroke-linecap:round;stroke-linejoin:round;stroke-miterlimit:10;}
	.st8{fill:#FF8C42;}
</style>
<g>
	<circle class="st0" cx="72" cy="73" r="65"/>
	<ellipse class="st1" cx="72" cy="123" rx="25" ry="10"/>
</g>
<path class="st2" d="M50.2,46.7L50.2,46.7c-2.8-5.6-0.6-12.5,5-15.5l0,0c3.2-1.7,5.4-4.8,6-8.3v0c1.1-6.2,6.9-10.4,13.1-9.6l0,0
	c3.6,0.5,7.2-0.7,9.7-3.2l0,0c4.5-4.4,11.7-4.4,16.2-0.1l0,0c2.6,2.5,6.2,3.7,9.8,3.1l0,0c6.2-0.9,12.1,3.3,13.2,9.5l0,0
	c0.6,3.5,2.9,6.6,6.1,8.3l0,0c5.6,2.9,7.8,9.8,5.1,15.4l0,0c-1.6,3.2-1.6,7,0,10.3v0c2.8,5.6,0.6,12.5-5,15.5l0,0
	c-3.2,1.7-5.4,4.8-6,8.3v0c-1.1,6.2-6.9,10.4-13.1,9.6h0c-3.6-0.5-7.2,0.7-9.7,3.2l0,0c-4.5,4.4-11.7,4.4-16.2,0.1l0,0
	c-2.6-2.5-6.2-3.7-9.8-3.1h0c-6.2,0.9-12.1-3.3-13.2-9.5l0,0c-0.6-3.5-2.9-6.6-6.1-8.3l0,0c-5.6-2.9-7.8-9.8-5.1-15.4l0,0
	C51.8,53.7,51.8,50,50.2,46.7z"/>
<polygon class="st3" points="110,120 95.3,115 81,120 81,43 110,43 "/>
<polygon class="st3" points="66.6,116.9 57.5,105.4 41.4,102.4 79.9,35.8 105.1,50.3 "/>
<path class="st2" d="M80.8,92.2l-14.2,24.8l-9.1-11.4c0,0,6.5,1.4,12.4-2C73.1,101.7,80.8,92.2,80.8,92.2z"/>
<path class="st3" d="M47.6,48.6L47.6,48.6c-2.8-5.6-0.6-12.5,5-15.5l0,0c3.2-1.7,5.4-4.8,6-8.3l0,0c1.1-6.2,6.9-10.4,13.1-9.6l0,0
	c3.6,0.5,7.2-0.7,9.7-3.2l0,0c4.5-4.4,11.7-4.4,16.2-0.1l0,0c2.6,2.5,6.2,3.7,9.8,3.1l0,0c6.2-0.9,12.1,3.3,13.2,9.5v0
	c0.6,3.5,2.9,6.6,6.1,8.3l0,0c5.6,2.9,7.8,9.8,5.1,15.4l0,0c-1.6,3.2-1.6,7,0,10.3l0,0c2.8,5.6,0.6,12.5-5,15.5l0,0
	c-3.2,1.7-5.4,4.8-6,8.3v0c-1.1,6.2-6.9,10.4-13.1,9.6h0c-3.6-0.5-7.2,0.7-9.7,3.2l0,0c-4.5,4.4-11.7,4.4-16.2,0.1l0,0
	c-2.6-2.5-6.2-3.7-9.8-3.1l0,0c-6.2,0.9-12.1-3.3-13.2-9.5l0,0c-0.6-3.5-2.9-6.6-6.1-8.3l0,0c-5.6-2.9-7.8-9.8-5.1-15.4l0,0
	C49.2,55.6,49.2,51.9,47.6,48.6z"/>
<g>
	<path class="st4" d="M97.6,12c2.4,2.1,5.6,3.2,8.7,3c0.8-0.1,1.6-0.2,2.4-0.3c0.8,0,1.6,0,2.5,0.1c1.6,0.3,3.2,0.9,4.6,1.8
		c1.4,0.9,2.6,2.1,3.5,3.5c0.9,1.4,1.5,3,1.9,4.6c0.6,3,2.5,5.6,5.1,7.1c0.6,0.4,1.4,0.8,2.1,1.2c0.3,0.2,0.7,0.5,1,0.8
		c0.3,0.3,0.6,0.6,0.9,0.9c1.2,1.2,2.1,2.7,2.7,4.4c0.6,1.6,0.8,3.4,0.7,5.1c-0.1,0.9-0.2,1.7-0.5,2.5c-0.1,0.4-0.2,0.8-0.4,1.2
		l-0.5,1.1c-1.2,2.7-1.2,5.9,0,8.6l0.2,0.5l0.3,0.6c0.2,0.4,0.3,0.8,0.5,1.2c0.1,0.4,0.2,0.8,0.3,1.3c0.1,0.4,0.2,0.9,0.2,1.3
		c0.2,1.7,0,3.5-0.5,5.1c-0.5,1.6-1.4,3.2-2.6,4.5c-0.3,0.3-0.6,0.6-0.9,0.9c-0.3,0.3-0.6,0.6-1,0.8c-0.3,0.3-0.7,0.5-1.1,0.7
		l-0.6,0.3l-0.5,0.3c-2.5,1.5-4.4,4.1-5,7l-0.3,1.2c-0.1,0.4-0.2,0.8-0.4,1.2c-0.3,0.8-0.7,1.6-1.1,2.3c-0.9,1.5-2.1,2.7-3.5,3.7
		c-1.4,1-3,1.7-4.7,2c-0.4,0.1-0.8,0.1-1.3,0.2c-0.4,0.1-0.9,0-1.3,0c-0.8,0-1.7-0.2-2.4-0.2c-3-0.3-6.1,0.8-8.3,2.8
		c-1.2,1.1-2.6,2.1-4.2,2.7c-1.6,0.6-3.3,0.9-4.9,0.8c-1.7-0.1-3.3-0.5-4.8-1.3c-0.7-0.4-1.4-0.8-2.1-1.3c-0.6-0.5-1.2-1.1-1.8-1.6
		c-2.4-2-5.6-3-8.8-2.7c3.1-0.6,6.6,0.2,9.2,2.3c0.7,0.5,1.2,1.1,1.8,1.5c0.6,0.4,1.3,0.8,2,1.2c1.4,0.6,2.9,1,4.5,1
		c1.5,0,3.1-0.3,4.5-0.8c1.4-0.6,2.6-1.5,3.8-2.6c2.4-2.4,5.8-3.6,9.3-3.4c0.9,0.1,1.6,0.2,2.3,0.1c0.4,0,0.7,0,1.1-0.1
		c0.4,0,0.7-0.1,1.1-0.2c1.4-0.3,2.8-0.9,4-1.8c1.2-0.9,2.2-2,3-3.2c0.4-0.6,0.7-1.3,0.9-2c0.1-0.4,0.2-0.7,0.3-1.1l0.2-1.1
		c0.7-3.4,2.8-6.4,5.8-8.2l0.6-0.3l0.5-0.3c0.3-0.2,0.6-0.4,0.9-0.6c0.3-0.2,0.6-0.5,0.8-0.7c0.3-0.2,0.5-0.5,0.8-0.8
		c1-1.1,1.7-2.4,2.1-3.8c0.4-1.4,0.6-2.9,0.5-4.3c0-0.4-0.1-0.7-0.2-1.1c-0.1-0.4-0.1-0.7-0.3-1.1c-0.1-0.4-0.2-0.7-0.4-1l-0.2-0.5
		l-0.3-0.6c-1.4-3.2-1.3-6.9,0.1-10.1l0.5-1.1c0.2-0.3,0.2-0.7,0.4-1c0.2-0.7,0.3-1.4,0.4-2.2c0.1-1.5-0.1-3-0.6-4.4
		c-0.5-1.4-1.3-2.7-2.2-3.8c-0.2-0.3-0.5-0.5-0.8-0.8c-0.3-0.3-0.6-0.5-0.9-0.7c-0.6-0.5-1.2-0.8-2-1.2c-2.9-1.8-4.9-4.9-5.5-8.2
		c-0.3-1.5-0.7-3-1.6-4.3c-0.8-1.3-1.9-2.4-3.1-3.3c-1.3-0.9-2.7-1.5-4.2-1.8c-0.8-0.2-1.5-0.2-2.3-0.2c-0.8,0-1.5,0.1-2.4,0.2
		C103.1,15.7,99.8,14.3,97.6,12z"/>
</g>
<g>
	<path class="st5" d="M107.4,15.2c1.5-0.4,3-0.5,4.5-0.2c1.5,0.3,3,0.9,4.2,1.8c1.3,0.9,2.3,2.1,3.1,3.4c0.8,1.3,1.2,2.9,1.3,4.4
		c-0.9-2.9-2.6-5.3-5-7C113.2,16,110.4,15.1,107.4,15.2z"/>
</g>
<g>
	<path class="st5" d="M126.6,32.9c3.1,0.7,5.6,3.3,6.6,6.4c1,3.1,0.5,6.7-1.5,9c0.3-1.5,0.4-3,0.4-4.4c-0.1-1.4-0.3-2.8-0.7-4.1
		c-0.4-1.3-1-2.5-1.8-3.7C128.7,35.1,127.7,34,126.6,32.9z"/>
</g>
<path class="st6" d="M103,22.6c0.3,0.1,0.6,0.3,1,0.4"/>
<path class="st6" d="M117.8,72.4C108.5,86,90.3,91,75.2,83.3C58.7,75,52.1,54.9,60.4,38.4c7.4-14.6,24-21.5,39.2-17.1"/>
<path class="st6" d="M120.1,68.5c-0.2,0.4-0.4,0.8-0.6,1.2"/>
<path class="st2" d="M81,120L81,120l14-5l15,5l0.2-25.8l-5.7,1.3l-1.7,3.1C97.7,107.7,90.1,115.1,81,120z"/>
<polyline class="st7" points="81,45.8 87.6,59.5 121.7,43.1 "/>
<g>
	<path class="st8" d="M121,40.3c-1.9,1.2-3.9,2.2-5.8,3.3c-2,1.1-4,2.1-6,3c-2,1-4,1.9-6.1,2.8l-3.1,1.3c-1,0.4-2.1,0.9-3.1,1.3
		c1-0.6,1.9-1.1,2.9-1.7l2.9-1.6c2-1.1,4-2.1,6-3c2-1,4-1.9,6.1-2.8C116.8,41.9,118.9,41,121,40.3z"/>
</g>
</svg>
