<?xml version="1.0" encoding="utf-8"?>
<!-- Generator: Adobe Illustrator 21.0.0, SVG Export Plug-In . SVG Version: 6.00 Build 0)  -->
<svg version="1.1" id="Layer_3" xmlns="http://www.w3.org/2000/svg" xmlns:xlink="http://www.w3.org/1999/xlink" x="0px" y="0px"
	 width="145px" height="145px" viewBox="0 0 145 145" style="enable-background:new 0 0 145 145;" xml:space="preserve">
<style type="text/css">
	.st0{fill:#F2F2F2;}
	.st1{fill:#D8D8D8;}
	.st2{fill:#243EC6;}
	.st3{fill:#180293;}
	.st4{fill:#2579DC;}
	.st5{fill:#FFFFFF;}
	
		.st6{fill:none;stroke:#FFFFFF;stroke-width:2;stroke-linecap:round;stroke-linejoin:round;stroke-miterlimit:10;stroke-dasharray:7,6,2,5,0;}
	.st7{fill:none;stroke:#FFFFFF;stroke-width:2;stroke-linecap:round;stroke-linejoin:round;}
	
		.st8{fill:none;stroke:#FFFFFF;stroke-width:2;stroke-linecap:round;stroke-linejoin:round;stroke-dasharray:1.159,4.0565,4.636,1.159;}
	
		.st9{fill:none;stroke:#DE4F03;stroke-width:2;stroke-linecap:round;stroke-linejoin:round;stroke-miterlimit:10;stroke-dasharray:7,6,12;}
	.st10{fill:none;stroke:#DE4F03;stroke-width:2;stroke-linecap:round;stroke-linejoin:round;stroke-miterlimit:10;}
	.st11{fill:#DE4F03;}
</style>
<g>
	<circle class="st0" cx="72" cy="73" r="65"/>
	<ellipse class="st1" cx="72" cy="123" rx="25" ry="10"/>
</g>
<g>
	<g>
		<polygon class="st2" points="72,115.4 104.1,115.4 115.5,94.5 82.7,94.5 		"/>
		<path class="st3" d="M71.4,115.1L11.5,79.5c-0.9-0.6-1.3-1.8-0.7-2.7l8.6-17.5c0.6-0.9,1.8-1.3,2.7-0.7L82,94.2
			c0.9,0.6,1.3,1.8,0.7,2.7l-8.6,17.5C73.6,115.4,72.3,115.7,71.4,115.1z"/>
		<path class="st3" d="M79.8,94.3L20.5,59.3c-0.5-0.3-0.3-1,0.3-1l32.5,0.4c0.9,0,1.9,0.3,2.7,0.7l59.4,35.2c0.5,0.3,0.3,1-0.3,1
			l-31.7-0.2C82.2,95.3,80.9,95,79.8,94.3z"/>
		<g>
			<path class="st4" d="M115.2,95.6c-8.7,0.1-17.4,0.2-26.1,0.2l-3.3,0l-1.6,0c-0.5,0-1.1,0-1.7-0.1c-1.1-0.1-2.3-0.6-3.2-1.2
				l-2.8-1.7l-11.3-6.6L42.8,72.9l-11.2-6.8l-11.1-6.9l11.4,6.4l11.3,6.5l22.5,13.2l11.2,6.7l2.8,1.7c0.9,0.6,1.8,0.9,2.9,1.1
				c1,0.1,2.1,0.1,3.2,0.1l3.3,0.1C97.8,95.1,106.5,95.3,115.2,95.6z"/>
		</g>
	</g>
	<g>
		<polygon class="st2" points="83.7,92.2 116.7,92.2 127.2,72.2 94.4,71.3 		"/>
		<path class="st3" d="M83.1,91.9L23.2,56.3c-0.9-0.6-1.3-1.8-0.7-2.7L31.1,36c0.6-0.9,1.8-1.3,2.7-0.7L93.7,71
			c0.9,0.6,1.3,1.8,0.7,2.7l-8.6,17.5C85.2,92.2,84,92.5,83.1,91.9z"/>
		<path class="st3" d="M91.5,71.2L32.2,36.1c-0.5-0.3-0.3-1,0.3-1L65,35.5c0.9,0,1.9,0.3,2.7,0.7l59.4,35.2c0.5,0.3,0.3,1-0.3,1
			l-31.7-0.2C93.9,72.2,92.6,71.8,91.5,71.2z"/>
		<g>
			<path class="st4" d="M126.9,72.4c-8.7,0.1-17.4,0.2-26.1,0.2l-3.3,0l-1.6,0c-0.5,0-1.1,0-1.7-0.1c-1.1-0.1-2.3-0.6-3.2-1.2
				l-2.8-1.7l-11.3-6.6L54.5,49.7L43.3,43l-11.1-6.9l11.4,6.4l11.3,6.5l22.5,13.2l11.2,6.7l2.8,1.7c0.9,0.6,1.8,0.9,2.9,1.1
				c1,0.1,2.1,0.1,3.2,0.1l3.3,0.1C109.5,72,118.2,72.1,126.9,72.4z"/>
		</g>
	</g>
	<g>
		<polygon class="st2" points="96,69.3 129,69.3 139.5,49.3 106.7,48.4 		"/>
		<path class="st3" d="M95.4,69L35.5,33.4c-0.9-0.6-1.3-1.8-0.7-2.7l8.6-17.5c0.6-0.9,1.8-1.3,2.7-0.7L106,48.1
			c0.9,0.6,1.3,1.8,0.7,2.7l-8.6,17.5C97.5,69.3,96.3,69.6,95.4,69z"/>
		<path class="st2" d="M103.8,48.3L44.5,13.2c-0.5-0.3-0.3-1,0.3-1l32.5,0.4c0.9,0,1.9,0.3,2.7,0.7l59.4,35.2c0.5,0.3,0.3,1-0.3,1
			l-31.7-0.2C106.1,49.3,104.9,48.9,103.8,48.3z"/>
		<g>
			<path class="st5" d="M139.1,49.5c-8.7,0.1-17.4,0.2-26.1,0.2l-3.3,0l-1.6,0c-0.5,0-1.1,0-1.7-0.1c-1.1-0.1-2.3-0.6-3.2-1.2
				l-2.8-1.7l-11.3-6.6L66.8,26.8l-11.2-6.8l-11.1-6.9l11.4,6.4l11.3,6.5l22.5,13.2l11.2,6.7l2.8,1.7c0.9,0.6,1.8,0.9,2.9,1.1
				c1,0.1,2.1,0.1,3.2,0.1l3.3,0.1C121.7,49.1,130.4,49.2,139.1,49.5z"/>
		</g>
	</g>
	<line class="st6" x1="45.6" y1="21.7" x2="74.6" y2="39.4"/>
	<g>
		<g>
			<line class="st7" x1="22.5" y1="67.4" x2="25.4" y2="69.3"/>
			<line class="st8" x1="29.4" y1="71.7" x2="38.3" y2="77.1"/>
			<line class="st7" x1="38.8" y1="77.4" x2="41.8" y2="79.3"/>
		</g>
	</g>
	<line class="st9" x1="33.2" y1="44.9" x2="62.1" y2="62.7"/>
	<line class="st10" x1="30.7" y1="48.7" x2="44.9" y2="57.5"/>
	<path class="st11" d="M99.8,42.4L60.5,19.2c-0.3-0.2-0.2-0.7,0.2-0.7l21.5,0.2c0.6,0,1.2,0.2,1.8,0.5l39.4,23.3
		c0.3,0.2,0.2,0.7-0.2,0.7l-21-0.1C101.3,43.1,100.5,42.8,99.8,42.4z"/>
	<path class="st3" d="M69,24.2l30.8,18.2c0.7,0.4,1.6,0.7,2.4,0.7l9.4,0.1l2.2-3.6l-44-17.1L69,24.2z"/>
	<path class="st2" d="M97.4,38.9L69.9,22.7c-0.2-0.1-0.1-0.5,0.1-0.5l15.1,0.2c0.4,0,0.9,0.1,1.2,0.3L113.9,39
		c0.2,0.1,0.1,0.5-0.1,0.5l-14.7-0.1C98.5,39.4,97.9,39.2,97.4,38.9z"/>
</g>
<g>
	<path class="st3" d="M124.8,58.9c-1.7,4.2-3.5,8.2-5.4,12.3c-1.9,4.1-3.9,8-5.9,12c-2,4-4.1,7.9-6.3,11.8
		c-2.2,3.9-4.4,7.8-6.8,11.6c1.7-4.2,3.5-8.2,5.4-12.3c1.9-4.1,3.9-8,5.9-12c2-4,4.1-7.9,6.3-11.8C120.2,66.5,122.4,62.7,124.8,58.9
		z"/>
</g>
<g>
	<path class="st3" d="M119.2,59.4c-1.7,4.2-3.5,8.3-5.4,12.4c-1.9,4.1-3.9,8.1-5.9,12.2c-2.1,4-4.1,8-6.3,12
		c-2.2,4-4.4,7.9-6.8,11.7c1.7-4.2,3.5-8.3,5.4-12.4c1.9-4.1,3.9-8.1,5.9-12.1c2.1-4,4.1-8,6.3-11.9
		C114.5,67.1,116.8,63.2,119.2,59.4z"/>
</g>
<g>
	<path class="st3" d="M113.5,59.4c-1.7,4.2-3.5,8.3-5.4,12.4c-1.9,4.1-3.9,8.1-5.9,12.2c-2.1,4-4.1,8-6.3,12
		c-2.2,4-4.4,7.9-6.8,11.7c1.7-4.2,3.5-8.3,5.4-12.4c1.9-4.1,3.9-8.1,5.9-12.1c2.1-4,4.1-8,6.3-11.9C108.8,67.1,111,63.2,113.5,59.4
		z"/>
</g>
</svg>
