<svg xmlns="http://www.w3.org/2000/svg" viewBox="0 0 150 150"><defs><style>.cls-1{fill:#f2f2f2;}.cls-2{fill:#d8d8d8;}.cls-3{fill:#b69bc4;}.cls-4{fill:#ac86bc;}.cls-5{fill:#4a2775;}.cls-6{fill:none;}</style></defs><title>Asset 15</title><g id="Layer_2" data-name="Layer 2"><g id="veicle"><circle class="cls-1" cx="75" cy="75" r="65"/><ellipse class="cls-2" cx="74.82" cy="125.81" rx="25" ry="10"/><path class="cls-3" d="M49.56,78.92a36.19,36.19,0,0,1-11.5-1.86,4.64,4.64,0,0,1,3.19-8.72c.2.07,11,3.82,19-1.8,6.56-4.62,9.88-14.38,9.88-29a4.65,4.65,0,1,1,9.29,0c0,17.88-4.68,30.21-13.91,36.65A27.6,27.6,0,0,1,49.56,78.92Z"/><path class="cls-3" d="M49.56,102.89A36.19,36.19,0,0,1,38.06,101a4.64,4.64,0,0,1,3.19-8.72c.2.07,11,3.83,19-1.8,6.56-4.61,9.88-14.37,9.88-29a4.65,4.65,0,0,1,9.29,0c0,17.88-4.68,30.21-13.91,36.65A27.6,27.6,0,0,1,49.56,102.89Z"/><path class="cls-3" d="M100.09,78.92a27.6,27.6,0,0,1-16-4.73c-9.23-6.44-13.91-18.77-13.91-36.65a4.65,4.65,0,1,1,9.29,0c0,14.62,3.32,24.38,9.88,29,8,5.65,18.94,1.83,19.05,1.8a4.64,4.64,0,0,1,3.19,8.72A36.19,36.19,0,0,1,100.09,78.92Z"/><path class="cls-3" d="M100.09,102.89a27.6,27.6,0,0,1-16-4.73c-9.23-6.44-13.91-18.77-13.91-36.65a4.65,4.65,0,0,1,9.29,0c0,14.63,3.32,24.39,9.88,29,8,5.66,18.94,1.84,19.05,1.8a4.64,4.64,0,0,1,3.19,8.72A36.19,36.19,0,0,1,100.09,102.89Z"/><path class="cls-4" d="M53.11,71.44a4.8,4.8,0,0,1-.5-2,27.3,27.3,0,0,1-11.36-1.09,4.64,4.64,0,0,0-3.19,8.72,36.19,36.19,0,0,0,11.5,1.86,28.14,28.14,0,0,0,14.38-3.7C63.9,75,55.68,76.71,53.11,71.44Z"/><path class="cls-4" d="M52.23,93.45a27.25,27.25,0,0,1-11-1.14A4.64,4.64,0,0,0,38.06,101a36.19,36.19,0,0,0,11.5,1.86,27.6,27.6,0,0,0,16-4.73l.19-.13C65.5,97.84,54.37,99.2,52.23,93.45Z"/><path class="cls-4" d="M114.34,71.12a4.64,4.64,0,0,0-5.94-2.78,27.59,27.59,0,0,1-10.9,1.15,10.21,10.21,0,0,1-11.65,5.82,28.21,28.21,0,0,0,14.24,3.61,36.19,36.19,0,0,0,11.5-1.86A4.64,4.64,0,0,0,114.34,71.12Z"/><path class="cls-4" d="M114.34,95.09a4.66,4.66,0,0,0-5.94-2.78,27.78,27.78,0,0,1-9,1.28,5.49,5.49,0,0,1-.7,1.1,12.75,12.75,0,0,1-14.47,3.6,27.69,27.69,0,0,0,15.81,4.6,36.19,36.19,0,0,0,11.5-1.86A4.63,4.63,0,0,0,114.34,95.09Z"/><path class="cls-4" d="M87.46,37.06,76.25,17.36a1.4,1.4,0,0,0-2.38,0L62.6,37.06a1.35,1.35,0,0,0,1.15,2H86.24A1.37,1.37,0,0,0,87.46,37.06Z"/><path class="cls-3" d="M75,111.64a5.57,5.57,0,0,1-5.57-5.57V30.61a5.57,5.57,0,1,1,11.14,0v75.46A5.58,5.58,0,0,1,75,111.64Z"/><path class="cls-4" d="M69.46,104.81v1.26a5.57,5.57,0,1,0,11.14,0v-2.81C79.35,103.18,70.74,105.08,69.46,104.81Z"/><path class="cls-3" d="M87.46,35.7,76.25,16a1.4,1.4,0,0,0-2.38,0L62.6,35.7a1.35,1.35,0,0,0,1.15,2H86.24A1.37,1.37,0,0,0,87.46,35.7Z"/><rect class="cls-3" x="28.43" y="61.46" width="22.47" height="22.47" rx="5.73"/><rect class="cls-3" x="99.25" y="61.46" width="22.47" height="22.47" rx="5.73"/><rect class="cls-3" x="99.25" y="85.56" width="22.47" height="22.47" rx="5.73"/><rect class="cls-3" x="63.59" y="106.31" width="22.47" height="22.47" rx="5.73"/><rect class="cls-3" x="28.43" y="85.56" width="22.47" height="22.47" rx="5.73"/><rect class="cls-5" x="32.7" y="65.73" width="13.93" height="13.93"/><rect class="cls-4" x="32.7" y="89.63" width="13.93" height="13.93"/><rect class="cls-5" x="32.7" y="89.63" width="13.93" height="13.93"/><rect class="cls-5" x="103.52" y="65.73" width="13.93" height="13.93"/><rect class="cls-5" x="103.52" y="89.63" width="13.93" height="13.93"/><rect class="cls-5" x="67.86" y="110.58" width="13.93" height="13.93"/><rect class="cls-6" width="150" height="150"/></g></g></svg>