<svg xmlns="http://www.w3.org/2000/svg" viewBox="0 0 150 150"><defs><style>.cls-1{fill:#f2f2f2;}.cls-2{fill:#e06541;}.cls-3{fill:#d8d8d8;}.cls-4{fill:#3d1e5f;}.cls-5,.cls-8{fill:#4a2775;}.cls-6{fill:#ac86bc;}.cls-7{fill:#b69bc4;}.cls-8{opacity:0.3;}.cls-9{fill:#c9afd5;}.cls-10{fill:none;}</style></defs><title>Asset 14</title><g id="Layer_2" data-name="Layer 2"><g id="veicle"><circle class="cls-1" cx="75" cy="82.25" r="65"/><path class="cls-2" d="M53.8,24.94a24.77,24.77,0,0,1,9.3-7.6c.9-.4,1.9-.8,2.8-1.2s2-.6,3-.8,2-.3,3-.5l3.1-.2a27.26,27.26,0,0,1,11.9,2.7,25.57,25.57,0,0,1,9.3,7.6A38.51,38.51,0,0,0,86,19.54a34.85,34.85,0,0,0-11-1.9l-2.8.1-2.8.4c-.9.2-1.8.4-2.8.6l-2.6.8A38.51,38.51,0,0,0,53.8,24.94Z"/><path class="cls-2" d="M61.5,30.64a14.31,14.31,0,0,1,5.7-5.2,17.6,17.6,0,0,1,7.8-1.9,16.35,16.35,0,0,1,7.8,1.9,13.68,13.68,0,0,1,5.7,5.2,27.59,27.59,0,0,0-6.6-3,23,23,0,0,0-6.9-1,23.52,23.52,0,0,0-6.9,1A27.59,27.59,0,0,0,61.5,30.64Z"/><path class="cls-2" d="M46,19.14a35.39,35.39,0,0,1,12.9-10c1.3-.6,2.6-1,3.9-1.5s2.7-.7,4-1.1,2.7-.4,4.1-.7l4.1-.2,4.2.2c1.4.2,2.8.4,4.1.7s2.7.7,4,1.1l3.9,1.5a35.16,35.16,0,0,1,12.9,10,49.6,49.6,0,0,0-13.8-7.8c-1.3-.4-2.5-.8-3.8-1.2s-2.5-.6-3.8-.8l-3.8-.5L75,8.64l-3.9.2-3.8.5c-1.3.3-2.6.5-3.8.8s-2.5.8-3.7,1.2A49.6,49.6,0,0,0,46,19.14Z"/><path class="cls-2" d="M96.2,25.94a1,1,0,0,1-.71-.29,29,29,0,0,0-41,0,1,1,0,0,1-1.42,0,1,1,0,0,1,0-1.41,31,31,0,0,1,43.82,0,1,1,0,0,1,0,1.41A1,1,0,0,1,96.2,25.94Z"/><path class="cls-2" d="M88.5,31.64a1,1,0,0,1-.71-.29,18.11,18.11,0,0,0-25.58,0,1,1,0,0,1-1.42,0,1,1,0,0,1,0-1.41,20.11,20.11,0,0,1,28.42,0,1,1,0,0,1,0,1.41A1,1,0,0,1,88.5,31.64Z"/><path class="cls-2" d="M104,20.14a1,1,0,0,1-.71-.29,40.05,40.05,0,0,0-56.58,0,1,1,0,0,1-1.42,0,1,1,0,0,1,0-1.41,42.07,42.07,0,0,1,59.42,0,1,1,0,0,1,0,1.41A1,1,0,0,1,104,20.14Z"/><ellipse class="cls-3" cx="75" cy="133.14" rx="25" ry="10"/><path class="cls-4" d="M90,133.14H60a16,16,0,0,1-16-16v-59a16,16,0,0,1,16-16H90a16,16,0,0,1,16,16v59A16,16,0,0,1,90,133.14Z"/><path class="cls-5" d="M94,128.14H56a12,12,0,0,1-12-12v-67a12,12,0,0,1,12-12H94a12,12,0,0,1,12,12v67A12,12,0,0,1,94,128.14Z"/><path class="cls-6" d="M96,126.14H54a10,10,0,0,1-10-10v-69a10,10,0,0,1,10-10H96a10,10,0,0,1,10,10v69A10,10,0,0,1,96,126.14Z"/><circle class="cls-5" cx="74.85" cy="38.26" r="5.39"/><path class="cls-7" d="M75,80.14c13.3,0,24.9-6.5,31-16.2V45.14a10,10,0,0,0-10-10H54a10,10,0,0,0-10,10v18.8C50.1,73.64,61.7,80.14,75,80.14Z"/><path class="cls-5" d="M65.6,127.24a8.7,8.7,0,0,1,17.4,0"/><circle class="cls-8" cx="75" cy="71.14" r="21"/><circle class="cls-5" cx="75" cy="70.14" r="21"/><circle class="cls-9" cx="75" cy="70.14" r="11.1"/><polygon class="cls-9" points="74.8 52.24 71.9 55.15 77.8 55.15 74.8 52.24"/><polygon class="cls-9" points="74.8 88.14 77.8 85.25 71.9 85.25 74.8 88.14"/><polygon class="cls-9" points="92.8 70.14 89.8 67.25 89.8 73.14 92.8 70.14"/><polygon class="cls-9" points="56.8 70.14 59.8 73.14 59.8 67.25 56.8 70.14"/><circle class="cls-2" cx="65" cy="108.14" r="2"/><circle class="cls-2" cx="75" cy="108.14" r="2"/><circle class="cls-2" cx="85" cy="108.14" r="2"/><rect class="cls-10" width="150" height="150"/></g></g></svg>