<svg xmlns="http://www.w3.org/2000/svg" viewBox="0 0 150 150"><defs><style>.cls-1{fill:#f2f2f2;}.cls-2{fill:#d8d8d8;}.cls-3,.cls-6{fill:#c9afd5;}.cls-4,.cls-7{fill:#ac86bc;}.cls-5{fill:none;}.cls-10,.cls-6,.cls-7,.cls-8,.cls-9{fill-rule:evenodd;}.cls-8{fill:#d7c6e0;}.cls-9{fill:#b69bc4;}.cls-10,.cls-12{fill:#4a2775;}.cls-11{opacity:0.65;}</style></defs><title>Asset 13</title><g id="Layer_2" data-name="Layer 2"><g id="veicle"><circle class="cls-1" cx="75" cy="82.25" r="65"/><ellipse class="cls-2" cx="76.02" cy="129.48" rx="40.28" ry="6.65"/><path class="cls-3" d="M100.36,130.3h8.11a3.52,3.52,0,0,0,3.47-4.13l-3.58-18.55-9,1.14L96.93,126A3.51,3.51,0,0,0,100.36,130.3Z"/><path class="cls-4" d="M99,124c1.09-1.8.32-15.24.32-15.24L96.93,126a3.51,3.51,0,0,0,3.43,4.29h8.11a3.52,3.52,0,0,0,3.47-4.13l-.16-.83C108,127.33,102.7,126.22,99,124Z"/><rect class="cls-5" width="150" height="150"/><path class="cls-3" d="M64.45,130.18H73a3.72,3.72,0,0,0,3.66-4.37L72.9,106.2l-9.55,1.2-2.53,18.24A3.72,3.72,0,0,0,64.45,130.18Z"/><path class="cls-4" d="M63,123.52c1.3-3.17,1.29-7.53,1.29-9.64,4.85,1,7-.11,9.61-2.47l-1-5.21-9.55,1.2-2.53,18.24a3.72,3.72,0,0,0,3.63,4.54H73a3.72,3.72,0,0,0,3.66-4.37l-.17-.87C72.56,127.05,66.92,125.87,63,123.52Z"/><path class="cls-6" d="M106.08,38.78s19.75-6.8,24.55-1.22-2.25,13.26-6.22,16.24h0a52.89,52.89,0,0,0-18.33-15Z"/><path class="cls-7" d="M130.63,37.56c4.81,5.57-2.25,13.26-6.22,16.24h0A52.13,52.13,0,0,0,113.16,43h0s11.7-10.65,17.47-5.46Z"/><path class="cls-7" d="M78.07,29.84c29.51,0,53.44,20.18,53.44,45.06S107.58,120,78.07,120s-53.44-20.17-53.44-45S48.56,29.84,78.07,29.84Z"/><path class="cls-6" d="M78.07,29.84c29.51,0,53.44,20.18,53.44,45.06,0,26.61-23.75,41.58-53.26,41.58S24.63,99.78,24.63,74.9,48.56,29.84,78.07,29.84Z"/><path class="cls-7" d="M121.57,71.25h10.08l.88,23.7-11,3c-4.36,0-7.89-6-7.89-13.36s3.53-13.36,7.89-13.36Z"/><path class="cls-6" d="M122,71.25h.27l9-1.92s8.54,20.5,3.57,24.55C131.12,96.9,122,98,122,98c-4.35,0-7.88-6-7.88-13.36s3.53-13.36,7.88-13.36Z"/><path class="cls-8" d="M127.68,70.1l-5.41,1.16H122c-3.81,0-7,4.6-7.72,10.71C116.62,76.27,121.74,72.38,127.68,70.1Z"/><path class="cls-9" d="M114.85,90.18c1.24,4.59,4,7.79,7.15,7.79,0,0,9.12-1.07,12.8-4.08a3.57,3.57,0,0,0,1-1.51C131,99.92,115.72,91.56,114.85,90.18Z"/><path class="cls-7" d="M130.71,69.34c4.35,0,8.16,7.89,8.16,15.27S133.32,95,131.57,95c-4.35,0-8.46-3-8.46-10.35s3.25-15.27,7.6-15.27l.28,1.91Z"/><path class="cls-6" d="M131.23,69.34c4.35,0,8.16,7.89,8.16,15.27S133.84,95,132.09,95c-4.35,0-8.46-3-8.46-10.35s3.25-15.27,7.6-15.27l.28,1.91Z"/><path class="cls-7" d="M97.73,42.69s-9.16-9.88-18-6.81-4.28,18.84-.31,21.82h0a52.94,52.94,0,0,1,18.32-15Z"/><path class="cls-9" d="M79.41,57.7a6.51,6.51,0,0,1-5.53-1.59c-2.49-2.31-6.28-13.48,4-19.25h0C71.61,41.4,75.76,55,79.41,57.7Z"/><path class="cls-7" d="M135.18,76c1.22,0,2.2,3.1,2.2,6.92s-1,6.91-2.2,6.91S133,86.78,133,83,134,76,135.18,76Z"/><path class="cls-7" d="M129,76c1.22,0,2.2,3.1,2.2,6.92s-1,6.91-2.2,6.91-2.19-3.09-2.19-6.91S127.82,76,129,76Z"/><path class="cls-7" d="M95,34.16a49.66,49.66,0,0,0-33.49-.11l2.64,1.54a47.62,47.62,0,0,1,27.82,0l3-1.39Z"/><path class="cls-10" d="M103.61,64.67a2.94,2.94,0,1,0,2.94-2.94A2.94,2.94,0,0,0,103.61,64.67Z"/><path class="cls-10" d="M121.29,64.67a2.94,2.94,0,1,0,2.94-2.94A2.94,2.94,0,0,0,121.29,64.67Z"/><path class="cls-3" d="M17.57,67.67a9.39,9.39,0,0,1-1.41-4.79c0-.48,0-1,0-1.56a10.91,10.91,0,0,1-1.71-1.25c-2.74-2.41-4.11-5.36-3.77-8.1a1.66,1.66,0,1,1,3.3.41c-.29,2.32,1.77,4.41,2.67,5.2l.06.05a11.21,11.21,0,0,1,1.86-3.7,5.67,5.67,0,0,1,3.06-2.18,3.71,3.71,0,0,1,4.25,1.77c1,1.94-.27,3.92-.73,4.66-1.13,1.8-2.47,3.53-4.65,4a4.88,4.88,0,0,1-1,.11c0,.12,0,.25,0,.37a6.15,6.15,0,0,0,.85,3.16,3.43,3.43,0,0,0,6.13-.92,1.67,1.67,0,0,1,3.19,1,6.74,6.74,0,0,1-10.6,3.38A6.59,6.59,0,0,1,17.57,67.67ZM22.42,55a2.59,2.59,0,0,0-1.24,1,7.93,7.93,0,0,0-1.38,3c1-.23,1.77-1.34,2.51-2.51S22.89,55,22.9,55A.71.71,0,0,0,22.42,55Z"/><g class="cls-11"><path class="cls-12" d="M50.1,96l.77-5.67a16.37,16.37,0,0,1-8.21-3.64l1.85-3.58a15,15,0,0,0,7.71,3.5c4,.54,7-1.41,7.39-4.61s-1.5-5.3-5.41-7.55c-5.38-3-8.55-6.08-7.89-11,.63-4.66,4.4-7.76,9.65-7.91l.77-5.69,3.46.47-.74,5.46a14.85,14.85,0,0,1,7,3l-1.9,3.52a13.53,13.53,0,0,0-6.78-2.86c-4.3-.58-6.27,1.79-6.57,4-.4,2.92,1.47,4.67,6.06,7.35,5.43,3.13,7.94,6.45,7.26,11.46-.6,4.44-4.23,8.19-10.11,8.37l-.79,5.85Z"/></g><path class="cls-3" d="M83.13,132.34h8.58A3.72,3.72,0,0,0,95.38,128l-3.79-19.62L82,109.56,79.5,127.8A3.73,3.73,0,0,0,83.13,132.34Z"/><path class="cls-4" d="M95.38,128l-.51-2.61c-2.37,7.47-9.43,4.44-13.52,2.39-1.91-1.4-.07-7.2,1-11.41a5.13,5.13,0,0,1-.86.09h0c-.12,0-.24,0-.36,0L79.5,127.8a3.73,3.73,0,0,0,3.63,4.54h8.58A3.72,3.72,0,0,0,95.38,128Z"/><path class="cls-3" d="M45.76,132.34h8.58A3.71,3.71,0,0,0,58,128l-3.78-19.62-10.43-3.78L42.13,127.8A3.72,3.72,0,0,0,45.76,132.34Z"/><path class="cls-4" d="M45.39,126.69c-1.84-5.51-1.27-12.61-.4-18.34a4.41,4.41,0,0,1-1.44-1.11L42.13,127.8a3.72,3.72,0,0,0,3.63,4.54h8.58a3.7,3.7,0,0,0,3.5-2.51C52.6,128.91,46.43,131.9,45.39,126.69Z"/></g></g></svg>