<svg xmlns="http://www.w3.org/2000/svg" viewBox="0 0 150 150"><defs><style>.cls-1{fill:#f2f2f2;}.cls-2{fill:#d8d8d8;}.cls-12,.cls-3{fill:none;}.cls-4{fill:#e06542;}.cls-5{fill:#cf563a;}.cls-6,.cls-7{fill:#efd7cb;}.cls-7{font-size:18.02px;font-family:MuseoSans-500, Museo Sans;font-weight:500;}.cls-8{letter-spacing:-0.02em;}.cls-9{letter-spacing:0.01em;}.cls-10{fill:#c9afd5;}.cls-11{fill:#ac86bc;}.cls-12{stroke:#3d1e5f;stroke-linecap:round;stroke-linejoin:round;stroke-width:2px;}.cls-13{fill:#3d1e5f;}</style></defs><title>Asset 16</title><g id="Layer_2" data-name="Layer 2"><g id="veicle"><circle class="cls-1" cx="75" cy="75" r="65"/><ellipse class="cls-2" cx="74.82" cy="130.08" rx="25" ry="5.73"/><rect class="cls-3" width="150" height="150"/><path class="cls-4" d="M91.31,92.19c0-23-23.25-40.67-47.58-30.69A30.63,30.63,0,0,0,27.18,78c-4.41,10.54-3.59,20.84.58,29.19a1.28,1.28,0,0,0,.11.24l.06.09c.27.53.56,1.06.86,1.57,7.22,12.57-2.69,16.75-1.15,16.75,0,0,34.43-.15,34.79-.41A33.55,33.55,0,0,0,91.31,92.19Z"/><path class="cls-4" d="M79.21,60.16c-10.95-7.34-24.57-8.54-37.37-3.28A35.71,35.71,0,0,0,22.57,76c-4.66,11.13-4.44,22.9.62,33.16a5.56,5.56,0,0,0,.39.77c.29.55.58,1.08.88,1.58,3.71,6.47,1.31,8.79,0,10-2.43,2.35-2.23,4.58-1.64,6a5.12,5.12,0,0,0,4.82,3.17c24.71-.11,32.48-.14,35.45-.54v.08A38.54,38.54,0,0,0,79.21,60.16Z"/><path class="cls-5" d="M36.89,59.4A35.8,35.8,0,0,0,22.57,76a40.05,40.05,0,0,0-1.7,27.28C21.15,87.27,25.93,71.51,36.89,59.4Z"/><path class="cls-5" d="M49.36,78.65c2,8,7.77,14.17,14.9,18.06C74.52,102.3,85,102.15,95.49,100a38.51,38.51,0,0,0-43-46C48.17,60.74,47.45,71.05,49.36,78.65Z"/><path class="cls-6" d="M57.77,123.22a.5.5,0,0,1,0-1A29.67,29.67,0,1,0,28.11,92.55a.5.5,0,0,1-.5.5.5.5,0,0,1-.5-.5,30.66,30.66,0,1,1,30.66,30.67Z"/><path class="cls-6" d="M55.1,91.4A2.63,2.63,0,1,0,59.89,91a2.59,2.59,0,0,0-2.28-1.36c-1.29-1.57-6.22-7.11-6.85-6.66S54,89.71,55.1,91.4Z"/><circle class="cls-6" cx="57.59" cy="92.24" r="1.35"/><path class="cls-6" d="M56,94.35a2.63,2.63,0,1,0-.92-2.94c-1.88.75-19.15,6.35-18.91,7.1S54.08,94.87,56,94.35Z"/><circle class="cls-4" cx="57.59" cy="92.24" r="1.35"/><path class="cls-6" d="M57.45,68.93a.5.5,0,0,1-.5-.5v-6a.5.5,0,0,1,.5-.5.51.51,0,0,1,.5.5v6A.5.5,0,0,1,57.45,68.93Z"/><path class="cls-6" d="M57.45,123.19a.5.5,0,0,1-.5-.5v-6a.5.5,0,0,1,.5-.5.51.51,0,0,1,.5.5v6A.5.5,0,0,1,57.45,123.19Z"/><path class="cls-6" d="M87.28,92.73h-6a.5.5,0,0,1,0-1h6a.5.5,0,0,1,0,1Z"/><path class="cls-6" d="M33.64,93.05h-6a.5.5,0,0,1-.5-.5.5.5,0,0,1,.5-.5h6a.5.5,0,0,1,.5.5A.5.5,0,0,1,33.64,93.05Z"/><path class="cls-6" d="M78.54,113.83a.5.5,0,0,1-.35-.15l-4.27-4.27a.5.5,0,0,1,0-.7.5.5,0,0,1,.71,0L78.9,113a.5.5,0,0,1,0,.7A.51.51,0,0,1,78.54,113.83Z"/><path class="cls-6" d="M40.62,75.9a.51.51,0,0,1-.36-.15L36,71.48a.5.5,0,0,1,0-.7.5.5,0,0,1,.71,0L41,75.05a.5.5,0,0,1-.35.85Z"/><path class="cls-6" d="M74.27,75.9a.5.5,0,0,1-.35-.85l4.27-4.27a.5.5,0,0,1,.71,0,.5.5,0,0,1,0,.7l-4.27,4.27A.51.51,0,0,1,74.27,75.9Z"/><text class="cls-7" transform="translate(33.14 113.45)"><tspan class="cls-8">2</tspan><tspan x="10" y="0">4</tspan><tspan class="cls-9" x="20.92" y="0">/</tspan><tspan x="28.31" y="0">7</tspan></text><path class="cls-10" d="M126.39,77.63c.31-.54.61-1.08.9-1.63a6.15,6.15,0,0,0,.43-.85c5.18-10.51,5.4-22.56.64-34a36.78,36.78,0,0,0-19.82-19.7c-13.12-5.38-27.08-4.15-38.31,3.38a39.54,39.54,0,0,0,16.51,72h0c3.8.52,11.68.66,19.11.66,7.8,0,15.09-.15,16.61-.19a6.11,6.11,0,0,0,5.62-3.8c.58-1.43,1.1-4.26-1.88-7.14C125,85.21,123.08,83.39,126.39,77.63Z"/><path class="cls-11" d="M58.57,57.68c1.65-13,8.88-24.31,19.12-32.31,6.67-5.21,14.16-6.68,21.89-6.5A39.52,39.52,0,0,0,71.27,91.21C60.71,83.74,57,70.14,58.57,57.68Z"/><path class="cls-12" d="M68.79,60.82s.58-25.06,24.7-25.06S118,60.82,118,60.82s.74,9.31-5.72,9.31h-10.5"/><path class="cls-12" d="M93.75,79.81a19,19,0,1,1,19-19"/><circle class="cls-13" cx="102.31" cy="70.36" r="3.99"/><path class="cls-13" d="M71.73,60.06c0,3,.57,5.51-2.47,5.51a5.52,5.52,0,1,1,0-11C72.3,54.54,71.73,57,71.73,60.06Z"/></g></g></svg>