<svg xmlns="http://www.w3.org/2000/svg" viewBox="0 0 206.33 211.18"><defs><style>.cls-1{fill:#f2f2f2;}.cls-2{fill:#d8d8d8;}.cls-3{fill:#aa85bb;}.cls-4{fill:#e06542;}.cls-5{fill:#cf5135;}.cls-6{fill:#fff;}.cls-7{fill:#c8aed4;}.cls-8{fill:#e97f67;}</style></defs><title>Asset 1</title><g id="Layer_2" data-name="Layer 2"><g id="Layer_4" data-name="Layer 4"><circle class="cls-1" cx="103.17" cy="108.01" r="103.17"/><ellipse class="cls-2" cx="103.41" cy="188.96" rx="39.68" ry="15.87" transform="translate(-0.57 0.31) rotate(-0.17)"/><path class="cls-3" d="M7.83,71.76a12.64,12.64,0,0,0,2.08,7l44.64,68.11a12.7,12.7,0,0,0,21.24-13.92L36.56,73.06l12.3-13.41A12.7,12.7,0,1,0,30.15,42.48l-19,20.69A12.69,12.69,0,0,0,7.83,71.76Z"/><circle class="cls-4" cx="110.59" cy="51.58" r="51.58"/><path class="cls-5" d="M113.64,87.43a34.15,34.15,0,0,0,16.43-64.06,3.5,3.5,0,1,0-3.38,6.12,27.15,27.15,0,1,1-26.28,0A3.5,3.5,0,1,0,97,23.42,34.15,34.15,0,0,0,110.63,87.3C111.64,87.38,112.64,87.43,113.64,87.43Z"/><path class="cls-5" d="M113.47,60.94a3.5,3.5,0,0,0,3.5-3.5V16.89a3.5,3.5,0,0,0-7,0V57.44A3.5,3.5,0,0,0,113.47,60.94Z"/><path class="cls-6" d="M110.53,85A34.15,34.15,0,0,0,127,20.89,3.5,3.5,0,1,0,123.58,27a27.16,27.16,0,1,1-26.28,0,3.5,3.5,0,0,0-3.4-6.12,34.15,34.15,0,0,0,13.62,63.88C108.53,84.9,109.53,85,110.53,85Z"/><path class="cls-6" d="M110.36,58.46a3.5,3.5,0,0,0,3.5-3.5V14.41a3.5,3.5,0,1,0-7,0V55A3.5,3.5,0,0,0,110.36,58.46Z"/><path class="cls-7" d="M31.55,70.88c0,31.29,12.31,49.66,23.61,66.51,1.37,2.06,2.76,4.13,4.12,6.22a12.7,12.7,0,0,0,21.28-13.86c-1.42-2.18-2.87-4.34-4.31-6.49C60.77,100.16,47.4,80.21,65.78,23.17a12.7,12.7,0,0,0-24.17-7.79C34.41,37.73,31.55,55.8,31.55,70.88Z"/><path class="cls-7" d="M92.23,165.14A15.88,15.88,0,0,0,118.3,177.3c30-25.19,37.62-43.3,42.64-55.29,3.22-7.67,3.87-9,8.06-11.11a15.87,15.87,0,0,0-14.28-28.35c-14.78,7.45-19.18,17.94-23.06,27.2C127.37,120,122,132.74,97.9,153A15.85,15.85,0,0,0,92.23,165.14Z"/><path class="cls-7" d="M136.74,188.86l-16-39.63s13.24-40.61,8.21-34c-20.51,26.9-52.74,5.58-65.49-13.43-4.53-6.74-22,25.45-22,25.45l28.64,61.83s12.72,9.48,33.36,9.42C127.25,198.41,136.74,188.86,136.74,188.86Z"/><path class="cls-7" d="M32.72,87.73c1.82,12.6,3.05,26.39,8.72,39.5,9.94,1.08,10.36-4.71,10.06-7.23s-8.8-16.13-8.8-16.13Z"/><path class="cls-8" d="M152.24,21.15A51.58,51.58,0,0,0,71.81,85.59a51.58,51.58,0,1,1,80.43-64.44Z"/></g></g></svg>