<?xml version="1.0" encoding="utf-8"?>
<!-- Generator: Adobe Illustrator 21.0.0, SVG Export Plug-In . SVG Version: 6.00 Build 0)  -->
<svg version="1.1" id="Layer_3" xmlns="http://www.w3.org/2000/svg" xmlns:xlink="http://www.w3.org/1999/xlink" x="0px" y="0px"
	 width="140px" height="140px" viewBox="0 0 140 140" style="enable-background:new 0 0 140 140;" xml:space="preserve">
<style type="text/css">
	.st0{fill:#F2F2F2;}
	.st1{fill:#D8D8D8;}
	.st2{fill:#2F1440;}
	.st3{fill:#69407F;}
	.st4{fill:#572574;}
	.st5{fill:none;stroke:#2F1440;stroke-width:7.5205;stroke-miterlimit:10;}
	.st6{fill:none;stroke:#D5BFE3;stroke-width:7.5205;stroke-miterlimit:10;}
	.st7{fill:#A45ECF;}
	.st8{fill:#E57700;}
	.st9{fill:#FAAC18;}
	.st10{opacity:0.3;fill:url(#SVGID_1_);}
</style>
<g>
	<circle class="st0" cx="71" cy="72" r="65"/>
	<ellipse class="st1" cx="71" cy="123" rx="25" ry="10"/>
</g>
<g>
	<path class="st2" d="M45.5,118.4L45.5,118.4l-0.2-0.2C25.2,97.8,19.9,68.7,32.2,45.9l16.5-30.4c7.6,4.1,16.7,2,20.4-4.8l53.7,25
		l-0.4,3.9c-3.2,5.9,7.5,15.8,7.5,15.8s-0.2,2.9-0.4,3.9L113,89.9C100.7,112.6,73.6,124.1,45.5,118.4z"/>
	<path class="st3" d="M45.9,114.4L45.9,114.4l-0.2-0.2C25.5,93.8,20.3,64.8,32.6,42l16.5-30.4c7.6,4.1,16.7,2,20.4-4.8l53.3,28.9
		c-3.7,6.8-0.5,15.6,7.1,19.8l-16.6,30.5C101.1,108.7,74,120.1,45.9,114.4z"/>
	<path class="st4" d="M45.7,114.3l0.2,0.2l0,0c28.1,5.7,55.2-5.7,67.5-28.5L130,55.4c-7.6-4.1-10.8-13-7.1-19.8l0,0
		c-12.2-6.6-27.3,1.9-27.7,15.8C95,58,93.3,65.3,89.3,73.1C68.7,113.3,45.7,114.3,45.7,114.3z"/>
	<path class="st5" d="M52.9,68.7L65.2,46C70,37.2,81,33.9,89.8,38.7l0,0c8.8,4.8,12.1,15.8,7.3,24.6L84.8,86"/>
	<path class="st6" d="M51.4,65.3l12.3-22.7c4.8-8.8,15.8-12.1,24.6-7.3l0,0c8.8,4.8,12.1,15.8,7.3,24.6L83.3,82.5"/>
	<g>
		<path class="st7" d="M100.4,45c-1-3.3-2.7-6.2-5-8.6c0.9,1.5,1.6,3.2,2.2,4.9c1.7,5.5,1,11.4-1.7,16.5L83.6,80.5l-2.4-1.3
			l-0.9,1.7l6.1,3.3l12.3-22.7C101.5,56.4,102.1,50.5,100.4,45z"/>
	</g>
	<g>
		<path class="st7" d="M54.5,66.9l12.3-22.7c1.9-3.4,5-6,8.7-7.1c2.5-0.8,5.2-0.8,7.7-0.2c-8.3-3.1-17.9,0.3-22.2,8.4L50.4,64.7
			L54.5,66.9z"/>
	</g>
	<path class="st2" d="M77.6,107.9L41.7,88.5c-2.1-1.1-2.9-3.7-1.7-5.8l16.4-30.2l42.4,22.9c0.6,0.3,0.8,1.1,0.5,1.7l-15.8,29.2
		C82.2,108.3,79.6,109.1,77.6,107.9z"/>
	<path class="st8" d="M76.6,104L40.7,84.6c-2.1-1.1-4-4.5-1.7-8.5c4-6.9,16.3-27.5,16.3-27.5L97.5,68c0.6,0.3,1,4.5,0.7,5.1
		l-15.8,29.1C81.3,104.3,78.7,105.1,76.6,104z"/>
	<path class="st9" d="M66.1,95l-16.9-9.2c-7.3-4-10.1-13.1-6.1-20.4l10.7-19.9c0.3-0.5,0.9-0.7,1.3-0.4l41.7,22.6
		c0.5,0.3,0.7,0.9,0.4,1.3L86.5,88.9C82.6,96.2,73.4,98.9,66.1,95z"/>
	<path class="st2" d="M71.8,69.5c-1.7-1.7-4.4-1.7-6.1,0c-1.4,1.4-1.6,3.5-0.7,5.1l-4.2,4.9c-0.3,0.4-0.2,1,0.2,1.2l5.3,2.9
		c0.4,0.2,1,0,1.1-0.5l1.6-6.2c1-0.1,2-0.5,2.7-1.2C73.5,73.9,73.5,71.2,71.8,69.5z"/>
	
		<linearGradient id="SVGID_1_" gradientUnits="userSpaceOnUse" x1="-27.122" y1="1757.2197" x2="-4.7777" y2="1769.6139" gradientTransform="matrix(0.7071 0.7071 -0.7071 0.7071 1317.9537 -1176.1903)">
		<stop  offset="0" style="stop-color:#FFFFFF"/>
		<stop  offset="1" style="stop-color:#FFFFFF;stop-opacity:0"/>
	</linearGradient>
	<path class="st10" d="M41.5,79.6l0.3,0.2l13.3-4.9c-0.1-3.2,1-6.4,3.4-8.8c4.6-4.6,12.1-4.6,16.7,0c0.4,0.4,0.7,0.7,1,1.1l10-3.6
		L55.7,47c-0.4-0.2-1-0.1-1.2,0.4L39.9,74.3C38.9,76.2,39.6,78.6,41.5,79.6z"/>
</g>
</svg>
