<?xml version="1.0" encoding="utf-8"?>
<!-- Generator: Adobe Illustrator 21.0.0, SVG Export Plug-In . SVG Version: 6.00 Build 0)  -->
<svg version="1.1" id="Layer_2" xmlns="http://www.w3.org/2000/svg" xmlns:xlink="http://www.w3.org/1999/xlink" x="0px" y="0px"
	 width="140px" height="140px" viewBox="0 0 140 140" style="enable-background:new 0 0 140 140;" xml:space="preserve">
<style type="text/css">
	.st0{fill:#F2F2F2;}
	.st1{fill:#D8D8D8;}
	.st2{fill:#572574;}
	.st3{fill:#69407F;}
	.st4{fill:#E57700;}
	.st5{fill:#FAAC18;}
	.st6{opacity:0.9;fill:url(#SVGID_1_);}
	.st7{fill:#A45ECF;}
	.st8{display:none;fill:#572574;}
	.st9{display:none;fill:#69407F;}
	.st10{fill:none;stroke:#D5BFE3;stroke-width:3;stroke-linecap:round;stroke-linejoin:round;stroke-miterlimit:10;}
	.st11{display:none;fill:#FFFFFF;}
</style>
<g>
	<circle class="st0" cx="71" cy="72" r="65"/>
	<ellipse class="st1" cx="71" cy="123" rx="25" ry="10"/>
</g>
<circle class="st2" cx="72.7" cy="67.6" r="26.8"/>
<ellipse transform="matrix(0.6169 -0.7871 0.7871 0.6169 -21.1828 67.3614)" class="st3" cx="58.6" cy="55.4" rx="12.1" ry="6.1"/>
<g>
	<path class="st2" d="M96,27.1L57.6,68.6c-1,1.1-0.5,2.8,0.9,3.2l13,3.8l-25,38.8c-0.9,1.5,1.1,3.1,2.4,1.9l43.8-43.3
		c1.1-1.1,0.6-2.9-0.9-3.2L78.3,66l20.1-37.1C99.3,27.3,97.2,25.8,96,27.1z"/>
	<path class="st4" d="M93,24.4L55.9,67c-0.9,1.1-0.4,2.8,1,3.1L70,73.6L46.2,113c-0.9,1.6,1.2,3.1,2.4,1.8l42.5-44.6
		c1-1.1,0.5-2.9-1-3.2l-13.7-3.3l19-37.7C96.3,24.5,94.2,23,93,24.4z"/>
	<path class="st4" d="M91.3,67.8l-1.7-2.7l-1.8,2.6c0,0,2,3.5,2.1,3.3C89.8,70.6,91.3,67.8,91.3,67.8z"/>
	<path class="st4" d="M95.2,24.3l-3.4-3l-3.7,6.8c0,0,3.9,0.8,4.1,0.1C92.4,27.6,95.2,24.3,95.2,24.3z"/>
	<path class="st5" d="M89.7,21.6L54.1,65.5c-0.9,1.1-0.3,2.8,1.1,3.1l13.2,2.9L46,111.8c-0.8,1.6,1.3,3,2.5,1.7l41-46
		c1-1.1,0.4-2.9-1.1-3.2l-13.8-2.8l17.7-38.3C93,21.5,90.9,20.2,89.7,21.6z"/>
	
		<linearGradient id="SVGID_1_" gradientUnits="userSpaceOnUse" x1="-50.7919" y1="288.8566" x2="-24.2645" y2="240.5344" gradientTransform="matrix(0.9951 9.922282e-02 -9.922282e-02 0.9951 128.5419 -171.8119)">
		<stop  offset="0" style="stop-color:#DBBB54"/>
		<stop  offset="0.7703" style="stop-color:#7B6C37;stop-opacity:0"/>
		<stop  offset="1" style="stop-color:#000000;stop-opacity:0"/>
	</linearGradient>
	<path class="st6" d="M70.1,72.5l-21.6,37.3c-0.3,0.5,0.4,1,0.8,0.5l30.4-36.2"/>
</g>
<g>
	<g>
		<path class="st7" d="M45,53.4c1.8-4.4,3.9-8.7,6.2-12.9c2.3-4.2,5-8.2,7.9-12c2.9-3.8,6.2-7.4,9.7-10.7c3.6-3.2,7.6-6.1,12-8.3
			c4.4-2.1,9.4-3.5,14.5-2.8c2.5,0.3,5,1.2,7.2,2.6c2.2,1.3,4.1,3.2,5.6,5.2c3,4.1,4.7,8.9,5.6,13.7c0.9,4.8,1.1,9.7,0.9,14.6
			c-0.5,9.7-2.7,19.2-5.9,28.3c-3.3,9.1-7.6,17.8-13,25.8c-5.4,8-11.8,15.4-19.7,21c-3.9,2.8-8.2,5.2-12.9,6.4
			c-2.3,0.6-4.8,1-7.2,0.9c-2.4-0.1-4.8-0.7-6.9-1.7c4.5,1.8,9.4,1.5,13.9,0.1c4.5-1.4,8.6-4,12.3-6.8c3.7-2.9,7.1-6.2,10.2-9.8
			c3.1-3.6,5.9-7.4,8.4-11.4c5-8,9.2-16.5,12.3-25.4c3.1-8.9,5.2-18.2,5.6-27.5c0.2-4.7,0-9.4-0.8-13.9c-0.9-4.5-2.4-9-5-12.6
			c-1.3-1.8-2.9-3.4-4.8-4.6c-1.8-1.2-3.9-2-6.1-2.3c-4.4-0.7-9,0.4-13.2,2.3c-2.1,1-4.1,2.1-6.1,3.4c-1.9,1.3-3.8,2.7-5.6,4.2
			c-3.6,3-6.9,6.4-9.9,10.1C54.1,36.7,49.2,44.9,45,53.4z"/>
	</g>
	<path class="st8" d="M71.4,46.4c-6.6-6-16.1-8.7-25.4-6.4c-12.5,3.1-20.9,14.2-21.1,26.5c0,0-0.1,0-0.1,0
		c-9.4,2.3-15.1,11.8-12.8,21.2s11.8,15.1,21.2,12.8c4.4-1.1,43.3-10.8,46.7-11.6C91.5,86,98.6,74.2,95.7,62.6
		C93,51.6,82.3,44.7,71.4,46.4z"/>
	<path class="st9" d="M66.1,42.5c-6.6-6-16.1-8.7-25.4-6.4c-12.5,3.1-20.9,14.2-21.1,26.5c0,0-0.1,0-0.1,0
		C10.1,65,4.3,74.5,6.7,83.9S18.5,99,27.9,96.7c4.4-1.1,43.3-10.8,46.7-11.6c11.6-2.9,18.7-14.7,15.8-26.3
		C87.7,47.7,77.1,40.8,66.1,42.5z"/>
	<path class="st10" d="M54.9,92.9C27.2,78.6,10.6,56.3,17.3,41.2c7.2-16.3,38.6-18.1,70.2-4.1"/>
	<path class="st10" d="M87.5,37.1c31.5,14,51.3,38.5,44,54.8c-6.7,15-34,17.7-63,7"/>
	<path class="st8" d="M92.1,38.3c-0.3,0.1-0.5,0.1-0.8,0.2c-2.8-4-7.9-6.1-12.9-4.9c-6.6,1.6-10.6,8.2-9,14.8
		c1.6,6.6,8.2,10.6,14.8,9c2.4-0.6,9.9-2.4,11.9-2.9c4.5-1.1,7.2-5.6,6.1-10.1C101.1,39.9,96.6,37.2,92.1,38.3z"/>
	<path class="st11" d="M88.5,36.1c-0.3,0.1-0.5,0.1-0.8,0.2c-2.8-4-7.9-6.1-12.9-4.9c-6.6,1.6-10.6,8.2-9,14.8
		c1.6,6.6,8.2,10.6,14.8,9c2.4-0.6,9.9-2.4,11.9-2.9c4.5-1.1,7.2-5.6,6.1-10.1C97.5,37.8,93,35.1,88.5,36.1z"/>
	<circle class="st7" cx="60.2" cy="28.6" r="2.8"/>
	<circle class="st7" cx="112.2" cy="51.7" r="3.2"/>
	<circle class="st7" cx="89.4" cy="104.1" r="2.9"/>
</g>
</svg>
