<?xml version="1.0" encoding="utf-8"?>
<!-- Generator: Adobe Illustrator 21.0.0, SVG Export Plug-In . SVG Version: 6.00 Build 0)  -->
<svg version="1.1" id="Layer_1" xmlns="http://www.w3.org/2000/svg" xmlns:xlink="http://www.w3.org/1999/xlink" x="0px" y="0px"
	 width="140px" height="140px" viewBox="0 0 140 140" style="enable-background:new 0 0 140 140;" xml:space="preserve">
<style type="text/css">
	.st0{fill:#F2F2F2;}
	.st1{fill:#D8D8D8;}
	.st2{fill:#572574;}
	.st3{fill:#69407F;}
	.st4{fill:#833ECC;}
	.st5{fill:#E57700;}
	.st6{fill:#FAAC18;}
	.st7{fill:#FEC800;}
</style>
<circle class="st0" cx="71" cy="72" r="65"/>
<ellipse class="st1" cx="71" cy="123" rx="25" ry="10"/>
<path class="st2" d="M138.4,88c2.5-40.2-30.1-19.5-37.1,4.5c2.6-3.2,13-6.9,13-6.9v8.8l-44.3,24.1L59.2,69.2c0,0,4.3,4.8,7.3,7.4
	c9.8-30.7,80.3-45.6,72.3,11.1"/>
<path class="st3" d="M138.4,88c2.5-40.2-30.1-28.4-37.1-4.4c4.2,0.5,13,1.9,13,1.9l-44.3,24.1L59.2,60.2c0,0,4.3,4.8,7.3,7.4
	c9.8-30.7,80.3-36.7,72.3,20"/>
<g>
	<path class="st4" d="M114.3,85.5c-3.6,2.2-7.2,4.3-10.9,6.4C99.7,94,96,96,92.3,98c-3.7,2-7.4,4-11.1,5.9l-5.6,2.9
		c-1.9,0.9-3.8,1.9-5.7,2.8c1.8-1.1,3.6-2.2,5.4-3.2l5.5-3.1c3.7-2.1,7.4-4.1,11-6.1c3.7-2,7.4-4,11.1-5.9
		C106.7,89.3,110.5,87.3,114.3,85.5z"/>
</g>
<polygon class="st2" points="65,89.8 78.6,89.6 95,46 83,50.5 61,73 "/>
<path class="st5" d="M2.2,70c-2.5-40.2,37-34.8,44.1-9.5c-1.8-3.9-13-7-13-7l0,8.9l44.3,24.1l10.8-49.4l0.1-9c0,0-5.7,14.9-7.5,16.4
	C71.2,13.9-6.3,13,1.8,69.7"/>
<path class="st6" d="M2.2,70c-2.5-40.2,36.3-44.8,44.1-18.4c-4.2,0.5-13,1.9-13,1.9l44.3,24.1l10.8-49.4c0,0-4.3,4.8-7.3,7.4
	C69.5,2-4.6,12.7,1.8,69.7"/>
<g>
	<path class="st7" d="M33.3,53.5c7.5,3.8,14.9,7.8,22.4,11.7c3.7,2,7.4,4,11.1,6l11.1,6l-0.7,0.3l2.7-12.3c0.9-4.1,1.8-8.2,2.8-12.3
		l2.8-12.3l2.9-12.3l-2.4,12.4L83.4,53c-0.8,4.1-1.7,8.2-2.6,12.4l-2.6,12.4c-0.1,0.3-0.3,0.4-0.6,0.4c0,0-0.1,0-0.1-0.1L66.3,72
		c-3.7-2-7.4-4-11.1-6.1C47.9,61.8,40.6,57.7,33.3,53.5z"/>
</g>
</svg>
