<?xml version="1.0" encoding="utf-8"?>
<!-- Generator: Adobe Illustrator 21.0.0, SVG Export Plug-In . SVG Version: 6.00 Build 0)  -->
<svg version="1.1" id="Layer_2" xmlns="http://www.w3.org/2000/svg" xmlns:xlink="http://www.w3.org/1999/xlink" x="0px" y="0px"
	 width="140px" height="140px" viewBox="0 0 140 140" style="enable-background:new 0 0 140 140;" xml:space="preserve">
<style type="text/css">
	.st0{fill:#F2F2F2;}
	.st1{fill:#D8D8D8;}
	.st2{fill:none;stroke:#FAAC18;stroke-width:3;stroke-linecap:round;stroke-linejoin:round;stroke-miterlimit:10;}
	.st3{fill:none;stroke:#A45ECF;stroke-width:3;stroke-linecap:round;stroke-linejoin:round;stroke-miterlimit:10;}
	.st4{fill:#2F1440;}
	.st5{fill:#572574;}
	.st6{fill:#69407F;}
	.st7{fill:#833ECC;}
	.st8{fill:none;stroke:#D5BFE3;stroke-width:3;stroke-linecap:round;stroke-linejoin:round;stroke-miterlimit:10;}
	.st9{fill:none;stroke:#2F1440;stroke-width:3;stroke-linecap:round;stroke-linejoin:round;stroke-miterlimit:10;}
	.st10{fill:none;stroke:#FAAC18;stroke-width:3;stroke-linecap:round;stroke-linejoin:round;}
	
		.st11{fill:none;stroke:#FAAC18;stroke-width:3;stroke-linecap:round;stroke-linejoin:round;stroke-dasharray:0.7474,3.7369,3.7369,0.7474;}
	.st12{opacity:0.5;fill:#572574;}
</style>
<g>
	<circle class="st0" cx="71" cy="72" r="65"/>
	<ellipse class="st1" cx="71" cy="123" rx="25" ry="10"/>
</g>
<path class="st2" d="M132.9,39.2c-15.7,8.9-15.2-15.9-28.8-14.8c-8.6,0.7-14.4,7.2-22.9,22.1c-10,17.6-16.1,42.6-23.6,51.8
	C32.7,129,19,84.7,2.3,92"/>
<path class="st3" d="M138,41.6c-22.8,20.7-14.1-31.7-36.4-30.2C92,12,85.2,30,76.7,46.9C69,62,57.2,87.4,51,97.3
	c-10,16-28.3,24-45,2"/>
<g>
	<polygon class="st4" points="80,109 111.4,102.5 118.8,80.9 86.4,86.4 	"/>
	<path class="st5" d="M79.3,108.8L13.7,85.4c-1-0.4-1.6-1.5-1.2-2.5L17.6,64c0.4-1,1.5-1.6,2.5-1.2l65.6,23.4c1,0.4,1.6,1.5,1.2,2.5
		l-5.1,18.9C81.5,108.7,80.4,109.2,79.3,108.8z"/>
	<path class="st6" d="M83.6,86.8l-65-23c-0.5-0.2-0.5-0.9,0.1-1l32-5.9c0.9-0.2,1.9-0.1,2.8,0.2l65.1,23c0.5,0.2,0.5,0.9-0.1,1
		l-31.1,5.9C86.1,87.4,84.8,87.3,83.6,86.8z"/>
	<g>
		<path class="st7" d="M118.5,81.2c-8.5,1.8-17,3.5-25.6,5.2l-3.2,0.6l-1.6,0.3c-0.5,0.1-1.1,0.2-1.7,0.3c-1.1,0.1-2.3-0.1-3.4-0.5
			L80,86l-12.3-4.3l-24.6-8.8l-12.3-4.5l-12.2-4.6L31,68l12.4,4.2L68,80.8l12.3,4.4l3.1,1.1c1,0.4,2,0.6,3,0.5
			c1-0.1,2.1-0.4,3.2-0.5l3.2-0.6C101.3,84.2,109.9,82.6,118.5,81.2z"/>
	</g>
</g>
<g>
	<polygon class="st4" points="87.6,84.2 119,77.7 126.4,56.1 94,61.6 	"/>
	<path class="st5" d="M86.9,84L21.3,60.6c-1-0.4-1.6-1.5-1.2-2.5l5.1-18.9c0.4-1,1.5-1.6,2.5-1.2l65.6,23.4c1,0.4,1.6,1.5,1.2,2.5
		l-5.1,18.9C89.1,83.8,88,84.4,86.9,84z"/>
	<path class="st6" d="M91.2,62l-65-23c-0.5-0.2-0.5-0.9,0.1-1l32-5.9c0.9-0.2,1.9-0.1,2.8,0.2l65.1,23c0.5,0.2,0.5,0.9-0.1,1
		L95,62.3C93.7,62.5,92.4,62.4,91.2,62z"/>
	<g>
		<path class="st7" d="M126.1,56.4c-8.5,1.8-17,3.5-25.6,5.2l-3.2,0.6l-1.6,0.3c-0.5,0.1-1.1,0.2-1.7,0.3c-1.1,0.1-2.3-0.1-3.4-0.5
			l-3.1-1.1l-12.3-4.3l-24.6-8.8l-12.3-4.5L26.2,39l12.4,4.1L51,47.4L75.6,56l12.3,4.4l3.1,1.1c1,0.4,2,0.6,3,0.5
			c1-0.1,2.1-0.4,3.2-0.5l3.2-0.6C109,59.3,117.5,57.8,126.1,56.4z"/>
	</g>
</g>
<line class="st8" x1="29" y1="47.1" x2="60.8" y2="58.9"/>
<line class="st9" x1="21.1" y1="71.4" x2="52.9" y2="83.2"/>
<line class="st9" x1="19.6" y1="76.6" x2="35.3" y2="82.4"/>
<g>
	<g>
		<line class="st10" x1="65.5" y1="60.6" x2="67.8" y2="61.4"/>
		<line class="st11" x1="71.3" y1="62.7" x2="79.4" y2="65.7"/>
		<line class="st10" x1="79.7" y1="65.8" x2="82.1" y2="66.7"/>
	</g>
</g>
<path class="st4" d="M86.1,57l-43-15.2c-0.3-0.1-0.3-0.6,0.1-0.7l21.2-3.9c0.6-0.1,1.2-0.1,1.8,0.1l43.1,15.2
	c0.3,0.1,0.3,0.6-0.1,0.7l-20.6,3.9C87.8,57.4,86.9,57.3,86.1,57z"/>
<path class="st12" d="M52.4,45.1L86.1,57c0.8,0.3,1.7,0.3,2.5,0.2l9.2-1.7l1.5-4l-46.5-8.3L52.4,45.1z"/>
<path class="st6" d="M83.2,54.1L53,43.4c-0.2-0.1-0.2-0.4,0-0.5l14.8-2.7c0.4-0.1,0.9,0,1.3,0.1L99.4,51c0.2,0.1,0.2,0.4,0,0.5
	l-14.4,2.7C84.3,54.3,83.7,54.3,83.2,54.1z"/>
</svg>
