<svg xmlns="http://www.w3.org/2000/svg" xmlns:xlink="http://www.w3.org/1999/xlink" viewBox="0 0 86 86" xmlns:v="https://vecta.io/nano"><circle cx="43" cy="43" r="42" fill="#f2f2f2"/><ellipse cx="43.66" cy="75.64" rx="16.11" ry="5.44" fill="#d8d8d8"/><rect x="13.72" y="14.9" width="64.58" height="56.21" rx="3.31" fill="#545ec5"/><rect x="11.61" y="14.9" width="64.58" height="56.21" rx="3.31" fill="#8b96de"/><path d="M11.61 67.8l-.45-42.29-.02-7.05c-.1-1.27.55-2.7 1.69-3.43 1.07-.77 2.46-.63 3.69-.64l28.19.11 28.19.38-28.19.38-28.19.11c-1.09.03-2.21-.18-3.15.46-.85.57-1.34 1.53-1.28 2.61l-.02 7.05-.45 42.29h0z" fill="#b0bcf4"/><path d="M14.91,67.93c-.07,0-.13-.06-.13-.13l.13-45.86h57.97l.13,45.86c0,.07-.06.13-.13.13H14.91Z" fill="#bcd2f9"/><path d="M72.88,21.94H14.91l-.09,21.11c0,3.27,2.61,5.92,5.83,5.92s5.83-2.65,5.83-5.92c0,3.27,2.61,5.92,5.83,5.92s5.69-2.52,5.82-5.68h.02c.13,3.16,2.68,5.68,5.82,5.68,2.88,0,5.27-2.12,5.74-4.91.47,2.79,2.86,4.91,5.74,4.91,3.22,0,5.83-2.65,5.83-5.92,0,3.27,2.61,5.92,5.83,5.92s5.83-2.65,5.83-5.92l-.06-21.11Z" fill="#a8b7ee"/><path d="M72.89 21.94L59.06 40.36h-.82l-45.62.01c-6.86 0-11.65 0-11.65-.01l.41-.54 13.53-17.88h57.98z" fill="#ffa733"/><path d="M12.62 40.36l13.95-18.42H38.1L24.28 40.37H12.62zm23.14 0l13.95-18.42h11.53L47.42 40.37H35.76z" fill="#ffca83"/><path d="M12.62,40.37c0,.23-.01.47-.04.69-.34,2.95-2.8,5.23-5.78,5.23s-5.53-2.36-5.8-5.37c-.02-.18-.03-.36-.03-.55h11.65Z" fill="#f29101"/><use xlink:href="#B" fill="#ffa733"/><use xlink:href="#B" x="11.66" fill="#f29101"/><use xlink:href="#B" x="23.14" fill="#ffa733"/><use xlink:href="#B" x="34.8" fill="#f29101"/><path d="M58.53 40.37c-14.06.58-29.85.72-43.93.7-.68 0-1.35-.01-2.02-.01L1 40.92c-.02-.18-.03-.36-.03-.55h9.19c-5.51 0-9.19 0-9.19-.01l.41-.54c18.67-.33 38.22-.17 56.86.54.1 0 .19.01.29.01z" fill="#ffca83"/><g opacity=".8" fill="#545ec5"><circle cx="16.94" cy="18.32" r="1.36"/><circle cx="20.99" cy="18.32" r="1.36"/><circle cx="25.05" cy="18.32" r="1.36"/></g><rect x="31.54" y="17.25" width="25.83" height="2.14" rx="1.07" fill="#bcd2f9"/><defs ><path id="B" d="M24.28,40.37c0,3.27-2.61,5.92-5.83,5.92s-5.83-2.65-5.83-5.92h11.66Z"/></defs></svg>